<svg xmlns="http://www.w3.org/2000/svg" xmlns:xlink="http://www.w3.org/1999/xlink" width="3973.59" height="2981.4" viewBox="0 0 3973.59 2981.4">
  <defs>
    <clipPath id="clip-path">
      <rect x="0.12" y="0.52" width="2649.6" height="2980.8" style="fill: none"/>
    </clipPath>
    <clipPath id="clip-path-2">
      <rect x="3311.59" y="1657.17" width="662" height="662" style="fill: none"/>
    </clipPath>
    <clipPath id="clip-path-3">
      <rect x="2649.59" y="995.17" width="662" height="662" style="fill: #ff40ff"/>
    </clipPath>
  </defs>
  <title>hiring-hero_1</title>
  <g id="Layer_2" data-name="Layer 2">
    <g id="Layer_1-2" data-name="Layer 1">
      <polygon points="1324.92 2318.92 1192.44 2318.92 1324.92 2186.44 1324.92 2318.92" style="fill: #fff"/>
      <polygon points="1192.44 2053.96 1324.92 1921.48 1324.92 2053.96 1192.44 2186.44 1059.96 2318.92 927.48 2318.92 1059.96 2186.44 1192.44 2053.96" style="fill: #fff"/>
      <polygon points="927.48 2053.96 1059.96 1921.48 1192.44 1789 1324.92 1656.52 1324.92 1789 1192.44 1921.48 1059.96 2053.96 927.48 2186.44 795 2318.92 662.52 2318.92 795 2186.44 927.48 2053.96" style="fill: #fff"/>
      <polygon points="927.48 1921.48 795 2053.96 662.52 2186.44 662.52 2053.96 795 1921.48 927.48 1789 1059.96 1656.52 1192.44 1656.52 1059.96 1789 927.48 1921.48" style="fill: #fff"/>
      <polygon points="662.52 1921.48 662.52 1789 795 1656.52 927.48 1656.52 795 1789 662.52 1921.48" style="fill: #fff"/>
      <rect x="1987.32" y="994.12" width="662.4" height="662.4" style="fill: #0054a8"/>
      <polygon points="0.12 1656.52 662.52 1656.52 662.52 994.12 0.12 1656.52" style="fill: #fff"/>
      <g style="clip-path: url(#clip-path)">
        <path d="M1324.92,1656.52c0-182.91,148.29-331.2,331.2-331.2s331.2,148.29,331.2,331.2V994.12h-662.4Z" style="fill: #ffabff"/>
        <path d="M662.52,1656.52c365.84,0,662.4,296.57,662.4,662.4v-662.4Z" style="fill: #40cfff"/>
        <path d="M1656.12,1987.72c-182.91,0-331.2-148.28-331.2-331.2l-1.8,1324.8h664.2V1656.52c0,182.92-148.28,331.2-331.2,331.2" style="fill: #004080"/>
      </g>
      <rect x="1987.32" y="2318.92" width="662.4" height="662.4" style="fill: #ff9580"/>
      <path d="M1656,332h331V.8C1804.08.8,1655.8,149.08,1655.8,332" style="fill: #004080"/>
      <path d="M1656.12,1325.8c-182.91,0-331.2,148.28-331.2,331.2h662.4c0-182.92-148.28-331.2-331.2-331.2" style="fill: #a800a8"/>
      <path d="M1656.12,1988.2c182.92,0,331.2-148.28,331.2-331.2h-662.4c0,182.92,148.29,331.2,331.2,331.2" style="fill: #ffd6ff"/>
      <path d="M2318.52,663.2c182.92,0,331.2-148.28,331.2-331.2h-662.4c0,182.92,148.29,331.2,331.2,331.2" style="fill: #40cfff"/>
      <path d="M2318.52,994.2c182.92,0,331.2-148.28,331.2-331.2h-662.4c0,182.92,148.29,331.2,331.2,331.2" style="fill: #0054a8"/>
      <path d="M1987,663V332H1655.8c0,182.92,148.28,331.2,331.2,331.2" style="fill: #fff"/>
      <path d="M1656,994V663H1324.8c0,182.92,148.28,331.2,331.2,331.2" style="fill: #ffcf40"/>
      <path d="M1656,663V332H1324.8c0,182.92,148.28,331.2,331.2,331.2" style="fill: #ff5f40"/>
      <path d="M1987,994V663H1655.8c0,182.92,148.28,331.2,331.2,331.2" style="fill: #80bfff"/>
      <path d="M2318.52,1987.8c-182.91,0-331.2,148.28-331.2,331.2h662.4c0-182.92-148.28-331.2-331.2-331.2" style="fill: #fff"/>
      <path d="M2318.52,2650.2c182.92,0,331.2-148.28,331.2-331.2h-662.4c0,182.92,148.29,331.2,331.2,331.2" style="fill: #0080ff"/>
      <path d="M1,2319H663V1656.6C297.17,1656.6.6,1953.17.6,2319" style="fill: #abeaff"/>
      <path d="M.6,2319c0,365.83,296.57,662.4,662.4,662.4V2319Z" style="fill: #a040ff"/>
      <path d="M2442.72,1159.72a41.4,41.4,0,1,0,41.4-41.4,41.4,41.4,0,0,0-41.4,41.4" style="fill: #00bfff"/>
      <path d="M2442.72,1325.32a41.4,41.4,0,1,0,41.4-41.4,41.4,41.4,0,0,0-41.4,41.4" style="fill: #00bfff"/>
      <path d="M2442.72,1490.92a41.4,41.4,0,1,0,41.4-41.4,41.4,41.4,0,0,0-41.4,41.4" style="fill: #00bfff"/>
      <path d="M2277.12,1159.72a41.4,41.4,0,1,0,41.4-41.4,41.4,41.4,0,0,0-41.4,41.4" style="fill: #00bfff"/>
      <path d="M2277.12,1325.32a41.4,41.4,0,1,0,41.4-41.4,41.4,41.4,0,0,0-41.4,41.4" style="fill: #00bfff"/>
      <path d="M2111.52,1159.72a41.4,41.4,0,1,0,41.4-41.4,41.4,41.4,0,0,0-41.4,41.4" style="fill: #00bfff"/>
      <path d="M2111.52,1325.32a41.4,41.4,0,1,0,41.4-41.4,41.4,41.4,0,0,0-41.4,41.4" style="fill: #00bfff"/>
      <path d="M2277.12,1490.92a41.4,41.4,0,1,0,41.4-41.4,41.4,41.4,0,0,0-41.4,41.4" style="fill: #00bfff"/>
      <path d="M2111.52,1490.92a41.4,41.4,0,1,0,41.4-41.4,41.4,41.4,0,0,0-41.4,41.4" style="fill: #00bfff"/>
      <path d="M2318.2,332C2318.2,149.08,2169.92.8,1987,.8V332Z" style="fill: #ff40ff"/>
      <rect width="2650" height="2981" style="fill: none"/>
      <path d="M3642.59,333.17c-182.81,0-331,148.19-331,331h662C3973.59,481.36,3825.4,333.17,3642.59,333.17Z" style="fill: #abeaff"/>
      <path d="M3642.59,664.17c-182.81,0-331,148.19-331,331h662C3973.59,812.36,3825.4,664.17,3642.59,664.17Z" style="fill: #ffcf40"/>
      <g style="clip-path: url(#clip-path-2)">
        <g>
          <polygon points="3311.59 1657.17 3443.99 1657.17 3311.59 1789.57 3311.59 1657.17" style="fill: #80bfff"/>
          <polygon points="3443.99 1921.97 3311.59 2054.37 3311.59 1921.97 3443.99 1789.57 3576.39 1657.17 3708.79 1657.17 3576.39 1789.57 3443.99 1921.97" style="fill: #80bfff"/>
          <polygon points="3708.79 1921.97 3576.39 2054.37 3443.99 2186.77 3311.59 2319.17 3311.59 2186.77 3443.99 2054.37 3576.39 1921.97 3708.79 1789.57 3841.19 1657.17 3973.59 1657.17 3841.19 1789.57 3708.79 1921.97" style="fill: #80bfff"/>
          <polygon points="3708.79 2054.37 3841.19 1921.97 3973.59 1789.57 3973.59 1921.97 3841.19 2054.37 3708.79 2186.77 3576.39 2319.17 3443.99 2319.17 3576.39 2186.77 3708.79 2054.37" style="fill: #80bfff"/>
          <polygon points="3973.59 2054.37 3973.59 2186.77 3841.19 2319.17 3708.79 2319.17 3841.19 2186.77 3973.59 2054.37" style="fill: #80bfff"/>
        </g>
      </g>
      <path d="M3311.59,2981.17c0-365.61,296.39-662,662-662v662Z" style="fill: #0054a8"/>
      <rect x="2649.59" y="2319.17" width="662" height="662" transform="translate(5961.18 5300.34) rotate(180)" style="fill: #ff5f40"/>
      <rect x="2649.59" y="1657.17" width="662" height="662" style="fill: #a040ff"/>
      <g>
        <circle cx="2815.09" cy="2153.67" r="55.17" style="fill: #fff"/>
        <circle cx="2815.09" cy="1822.67" r="55.17" style="fill: #fff"/>
        <circle cx="3146.09" cy="2153.67" r="55.17" style="fill: #fff"/>
        <circle cx="3146.09" cy="1822.67" r="55.17" style="fill: #fff"/>
      </g>
      <rect x="3311.59" y="995.17" width="662" height="662" style="fill: #ff9580"/>
      <g>
        <circle cx="3808.09" cy="1491.67" r="55.17" style="fill: #fff"/>
        <circle cx="3477.09" cy="1491.67" r="55.17" transform="translate(-36.35 2895.57) rotate(-45)" style="fill: #fff"/>
        <circle cx="3808.09" cy="1160.67" r="55.17" style="fill: #fff"/>
        <circle cx="3477.09" cy="1160.67" r="55.17" style="fill: #fff"/>
      </g>
      <g>
        <rect x="2649.59" y="995.17" width="662" height="662" style="fill: #ff40ff"/>
        <g style="clip-path: url(#clip-path-3)">
          <g>
            <polygon points="2650.79 997.56 2783.19 997.56 2650.79 1129.48 2650.79 997.56" style="fill: #a800a8"/>
            <polygon points="2783.19 1261.4 2650.79 1393.32 2650.79 1261.4 2783.19 1129.48 2915.59 997.56 3047.99 997.56 2915.59 1129.48 2783.19 1261.4" style="fill: #a800a8"/>
            <polygon points="3047.99 1261.4 2915.59 1393.32 2783.19 1525.25 2650.79 1657.17 2650.79 1525.25 2783.19 1393.32 2915.59 1261.4 3047.99 1129.48 3180.39 997.56 3312.79 997.56 3180.39 1129.48 3047.99 1261.4" style="fill: #a800a8"/>
            <polygon points="3047.99 1393.32 3180.39 1261.4 3312.79 1129.48 3312.79 1261.4 3180.39 1393.32 3047.99 1525.25 2915.59 1657.17 2783.19 1657.17 2915.59 1525.25 3047.99 1393.32" style="fill: #a800a8"/>
            <polygon points="3312.79 1393.32 3312.79 1525.25 3180.39 1657.17 3047.99 1657.17 3180.39 1525.25 3312.79 1393.32" style="fill: #a800a8"/>
          </g>
        </g>
      </g>
    </g>
  </g>
</svg>
