<?xml version="1.0" encoding="UTF-8"?>
<svg width="400px" height="225px" viewBox="0 0 400 225" version="1.1" xmlns="http://www.w3.org/2000/svg" xmlns:xlink="http://www.w3.org/1999/xlink">
    <!-- Generator: Sketch 51.3 (57544) - http://www.bohemiancoding.com/sketch -->
    <title>Artboard</title>
    <desc>Created with Sketch.</desc>
    <defs></defs>
    <g id="Artboard" stroke="none" stroke-width="1" fill="none" fill-rule="evenodd">
        <g id="Asics-Logo" transform="translate(27.000000, 55.000000)" fill="#000066" fill-rule="nonzero">
            <path d="M35.2902713,83.2820513 C28.7073767,83.2820513 25.5432639,78.145859 27.1956504,72.2042251 C30.6070289,59.8896856 52.5278013,41.6410256 67.4659082,41.6410256 C78.3589256,41.6410256 77.5297711,51.5332299 71.1438008,59.9708308 L67.6139715,63.9364281 C54.9530783,76.5454948 43.2161,83.2820513 35.2902713,83.2820513 M89.6583873,0 C70.5067525,0.00744362736 49.4170484,11.7341342 36.1718396,22.8400262 L37.2174749,24.3570374 C57.7761807,9.93277634 86.3028353,0.553805875 94.1666667,14.6222616 C98.3194598,22.0435581 91.2707182,37.0320461 81.3438767,48.8778347 C83.7177513,43.6464534 82.1500421,33.6020226 68.3083899,33.6020226 C45.2984652,33.6020226 0,64.1104737 0,95.333513 C0,107.840296 8.66850945,116 22.9474543,116 C61.1674301,116 113,53.2948831 113,21.8008958 C113,10.6756504 106.60571,0 89.6583873,0" id="Shape"></path>
            <path d="M140.067373,82.106383 C137.891493,82.106383 136.080683,81.3300654 134.947655,79.9127652 C133.766629,78.4270539 133.414648,76.3211808 133.974617,74.1468966 C135.218185,69.4295029 140.191003,65.7234043 145.304904,65.7234043 L157.333333,65.7234043 L153.035388,82.106383 L140.067373,82.106383 Z M174.686737,33.3023808 C171.181823,28.9480631 165.50727,27 161.446608,27 L139.175212,27 L135.394647,41.2458662 L156.398939,41.2458662 L158.411486,41.4599884 C158.432234,41.4599884 160.339559,41.6845922 161.403631,43.1310402 C162.263187,44.3409057 162.389156,46.1377356 161.771165,48.4945774 L160.778229,52.2439624 L147.544029,52.2439624 C136.153428,52.2439624 120.273869,60.5003957 116.733387,73.8358681 C114.972779,80.4856361 116.515534,86.2459732 119.935975,90.4790049 C123.329739,94.6805921 129.734915,97 136.654342,97 L148.910427,97 L148.903017,97 L164.480249,97 L171.786476,69.4321376 L177.16463,49.1683886 C179.276471,41.2009455 176.988273,36.1398746 174.686737,33.3023808 Z" id="Shape"></path>
            <path d="M326.647064,27 C320.647278,27 315.072465,28.801322 310.539425,32.2108066 C305.962117,35.6502385 303.437368,39.7829472 301.932257,45.48339 C298.666756,57.8380928 308.23454,63.8005733 315.92241,68.0276156 C321.436724,71.0582686 326.205859,73.6726561 325.17294,77.5448245 C324.443994,80.3239214 323.247284,82.7556311 316.463955,82.7556311 L295.756875,82.7556311 L292,97 L314.920479,97 C321.066348,97 326.738551,95.7017904 331.308481,92.1410725 C335.882837,88.5683758 338.468087,83.591157 340.06616,77.5163747 C341.600783,71.7350745 340.566389,66.2128174 336.899525,62.0920875 C333.84356,58.6316927 329.44775,56.2284327 325.574303,54.1051787 C320.610388,51.3949603 315.929788,48.8374725 316.74727,45.7379409 C317.247498,43.8617511 319.081668,41.2458662 323.09087,41.2458662 L343.234271,41.2458662 L347,27 L326.647064,27 Z" id="Shape"></path>
            <path d="M204.65242,27 C198.653949,27 193.080463,28.801322 188.545825,32.2108066 C183.968395,35.6502385 181.443577,39.7829472 179.923669,45.48339 C176.665459,57.8380928 186.240878,63.8005733 193.927479,68.0276156 C199.444892,71.0582686 204.20235,73.6726561 203.179733,77.5448245 C202.443389,80.3239214 201.252549,82.7556311 194.469038,82.7556311 L173.764354,82.7556311 L170,97 L192.919618,97 C199.073031,97 204.74391,95.7017904 209.313962,92.1410725 C213.89582,88.5683758 216.475236,83.591157 218.073353,77.5163747 C219.602114,71.7350745 218.566216,66.2128174 214.914011,62.0920875 C211.857963,58.6316927 207.454658,56.2284327 203.573728,54.1051787 C198.617058,51.3949603 193.942235,48.8374725 194.761215,45.7379409 C195.252602,43.8617511 197.094199,41.2458662 201.096131,41.2458662 L221.228268,41.2458662 L225,27 L204.65242,27 Z" id="Shape"></path>
            <polygon id="Shape" points="236.895442 27 219 97 234.119247 97 252 27"></polygon>
            <path d="M292.891523,27 C265.943817,27.0973262 251.841664,45.1670588 247.365499,62 C242.062506,81.9593583 252.614955,97 271.913029,97 L284.844835,97 L288.630987,82.7559358 L275.703642,82.7559358 C268.480806,82.7559358 258.548477,77.0331551 262.551746,62 C265.731162,50.0513369 277.302273,41.2470588 289.994656,41.2470588 L298.206412,41.2470588 L302,27.0014973 L292.891523,27.0014973 L292.891523,27 Z" id="Shape"></path>
        </g>
    </g>
</svg>