<?xml version="1.0" encoding="UTF-8"?>
<svg width="400px" height="225px" viewBox="0 0 400 225" version="1.1" xmlns="http://www.w3.org/2000/svg" xmlns:xlink="http://www.w3.org/1999/xlink">
    <!-- Generator: Sketch 51.3 (57544) - http://www.bohemiancoding.com/sketch -->
    <title>Artboard Copy</title>
    <desc>Created with Sketch.</desc>
    <defs></defs>
    <g id="Artboard-Copy" stroke="none" stroke-width="1" fill="none" fill-rule="evenodd">
        <g id="conagra-brands-logo-(1)" transform="translate(65.000000, 16.000000)" fill-rule="nonzero">
            <g id="Group" transform="translate(0.000000, 125.000000)" fill="#000000">
                <path d="M34.6798862,8.398 L28.541006,12.1708571 C26.5218126,9.06636571 23.2724631,7.21761143 19.2848144,7.21761143 C12.7889281,7.21761143 7.97908383,11.99014 7.97908383,18.9731829 C8.00607565,26.1844971 12.9656461,30.7254971 19.2848144,30.7254971 C23.248284,30.7254971 26.4703713,28.93092 28.6188982,25.79934 L34.4483733,30.0088714 C31.2769701,34.6790171 25.8823932,37.6056143 19.3356607,37.6056143 C8.31228942,37.6056143 0.538754491,29.7770714 0.538754491,18.9731286 C0.538754491,8.16701429 8.31283034,0.340642857 19.3356607,0.340642857 C25.9332395,0.340642857 31.7632555,3.36674571 34.6788044,8.39827143" id="Shape"></path>
                <path d="M45.4571397,18.962 C45.4571397,25.9415143 50.2397218,30.7175714 56.8099301,30.7175714 C63.4107545,30.7175714 68.1659661,25.9419486 68.1659661,18.962 C68.1659661,11.9824857 63.410484,7.20642857 56.8099301,7.20642857 C50.2393972,7.20642857 45.4571397,11.9820514 45.4571397,18.962 M75.6349641,18.962 C75.6349641,29.6904857 67.8343832,37.5944857 56.8115529,37.5944857 C45.7914271,37.5944857 38.0178922,29.6904857 38.0178922,18.962 C38.0178922,8.23351429 45.7919681,0.329514286 56.8115529,0.329514286 C67.8349242,0.329514286 75.6349641,8.23351429 75.6349641,18.962" id="Shape"></path>
                <polygon id="Shape" points="114.074232 36.936 107.374419 36.936 89.2163373 12.9379143 89.1923206 36.936 82.0543645 36.936 82.0543645 1.00482857 88.7303764 1.00482857 106.914963 24.9996571 106.914963 1.00482857 114.073474 1.00482857"></polygon>
                <path d="M132.270719,21.9748571 L142.627138,21.9748571 L137.460558,8.0902 L132.270719,21.9748571 Z M155.823377,36.9365429 L148.202381,36.9365429 L145.081987,28.5716571 L129.816194,28.5716571 L126.6958,36.9365429 L119.252225,36.9365429 L133.192227,1.00537143 L141.886945,1.00537143 L155.823377,36.9365429 Z" id="Shape"></path>
                <path d="M245.09002,21.9748571 L255.447521,21.9748571 L250.280941,8.0902 L245.09002,21.9748571 Z M268.642679,36.9365429 L261.021683,36.9365429 L257.901288,28.5716571 L242.635496,28.5716571 L239.515101,36.9365429 L232.071526,36.9365429 L246.011528,1.00537143 L254.706247,1.00537143 L268.642679,36.9365429 Z" id="Shape"></path>
                <polygon id="Shape" points="264.508982 4.40257143 264.508982 1.73475429 263.434881 1.73475429 263.434881 1.00303714 266.378233 1.00303714 266.378233 1.73475429 265.304132 1.73475429 265.304132 4.40257143"></polygon>
                <polygon id="Shape" points="270.20485 4.40257143 270.20485 2.04184857 269.442751 4.07734571 268.599676 4.07734571 267.837576 2.04792857 267.837576 4.40257143 267.04551 4.40257143 267.04551 1.00309143 268.182682 1.00309143 269.025757 3.18005714 269.859853 1.00309143 271 1.00309143 271 4.40257143"></polygon>
                <path d="M176.820739,18.0445714 L176.820739,24.0035143 L185.686928,24.0035143 C184.486847,28.4539657 181.168422,30.8961714 175.747016,30.8961714 C169.557289,30.8961714 164.570024,26.3043057 164.570024,18.9630857 C164.570024,11.9564286 169.328589,7.13205714 175.875754,7.13205714 C179.533119,7.13205714 182.497675,8.56840286 184.519627,10.9049143 L189.659215,5.8463 C186.487812,2.38352286 181.7564,0.329785714 176.080005,0.329785714 C165.08368,0.329785714 157.181406,8.1073 157.181406,18.9622714 C157.181406,30.5636714 165.978358,37.5708714 175.899879,37.5708714 C186.052913,37.5708714 193.39155,29.8954143 193.39155,19.0138429 L193.39155,18.0443 L176.820739,18.0445714 Z" id="Shape"></path>
                <path d="M221.803493,12.7082857 C221.803493,15.59292 219.46624,17.9385514 216.591909,17.9385514 L206.951665,17.9385514 L206.951665,7.47769429 L216.591909,7.47769429 C219.46624,7.47769429 221.803493,9.82332571 221.803493,12.70796 M228.254483,12.70796 C228.254483,6.25230286 223.021857,1.00124571 216.592287,1.00124571 L199.817874,0.997988571 L199.817874,36.92916 L206.952585,36.92916 L206.952585,24.4114171 L213.472271,24.4114171 L219.832928,36.92916 L228.074898,36.92916 L221.01213,23.5390457 C225.25758,21.7866486 228.255024,17.5920457 228.255024,12.70796" id="Shape"></path>
            </g>
            <g id="Group" transform="translate(70.000000, 180.000000)" fill="#62BB46">
                <path d="M6.35785714,11.4385185 C7.96320252,11.4385185 8.93742353,10.8345481 8.93742353,9.68405926 L8.93742353,9.64662222 C8.93742353,8.5681037 8.03848866,7.9296 6.18647143,7.9296 L2.45847983,7.9296 L2.45847983,11.438363 L6.35785714,11.4385185 Z M5.66938739,6.02881481 C7.17863319,6.02881481 8.19171681,5.46222963 8.19171681,4.29167407 L8.19171681,4.25423704 C8.19171681,3.25048889 7.3499105,2.6293037 5.84071891,2.6293037 L2.45847983,2.6293037 L2.45847983,6.02886667 L5.66938739,6.02881481 Z M0.146778151,1.76934074 C0.146778151,1.13083704 0.663883866,0.636118519 1.33135588,0.636118519 L6.14771723,0.636118519 C7.67495798,0.636118519 8.88056597,1.03877926 9.64421345,1.76934074 C10.2364752,2.33592593 10.5431483,3.02908148 10.5431483,3.88899259 L10.5431483,3.92642963 C10.5431483,5.46222963 9.62616429,6.28480741 8.63102143,6.77667407 C10.1973416,7.28861778 11.2887466,8.14862222 11.2887466,9.88576296 L11.2887466,9.92024444 C11.2887466,12.2067037 9.31954538,13.431963 6.34013319,13.431963 L1.33146429,13.431963 C0.66402479,13.431963 0.146886555,12.9372756 0.146886555,12.2987407 L0.146778151,1.76934074 Z" id="Shape"></path>
                <path d="M29.2960084,6.98444444 C30.9765315,6.98444444 32.0469605,6.14465185 32.0469605,4.84462222 L32.0469605,4.81014074 C32.0469605,3.43819259 31.0157735,2.68758519 29.2750866,2.68758519 L25.8568034,2.68758519 L25.8568034,6.98439259 L29.2960084,6.98444444 Z M23.5056429,1.77592593 C23.5056429,1.13457037 24.0227377,0.642703704 24.6902206,0.642703704 L29.4674483,0.642703704 C31.1510609,0.642703704 32.4678908,1.11725704 33.327692,1.92256296 C34.0342109,2.61571852 34.4340025,3.56766667 34.4340025,4.68077037 L34.4340025,4.71820741 C34.4340025,6.76599259 33.1923504,8.00841481 31.397516,8.53761481 L33.9559979,11.6265333 C34.1874879,11.9026393 34.340819,12.138477 34.340819,12.4864963 C34.340819,13.1077333 33.7876366,13.5276815 33.213424,13.5276815 C32.67828,13.5276815 32.3325383,13.2918437 32.0649988,12.9438296 L28.8181013,8.97768148 L25.8567925,8.97768148 L25.8567925,12.4145778 C25.8567925,13.0358148 25.3396976,13.5276296 24.6902639,13.5276296 C24.0228245,13.5276296 23.5056862,13.0358252 23.5056862,12.4145778 L23.5056429,1.77592593 Z" id="Shape"></path>
                <path d="M54.4455882,8.34814815 L52.0946445,3.17411111 L49.7466819,8.34814815 L54.4455882,8.34814815 Z M45.6936429,11.9662667 L50.6632866,1.36515556 C50.9308532,0.79857037 51.4088849,0.450540741 52.0763244,0.450540741 L52.1905653,0.450540741 C52.8609858,0.450540741 53.3179602,0.798544444 53.5855539,1.36515556 L58.5551976,11.9662667 C58.6484245,12.1330793 58.6874768,12.2970141 58.6874768,12.4436978 C58.6874768,13.0448163 58.2094559,13.5222163 57.5780768,13.5222163 C57.0248945,13.5222163 56.6430978,13.211603 56.4326327,12.7341719 L55.3442629,10.3413126 L48.8476495,10.3413126 L47.7202545,12.8090459 C47.527844,13.2663378 47.1279928,13.52232 46.6318848,13.52232 C46.0185928,13.52232 45.5405339,13.065023 45.5405339,12.478283 C45.5405339,12.3143533 45.6006165,12.1504185 45.6938651,11.9663393 L45.6936429,11.9662667 Z" id="Shape"></path>
                <path d="M70.3646218,1.70074074 C70.3646218,1.0795037 70.8817276,0.567518519 71.5491996,0.567518519 L71.7987279,0.567518519 C72.3699594,0.567518519 72.6976627,0.840751852 73.0193497,1.22614074 L79.7089211,9.50636296 L79.7089211,1.64614074 C79.7089211,1.04217037 80.2230241,0.550355556 80.8543653,0.550355556 C81.5037556,0.550355556 82.0208938,1.04217037 82.0208938,1.64614074 L82.0208938,12.3934741 C82.0208938,13.0147111 81.52484,13.5094296 80.8754497,13.5094296 L80.7792309,13.5094296 C80.2230674,13.5094296 79.880296,13.2333237 79.5556279,12.8335407 L72.6768926,4.3148 L72.6768926,12.4311704 C72.6768926,13.0322889 72.1628005,13.5269556 71.5314485,13.5269556 C70.8820582,13.5269556 70.36492,13.0322681 70.36492,12.4311704 L70.3646218,1.70074074 Z" id="Shape"></path>
                <path d="M100.007521,11.3918519 C102.815547,11.3918519 104.649461,9.58279259 104.649461,7.07772593 L104.649461,7.04028889 C104.649461,4.53812593 102.815493,2.69162963 100.007521,2.69162963 L97.3708803,2.69162963 L97.3708803,11.3918519 L100.007521,11.3918519 Z M95.0198824,1.77696296 C95.0198824,1.13845926 95.5369935,0.643740741 96.2044601,0.643740741 L100.007575,0.643740741 C104.21059,0.643740741 107.115042,3.4048 107.115042,7.00544444 L107.115042,7.03992593 C107.115042,10.6407778 104.210807,13.4394815 100.007575,13.4394815 L96.2044601,13.4394815 C95.5370206,13.4394815 95.0198824,12.9447993 95.0198824,12.3062593 L95.0198824,1.77696296 Z" id="Shape"></path>
                <path d="M118.983529,12.0140741 C118.715963,11.8300052 118.52655,11.5193867 118.52655,11.1541111 C118.52655,10.5702593 119.022614,10.1129259 119.63286,10.1129259 C119.957555,10.1129259 120.167999,10.2049733 120.32133,10.3142459 C121.42764,11.1540385 122.615199,11.6314385 124.067262,11.6314385 C125.519325,11.6314385 126.436309,10.9728163 126.436309,10.0208163 L126.436309,9.98633481 C126.436309,9.07177185 125.901165,8.57705333 123.417872,8.03063852 C120.57082,7.3720163 118.965366,6.56675704 118.965366,4.20827556 L118.965366,4.17379407 C118.965366,1.97937185 120.874458,0.460786667 123.532075,0.460786667 C125.212598,0.460786667 126.568561,0.883571111 127.774169,1.64860889 C128.041736,1.79529259 128.288261,2.10590593 128.288261,2.54595704 C128.288261,3.12980889 127.792202,3.58714222 127.181951,3.58714222 C126.950456,3.58714222 126.761053,3.53252667 126.568605,3.42320741 C125.537418,2.7847037 124.542329,2.45399259 123.492985,2.45399259 C122.116099,2.45399259 121.316408,3.12988148 121.316408,3.97257778 L121.316408,4.00716296 C121.316408,4.9966 121.926719,5.43371111 124.506177,6.02036296 C127.332252,6.67613333 128.787296,7.6452963 128.787296,9.765 L128.787296,9.80243704 C128.787296,12.1982519 126.818095,13.6218444 124.010069,13.6218444 C122.194204,13.6218444 120.474547,13.0753778 118.983351,12.0140741" id="Shape"></path>
            </g>
            <g id="Group" transform="translate(35.000000, 0.000000)">
                <path d="M16.7542623,188.972923 C15.4459475,188.972923 14.3867557,187.912519 14.3867557,186.602949 C14.3867557,185.293271 15.4460557,184.232976 16.7542623,184.232976 C17.5914344,184.232976 18.8667492,185.206245 19.6740049,185.903108 C20.1030969,186.272578 20.1030969,186.933401 19.6740049,187.302845 C18.8668033,188.002741 17.5914885,188.972977 16.7542623,188.972977" id="Shape" fill="#000000"></path>
                <path d="M181.088852,184.239799 C182.397167,184.239799 183.456359,185.300203 183.456359,186.609773 C183.456359,187.916472 182.397059,188.979746 181.088852,188.979746 C180.25168,188.979746 178.976366,188.006532 178.169218,187.309614 C177.740121,186.940155 177.740121,186.279321 178.169218,185.909877 C178.97642,185.209981 180.251734,184.239745 181.088852,184.239745" id="Shape" fill="#000000"></path>
                <polygon id="Shape" fill="#94D7E9" points="147.353115 79.7157593 147.953228 79.6136397 148.547336 79.505509 149.138469 79.3583219 149.738636 79.2772468 150.323764 79.1210483 150.902887 78.943827 151.45799 78.7005152 152.001138 78.5443167 152.544285 78.3791069 153.066399 78.1538178 153.630537 78.0727428 154.170666 77.9045274 154.731774 77.8234523 155.274922 77.6492311 155.839059 77.5951847 156.403197 77.5381381 156.97031 77.5201046 157.534448 77.4840917 158.10459 77.4779181 158.671704 77.4840917 159.238817 77.4721235 159.80593 77.4628631 160.373043 77.4869078 160.943186 77.507974 161.492338 77.6852061 162.065456 77.6852061 162.623589 77.7783523 163.169712 77.9345562 163.712859 78.096755 163.985926 78.1658672 164.258977 78.2349795 164.832095 78.2920207 165.366219 78.4782588 165.876345 78.7245707 166.455468 78.8987919 167.016576 79.1270812 167.601704 79.2862852 168.192837 79.4154497 168.783969 79.5235804 169.375102 79.6677674 169.978245 79.7248086 169.981491 79.7248086 170.590638 79.6707621 171.190751 79.7879097 171.799899 79.8059432 172.406017 79.793975 173.00613 79.6798277 173.615278 79.7068509 174.212415 79.5836922 174.512488 79.5445925 174.809548 79.5054928 175.421725 79.466393 175.982833 79.2200757 176.55898 79.0488601 176.85604 78.9858348 177.150119 78.9227066 177.735246 78.7695192 178.278394 78.5322132 178.824517 78.3069295 179.39466 78.1387141 179.985792 78.051552 179.985792 77.8863476 179.457668 77.6400357 178.989555 77.2705596 178.422442 77.1023442 177.93033 76.7779357 177.399209 76.534624 176.856061 76.3213518 176.285919 76.1801704 175.778801 75.8707791 175.202653 75.7446202 174.659506 75.5403594 174.116358 75.3210815 173.56726 75.1198263 173.006152 74.9606276 172.436009 74.8374635 171.877876 74.6512254 171.301729 74.5521006 170.734616 74.4199252 170.167448 74.2787492 169.58232 74.221708 169.012178 74.1015495 168.42705 74.0685693 167.844898 74.0385676 167.274755 73.8793635 166.686598 73.9063867 166.107475 73.8223223 165.528352 73.7412473 164.943224 73.7232138 164.361071 73.7442799 163.775943 73.7350195 163.190816 73.7980448 162.596707 73.7229484 162.017584 73.8190839 161.426452 73.8371174 160.853334 73.9933213 160.265176 74.0443892 159.689029 74.1585311 159.118886 74.3057183 158.560753 74.4919564 157.996616 74.6481548 157.420468 74.7743191 156.853355 74.9335178 156.283212 75.0777047 155.767092 75.3870907 155.19695 75.5372888 154.626807 75.6904763 154.119694 76.0118954 153.546576 76.156077 152.991473 76.3543212 152.490355 76.6757349 151.953234 76.9160357 151.410086 77.1413248 150.866939 77.3636029 150.368833 77.685022 149.807725 77.8772605 149.261602 78.1055551 148.751487 78.399924 148.262373 78.7273435 147.734249 78.9886725 147.191101 79.2229675 146.668981 79.5053303 146.738022 79.6465117"></polygon>
                <polygon id="Shape" fill="#007EC5" points="131.431967 90.4546418 132.01412 90.4846436 132.581233 90.472567 133.148346 90.4395327 133.712484 90.529684 134.273592 90.6107591 134.840705 90.6558158 135.398838 90.7639628 135.96898 90.775931 136.521108 90.9050954 137.085246 90.9921492 137.601366 91.2474779 138.168479 91.3255636 138.672595 91.5958986 139.242737 91.6680002 139.78886 91.9413516 140.355973 92.1546237 140.935096 92.3348452 141.532234 92.4429922 142.117362 92.5991907 142.717529 92.6953262 143.323647 92.6985755 143.932795 92.6594758 144.532908 92.7526219 145.13908 92.8187394 145.745198 92.7587035 146.34834 92.704657 146.954459 92.6746553 147.557601 92.6355556 148.160744 92.5664488 148.736891 92.3651936 149.325049 92.2390293 149.934196 92.1729064 150.498334 91.9596342 151.065501 91.7493731 151.572614 91.4940444 152.124742 91.3558794 152.658866 91.1666357 153.231984 91.1155678 153.775131 90.9653805 154.30925 90.7491082 154.882368 90.7523574 155.43152 90.6081759 156.001663 90.6020023 156.559796 90.478849 157.129938 90.5269384 157.697051 90.5028937 158.267194 90.5358739 158.834361 90.5266135 159.401474 90.460496 159.968587 90.4994874 160.532725 90.5535338 161.093833 90.6706813 161.375902 90.6977045 161.657971 90.7247277 162.222109 90.7787741 162.762232 90.9650122 163.31436 91.0881601 163.845481 91.280404 164.400639 91.3945513 164.919756 91.6198404 165.459879 91.7760389 166.039002 91.9532602 166.63311 92.0824246 167.197248 92.3077191 167.794386 92.406844 168.382543 92.5300081 168.979681 92.6171701 169.573789 92.7463345 170.179907 92.7913913 170.789055 92.728366 171.392197 92.7376264 171.99534 92.6985267 172.604488 92.7555679 173.210606 92.7285447 173.816724 92.6864665 174.413861 92.569319 175.013974 92.4852492 175.572107 92.2179035 176.172274 92.1277521 176.721373 91.8694233 177.33052 91.7883482 177.828631 91.4999797 178.371779 91.3347645 178.923906 91.2116166 179.461038 91.0283787 180.031181 90.9743323 180.301245 90.8872731 180.57131 90.8032033 181.126413 90.6890614 181.690551 90.6560812 181.969617 90.5899583 182.248678 90.5208514 182.821796 90.5959423 183.385934 90.547853 183.953047 90.5057747 184.520214 90.4847085 185.087327 90.466675 185.648435 90.5718056 186.212573 90.6168623 186.779686 90.640907 187.346853 90.6619732 187.910991 90.7160196 188.481134 90.7430428 189.012255 90.9713375 189.570388 91.067473 190.107509 91.2506947 190.266547 91.2987841 190.647638 91.4099204 191.172754 91.6141866 191.712883 91.7733907 192.283026 91.9025551 192.808153 92.1608732 193.381271 92.2629928 193.939404 92.4161911 194.09544 92.2419699 193.723351 91.77638 193.465291 91.2507055 193.174226 90.7430645 192.958179 90.193394 192.547091 89.7578438 192.244021 89.2562031 191.982953 88.7305394 191.670887 88.2318989 191.241784 87.8173716 190.992731 87.2736581 190.536623 86.8861648 190.227553 86.3875297 189.885473 85.9099229 189.525389 85.4473332 189.111293 85.0268001 188.71221 84.6002558 188.340121 84.1466829 187.893014 83.7652007 187.463917 83.3656905 187.007808 82.99922 186.572706 82.6057209 186.143609 82.2092217 185.693505 81.8367509 185.267415 81.4522577 184.913325 81.3681879 184.310183 81.4823353 183.70704 81.4855846 183.094917 81.4045095 182.497779 81.5306738 181.909622 81.6898724 181.321465 81.8190369 180.700307 81.8222862 180.130165 82.0235414 179.584042 82.2938872 179.013899 82.4831309 178.461771 82.6213013 177.93066 82.8195509 177.363493 82.8946472 176.823375 83.0538513 176.289251 83.2461006 176.010185 83.3031418 175.734121 83.360183 175.167008 83.3901847 174.61488 83.4953152 174.059777 83.6334856 173.489634 83.6396593 172.925496 83.6576928 172.355354 83.6276911 171.788187 83.7298106 171.221073 83.609663 170.65396 83.6607309 170.092852 83.5977056 169.519734 83.6306858 168.961601 83.5105327 168.406498 83.3933852 167.839331 83.3633835 167.284228 83.243225 166.750104 83.0539867 166.176986 82.9999403 165.66687 82.7416222 165.090723 82.6814834 164.589604 82.4141486 164.025467 82.1858593 163.422324 82.0897239 162.840172 81.9395366 162.252014 81.8043664 161.684901 81.5640602 161.078783 81.5249605 160.481645 81.4198299 159.875527 81.383817 159.269409 81.3899906 158.660262 81.4410585 158.057119 81.453135 157.447972 81.3930991 156.841854 81.4201223 156.238711 81.4952187 155.638544 81.5792831 155.038377 81.6784133 154.456224 81.8556346 153.901067 82.1109634 153.315939 82.2581451 152.733786 82.4083324 152.190639 82.5675364 151.665511 82.7778084 151.146394 83.0181146 150.588262 83.1322619 150.045114 83.2884496 149.486981 83.4025969 148.928849 83.4866667 148.35573 83.456665 147.794622 83.5196903 147.584569 83.5858078 147.239487 83.6909384 146.672373 83.7089719 146.10526 83.7419521 145.535118 83.6547901 144.93495 83.6397351 144.337813 83.6459087 143.73467 83.6819216 143.137532 83.6278752 142.549375 83.5017109 141.958242 83.4145489 141.370085 83.3214028 140.787932 83.1922383 140.688911 83.1592039 140.220798 83.5046353 139.71969 83.8020151 139.302592 84.2255538 138.750464 84.4508429 138.291358 84.8082966 137.793247 85.1116822 137.313141 85.4451075 136.833023 85.7755271 136.370915 86.1299752 135.926811 86.5114628 135.461705 86.8629053 134.939591 87.1362567 134.516493 87.5447675 134.054391 87.8992264 133.592272 88.2566801 133.07916 88.5450487 132.61406 88.8964912 132.166953 89.2719676 131.668837 89.5783534 131.248741 89.9868804 130.744626 90.2842548 130.855652 90.5846348"></polygon>
                <polygon id="Shape" fill="#43C5E4" points="197.756557 105.812923 197.684531 105.236175 197.618482 104.725517 197.612315 104.6594 197.645261 104.073662 197.492233 103.505958 197.468213 102.923199 197.306178 102.361506 197.333173 101.769758 197.069119 101.229061 197.093138 100.631301 196.838075 100.093609 196.727055 99.5228727 196.54701 98.9732022 196.57103 98.3634199 196.330968 97.8287449 196.13293 97.2820529 195.88087 96.7563892 195.838835 96.7203763 195.286708 96.6212515 194.73458 96.5340895 194.464515 96.4709613 194.191454 96.4109254 193.65132 96.2817609 193.075172 96.3298503 192.526074 96.2127028 192.04297 95.8852942 191.496847 95.7771526 190.977724 95.5849087 190.413587 95.5217806 189.879463 95.2123946 189.261335 95.1673379 188.733205 94.8158954 188.103067 94.8549951 187.520915 94.7018076 186.935787 94.5516095 186.332644 94.4915735 185.723497 94.5486147 185.123384 94.3563762 184.517266 94.3502026 183.911148 94.383237 183.308005 94.4613227 182.704862 94.5334243 182.107725 94.6235757 181.504582 94.6626754 180.928435 94.8639306 180.616363 94.857757 180.304286 94.8484965 179.731168 95.0467515 179.17904 95.2990693 178.599917 95.4672847 178.095801 95.7406361 177.522683 95.8097429 177.003566 96.0470544 176.445433 96.1611963 175.869286 96.1762513 175.320187 96.3054157 174.771089 96.4165629 174.215932 96.5067143 173.657799 96.6118448 173.096691 96.7289923 172.529578 96.735166 171.959435 96.7259055 171.389292 96.6448305 170.825155 96.6207858 170.540083 96.6988715 170.255017 96.7769572 169.696885 96.5666852 169.135776 96.5126388 168.553624 96.6327973 167.986511 96.563685 167.446382 96.3504129 166.891279 96.2572668 166.333146 96.1551526 165.805021 95.9418859 165.225899 95.8937965 164.712786 95.6535011 164.211668 95.3741385 163.608525 95.2780031 163.014417 95.1518388 162.432265 94.9956403 161.871156 94.7673456 161.270989 94.7043204 160.682832 94.5391051 160.085694 94.4309744 159.473517 94.4880156 158.870374 94.4008535 158.264256 94.4638788 157.661114 94.4759553 157.057971 94.5359858 156.445794 94.4819394 155.854661 94.6291374 155.242538 94.6171692 154.642371 94.7192887 154.054214 94.8604701 153.502086 95.1278049 152.940978 95.3410771 152.32285 95.3951235 151.830739 95.7015093 151.260596 95.779595 150.888518 95.8697464 150.711471 95.9118246 150.177347 96.1040685 149.616239 96.1791594 149.097116 96.4735283 148.532978 96.5336671 147.95986 96.4855777 147.407732 96.6567987 146.843595 96.7289003 146.276482 96.7408685 145.706339 96.7738487 145.136196 96.6236614 144.572059 96.6387164 144.007921 96.6087147 143.440808 96.6267482 142.873695 96.5907353 142.321567 96.4525541 141.73341 96.5697016 141.172301 96.4705768 140.620173 96.3384068 140.068046 96.1972254 139.55192 95.9358964 139.023796 95.731641 138.468692 95.6204938 137.952572 95.3952156 137.334445 95.3351796 136.752292 95.175981 136.215171 94.8605784 135.624038 94.731414 135.011915 94.7221535 134.723847 94.5959893 134.438781 94.4698358 133.832663 94.4067077 133.802693 94.4067077 133.22357 94.3916526 132.617452 94.4367094 132.011334 94.442883 131.708264 94.4308065 131.405194 94.421546 130.805027 94.5447047 130.192904 94.4726031 129.583756 94.4906366 129.004633 94.7129201 128.386505 94.7161694 127.792397 94.8333169 127.234264 95.0856292 126.637127 95.1967764 126.361063 95.3199351 126.085004 95.4430883 126.100044 95.4941562 126.118058 95.5422456 125.562955 95.7405007 125.013803 95.956773 124.46768 96.1850677 123.948557 96.4674196 123.402434 96.7017146 122.847277 96.9300039 122.36116 97.2784462 121.860052 97.5998654 121.445956 98.0354156 121.001852 98.4319148 120.518748 98.7653347 120.074644 99.1498278 119.633537 99.534321 119.204434 99.9308202 118.754336 100.306297 118.394251 100.777898 117.94715 101.153374 117.497046 101.52585 117.070946 101.92235 116.593836 102.270792 116.245757 102.75441 115.780651 103.108858 115.285543 103.433272 114.904447 103.883845 114.517357 104.319395 113.995238 104.61678 113.572145 105.019291 113.269076 105.544954 112.863987 105.923431 112.972005 105.91417 113.551128 106.088391 114.112236 106.313675 114.715379 106.39475 115.282492 106.611023 115.852635 106.842317 116.467787 106.812316 117.073905 106.812316 117.671043 106.94148 118.274186 106.947654 118.880304 106.971698 119.489451 107.067834 120.086589 106.884601 120.698712 106.938648 121.30483 106.905668 121.895963 106.749474 122.48412 106.602282 123.105277 106.590314 123.660435 106.337985 124.200553 106.055633 124.818681 105.995494 125.367779 105.854324 125.865895 105.562944 126.409043 105.406757 126.949171 105.232536 127.531324 105.229286 128.050441 104.958951 128.617554 104.904905 129.178662 104.835793 129.745775 104.811748 130.315918 104.84175 130.877026 104.787703 131.441164 104.754723 132.011307 104.745463 132.575444 104.781475 133.148562 104.625277 133.706695 104.763458 134.276838 104.775535 134.84698 104.793568 135.390074 105.00384 135.948207 105.078931 136.506339 105.175067 137.055438 105.310237 137.63759 105.322313 138.141706 105.613682 138.660823 105.832954 139.24898 105.859978 139.789109 106.142346 140.377212 106.286527 140.956335 106.451732 141.523448 106.67401 142.138601 106.664749 142.717724 106.866005 143.317837 106.959151 143.926984 106.908083 144.533102 106.863026 145.136245 107.049253 145.745393 107.03122 146.345506 106.905056 146.948648 106.848014 147.563801 106.935176 148.160939 106.803001 148.740061 106.607757 149.310204 106.409502 149.934337 106.400241 150.483489 106.135901 151.023607 105.853544 151.56973 105.703351 152.115853 105.550164 152.692001 105.502074 153.223128 105.300814 153.772226 105.171649 154.327329 105.075514 154.879457 104.967372 155.443595 104.928273 155.992693 104.74804 156.559806 104.696972 157.123944 104.624871 157.694087 104.690988 158.264229 104.609913 158.831397 104.616087 159.392505 104.805325 159.956642 104.826391 160.526785 104.817131 161.087893 104.892222 161.640021 105.018386 162.231154 104.928235 162.777277 105.099445 163.311401 105.294694 163.839525 105.504956 164.406638 105.574068 164.916759 105.829397 165.474892 105.937527 166.04801 106.132782 166.591157 106.415145 167.176285 106.583349 167.803393 106.562283 168.385546 106.706465 168.976679 106.835629 169.582797 106.838879 170.179934 106.944009 170.783077 106.992099 171.389195 106.928976 171.995313 106.95302 172.59548 106.841873 173.198623 106.832613 173.804741 106.826439 174.410913 106.784361 175.017031 106.715249 175.575164 106.447914 176.163321 106.318749 176.541404 106.195591 176.736455 106.135555 177.339598 106.027424 177.864715 105.820152 178.365833 105.540806 178.893958 105.324528 179.449061 105.195364 180.037218 105.234463 180.562335 104.970123 181.117492 104.852971 181.684605 104.831904 182.242738 104.717762 182.812881 104.705686 183.383023 104.771803 183.950136 104.75377 184.517304 104.693734 185.084417 104.672668 185.645525 104.822855 186.209663 104.816681 186.779805 104.822855 187.340913 104.891967 187.902022 104.96108 188.472164 104.991081 189.024292 105.114229 189.582425 105.225376 190.134553 105.348535 190.680676 105.510739 191.220805 105.678955 191.73693 105.907239 192.283053 106.183601 192.898205 106.234669 193.465319 106.438924 194.032432 106.658202 194.614584 106.838434 195.226707 106.832261 195.835855 106.814227 196.426987 107.039516 197.036135 106.955452 197.642253 106.907363 197.711293 106.922418 197.714539 106.922418 197.765554 106.390737"></polygon>
                <polygon id="Shape" fill="#007933" points="75.2940984 26.6663295 75.3240689 27.0027549 75.9031918 27.498379 76.3382887 28.0030198 76.5753477 28.177241 76.6893762 28.2973995 77.0584569 28.6308193 77.3255243 29.0243184 77.8716472 29.4809023 78.2437249 29.784288 78.6698307 30.2979347 79.2939634 31.0008089 79.9991356 31.6166023 80.6983028 32.2473966 81.2834307 32.9833052 82.0155979 33.5720754 82.6937749 34.2179247 82.7387848 34.2630031 82.9128246 34.458258 83.3719303 34.9989388 83.8580474 35.5125964 83.8790375 35.5276568 83.9480779 35.6087318 84.5452156 36.0983556 84.836281 36.5399224 85.3343916 36.8943651 85.9915244 37.5311705 86.5586375 38.2881453 86.8437089 38.5254405 86.8469548 38.5285273 86.853122 38.5347172 87.2792115 38.8921709 87.5762872 39.1444886 87.8283369 39.546999 88.3564667 40.0186001 88.4584746 40.0966858 88.5725031 40.2408673 89.2446752 40.8716616 89.3526934 41.0158431 89.5117318 41.1750472 89.8718105 41.5865744 90.5589679 42.2233798 91.1921351 42.9112532 91.5492221 43.1725931 91.8312802 43.5330523 92.3353957 44.0256762 92.4974311 44.133807 92.5484459 44.1938429 93.0855669 44.6203872 93.3586284 44.9928634 93.6737026 45.3232831 93.8327356 45.5455612 94.5168634 46.086242 94.8349348 46.5067859 95.3570651 46.8702454 95.8941861 47.4499717 95.9632264 47.4199538 96.4133248 47.5101052 96.8514241 47.0985888 96.8481782 46.4016716 96.8031684 46.0562294 96.8512077 45.1881291 96.7521807 44.2779506 96.7614315 43.9685647 96.8034659 43.2806913 96.791402 43.064419 96.7975692 42.9322544 96.7735495 42.7159821 96.7525052 42.3284887 96.7195593 41.7968085 96.7163134 41.5474963 96.7522889 40.9256917 96.8213292 40.4270567 96.8092652 40.2047786 96.8125111 40.1656843 96.8605505 39.4747783 96.7375146 38.7808938 96.779549 38.0899877 96.779549 38.0178861 96.8605397 37.5733191 96.7825352 36.8434217 96.7825352 36.7052405 96.8696066 36.011356 96.8366607 35.32045 96.7826705 34.9569905 96.8066902 34.7166843 96.7736902 34.4102985 96.8637477 33.9387083 96.7467221 33.4100336 96.8217403 32.8153064 96.773701 32.1845121 96.833669 31.8661094 96.6896375 31.3494517 96.6326557 30.8418107 95.9874787 30.0397791 95.7564246 29.7874614 95.5523764 29.4660531 94.9882387 29.018486 94.4961275 28.5018282 94.3400916 28.3666472 94.0730351 28.0182048 93.4578826 27.5075582 92.9717656 27.0029174 92.5336716 26.4352134 91.9965507 25.9636123 91.8735148 25.8524652 91.4624159 25.3928811 90.8232979 24.8522003 90.5352295 24.4106335 89.9470721 24.0411683 89.4939713 23.4434084 89.0048572 22.9928356 88.9748867 22.956839 88.49478 22.4311753 87.9966639 22.0436819 87.5705582 21.4489547 86.8744205 20.8422052 86.8023939 20.7760877 86.517328 20.3885943 85.94421 19.9590553 85.4730998 19.4243748 84.9929931 18.8987003 84.4918746 18.3970596 84.1017821 18.132725 83.5706607 17.6100615 83.3216026 17.309676 83.0065338 16.8711202 82.3554059 16.7779741 81.7852633 17.000263 81.3051566 17.507904 81.0981005 17.9945275 80.6299982 18.4450949 80.1228856 19.220049 79.8738275 19.5204345 79.6727818 19.7517293 79.621767 19.8208416 79.5287179 19.9319887 79.4296962 20.0851762 79.264653 20.3134709 78.9045689 20.9112308 78.5174789 21.484946 78.4304075 21.6081046 77.8572895 22.1487854 77.314142 22.8967164 76.8520338 23.7017264 76.2999059 24.4437003 76.1588715 24.6659784 76.0088297 24.8041596 75.7447756 25.2967835 75.2286556 25.9516225 75.2526752 26.1859175 75.2046359 26.4802972"></polygon>
                <polygon id="Shape" fill="#A5CF4F" points="85.567377 13.3188138 85.567377 13.3219006 85.6273505 13.3819365 86.0744518 13.8535375 86.3055059 14.0758156 86.9116239 14.7396443 87.0646628 14.9288826 87.2867095 15.0880866 87.6257926 15.400489 88.0308811 15.7849713 88.1419126 15.9171468 88.6550248 16.4337937 89.1981723 16.9204172 89.7052903 17.4460918 90.0053577 17.7164268 90.3864536 18.1369599 90.8485564 18.6055607 91.193639 19.0441166 91.6917497 19.4556438 91.7517177 19.518669 91.7907767 19.5516763 92.2258736 20.0683233 92.7119907 20.4528164 93.0870762 20.9244174 93.2221057 21.0625878 93.2520762 21.1016821 93.3360585 21.1797678 93.7621589 21.6183345 94.0592238 21.8886803 94.2842784 22.1289811 94.8093949 22.6306217 95.3465267 23.1232456 95.6916039 23.4506651 95.8596389 23.6399034 95.8836585 23.6279352 96.4687864 23.8141733 96.8348646 23.2584375 96.7598518 22.7988642 96.8168336 22.2641838 96.8075828 21.8676737 96.8196467 21.7836039 96.801632 21.6694565 96.7923811 21.2699571 96.7713369 20.278709 96.768091 20.0594311 96.828059 19.5728075 96.7590241 18.8669006 96.7590241 18.8098595 96.8250728 18.1039526 96.768091 17.6623966 96.7773418 17.3049429 96.7773418 16.3166733 96.8193762 15.3254251 96.7923811 14.4903592 96.801632 14.4303233 96.7836172 14.1900171 96.7536467 13.4480973 96.7628975 13.0485871 96.7958434 12.3547026 96.7865926 11.732898 96.7985484 11.4895862 96.7923811 10.7566561 96.7263325 10.2099641 96.7803226 9.38692057 96.8193816 8.39567244 96.7503467 7.80392372 96.7471008 7.0859945 96.801091 6.35306441 96.801091 5.59007845 96.8130467 5.42787421 96.7650074 4.46067077 96.7617615 4.41858713 96.7710123 3.96500338 96.8069877 3.42128991 96.7740418 3.12391006 96.7647369 2.46305991 96.8397551 1.47479029 96.740728 0.678769943 96.740728 0.486515244 96.4856759 -9.20630373e-05 95.9755554 0.177129284 95.9426095 0.162074269 95.6155308 0.522533553 95.4444989 0.687737966 95.312461 0.852953209 95.2704266 0.898009943 94.7783154 1.48975865 94.5052539 1.79614986 93.9621064 2.28276799 93.6260257 2.80243135 93.5059977 2.94661289 93.0048846 3.37615195 92.5397793 3.93784479 92.2997179 4.2292243 91.9126387 4.59868951 91.3094961 5.39768837 90.6103289 6.11258493 90.3042566 6.53912923 90.1692325 6.69532771 89.662109 7.2209914 89.4640657 7.47932029 89.3080298 7.63250777 88.6778921 8.41352725 88.0207593 9.17050203 87.3906216 9.95146736 86.8925002 10.594284 86.8832493 10.6004739 86.3911274 11.1381545 86.1840821 11.492608 86.1541116 11.5346917 85.5089346 12.2976776 85.5121805 12.3697792 85.2961279 12.8263523"></polygon>
                <polygon id="Shape" fill="#62BB46" points="101.218033 19.8688281 101.214787 20.0250157 101.190767 21.001263 101.200018 21.1544613 101.190767 21.4548468 101.241782 22.1036746 101.190767 22.9507628 101.508839 23.4463977 102.084986 23.323239 102.628134 22.7915587 103.198276 22.2839177 103.381313 22.0826625 103.477348 21.9925111 103.765416 21.6560857 104.224522 21.166462 104.230689 21.1571799 104.848817 20.6435223 105.493994 19.9346369 106.007117 19.3939561 106.25617 19.1476442 106.877327 18.6009522 107.561455 17.9311123 107.930547 17.5286019 108.017618 17.4624844 108.557747 16.9368099 108.764792 16.708526 108.908823 16.5703448 109.460951 15.8974723 109.527 15.8223814 110.235148 15.1945656 110.934315 14.5367482 111.144368 14.3024532 111.213408 14.2424172 111.717524 13.6776917 112.254645 13.1460168 112.518699 12.6473764 112.284648 12.1427355 111.87356 11.4999189 111.360437 10.9441831 110.862321 10.3794576 110.430221 9.76068567 109.956119 9.17494814 109.881106 9.09686244 109.839072 9.03074493 109.66804 8.86852986 109.439988 8.62521808 108.98388 8.02745819 108.740821 7.80518011 108.55178 7.53183413 107.912662 6.78390318 107.60059 6.42044372 107.516608 6.31230215 107.459626 6.25825032 107.267582 6.03297206 106.604444 5.30302049 105.992321 4.52205516 105.290179 3.83114914 104.648031 3.08321819 104.074913 2.36528897 104.062957 2.34725544 104.053707 2.34108181 104.032662 2.31108009 103.399495 1.75236576 103.045405 1.238719 102.811354 0.980390115 102.712332 0.842214327 102.556291 0.701032951 102.541252 0.682999427 102.034134 0.12726361 101.478976 0.0191328653 101.118903 0.472700372 101.181863 1.1425402 101.148863 1.45492633 101.178833 1.94154989 101.178833 1.9806496 101.121851 2.73161321 101.178833 3.09807284 101.166877 3.41648097 101.166877 3.93914991 101.121868 4.23351877 101.211925 4.92139212 101.221176 5.05055656 101.239191 5.48610679 101.164178 6.35122857 101.164178 6.37227309 101.149139 6.48341484 101.161094 6.64561908 101.157848 7.32748126 101.167099 7.95529702 101.167099 7.97933089 101.170345 8.7302945 101.170345 8.73648438 101.164178 9.28019785 101.137183 10.2594236 101.131016 11.2356709 101.160986 12.2119182 101.15774 12.6114285 101.136696 13.2272219 101.13345 13.7528964 101.115435 14.1674292 101.148435 15.1436764 101.133396 15.8856504 101.115381 16.2220758 101.148381 16.9700067 101.130366 17.7179377 101.130366 17.750945 101.115327 18.0723533 101.163366 18.4658524 101.115327 19.2137833"></polygon>
                <polygon id="Shape" fill="#A5CF4F" points="96.7170492 82.8134097 96.8280752 82.296752 96.7681072 81.8972526 96.8101416 81.6239066 96.7381151 81.4196458 96.7621348 80.927011 96.3420393 80.3622855 96.2370182 80.1730472 96.0359725 79.7465084 95.3638003 79.1457158 95.1177448 78.8933981 95.0487044 78.8153124 94.6076134 78.2956545 94.1905151 77.9652348 94.0944797 77.8690993 93.491337 77.2052707 93.3113031 77.0190326 93.2062711 76.8267833 93.0082333 76.7066302 92.8671989 76.5624487 92.4410931 76.2260232 92.2160493 75.9046095 91.8319564 75.5651839 91.6159092 75.2768154 90.910737 74.7811913 90.8147016 74.6820611 90.3105861 74.0452557 90.0165236 73.8229668 89.7944769 73.5616323 89.3203643 73.1951727 88.9992959 72.825702 88.4771656 72.0867608 88.1350962 71.8134148 87.970053 71.5671028 87.4659374 71.1165301 87.0968567 70.8972468 86.562722 70.2093734 85.8785941 69.629647 85.7765808 69.5245165 85.5695356 69.1971078 85.2454593 68.9688186 84.6873266 68.3139796 84.6303448 68.2299098 84.4983123 68.160803 83.9641938 67.7462702 83.4240703 67.0223298 83.2200275 66.8961655 83.1779931 66.8270587 82.6618677 66.3915084 82.2267708 65.8748452 81.9026946 65.6435558 81.5126021 65.244051 81.2845505 64.9076201 80.765428 64.6282684 80.7621821 64.6250191 80.2190346 63.9070899 79.7269234 63.5526364 79.3398334 63.0540067 78.8477223 62.5944226 78.409623 62.083776 77.9535143 61.5911413 77.4283977 61.1616077 77.2303544 61.0234264 77.0353136 60.7771145 76.4621956 60.3235416 76.4141562 60.2724737 75.9910584 59.7437936 75.8680387 59.6356628 75.7720033 59.5155151 75.3999148 59.1850955 75.0968449 58.7375229 74.6317397 58.2509048 74.1336236 57.827366 73.9355749 57.5750429 73.3144175 56.935259 72.8343054 56.5027089 72.7082779 56.3645277 72.2161667 55.9019434 71.6970443 55.4723936 71.2109326 55.0038035 71.1599179 54.9617253 70.8118382 54.3969998 70.4127438 54.0485574 70.361729 53.952422 69.8726149 53.4898323 69.4945215 53.2164863 69.4794821 53.2044152 69.2664374 53.0091712 68.9363616 52.5225476 68.4382456 52.0659637 67.9191231 51.6334136 67.4570203 51.1437899 66.988918 50.6601828 66.502801 50.1975931 65.9776736 49.7710488 65.9744277 49.7648589 65.6953667 49.4134056 65.5633343 49.311286 65.5272507 49.2692023 65.1161626 48.7315217 64.6540544 48.6924274 64.4199925 48.5722797 63.9458852 49.1009544 63.8829256 49.9150083 63.8890928 50.3385524 63.8740534 50.4046699 63.742021 51.0384969 63.6759723 51.6873247 63.7149231 51.8795631 63.6008946 52.336147 63.6219389 53.2192482 63.6639733 54.1023493 63.8800205 54.8202786 63.8919762 55.0275504 63.798927 55.7154237 63.9429639 56.0999169 63.9910033 56.6676209 63.921963 57.06112 64.0689969 57.7249486 64.1770151 58.0373456 64.2129905 58.4789124 64.3000618 59.0496491 64.3000618 59.0589095 64.306229 59.0829542 64.3482634 59.3532892 64.3722831 59.4283856 64.4292703 59.7197543 64.6543249 60.3625709 64.6662807 60.3985838 64.7983239 61.0594339 64.954349 61.9305127 65.0413175 62.1107397 65.0683126 62.3510458 65.2753687 62.9938625 65.5694311 63.4354185 65.614441 63.5705995 65.7764764 64.4476895 65.9055064 64.6940014 65.9745413 64.8982676 66.1996013 65.2827499 66.427653 65.9646121 66.4696874 66.156856 66.5236775 66.2289576 66.78474 66.8958189 67.1568231 67.6948178 67.5499126 68.3526352 67.6098861 68.607964 67.9279574 68.9654122 68.0779884 69.2027183 68.432073 70.0137395 68.8821767 70.7707142 69.4012938 71.4826323 69.8333936 72.2546079 70.0074334 72.4288399 70.1094467 72.6210784 70.535547 73.1437419 70.8476134 73.7565027 71.2497049 74.3002161 71.3547261 74.3723177 71.3727408 74.4083306 72.0598982 74.9850785 72.5130098 75.7570541 73.0831525 76.4299266 73.4942513 76.7543351 73.5333103 76.7934348 73.6233679 76.8564547 73.7824062 76.9826189 74.1784928 77.3220554 74.4395498 77.7996621 74.9586723 78.2352124 75.4657957 78.682785 75.9999197 79.0943013 76.3719974 79.3796642 76.9721646 80.0224809 77.371259 80.2117191 77.5693077 80.3769236 78.1154307 80.7734336 78.2684695 80.9025981 78.4095039 81.046785 78.4904946 81.0858848 78.6345315 81.2060433 79.1866593 81.5995423 79.7267774 82.005053 80.3208856 82.230342 80.6299603 82.4826597 81.3891226 82.9302269 81.7401993 83.1014479 82.0642702 83.3687936 82.4543572 83.5009582 82.9164762 83.8103495 83.4235889 83.9845653 83.885697 84.2519109 84.3027954 84.4141152 84.5218397 84.5402795 85.307997 84.9427899 86.157179 85.1951076 86.670302 85.3963628 86.9853762 85.5916177 87.3574648 85.6426856 87.8105656 85.7928837 88.6327525 86.1202924 88.8878154 86.1743388 88.9207613 86.1864153 89.550899 86.4477444 89.9109831 86.4598209 90.325079 86.6190249 91.174261 86.8563201 91.7353692 86.8501465 92.2004852 86.9733106 92.5485649 87.057375 92.9026387 87.21959 93.1937149 87.1925668 93.5237798 87.2525973 94.1059323 87.2075406 94.6670405 87.333694 95.276188 87.4448412 95.5282539 87.5529828 96.1764064 87.4238183 96.3174408 87.2225631 96.41049 87.1925614 96.8095736 86.3514843 96.7915589 86.1592405 96.8008097 85.6756333 96.8069769 84.9997823 96.8220162 84.807533 96.8760064 84.4590907 96.8639425 83.5128993"></polygon>
                <polygon id="Shape" fill="#A5CF4F" points="101.169344 44.0678682 101.166098 44.2781293 101.199098 44.5484752 101.172103 45.2724156 101.17827 45.368551 101.118297 45.6899593 101.223329 46.3027201 101.121316 47.0987404 101.169355 47.1167902 101.541444 47.5072837 102.006549 47.4411662 102.084553 47.4711842 102.531655 46.9395039 102.546694 46.9244434 103.098822 46.4708597 103.422893 46.0743604 104.116055 45.5126676 104.764207 44.8368166 105.460345 44.2029897 106.051478 43.4700596 106.684645 42.8122421 107.128749 42.4788168 107.146764 42.4577723 107.455844 42.2234773 107.788917 41.7909272 108.164003 41.5115755 108.635113 40.976895 108.959184 40.5954075 109.409287 40.2079142 110.099474 39.5800984 110.411551 39.231656 110.669611 39.0093671 110.909668 38.6699415 111.188729 38.3395219 111.653834 37.9880685 112.001913 37.597575 112.049953 37.5554914 112.193984 37.3752645 112.581063 36.9186805 113.145201 36.4831303 113.643312 35.9754893 113.916373 35.7201606 114.069418 35.6090243 114.720545 34.9361518 114.864582 34.7469135 115.167652 34.5036017 115.485723 34.041012 116.052837 33.6264847 116.45793 33.1458777 116.661984 33.0016962 116.971053 32.5961801 117.319133 32.2477378 117.538177 31.9803921 117.589192 31.9293351 118.027286 31.4186777 118.081276 31.3706099 118.624424 30.9680995 118.960494 30.5445662 119.275568 30.2441807 119.953745 29.6043426 120.064776 29.4992121 120.109786 29.4662048 120.151821 29.4151477 120.62893 28.9585746 121.277083 28.2857021 121.478129 28.0724299 121.607159 27.9703104 122.105269 27.4686697 122.651392 27.0150968 122.738463 26.4744052 122.627432 26.0178321 122.303367 25.3840051 122.279347 25.3569819 122.192276 25.173744 121.67615 24.3867675 121.094052 23.641815 120.763971 23.1612081 120.70998 23.0470607 120.277881 22.4883464 119.896796 21.8905865 119.485708 21.3138387 119.047597 20.8872944 118.852557 20.6079426 118.321435 19.8269773 118.195402 19.6857959 118.171382 19.6497993 117.706277 19.115108 117.340199 18.5053258 117.277137 18.4302348 117.20511 18.3100871 116.845026 17.886543 116.508951 17.3608793 116.025836 16.8412214 115.479713 16.4627448 115.005606 16.7270795 114.822559 16.7000562 114.171431 17.348884 113.553303 18.0337789 113.547136 18.043061 113.328075 18.2082762 113.220057 18.3854976 112.922981 18.7009001 112.223814 19.29866 111.959749 19.6200683 111.839727 19.7132145 111.413621 20.2809185 110.92151 20.7885595 110.348392 21.2091034 110.315446 21.2511871 110.297431 21.2631499 110.177408 21.4163482 109.90135 21.7557738 109.559264 22.1582842 109.307204 22.3955902 108.872107 22.7169985 108.743071 22.8942199 108.364989 23.2126226 108.019912 23.6331665 107.893879 23.7322913 107.575807 24.0927506 107.065692 24.5012777 106.444535 25.168139 106.429496 25.1831994 106.39352 25.219196 106.34851 25.2732479 105.832385 25.8499957 105.817346 25.8650562 105.361242 26.1774585 104.926135 26.7361729 104.767102 26.922411 104.536048 27.1386779 104.335002 27.3609668 103.869897 27.6673526 103.584831 28.0969025 103.212753 28.4032883 102.963684 28.6826508 102.924733 28.7126688 102.837667 28.8238051 102.603605 29.0851342 102.315537 29.3915308 101.913446 29.6889052 101.736403 30.0283417 101.295312 30.5329825 101.271293 30.8243512 101.235317 30.8813923 101.220278 31.4340955 101.211027 31.5662601 101.171968 32.4824498 101.123929 33.401618 101.189977 34.0324123 101.154002 34.3988827 101.160169 34.795382 101.100201 35.2309322 101.19325 35.9729061 101.196496 36.5195981 101.127456 37.225505 101.160456 37.9283792 101.139412 38.6342861 101.148662 38.7874844 101.145417 38.8866092 101.148662 39.7967877 101.178633 40.7099447 101.121651 41.3467502 101.103636 41.4578973 101.106882 41.5270096 101.097631 41.6231451 101.109587 41.7042201 101.121543 42.1638042 101.214587 42.6924681 101.091556 43.4494429"></polygon>
                <polygon id="Shape" fill="#62BB46" points="134.266721 54.0940745 134.191709 53.3131092 134.242723 53.0037124 134.224709 52.8805591 134.299727 52.327856 134.143685 51.6219491 134.254706 50.9791325 134.194733 50.8079115 134.212747 50.6426962 134.07471 49.8076303 133.906664 49.0386332 133.903418 48.981592 133.48632 48.5220079 132.904168 48.684223 132.841105 48.7503405 132.204962 49.2579923 131.541825 49.8677746 131.283765 50.231234 130.893678 50.5075856 130.404564 50.9731754 130.275534 51.2044703 129.654376 51.7872293 129.048258 52.451058 128.67617 52.8385513 128.54715 52.9406709 128.073038 53.4182777 128.069792 53.4213645 127.763725 53.697716 127.484664 54.1032321 127.073565 54.32251 126.626459 54.8271508 126.158356 55.3137744 125.711255 55.8214154 125.258143 56.3200558 124.769029 56.7856403 124.606999 56.9388386 123.967881 57.4825521 123.622799 57.8940793 123.298722 58.176442 122.81861 58.6480376 122.314495 59.0956048 122.275436 59.152646 122.047395 59.3569013 121.417257 59.9907283 121.02717 60.5944993 120.99417 60.6335991 120.433062 61.024098 120.349085 61.1412455 120.166038 61.2644042 119.54488 61.9041881 119.136789 62.3938118 119.034776 62.4809739 118.590672 62.9886149 118.119562 63.4692218 118.089591 63.5083215 117.678492 63.8297299 116.991335 64.4064777 116.787292 64.7278914 116.631251 64.830011 116.310182 65.3196347 115.782058 65.7191342 115.247934 66.2778485 115.238683 66.2840221 114.710564 66.7045661 114.344475 67.2903036 113.906381 67.7558935 113.285224 68.2725512 113.033163 68.5368967 112.874125 68.6750617 112.37602 69.1256344 111.8929 69.5972354 111.628846 70.0147684 111.469807 70.2340463 110.69263 70.7146641 110.449572 70.9819989 110.434532 70.9881726 109.969427 71.4777909 109.846397 71.6730457 109.525323 72.0665448 109.39929 72.216743 109.06322 72.4750718 108.5801 72.9406563 108.099993 73.4122519 107.58687 73.8508131 107.175782 74.3914993 107.11272 74.4725744 107.001705 74.5837161 106.464584 75.1183966 106.185512 75.3016237 105.92445 75.653077 105.735408 75.8362987 105.393328 76.1126611 105.213289 76.2328088 105.189269 76.274887 105.03623 76.3980403 104.394083 77.0198449 103.832974 77.7197406 103.604923 77.9960868 103.370872 78.1943418 102.857749 78.6298974 102.542674 79.0324079 101.885542 79.5610826 101.696495 79.924542 101.441437 80.1107801 101.351374 80.7055074 101.276362 80.996876 101.12632 81.4684771 101.17133 82.1653401 101.192374 82.3305554 101.087347 83.0965198 101.126406 83.9105737 101.168441 84.7215949 101.19246 84.88381 101.186293 84.9559116 101.27027 85.6377738 101.129236 86.3466591 101.312283 86.6320275 101.369265 86.9263963 101.759357 87.4490544 102.422495 87.5301349 102.731575 87.4129874 103.298688 87.4129874 104.009865 87.1846927 104.414959 87.139636 105.105146 87.1817142 105.519242 87.0255157 105.912331 87.0074822 106.140389 86.9413647 106.437459 86.9381154 106.734518 86.7608887 106.758538 86.754715 107.60772 86.52042 107.901782 86.4272793 108.396907 86.4180188 108.98804 86.1927243 109.333122 86.1536246 109.510159 86.0725496 109.693206 86.0304713 110.206319 85.7601255 110.69243 85.654995 110.977496 85.6129167 111.028511 85.573817 111.790703 85.1773178 112.651894 84.9520287 113.441081 84.5555294 113.567103 84.4774437 114.059215 84.2281316 114.686377 83.9788195 115.301529 83.6934511 115.691616 83.4321221 115.802632 83.3689939 116.489789 82.8343135 116.98791 82.5699734 117.603063 82.2786047 117.81911 82.1194007 118.059172 81.999253 118.299228 81.8100147 118.776337 81.6087541 119.340475 81.2362833 119.856595 80.7947164 120.405693 80.4012174 120.927813 79.9716729 121.467931 79.569157 121.97506 79.1185897 122.437163 78.6229602 122.449118 78.610992 122.953234 78.2565385 123.625406 77.6828233 123.943483 77.3524037 123.997473 77.3224019 124.456584 76.8267616 124.840666 76.2620361 125.392794 75.8475088 125.81289 75.3188395 125.890894 75.2046976 126.013924 75.0845336 126.322988 74.6189492 126.641065 74.249484 127.064168 73.7208093 127.454255 73.1711388 127.724309 72.7025379 128.096398 72.2369481 128.324455 71.9095286 128.651533 71.531052 128.78956 71.0924962 128.924595 70.7981165 129.329689 70.3595607 129.590746 69.731745 129.659786 69.6085917 129.938847 69.2331153 130.40095 68.4791732 130.592994 67.8513574 130.908068 67.3737506 131.181129 66.7579572 131.334168 66.3404243 131.505211 66.0730895 131.730255 65.3852161 131.997322 64.901609 132.192363 64.2527812 132.348399 63.8532709 132.498441 63.6189759 132.537391 63.2555164 132.612404 62.9671479 132.675364 62.5195808 132.924417 61.9037874 133.215482 61.1107997 133.251457 61.0416874 133.389495 60.3778588 133.386249 59.765098 133.452298 59.4857354 133.602329 59.0411793 133.665391 58.7317771 133.740409 58.4734482 133.74966 57.6774279 134.00172 57.0526448 133.94773 56.5179643 134.085762 55.851103 134.085762 55.8090248 134.115733 55.7038834 134.091713 55.5206562 134.100964 54.9679531"></polygon>
                <polygon id="Shape" fill="#007933" points="101.196393 72.8597708 101.529466 73.2893207 101.967576 73.1931852 102.1086 73.2622974 102.609719 72.8057135 102.615886 72.8024642 102.622053 72.7962906 102.763087 72.6671207 103.078162 72.1805026 103.61828 71.8711058 104.077391 71.3664596 104.521495 70.8438015 104.809558 70.4893534 105.220651 70.1379 105.868804 69.5431728 105.886819 69.5191281 106.018862 69.4530106 106.213897 69.071523 106.393948 68.8252056 106.471947 68.7471254 106.96706 68.4797797 107.39316 67.9450993 107.804259 67.3954288 108.401397 67.0379751 108.60544 66.7015497 108.959524 66.4221979 109.373615 65.8514612 109.790713 65.5420753 109.961751 65.3618375 110.201812 65.1936329 110.729926 64.4787364 111.483083 63.9921128 111.810151 63.5175116 112.248261 63.1991035 112.638348 62.6283668 113.091449 62.1207204 113.610566 61.6791536 114.165723 61.273643 114.34276 60.9432179 114.513803 60.82007 115.206965 60.2763566 115.537041 59.7807325 115.540287 59.7745589 115.726331 59.504213 116.338454 58.9244867 117.001592 58.3477388 117.601705 57.7109334 117.634651 57.6718337 118.003732 57.4435498 118.435831 56.9208809 118.648882 56.6144897 118.834926 56.4703081 119.047976 56.2300019 119.429061 56.0017181 119.666109 55.5721682 120.044203 55.2026976 120.074173 55.1816314 120.34123 55.0013991 120.413256 54.9082529 120.731328 54.649924 121.064406 54.2143738 121.29546 54.0371416 121.751569 53.5325116 122.303697 53.1300012 122.42373 52.9587802 122.627778 52.8356215 123.200896 52.1717929 123.771039 51.5079642 123.966085 51.3397596 124.185135 51.1775446 124.22111 51.1175086 124.431158 50.9342707 124.980256 50.2734205 125.103292 50.1772851 125.583399 49.6996783 125.961481 49.3272021 126.273559 49.0688732 126.696651 48.5281924 127.059732 48.3029033 127.161746 48.1467048 127.56084 47.87937 128.058961 47.1704846 128.260007 47.0172863 128.788121 46.6388097 129.109205 46.110135 129.400271 45.848806 129.931392 45.4222617 130.414501 44.9626884 130.654558 44.7914674 131.020636 44.2718095 131.365718 43.98043 131.761816 43.4187371 131.929845 42.9020794 132.03788 42.6287334 131.770812 41.8027113 131.383722 41.0247245 131.305718 40.9226049 131.257679 40.7303556 130.9306 40.1265846 130.669537 39.4927577 130.339462 38.9851166 130.231433 38.6877422 129.907362 38.2101354 129.658309 37.699478 129.496263 37.0116046 129.187199 36.3988439 128.73109 35.8641634 128.476038 35.2213468 128.151957 34.6175758 127.833885 34.004815 127.476798 33.4190775 127.41075 33.3259313 127.404582 33.3048868 127.140523 32.9324106 127.086533 32.8543249 126.765459 32.2475753 126.402378 31.6648163 126.108304 31.3343966 125.997284 31.1091076 125.451161 30.6405175 124.739984 30.8958462 124.394912 31.2262659 124.238876 31.3584305 124.217832 31.3975248 124.103803 31.5056664 123.782735 32.0313301 123.311625 32.3467326 123.074571 32.6110781 122.852524 32.7432427 122.261392 33.3920705 121.670259 34.0438768 121.56223 34.1700411 121.421195 34.2841776 120.935089 34.7557786 120.463979 35.2393966 120.404006 35.3264557 119.770838 35.8641364 119.278727 36.5399874 119.05667 36.6901747 118.810614 37.0716622 118.666583 37.2338665 118.510541 37.3660311 118.072447 37.612343 117.685357 38.05691 117.316266 38.3602956 116.725133 39.0000796 116.563098 39.2103516 116.173005 39.5317599 115.869935 40.0544234 115.770914 40.1595648 115.188761 40.4539337 114.705647 40.9255347 114.357567 41.4782379 114.306552 41.5322897 114.294488 41.5442579 113.790373 41.9197343 113.283255 42.3642904 113.130216 42.5955961 113.007185 42.7067324 112.737132 43.0521746 112.347039 43.3315372 111.863925 43.8001272 111.704886 44.0614563 111.113754 44.5210404 110.930706 44.8034031 110.45661 45.2509703 109.946484 45.6925263 109.919489 45.7285283 109.874479 45.7555515 109.298332 46.413369 109.217336 46.4974388 109.01629 46.6656542 108.947255 46.773785 108.68919 47.0381196 108.146042 47.7290256 107.45288 48.2697173 107.200825 48.6061427 107.176805 48.6241925 106.975759 48.912561 106.924744 48.9786785 106.663677 49.2460133 106.168568 49.5163591 105.673455 49.9759432 105.214349 50.4685671 105.094326 50.6698223 105.007255 50.7689471 104.320098 51.3126606 103.74395 51.9674996 103.659968 52.0936638 103.281885 52.342976 102.900789 52.9137126 102.858755 52.9557963 102.504676 53.1900913 102.00056 53.9170102 101.898547 54.0611917 101.523461 54.3976172 101.454426 54.6950024 101.430407 54.7279827 101.385397 54.9893117 101.370358 55.0554292 101.139303 55.704257 101.199277 56.0617107 101.10025 56.6113812 101.178254 57.518527 101.199299 58.1403316 101.130258 58.4587344 101.178298 58.750103 101.124307 59.3268509 101.154278 59.5311063 101.082251 59.8314917 101.052281 60.5193651 101.130285 60.870813 101.076295 61.1321421 101.202328 61.6878779 101.202328 61.8921387 101.241279 62.1925187 101.058242 62.9374711 101.184265 63.8386058 101.184265 63.8926522 101.181019 63.9496934 101.19027 64.0728575 101.205309 64.7397188 101.205309 64.766742 101.118238 65.3194452 101.124405 66.0073185 101.14242 66.3227211 101.12738 66.5449992 101.187354 67.0466398 101.217324 67.3770595 101.049284 68.0649328 101.073303 68.7497735 101.124318 68.9059774 101.055278 69.2514142 101.076268 70.1525489 101.106239 71.0567162 101.169198 71.8076798 101.067185 72.1741394"></polygon>
                <polygon id="Shape" fill="#62BB46" points="96.8577049 70.4011461 96.8096656 69.9295451 96.872728 69.668216 96.7766926 69.1725866 96.7828598 68.7820931 96.8668367 68.3375261 96.7318126 67.7908341 96.7647585 66.9377347 96.7526946 66.0726129 96.7286749 65.4328289 96.8217241 65.0092794 96.7256887 64.3424181 96.7437034 63.9519246 96.8547241 63.4803236 96.7646611 62.9907107 96.8186513 62.347894 96.8094005 61.8522646 96.8244398 61.7501504 96.8336907 60.8880613 96.767642 60.0229395 96.7795977 59.1578177 96.7315584 58.7853415 96.7315584 58.3588081 96.8246075 57.6949794 96.8278534 57.0281181 96.7887944 56.5655284 96.7707797 55.7034393 96.7497354 55.6193695 96.7464895 55.0095872 96.3534 54.4358721 96.0473223 53.811089 95.6152225 53.4986974 95.3841684 53.2313518 95.060103 52.9820397 95.0061128 52.9309826 94.6250277 52.3542347 94.06089 51.9637412 93.6347843 51.4320664 93.1156672 51.0145442 92.9116244 50.7321815 92.5005202 50.3476883 92.2454734 49.9511891 92.008409 49.8220246 91.7023421 49.4615654 91.3932674 49.2092368 91.2792497 49.0109926 90.7721262 48.5604144 90.2980244 48.1398813 89.8089103 47.6442572 89.2687815 47.1396164 88.9417028 46.7821573 88.5996334 46.3766413 88.3175592 46.1273292 87.951481 45.6647395 87.4323639 45.2291893 86.9042341 44.802645 86.4871411 44.2649643 86.2380831 44.0336695 86.1360752 43.8954883 85.5329326 43.264694 85.0618225 42.8862174 85.0407782 42.8532101 84.6116754 42.3275356 84.5216179 42.2764785 84.3145618 42.0031326 83.6874536 41.396383 83.1863351 40.915776 83.1801679 40.9064939 83.1621531 40.8914335 83.057132 40.7923087 82.4239648 40.1885376 82.2379259 40.0503672 82.1869111 39.993326 81.6887951 39.5367421 81.310707 38.9630269 81.0286382 38.8218564 80.6235443 38.2811648 80.0054164 37.8215807 79.8043652 37.6173199 79.7443972 37.5692521 79.3243018 37.1126682 78.733169 36.4728842 78.0190166 35.9532263 78.0010018 35.9321818 77.8149575 35.691881 77.4938838 35.1782234 76.9297461 34.7907301 76.5336595 34.2320158 76.161571 34.0007209 75.7084648 33.472057 75.5914392 33.2768022 75.0843211 32.8322352 74.6342228 32.3306054 74.1361013 31.8770216 73.6199813 31.4384658 73.4189356 31.2552279 73.1788849 30.9278084 72.7527846 30.816672 72.5037266 30.6965135 72.1436425 30.9338195 71.8795884 31.0659842 71.3784698 31.7899246 71.1534152 32.5769552 70.9913798 32.817256 70.5352711 33.3309136 70.0761708 34.0788445 69.6800789 34.8598099 69.6530838 34.9349008 69.3980316 35.2292805 69.1219623 35.8690644 69.0109416 36.1424104 68.8098959 36.3797056 68.5398315 37.2267939 68.4467823 37.3769812 68.1617164 37.7074008 67.7836284 38.2901599 67.7175797 38.5965456 67.6395752 38.734716 67.5495177 39.1011865 67.2134425 39.5517592 67.0123967 40.1044624 66.8503613 40.2997172 66.6343141 41.0596705 66.3732516 41.450164 66.1121946 42.089948 65.8181213 42.7177638 66.0821754 43.585864 66.4872802 44.1505895 66.814348 44.3398278 67.2584523 44.913543 67.7655649 45.2980253 67.9396048 45.5954052 68.5187277 45.9828985 69.0048339 46.4605053 69.031829 46.4815498 69.2058689 46.7038387 69.7970016 47.3586777 70.3701197 48.0285175 71.0842721 48.560187 71.6183907 49.2690724 72.2815284 49.8458202 72.5995997 50.0680983 72.8066449 50.3564668 73.292762 50.8340736 73.706847 51.3807656 74.0039174 51.5309529 74.1389469 51.7111852 74.8501239 52.2308432 75.2162021 52.759507 75.4802725 52.9547619 75.9723836 53.4684195 76.15542 53.7417655 76.6475311 54.0571572 76.7105936 54.1112091 76.7976649 54.2103339 77.1067289 54.7149747 77.6138523 55.1685476 78.0519516 55.6882056 78.5290613 56.1748291 79.1201941 56.5412996 79.3392438 56.7665832 79.6783269 57.3523208 80.4104941 57.8599618 80.6355379 58.0642172 80.977618 58.5268068 81.481739 58.9833908 81.901829 59.5210714 81.9111339 59.527245 82.1541925 59.8396366 82.5382692 60.0679258 82.841339 60.4974757 83.3334556 60.8218842 83.4714875 60.9991164 83.5524782 61.0861755 83.7895318 61.4616519 84.0475918 61.6358731 84.0595475 61.6509281 84.3806213 61.8732116 84.7497074 62.4199036 85.1277954 62.6031415 85.3288411 62.8644706 85.9319838 63.4982975 85.9829985 63.5343104 86.2020482 63.849713 86.7751662 64.2312059 86.8142252 64.2672188 87.1563054 64.7478258 87.4383634 64.9701147 87.6394092 65.2855172 88.1105248 65.6399599 88.3805784 65.9974191 88.983721 66.6282133 89.6828882 67.1688941 89.9379511 67.4332288 90.0849851 67.6435007 90.6041021 68.0820511 91.0542059 68.5927086 91.5133116 69.0943492 91.5432821 69.1154154 92.12841 69.6801409 92.2514405 69.8093054 92.4194862 70.103685 92.9416003 70.4731503 92.9926151 70.5092715 93.505738 70.9117819 93.538738 70.9598713 93.8568093 71.5486415 94.2829097 71.7829419 94.5439721 71.9781805 94.8860523 72.4407702 94.9189982 72.4618364 95.1590597 72.8463296 95.6901811 73.221806 95.8192111 73.4230612 96.4883538 73.6122995 96.8844403 73.0055499 96.8664256 72.9454165 96.8094438 72.1373738 96.8514782 71.6838009 96.8547241 71.6687458 96.8547241 71.6625722 96.8906995 71.2690623"></polygon>
                <polygon id="Shape" fill="#E82C2A" points="40.4547541 99.36851 40.6468033 99.206295 40.8508515 99.0771305 41.0038795 98.8999092 41.1209051 98.8007844 41.700028 98.1459454 41.9160752 97.8936168 42.2041436 97.5692084 42.4021815 97.3499359 42.7322572 97.0285167 43.2813556 96.7371481 43.4974028 96.4127396 43.5994161 96.3346593 44.2325833 95.7308882 44.4366261 95.4725593 44.6466792 95.2412645 44.8027151 95.0279923 45.4898725 94.5113346 46.0959905 93.8835188 46.6840938 93.2707581 47.0711838 92.9072986 47.128171 92.8051791 47.3052187 92.6219411 47.6142826 92.1893911 48.0373751 91.967113 48.4034695 91.4294215 48.5054828 91.3453571 48.5205221 91.3332806 48.9916377 91.0178781 49.0245836 90.9548528 49.2106279 90.8166716 49.732742 90.1077862 50.3748895 89.5160375 51.017037 88.9242888 51.3351138 88.482722 51.830222 88.1583189 52.2653297 87.6416611 52.7424393 87.1670545 52.9974915 86.7735554 53.4325992 86.3980791 54.0957369 85.8273424 54.2127625 85.6591378 54.6268475 85.2446104 55.1129646 84.7790206 55.5360679 84.2503459 56.0821908 83.8448299 56.3012513 83.5504502 56.553301 83.3642121 56.7303379 82.6943722 56.4182769 82.063578 55.69509 81.5619481 54.9598933 81.3516762 54.5817998 81.0813303 54.542849 81.0632968 54.155759 80.7178546 53.5406066 80.3423783 53.4626021 80.2583139 53.3515761 80.2312907 52.6254138 79.8618254 52.1993134 79.7176439 52.1873577 79.7083834 51.6592387 79.4650717 51.1071108 78.990465 50.7050193 78.8613006 50.3809485 78.6870794 49.7568157 78.3897104 49.6427926 78.3326692 49.5167597 78.2545835 48.8086121 77.8490675 48.5685561 77.6838631 47.9473987 77.3804775 47.4552875 77.2483129 47.1942251 77.0290241 46.3420136 76.7857232 46.0659551 76.6985611 45.9969148 76.6655809 45.4177918 76.2510536 44.7666639 76.0167585 43.8424475 76.1939907 43.6594111 76.5394166 43.2903197 76.89087 42.5851475 77.437562 42.3781023 77.707897 41.9219936 78.1434634 41.4418869 78.6270706 40.9917885 79.1437283 40.4666611 79.5792786 40.2836139 79.8496244 40.1395825 79.9787888 39.4704398 80.552504 38.9423154 81.2674006 38.2311384 81.8020756 38.0961143 81.9582795 38.0631684 81.9882812 38.0361733 82.0303595 37.6550936 82.4659097 37.1449785 83.1988398 36.7518782 83.5622992 36.6258561 83.6854579 36.5058226 83.7996052 35.7916702 84.3252689 35.3025561 84.9981414 34.7234331 85.3826238 34.2493205 85.8662471 34.0152585 86.1816497 33.9672192 86.2267064 33.3970766 86.8995248 32.7369143 87.4822838 32.0977421 88.0860548 31.530629 88.6147187 31.3325857 88.7168383 30.861481 89.206462 30.4053723 89.7080972 30.3843821 89.738099 30.1593221 89.870269 29.6522095 90.6062317 29.5501962 90.7143733 29.5172503 90.744375 28.9261175 91.1138457 28.7070733 91.5343788 28.370998 91.8047138 27.6748603 92.3484272 27.3327802 92.9251751 27.0867246 93.1054129 26.6006075 93.5770031 26.5555977 93.6370336 26.5165387 93.6670353 25.8654108 94.2558055 25.6223523 94.6012423 25.1182367 94.9707183 24.8451752 95.3792345 24.6501344 95.5264162 24.0169672 96.1331658 23.6328743 96.649829 23.2007744 96.8901352 23.0297316 97.1694869 22.7686746 97.355725 22.3965861 97.8303262 22.2975644 97.9054226 21.8564572 98.3259557 21.523379 98.5812844 21.3163284 98.7765339 21.280353 98.8095141 21.268289 98.8245691 20.890201 99.1850284 20.35308 99.8849241 19.9930013 100.230361 19.890988 100.302468 19.4138675 100.783086 19.0838026 101.239659 18.4506354 101.702243 17.9975238 102.173844 17.9524923 102.200867 17.7814495 102.393111 17.205302 102.933803 17.1991185 102.943063 16.9620595 103.129301 16.4729454 103.600902 16.2268898 103.994401 15.9748348 104.18064 15.5247364 104.778399 15.0116134 105.0217 14.7085436 105.34912 14.6815485 105.367153 14.6455893 105.415243 14.5495539 105.517362 14.1594669 106.088099 14.1444221 106.601757 14.5075033 107.046324 14.5194536 107.079358 14.6874939 107.067282 15.1886016 107.091326 15.4406675 107.022219 16.2568495 107.1003 16.905002 107.076255 17.1870708 107.094288 17.853238 107.070244 18.5194052 107.09131 19.1855725 107.079233 19.8517397 106.995169 20.3978626 106.968146 20.580899 106.97432 21.4451203 106.962351 22.2042826 106.935328 22.5073525 106.929154 23.1735197 106.878087 23.24256 106.881336 24.0347223 107.064568 24.4788266 106.983493 24.5028462 106.983493 25.1690134 107.097641 25.4900818 106.995521 25.7631433 107.034621 26.327281 107.040794 26.4953213 107.094841 26.7053636 107.0378 27.491521 106.977769 27.9926395 106.983943 28.4877531 107.074094 29.1508908 107.098139 29.7570089 106.914912 29.9400561 106.92688 30.4801741 107.056044 31.1433118 107.049871 31.8064495 107.094928 32.4606069 106.818576 32.5266556 106.794531 32.7847156 106.731511 32.8297254 106.698531 33.0997898 106.611369 33.6519177 106.214859 33.8229605 105.980564 34.2760667 105.593071 34.3900952 105.439867 34.6361508 105.277668 35.0412448 104.724965 35.2392826 104.496676 35.4643372 104.292415 35.6833869 104.046103 36.0014582 103.772757 36.3285369 103.436332 36.7696441 103.117918 37.3697572 102.475101 37.7478452 102.156699 38.0479126 101.994494 38.44401 101.43578 38.8160985 101.018247 39.2361939 100.627754 39.8573513 100.01196"></polygon>
                <polygon id="Shape" fill="#C3271B" points="64.5772131 99.2222923 65.0303085 98.6695891 65.5884413 98.2220165 65.9245166 97.84354 66.0325456 97.7654543 66.3866248 97.3599437 66.5606592 97.1827115 66.6567 97.0505415 67.2718525 96.3896913 67.914 95.7288412 68.5801672 95.0890572 69.2223148 94.4252286 69.7294328 93.9055652 70.0655026 93.6592533 70.5816226 93.1756461 70.8546895 92.5388407 70.4796039 91.9891702 70.476358 91.9770937 69.8642351 91.6016119 69.4201416 91.0789538 69.0570497 90.8446588 69.03303 90.8206141 68.2588284 90.3099675 67.5476513 89.7152403 67.2685795 89.5350079 67.178522 89.4358777 66.6114089 89.0363783 65.9962564 88.7029584 65.8762338 88.6188886 65.3361049 88.0451734 64.9790287 87.7868446 64.9639893 87.768811 64.91595 87.7388093 64.5858743 87.5015033 63.7846775 87.0359134 63.0405005 86.486243 62.9474513 86.4232177 62.6893913 86.1799059 62.245287 85.9696339 61.5371395 85.4139523 61.4891002 85.4172015 60.996989 85.2940374 60.6399074 85.4952927 60.4868793 85.5103477 60.2678297 85.7656764 59.9707539 85.9999714 59.7397052 86.3544303 59.1906069 86.8770885 58.9355439 87.1594512 58.4554372 87.5018824 58.0443384 88.0936311 57.6962587 88.4420734 57.1921431 88.8596064 56.4929759 89.481411 56.0758775 89.9620288 55.9738643 90.0341304 55.5027541 90.5627942 55.0796616 91.0193782 54.5335387 91.4549338 54.4555343 91.5149643 54.368463 91.6501454 53.9213616 92.205827 53.4592534 92.6954507 53.0721634 93.0829441 52.6070582 93.5335168 51.8898762 94.1402664 51.523798 94.5908446 51.5205521 94.5908446 50.998438 95.0684513 50.494317 95.5640754 49.9691951 96.038682 49.7771513 96.3330509 49.2130136 96.756595 48.6968936 97.3693558 48.5048498 97.5766221 48.0007343 98.0722516 47.7936782 98.3546036 47.2595597 98.7721365 46.6504121 99.4209643 46.4823664 99.5501287 46.440332 99.6101647 45.9182125 100.069749 45.2820698 100.757622 44.5949125 101.391449 44.1658205 101.980219 44.0307856 102.091356 43.7787305 102.367713 43.3136144 102.749195 42.9715451 103.181745 42.4944354 103.542204 42.1583493 103.896658 41.9633139 104.037828 41.6752456 104.398287 41.5192097 104.560502 41.2611497 104.902928 40.9760784 105.212325 40.5139756 105.554756 40.0248615 106.065408 39.8508216 106.681202 40.4119298 107.035644 40.7600095 106.963543 41.3661275 107.005621 41.6631979 107.023654 41.8012352 107.053656 42.4943975 107.07169 43.1845844 107.0236 43.5566621 106.969554 44.2228293 107.011632 45.0780162 106.966575 45.2610634 106.987642 45.9542257 106.987642 46.6444126 107.026633 46.8304461 106.993599 47.0765125 107.026633 48.0277239 106.978544 48.2167652 106.963489 48.7208808 106.99349 49.4110136 107.044558 50.1012005 107.07456 50.7943628 106.996474 51.4845497 107.020519 52.1747366 106.960488 52.315771 106.963738 52.7778738 107.014806 52.9759225 106.993739 53.5580749 107.041829 54.2482618 106.984788 54.4283066 106.996756 54.6803616 107.026758 54.8063946 107.017497 54.9384216 107.023671 55.6286085 107.050694 56.0156985 106.909513 56.6488657 106.837411 57.2489789 106.356799 57.480033 106.224634 57.9841485 105.713982 57.9991879 105.692916 58.1402223 105.569752 58.5423138 105.077128 58.9954146 104.707663 59.1244446 104.542447 59.4695272 104.275112 59.9346379 103.716398 59.9796477 103.677298 60.5287461 103.214709 61.065867 102.749119 61.3029152 102.367637 61.4049285 102.283572 62.0920859 101.661768 62.6922531 100.952882 63.0793431 100.508315 63.4094243 100.171879 63.5834641 100.039715 64.0725728 99.724312"></polygon>
                <polygon id="Shape" fill="#E82C2A" points="87.3201639 106.132436 86.9450784 105.820044 86.5699928 105.474602 85.9518649 104.960944 85.6938049 104.690598 85.1956943 104.155923 84.6045615 103.729384 84.1424533 103.380931 83.5663057 102.84025 82.8731434 102.11631 82.0749762 101.512539 81.3608238 100.809611 81.0877623 100.614372 80.8176979 100.326004 80.3765907 100.049652 79.8424667 99.5059385 79.0623143 98.8781227 78.7202287 98.5777535 78.594212 98.4365721 78.3631579 98.2653511 78.3091677 98.2172617 77.5859808 97.6345027 77.4569508 97.5233718 77.3639016 97.4602436 76.7337639 96.9706199 75.9476066 96.3488153 75.4584925 95.9372936 75.188428 95.6969874 74.6543041 95.4656925 74.141192 95.7420441 73.6370764 96.273719 73.0849485 96.7603425 72.9139166 96.952581 72.7428792 97.1057793 72.2927754 97.595403 72.0707179 97.8086643 71.7136362 98.2111802 71.5456013 98.3914125 71.0204739 98.8209516 70.5133613 99.3436259 70.0062487 99.8722898 69.688172 100.280817 69.3490889 100.587203 69.2710898 100.665288 68.971017 100.890577 68.4759034 101.425258 68.2118385 101.713621 67.9717879 101.953933 67.9087254 102.026034 67.4196167 102.425534 66.9095016 102.945197 66.6364348 103.23356 66.5644082 103.290601 65.8712459 103.963474 65.5741756 104.290893 65.3671303 104.489137 64.8360089 104.987772 64.3799056 105.561488 64.0378254 105.900913 63.8547836 106.063112 63.8609508 106.081146 63.7799602 106.630816 64.2270615 106.904167 64.2332287 106.919222 65.2264746 107.021342 66.2197205 107.000276 67.2129664 106.976231 67.5010348 106.972982 67.9151307 107.01506 68.6503274 106.976069 69.0404198 106.963992 69.1904508 106.963992 69.6195482 106.970166 70.1176697 107.009266 70.8498369 107.015439 71.5849795 107.0247 71.7320243 107.009645 72.1611162 107.027678 73.1483572 106.994698 73.7935343 106.967675 74.3246503 106.964425 74.7297497 106.982459 75.2578687 107.036505 75.6779641 106.994427 76.1130718 106.988254 76.2390939 106.978993 76.7222085 107.011973 77.4574052 106.948948 78.192602 107.039099 78.4836674 107.003087 79.0808051 107.024153 79.803992 106.943078 80.3891198 107.018169 81.1243166 106.991145 81.8564838 107.033224 82.0095226 107.018169 82.045498 107.021418 83.032739 106.97035 84.01998 106.988383 84.4880931 106.979123 84.7821556 107.018223 85.5143228 107.036256 85.6433528 107.021201 85.9944295 107.048224 86.6786115 106.961165 86.9816813 106.970426 87.4377792 106.679057"></polygon>
                <polygon id="Shape" fill="#EA5329" points="14.4150492 99.4605731 14.967177 99.0790801 15.2162405 98.8417849 15.4472946 98.6795807 15.7323605 98.3251271 15.9183939 98.1238665 16.0924446 97.8865713 16.4675302 97.472044 16.8906226 97.1866756 17.0286492 96.991437 17.3257195 96.7631423 17.823841 96.1713936 18.3369531 95.7718779 18.4689802 95.5345828 18.5499708 95.4594918 19.2311233 94.8737543 19.6272207 94.3661079 19.7202698 94.2969956 19.9003146 94.0777231 20.5064326 93.6211392 20.8215069 93.1104926 21.1275738 92.8491635 21.4126397 92.5067215 21.6977002 92.2844326 22.0457907 91.9420068 22.0908005 91.905994 22.1507739 91.8398764 22.3368182 91.6566385 22.540861 91.4043154 23.0689854 90.9807767 23.2910321 90.662374 23.6211133 90.416062 23.975187 89.9174215 24.4492997 89.5119109 24.9144103 89.0282984 25.1844639 88.7038845 25.4575308 88.4665839 25.7005893 88.1872267 25.8446208 88.0550567 26.2287138 87.6435403 26.7448338 87.2260074 26.9308672 86.9917123 27.3239675 86.6793154 27.8520811 86.2557767 28.3201943 85.7721587 28.7222857 85.2254667 29.2294038 84.7808997 29.445451 84.5195707 29.9435616 84.1230714 30.1536148 83.9188106 30.2256413 83.8707212 30.2556118 83.8196533 30.5826905 83.5042508 31.1798282 82.8404221 31.7889757 82.1886158 31.8370151 82.1224983 32.0770711 81.9122372 32.4461518 81.4135967 33.1212993 80.9960691 33.7064272 80.3202181 34.2705649 79.7074574 34.4836043 79.5602757 34.9787287 79.1066919 35.3208089 78.6350909 35.575861 78.406807 36.0799766 77.8630936 36.4190597 77.6888724 36.869158 77.1872317 37.3462677 76.7156253 37.7633661 76.1809503 37.8773946 76.0487856 38.0964389 75.8745645 38.42652 75.4480256 38.68458 75.1987026 38.9336326 74.6099324 38.9397998 74.5978559 38.8887851 74.5527992 38.4116754 74.1082322 37.7725574 73.9820734 37.3104492 74.0631484 36.9533675 74.069322 36.470253 73.9672025 35.8281054 73.8290213 35.6000484 73.8830677 35.179953 73.7779371 34.2947415 73.7990033 33.4155349 73.8410815 33.2805108 73.8801812 33.1514808 73.8561365 32.4853136 74.0093348 31.8071366 74.0000744 31.4200466 74.1202383 30.7899089 74.1742847 30.6368808 74.1983294 30.4688405 74.1983294 30.1807721 74.2764097 29.9227121 74.3214664 29.0405302 74.3905787 28.1703039 74.5257597 28.0712823 74.55874 27.7952075 74.5827847 27.3211111 74.8080629 26.4659243 74.9762783 25.5957521 75.1324822 25.106638 75.3697774 24.5215102 75.4268186 24.047403 75.763244 23.95734 75.7932457 23.44122 75.8893812 23.2581836 75.9074147 23.2101443 75.9314594 23.0811143 75.9555041 22.4569815 76.2799126 22.0098802 76.4270943 21.8508418 76.5111641 21.4547552 76.6433287 20.6355438 76.9647479 20.4164941 77.066862 20.1224208 77.1659923 19.9693928 77.2771286 19.8373549 77.3402513 19.0781926 77.7908241 18.9521597 77.8689098 18.316017 78.0911987 17.7158498 78.4066013 17.1517121 78.7790666 17.0316895 78.9052255 16.7646221 79.0674297 16.0504697 79.5870931 15.2792975 80.0166376 15.0992636 80.1968753 14.9252238 80.3080062 14.4181003 80.76159 13.8479577 81.1220493 13.649909 81.2992706 13.1277895 81.5575995 12.6746779 82.0982911 12.2665869 82.3836487 12.0805426 82.5218299 11.7804698 82.6990512 11.1082977 83.2727664 10.5561698 83.9696294 9.9830518 84.6394693 9.74898984 84.8677477 9.31689 85.1561162 8.89980246 85.6907966 8.41068836 86.1593921 8.25764951 86.4567774 8.1705782 86.5559022 7.51945033 87.1627059 7.31239426 87.6042619 7.17137066 87.763466 6.8833023 88.2260502 6.4962123 88.6045322 6.22914492 89.1512242 6.0130977 89.4245756 5.60200967 89.962267 5.27193393 90.5540158 4.83382918 91.0766793 4.53676426 91.6864615 4.49173279 91.84266 4.22766787 92.3773405 3.73855377 93.1162817 3.53150852 93.7050519 3.2824559 94.0805283 2.99139049 94.6872779 2.95841754 94.8224427 2.60434377 95.5073375 2.52335311 95.7896894 2.43030393 95.9188539 2.40031721 96.2012166 2.35528574 96.3574151 2.08222967 97.0542781 1.98918049 97.1984597 1.96517164 97.3786974 1.75512934 98.0155029 1.42805066 98.8355138 1.25101377 99.7006356 0.92994 100.52969 0.695878033 101.379757 0.695878033 101.505916 0.602828852 101.725194 0.476795902 102.389022 0.518835738 102.695408 0.332791475 103.109941 0.389773279 103.761747 0.275744754 104.410575 0.275744754 104.620836 0.215771311 104.876165 0.0597354098 105.747298 0.110739344 105.891479 0.242766393 106.333035 0.272753115 106.372135 0.359721639 106.624453 0.548762951 106.714604 0.617803279 106.798674 1.08891344 106.96989 1.19693164 107.020958 2.10616279 106.942877 2.30720852 106.963943 3.09039049 107.087091 4.03559705 107.075123 4.30865852 107.018082 4.57271803 107.024256 5.24786557 107.006222 5.4969182 106.958133 5.92002148 107.02425 6.41512967 106.847029 6.58317 106.837768 7.20730279 106.600473 7.82245525 106.273054 8.01449361 106.002708 8.39858656 105.573158 8.50059984 105.474033 8.73764803 105.266761 9.21175525 104.783154 9.7578782 104.371622 10.1449682 103.872997 10.2739982 103.755839 10.7090951 103.410408 10.886132 103.164085 10.9791811 103.073934 11.5373139 102.365048 12.2634762 101.821335 12.6685702 101.244587 13.0046454 100.929195 13.0917167 100.83306 13.4908111 100.517657 13.7128579 100.223288 13.9859193 100.007016 14.3970182 99.4783412"></polygon>
            </g>
        </g>
    </g>
</svg>