<?xml version="1.0" encoding="UTF-8"?>
<svg width="400px" height="225px" viewBox="0 0 400 225" version="1.1" xmlns="http://www.w3.org/2000/svg" xmlns:xlink="http://www.w3.org/1999/xlink">
    <!-- Generator: Sketch 51.3 (57544) - http://www.bohemiancoding.com/sketch -->
    <title>Artboard Copy 3</title>
    <desc>Created with Sketch.</desc>
    <defs></defs>
    <g id="Artboard-Copy-3" stroke="none" stroke-width="1" fill="none" fill-rule="evenodd">
        <g id="docusign-logo-(1)" transform="translate(34.000000, 76.000000)" fill="#000000" fill-rule="nonzero">
            <path d="M22.9584377,49.416896 C34.15166,49.416896 38.5176989,42.6143694 38.5176989,30.9756511 C38.5176989,19.3395441 33.4117424,11.2261275 23.2864154,11.2261275 L11.9383876,11.2261275 L11.9383876,49.416896 L22.9584377,49.416896 Z M0,1.06542452 L24.7688745,1.06542452 C40.4908127,1.06542452 50.6161397,13.6860047 50.6161397,30.9756511 C50.6161397,40.480909 47.4045822,48.8424024 41.2307303,54.0050109 C36.8673152,57.6086527 31.1867418,59.6585504 23.7796938,59.6585504 L0,59.6585504 L0,1.06542452 Z M84.7126995,38.6816995 C84.7126995,30.4847202 80.8451866,24.9121321 74.0127556,24.9121321 C67.0963622,24.9121321 63.307564,30.4847202 63.307564,38.6816995 C63.307564,46.8760675 67.0963622,52.3650928 74.0127556,52.3650928 C80.8451866,52.3650928 84.7126995,46.8760675 84.7126995,38.6816995 Z M51.949041,38.6816995 C51.949041,26.1420707 60.9225103,16.4722987 74.0127556,16.4722987 C87.100377,16.4722987 96.0738463,26.1420707 96.0738463,38.6816995 C96.0738463,51.2161056 87.100377,60.888489 74.0127556,60.888489 C60.9198865,60.888489 51.9464171,51.2187169 51.9464171,38.6816995 L51.949041,38.6816995 Z M97.9236405,38.6816995 C97.9236405,26.1420707 106.157192,16.4722987 118.998174,16.4722987 C129.950005,16.4722987 136.698474,22.7838944 138.180933,31.8791728 L127.231726,31.8791728 C126.491808,28.1919684 123.610853,25.403063 119.494077,25.403063 C112.742984,25.403063 109.287411,30.5682829 109.287411,38.6816995 C109.287411,46.630602 112.496345,51.9577246 119.328776,51.9577246 C123.857492,51.9577246 127.069049,49.5814101 127.808967,44.8287811 L138.592873,44.8287811 C137.852955,53.7595455 130.8526,60.888489 119.575415,60.888489 C106.241154,60.888489 97.9236405,51.2187169 97.9236405,38.6816995 Z M167.743529,59.6611617 L167.743529,54.7440186 L167.49689,54.7440186 C164.615934,58.5957372 161.323038,60.8075376 155.395826,60.8075376 C146.010416,60.8075376 140.741783,54.8275813 140.741783,45.6461289 L140.741783,17.6186746 L151.853667,17.6186746 L151.853667,43.7607453 C151.853667,48.6778883 154.078667,51.383231 158.851398,51.383231 C164.120032,51.383231 167.331589,47.4505611 167.331589,41.877973 L167.331589,17.6186746 L178.527436,17.6186746 L178.527436,59.6611617 L167.743529,59.6611617 Z M233.07406,59.6611617 L244.267282,59.6611617 L244.267282,17.6186746 L233.07406,17.6186746 L233.07406,59.6611617 Z M233.07406,11.7431717 L244.267282,11.7431717 L244.267282,1.32394664 L233.07406,1.32394664 L233.07406,11.7431717 Z M278.466171,36.7937046 C278.466171,30.6492342 275.173275,25.4056744 268.422182,25.4056744 C262.741609,25.4056744 258.955435,29.8292752 258.955435,36.8772673 C258.955435,44.0062107 262.741609,48.1869574 268.506145,48.1869574 C275.585215,48.1869574 278.466171,43.0243489 278.466171,36.7963159 L278.466171,36.7937046 Z M248.911446,60.888489 L260.020706,60.888489 C260.928548,63.5102689 263.313602,65.5601666 268.500897,65.5601666 C274.84005,65.5601666 277.886306,62.5284071 277.886306,56.791305 L277.886306,52.2005787 L277.639667,52.2005787 C275.168027,54.9868728 271.959094,57.1177218 266.606498,57.1177218 C257.223712,57.1177218 248.003604,49.7433129 248.003604,37.0417814 C248.003604,24.5021526 255.575953,16.4722987 266.27852,16.4722987 C271.547154,16.4722987 275.414667,18.519585 277.967645,22.0448867 L278.132946,22.0448867 L278.132946,17.6186746 L288.916852,17.6186746 L288.916852,56.4622768 C288.916852,62.363893 287.022453,66.3775143 283.894857,69.247371 C280.352699,72.5245959 274.921388,74 268.666198,74 C257.13975,74 250.06068,69.0828569 248.908822,60.888489 L248.911446,60.888489 Z M304.670276,23.3557767 L304.916915,23.3557767 C307.797871,18.8486132 311.668008,16.4722987 317.429919,16.4722987 C326.15675,16.4722987 332,23.0267485 332,32.2055897 L332,59.6585504 L320.804154,59.6585504 L320.804154,33.8455078 C320.804154,29.3383443 318.169837,26.1420707 313.478444,26.1420707 C308.537789,26.1420707 304.916915,30.0747406 304.916915,35.8118428 L304.916915,59.6585504 L293.721069,59.6585504 L293.721069,17.6186746 L304.670276,17.6186746 L304.670276,23.3557767 Z M207.56002,24.3376385 C198.83319,22.4574776 194.716414,21.0630249 194.716414,16.3077846 C194.716414,12.1296492 198.914528,9.42430658 205.337643,9.42430658 C211.196636,9.42430658 215.6755,12.1609852 216.593837,17.6186746 L228.07568,17.6186746 C226.908079,6.2410897 218.425265,0 205.418982,0 C192.33136,0 182.861989,5.98256758 182.861989,17.5377232 C182.861989,29.7483238 192.494037,32.5346178 203.031304,34.9109323 C212.004773,36.96083 217.604008,38.1072059 217.604008,43.8416967 C217.604008,49.252382 212.251413,51.383231 206.161523,51.383231 C197.765294,51.383231 193.729857,48.596937 192.905977,41.5489449 L181.216853,41.5489449 C181.628792,53.9240596 190.6836,60.9694403 206.654802,60.9694403 C219.907724,60.9694403 229.539772,54.3340391 229.539772,42.4498553 C229.539772,29.8292752 219.661084,26.9620298 207.56002,24.3376385 Z" id="Shape"></path>
        </g>
    </g>
</svg>