<svg xmlns="http://www.w3.org/2000/svg" height="800" width="1200" fill="none" viewBox="-13.12251 -5.5 113.72842 33"><path fill="#3E4348" d="M3.6761 0h14.6478a3.6762 3.6762 0 013.6772 3.6761v14.6467c0 2.0309-1.6464 3.6772-3.6772 3.6772H3.6761C1.6457 21.9994 0 20.3533 0 18.3228V3.6761C0 1.6458 1.6458 0 3.6761 0zm13.1673 18.0005c.6408 0 1.1603-.5195 1.1603-1.1603l-.0032-11.6794c0-.6408-.5195-1.1602-1.1603-1.1602H5.1619a1.1603 1.1603 0 00-1.1603 1.1613v11.6783c0 .6408.5195 1.1603 1.1603 1.1603z" clip-rule="evenodd" fill-rule="evenodd"/><path fill="#3E4348" d="M8.6662 13.9828a.666.666 0 01-.6608-.666V8.6544a.666.666 0 01.666-.6692h4.6689a.6673.6673 0 01.666.6692v4.6613a.667.667 0 01-.666.6693zm24.5297-3.9632c-.681-.1857-1.3257-.3608-1.8263-.5838-.9265-.4142-1.3577-.9885-1.3577-1.806 0-1.5457 1.4943-2.2416 2.9823-2.2416 1.4142 0 2.6492.585 3.4786 1.646l.0565.0725 1.1955-.935-.0576-.0726c-1.1026-1.4026-2.7357-2.171-4.6005-2.171-1.2413 0-2.3792.335-3.2021.9445-.9265.6778-1.4154 1.661-1.4154 2.834 0 2.7272 2.5681 3.3921 4.6325 3.9269 2.0889.5508 3.3687.9692 3.3687 2.5617 0 1.568-1.2681 2.581-3.23 2.581-.9702 0-2.7666-.2572-3.8959-1.9821l-.0523-.0812-1.2574.9105.0491.0737c1.0674 1.616 2.9097 2.5436 5.0605 2.5436 2.9214 0 4.8854-1.6492 4.8854-4.102 0-2.8073-2.6706-3.5342-4.8139-4.1191z"/><path fill="#3E4348" d="M47.5395 9.4528V7.9766h1.4057V21.998h-1.4057V16.52c-.8027 1.1005-2.0067 1.7025-3.4221 1.7025-2.6727 0-4.5407-2.1401-4.5407-5.2302s1.8722-5.2473 4.5407-5.2473c1.4058 0 2.6098.6052 3.4221 1.7078zm-6.4812 3.5224c0 2.8606 1.6384 3.88 3.1722 3.88l.0032.001c2.0078 0 3.3058-1.537 3.3058-3.881s-1.3001-3.8597-3.309-3.8597c-2.3386 0-3.1722 1.9939-3.1722 3.8597z" clip-rule="evenodd" fill-rule="evenodd"/><path fill="#3E4348" d="M58.239 7.9766v5.5344c0 1.9374-1.3268 3.3442-3.1542 3.3442-1.5178 0-2.2564-.9009-2.2564-2.7528V7.9766h-1.4058v6.4129c0 2.4016 1.3054 3.8351 3.4914 3.8351 1.362 0 2.5319-.5774 3.326-1.6331v1.4047h1.4058V7.9766z"/><path fill="#3E4348" d="M62.293 9.029c1.0364-.8143 2.4432-1.2808 3.8575-1.2808 2.2341 0 3.5672 1.1112 3.563 2.9748v7.2754h-1.4068v-1.1112c-.7099.8891-1.7367 1.3396-3.0581 1.3396-2.153 0-3.4915-1.1774-3.4915-3.0709 0-2.4625 2.3205-2.8489 3.309-3.0133.1611-.0266.3276-.0522.494-.0779h.0002l.006-.0009c1.3505-.2079 2.7446-.4224 2.7446-1.5681 0-1.297-1.6833-1.3972-2.1988-1.3972-.9105 0-2.1967.27-3.0709 1.0278l-.08.0694-.7344-1.1143zm.9318 6.0479c0 1.6054 1.5114 1.7793 2.1615 1.7793h.001c1.4133 0 2.9258-.7535 2.9226-2.8712v-1.4496c-.6857.4331-1.6616.6023-2.5321.7532l-.0147.0026-.4366.0779c-1.394.2583-2.1017.5913-2.1017 1.7078z" clip-rule="evenodd" fill-rule="evenodd"/><path fill="#3E4348" d="M77.8577 8.1655c-.3341-.238-.8603-.38-1.409-.38a3.5908 3.5908 0 00-2.8489 1.4677V7.9723h-1.4057V17.991h1.4057v-5.3583c0-2.376 1.3354-3.4402 2.6578-3.4402a2.5993 2.5993 0 011.1219.238l.095.0502.4451-1.2745z"/><path fill="#3E4348" d="M78.2697 13.0136c0-3.0997 1.933-5.2654 4.6965-5.2654 2.662 0 4.5225 1.9224 4.5172 4.6794a6.9566 6.9566 0 01-.0395.7173l-.0086.0822h-7.6852c.0352 2.2063 1.3631 3.6291 3.4007 3.6291 1.1678 0 2.1796-.4749 2.8489-1.3385l.0608-.0789 1.0183.9072-.0565.0683c-.6768.8251-1.9107 1.8093-3.9494 1.8093-2.8713 0-4.8032-2.0932-4.8032-5.21zm4.658-3.9162c-1.7174 0-2.9353 1.1303-3.1253 2.8905h6.1952c-.1217-1.4154-.9863-2.8905-3.0699-2.8905z" clip-rule="evenodd" fill-rule="evenodd"/></svg>