<svg width="232" height="151" viewBox="0 0 232 151" fill="none" xmlns="http://www.w3.org/2000/svg">
<g clip-path="url(#clip0)">
<path d="M66.2222 64.9237C66.1492 64.9237 66.0883 64.9479 66.0274 64.9479C66.1613 64.3183 66.2222 63.6645 66.2222 62.9865C66.2222 57.6348 61.8642 53.3003 56.4836 53.3003C53.489 53.3003 50.8474 54.6684 49.058 56.7873C46.7938 52.4406 42.2653 49.4258 37.0065 49.4258C29.4713 49.4258 23.3725 55.4918 23.3725 62.9865C23.3725 63.8703 23.4699 64.7179 23.6282 65.5533C18.9658 67.0789 15.5817 71.4013 15.5817 76.5471C15.5817 82.9642 20.8162 88.1706 27.268 88.1706H66.2222C72.674 88.1706 77.9085 82.9642 77.9085 76.5471C77.9085 70.13 72.674 64.9237 66.2222 64.9237ZM37.0065 45.5513C41.961 45.5513 46.5747 47.6338 49.8371 51.1814C51.03 50.5034 52.3326 50.0433 53.6838 49.7527C54.2072 48.445 54.5359 47.0527 54.5359 45.5513C54.5359 39.1342 49.3014 33.9279 42.8497 33.9279C41.1332 33.9279 39.5142 34.3153 38.0412 34.9812C36.1057 29.8475 31.1634 26.1789 25.3203 26.1789C18.4546 26.1789 12.8184 31.252 11.881 37.8265C11.8202 37.8265 11.7593 37.8023 11.6863 37.8023C5.23447 37.8023 0 43.0087 0 49.4258C0 55.8429 5.23447 61.0492 11.6863 61.0492H19.6719C20.6579 52.3558 28.0105 45.5513 37.0065 45.5513Z" fill="#EBF5FF"/>
</g>
<path d="M199.421 15.4979C199.347 15.4979 199.287 15.5221 199.226 15.5221C199.36 14.8925 199.421 14.2387 199.421 13.5607C199.421 8.20905 195.063 3.87448 189.682 3.87448C186.687 3.87448 184.046 5.24266 182.256 7.36151C179.992 3.01483 175.464 0 170.205 0C162.67 0 156.571 6.06598 156.571 13.5607C156.571 14.4445 156.668 15.2921 156.827 16.1275C152.164 17.6531 148.78 21.9756 148.78 27.1214C148.78 33.5385 154.015 38.7448 160.466 38.7448H199.421C205.872 38.7448 211.107 33.5385 211.107 27.1214C211.107 20.7043 205.872 15.4979 199.421 15.4979Z" fill="#EBF5FF"/>
<g clip-path="url(#clip1)">
<path d="M213.494 115.816C213.384 115.816 213.291 115.852 213.199 115.852C213.402 114.899 213.494 113.91 213.494 112.883C213.494 104.784 206.887 98.2233 198.729 98.2233C194.189 98.2233 190.184 100.294 187.471 103.501C184.038 96.9222 177.173 92.3592 169.2 92.3592C157.775 92.3592 148.529 101.54 148.529 112.883C148.529 114.221 148.676 115.504 148.916 116.768C141.848 119.077 136.717 125.62 136.717 133.408C136.717 143.12 144.653 151 154.435 151H213.494C223.276 151 231.212 143.12 231.212 133.408C231.212 123.695 223.276 115.816 213.494 115.816ZM169.2 86.4951C176.711 86.4951 183.706 89.6471 188.652 95.0164C190.461 93.9902 192.436 93.2938 194.484 92.854C195.278 90.8749 195.776 88.7675 195.776 86.4951C195.776 76.7828 187.84 68.9029 178.059 68.9029C175.456 68.9029 173.002 69.4893 170.768 70.4972C167.834 62.7273 160.341 57.1747 151.482 57.1747C141.072 57.1747 132.527 64.853 131.106 74.8036C131.014 74.8036 130.922 74.767 130.811 74.767C121.029 74.767 113.093 82.6468 113.093 92.3592C113.093 102.072 121.029 109.951 130.811 109.951H142.918C144.413 96.7939 155.56 86.4951 169.2 86.4951Z" fill="#EBF5FF"/>
</g>
<mask id="mask0" mask-type="alpha" maskUnits="userSpaceOnUse" x="62" y="16" width="102" height="102">
<path d="M156.296 17.5981L65.282 70.0894C61.7278 72.131 62.1794 77.0778 65.714 78.5697L86.5873 87.3248L143.002 37.621C144.082 36.6591 145.614 38.1314 144.691 39.2503L97.3873 96.8651V112.667C97.3873 117.3 102.984 119.126 105.733 115.769L118.202 100.595L142.669 110.842C145.457 112.02 148.638 110.273 149.149 107.269L163.287 22.4664C163.954 18.5011 159.693 15.6351 156.296 17.5981Z" fill="#007FFF"/>
</mask>
<g mask="url(#mask0)">
<path d="M156.296 17.5981L65.282 70.0894C61.7278 72.131 62.1794 77.0778 65.714 78.5697L86.5873 87.3248L143.002 37.621C144.082 36.6591 145.614 38.1314 144.691 39.2503L97.3873 96.8651V112.667C97.3873 117.3 102.984 119.126 105.733 115.769L118.202 100.595L142.669 110.842C145.457 112.02 148.638 110.273 149.149 107.269L163.287 22.4664C163.954 18.5011 159.693 15.6351 156.296 17.5981Z" fill="#007FFF"/>
<rect x="142.721" y="110.722" width="30.2722" height="53.9504" transform="rotate(112.765 142.721 110.722)" fill="#0045BF"/>
</g>
<defs>
<clipPath id="clip0">
<rect width="77.9085" height="61.9917" fill="white" transform="translate(0 26.1789)"/>
</clipPath>
<clipPath id="clip1">
<rect width="118.119" height="93.8252" fill="white" transform="translate(113.093 57.1747)"/>
</clipPath>
</defs>
</svg>
