<?xml version="1.0" encoding="utf-8"?>
<!-- Generator: Adobe Illustrator 24.1.2, SVG Export Plug-In . SVG Version: 6.00 Build 0)  -->
<svg version="1.1" xmlns="http://www.w3.org/2000/svg" xmlns:xlink="http://www.w3.org/1999/xlink" x="0px" y="0px"
	 viewBox="0 0 1872 792" style="enable-background:new 0 0 1872 792;" xml:space="preserve">
<style type="text/css">
	.st0{display:none;}
	.st1{display:inline;fill:#F5F5F5;}
	.st2{display:inline;}
	.st3{fill:#ACACAC;}
	.st4{display:inline;fill:none;}
	.st5{fill:#FFFFFF;}
	.st6{fill:#DDDDDD;}
	.st7{fill:#00A1E0;}
	.st8{fill:#EA4335;}
	.st9{fill:#4285F4;}
	.st10{fill:#34A853;}
	.st11{fill:#FBBC05;}
	.st12{fill:none;stroke:#007FFF;stroke-width:3;stroke-miterlimit:10;}
	.st13{fill:#3C5A9A;}
	.st14{fill:#F37621;}
	.st15{fill:#336791;}
	.st16{fill:#8C3123;}
	.st17{fill:#E05243;}
	.st18{fill:#5E1F18;}
	.st19{fill:#F2B0A9;}
	.st20{fill:#5C4C9F;}
	.st21{fill:#F9AB00;}
	.st22{fill:#E37400;}
	.st23{fill:#23A566;}
	.st24{fill:#1C8F5A;}
	.st25{fill:#8ED1B1;}
	.st26{fill-rule:evenodd;clip-rule:evenodd;fill:#FFFFFF;}
	.st27{fill:#008272;}
	.st28{fill:#2684FF;}
	.st29{fill:url(#SVGID_1_);}
	.st30{fill:url(#SVGID_2_);}
	.st31{fill:#03363D;}
	.st32{fill-rule:evenodd;clip-rule:evenodd;fill:#32325D;}
	.st33{fill:#FF694B;}
</style>
<g id="Layer_1" class="st0">
	<rect class="st1" width="1872" height="792"/>
	<g class="st2">
		<polygon class="st3" points="1266,390 1266,360 1254,360 1254,390 1224,390 1224,402 1254,402 1254,432 1266,432 1266,402 
			1296,402 1296,390 		"/>
		<polygon class="st3" points="618,360 606,360 606,390 576,390 576,402 606,402 606,432 618,432 618,402 648,402 648,390 618,390 
					"/>
	</g>
	<path class="st4" d="M1289.2,301.3c-17.3,0-31.3,14-31.3,31.3c0,17.3,14,31.3,31.3,31.3c17.3,0,31.3-14,31.3-31.3l0,0
		C1320.5,315.3,1306.5,301.3,1289.2,301.3z M1207.9,301.3c-17.3,0-31.3,14-31.3,31.3c0,17.3,14,31.3,31.3,31.3
		c17.3,0,31.3-14,31.3-31.3l0,0C1239.2,315.3,1225.1,301.3,1207.9,301.3z M1248.5,230.8c-17.3,0-31.3,14-31.3,31.3
		c0,17.3,14,31.3,31.3,31.3c17.3,0,31.3-14,31.3-31.3l0,0C1279.8,244.9,1265.8,230.8,1248.5,230.8z"/>
</g>
<g id="logos">
	<g>
		<g>
			<circle class="st5" cx="288" cy="384" r="143.8"/>
			<path class="st6" d="M288,240.5c38.3,0,74.4,14.9,101.5,42c27.1,27.1,42,63.1,42,101.5s-14.9,74.4-42,101.5
				c-27.1,27.1-63.1,42-101.5,42s-74.4-14.9-101.5-42c-27.1-27.1-42-63.1-42-101.5s14.9-74.4,42-101.5
				C213.6,255.4,249.7,240.5,288,240.5 M288,240c-79.5,0-144,64.5-144,144s64.5,144,144,144s144-64.5,144-144S367.5,240,288,240
				L288,240z"/>
		</g>
		<g>
			<path class="st7" d="M272.9,343.8c5.8-6,13.9-9.8,22.8-9.8c11.9,0,22.2,6.6,27.8,16.5c4.8-2.1,10.1-3.3,15.7-3.3
				c21.4,0,38.8,17.5,38.8,39.1c0,21.6-17.4,39.1-38.8,39.1c-2.6,0-5.1-0.3-7.6-0.8c-4.9,8.7-14.1,14.5-24.8,14.5
				c-4.5,0-8.7-1-12.4-2.9c-4.9,11.6-16.4,19.7-29.8,19.7c-13.9,0-25.8-8.8-30.4-21.2c-2,0.4-4.1,0.6-6.2,0.6
				c-16.6,0-30-13.6-30-30.4c0-11.2,6-21,15-26.3c-1.8-4.3-2.9-8.9-2.9-13.9c0-19.3,15.7-34.9,35-34.9
				C256.4,330,266.5,335.4,272.9,343.8"/>
			<path class="st5" d="M224.1,395.3c-0.1,0.3,0,0.4,0.1,0.4c0.3,0.2,0.7,0.4,1,0.6c1.8,1,3.6,1.3,5.4,1.3c3.7,0,6-2,6-5.1v-0.1
				c0-2.9-2.6-4-5-4.8l-0.3-0.1c-1.8-0.6-3.4-1.1-3.4-2.3v-0.1c0-1,0.9-1.8,2.4-1.8c1.6,0,3.5,0.5,4.7,1.2c0,0,0.4,0.2,0.5-0.1
				c0.1-0.2,0.7-1.8,0.8-2c0.1-0.2-0.1-0.3-0.2-0.4c-1.4-0.8-3.3-1.4-5.3-1.4l-0.4,0c-3.4,0-5.7,2-5.7,5v0.1c0,3.1,2.6,4.1,5,4.8
				l0.4,0.1c1.8,0.5,3.3,1,3.3,2.3v0.1c0,1.1-1,2-2.6,2c-0.6,0-2.6,0-4.8-1.4c-0.3-0.2-0.4-0.3-0.6-0.4c-0.1-0.1-0.4-0.2-0.5,0.2
				L224.1,395.3L224.1,395.3z M278.1,395.3c-0.1,0.3,0,0.4,0.1,0.4c0.3,0.2,0.7,0.4,1,0.6c1.8,1,3.6,1.3,5.4,1.3c3.7,0,6-2,6-5.1
				v-0.1c0-2.9-2.6-4-5-4.8l-0.3-0.1c-1.8-0.6-3.4-1.1-3.4-2.3v-0.1c0-1,0.9-1.8,2.4-1.8c1.6,0,3.5,0.5,4.7,1.2c0,0,0.4,0.2,0.5-0.1
				c0.1-0.2,0.7-1.8,0.8-2c0.1-0.2-0.1-0.3-0.2-0.4c-1.4-0.8-3.3-1.4-5.3-1.4l-0.4,0c-3.4,0-5.7,2-5.7,5v0.1c0,3.1,2.6,4.1,5,4.8
				l0.4,0.1c1.8,0.5,3.3,1,3.3,2.3v0.1c0,1.1-1,2-2.6,2c-0.6,0-2.6,0-4.8-1.4c-0.3-0.2-0.4-0.3-0.6-0.4c-0.1,0-0.4-0.2-0.5,0.2
				L278.1,395.3L278.1,395.3z M315,389.2c0,1.8-0.3,3.2-1,4.2c-0.6,1-1.6,1.5-3,1.5c-1.4,0-2.3-0.5-3-1.5c-0.6-1-1-2.4-1-4.2
				c0-1.8,0.3-3.2,1-4.2c0.6-1,1.6-1.4,3-1.4c1.4,0,2.4,0.5,3,1.4C314.7,386,315,387.4,315,389.2 M318.1,385.8
				c-0.3-1-0.8-1.9-1.4-2.7c-0.6-0.8-1.4-1.4-2.4-1.8c-0.9-0.4-2.1-0.7-3.3-0.7c-1.3,0-2.4,0.2-3.3,0.7c-0.9,0.4-1.7,1-2.4,1.8
				c-0.6,0.8-1.1,1.7-1.4,2.7c-0.3,1-0.5,2.1-0.5,3.3s0.2,2.3,0.5,3.3c0.3,1,0.8,1.9,1.4,2.7c0.6,0.8,1.4,1.4,2.4,1.8
				c0.9,0.4,2.1,0.6,3.3,0.6c1.2,0,2.4-0.2,3.3-0.6c0.9-0.4,1.7-1,2.4-1.8c0.6-0.8,1.1-1.7,1.4-2.7c0.3-1,0.5-2.1,0.5-3.3
				C318.6,388,318.4,386.9,318.1,385.8 M343.4,394.3c-0.1-0.3-0.4-0.2-0.4-0.2c-0.4,0.2-0.9,0.3-1.4,0.4c-0.5,0.1-1.1,0.1-1.7,0.1
				c-1.5,0-2.7-0.4-3.5-1.3c-0.9-0.9-1.3-2.3-1.3-4.2c0-1.7,0.4-3.1,1.2-4.1c0.8-1,1.9-1.5,3.4-1.5c1.3,0,2.2,0.1,3.3,0.5
				c0,0,0.2,0.1,0.4-0.2c0.3-0.7,0.5-1.3,0.8-2.1c0.1-0.2-0.1-0.3-0.2-0.4c-0.4-0.2-1.3-0.4-2.1-0.5c-0.7-0.1-1.4-0.2-2.3-0.2
				c-1.3,0-2.4,0.2-3.4,0.7c-1,0.4-1.8,1-2.5,1.8c-0.7,0.8-1.2,1.7-1.5,2.7c-0.3,1-0.5,2.1-0.5,3.3c0,2.6,0.7,4.6,2.1,6.1
				c1.4,1.5,3.4,2.3,6.1,2.3c1.6,0,3.2-0.3,4.4-0.8c0,0,0.2-0.1,0.1-0.4L343.4,394.3L343.4,394.3z M348.8,387.4
				c0.1-1,0.4-1.8,0.8-2.5c0.6-1,1.6-1.5,3-1.5s2.3,0.5,2.9,1.5c0.4,0.6,0.6,1.5,0.7,2.5H348.8L348.8,387.4z M359.2,385.3
				c-0.3-1-0.9-2-1.3-2.4c-0.7-0.7-1.3-1.2-2-1.5c-0.9-0.4-1.9-0.6-3-0.6c-1.3,0-2.5,0.2-3.4,0.7c-1,0.5-1.8,1.1-2.4,1.8
				c-0.6,0.8-1.1,1.7-1.4,2.7c-0.3,1-0.5,2.1-0.5,3.3c0,1.2,0.2,2.3,0.5,3.3c0.3,1,0.8,1.9,1.5,2.7c0.7,0.7,1.6,1.3,2.6,1.7
				c1,0.4,2.3,0.6,3.8,0.6c3,0,4.6-0.7,5.3-1c0.1-0.1,0.2-0.2,0.1-0.5l-0.7-1.9c-0.1-0.3-0.4-0.2-0.4-0.2c-0.7,0.3-1.8,0.8-4.3,0.8
				c-1.6,0-2.8-0.5-3.6-1.2c-0.8-0.8-1.1-1.9-1.2-3.5l10.4,0c0,0,0.3,0,0.3-0.3C359.5,389.6,359.9,387.6,359.2,385.3 M265.3,387.4
				c0.1-1,0.4-1.8,0.8-2.5c0.6-1,1.6-1.5,3-1.5c1.4,0,2.3,0.5,2.9,1.5c0.4,0.6,0.6,1.5,0.7,2.5H265.3z M275.6,385.3
				c-0.3-1-0.9-2-1.3-2.4c-0.7-0.7-1.3-1.2-2-1.5c-0.9-0.4-1.9-0.6-3-0.6c-1.3,0-2.5,0.2-3.4,0.7c-1,0.5-1.8,1.1-2.4,1.8
				c-0.6,0.8-1.1,1.7-1.4,2.7c-0.3,1-0.5,2.1-0.5,3.3c0,1.2,0.2,2.3,0.5,3.3c0.3,1,0.8,1.9,1.5,2.7c0.7,0.7,1.6,1.3,2.6,1.7
				c1,0.4,2.3,0.6,3.8,0.6c3,0,4.6-0.7,5.3-1c0.1-0.1,0.2-0.2,0.1-0.5l-0.7-1.9c-0.1-0.3-0.4-0.2-0.4-0.2c-0.7,0.3-1.8,0.8-4.3,0.8
				c-1.6,0-2.8-0.5-3.6-1.2c-0.8-0.8-1.1-1.9-1.2-3.5l10.4,0c0,0,0.3,0,0.3-0.3C276,389.6,276.3,387.6,275.6,385.3 M242.7,394.3
				c-0.4-0.3-0.5-0.4-0.6-0.6c-0.2-0.3-0.3-0.8-0.3-1.4c0-0.9,0.3-1.6,0.9-2c0,0,0.9-0.8,3-0.8c1.5,0,2.8,0.2,2.8,0.2v4.7h0
				c0,0-1.3,0.3-2.8,0.4C243.6,395,242.7,394.3,242.7,394.3 M246.9,386.9c-0.4,0-1,0-1.6,0c-0.9,0-1.8,0.1-2.6,0.3
				c-0.8,0.2-1.5,0.6-2.2,1c-0.6,0.4-1.1,1-1.5,1.7c-0.4,0.7-0.6,1.5-0.6,2.4c0,0.9,0.2,1.7,0.5,2.4c0.3,0.7,0.8,1.2,1.4,1.6
				c0.6,0.4,1.3,0.7,2.1,0.9c0.8,0.2,1.7,0.3,2.8,0.3c1.1,0,2.1-0.1,3.2-0.3c1-0.2,2.3-0.4,2.6-0.5c0.2-0.1,0.5-0.1,0.7-0.2
				c0.3-0.1,0.2-0.3,0.2-0.3l0-9.5c0-2.1-0.6-3.6-1.7-4.6c-1.1-1-2.7-1.4-4.8-1.4c-0.8,0-2,0.1-2.8,0.3c0,0-2.3,0.4-3.2,1.2
				c0,0-0.2,0.1-0.1,0.4l0.7,2c0.1,0.3,0.3,0.2,0.3,0.2s0.1,0,0.2-0.1c2-1.1,4.5-1.1,4.5-1.1c1.1,0,2,0.2,2.6,0.7
				c0.6,0.4,0.9,1.1,0.9,2.5v0.4C247.7,387,246.9,386.9,246.9,386.9 M331,381.6c0.1-0.2-0.1-0.3-0.2-0.4c-0.2-0.1-1.1-0.3-1.7-0.3
				c-1.3-0.1-2,0.1-2.7,0.4c-0.6,0.3-1.4,0.8-1.8,1.3v-1.3c0-0.2-0.1-0.3-0.3-0.3h-2.7c-0.2,0-0.3,0.1-0.3,0.3v15.6
				c0,0.2,0.1,0.3,0.3,0.3h2.7c0.2,0,0.3-0.1,0.3-0.3v-7.8c0-1,0.1-2.1,0.3-2.7c0.2-0.6,0.5-1.2,0.9-1.5c0.4-0.4,0.8-0.6,1.3-0.8
				c0.5-0.1,1-0.2,1.4-0.2c0.5,0,1.1,0.1,1.1,0.1c0.2,0,0.3-0.1,0.4-0.3C330.4,383.3,330.9,381.9,331,381.6"/>
			<path class="st5" d="M305.3,374.4c-0.3-0.1-0.6-0.2-1-0.2c-0.4-0.1-0.9-0.1-1.4-0.1c-1.9,0-3.4,0.5-4.4,1.6c-1,1-1.7,2.6-2.1,4.7
				l-0.1,0.7h-2.4c0,0-0.3,0-0.3,0.3l-0.4,2.2c0,0.2,0.1,0.3,0.3,0.3h2.3l-2.3,13.1c-0.2,1.1-0.4,1.9-0.6,2.6
				c-0.2,0.6-0.5,1.1-0.7,1.5c-0.3,0.3-0.5,0.6-1,0.7c-0.4,0.1-0.8,0.2-1.2,0.2c-0.3,0-0.6,0-0.8-0.1c-0.2,0-0.4-0.1-0.6-0.2
				c0,0-0.3-0.1-0.4,0.2c-0.1,0.2-0.7,1.9-0.8,2.1c-0.1,0.2,0,0.4,0.2,0.4c0.3,0.1,0.5,0.2,1,0.3c0.6,0.1,1.1,0.1,1.5,0.1
				c1,0,1.8-0.1,2.6-0.4c0.7-0.3,1.4-0.7,1.9-1.3c0.6-0.7,1-1.4,1.4-2.3c0.4-0.9,0.7-2.1,0.9-3.5l2.4-13.3h3.4c0,0,0.3,0,0.3-0.3
				l0.4-2.2c0-0.2-0.1-0.3-0.3-0.3h-3.3c0-0.1,0.2-1.2,0.6-2.4c0.2-0.5,0.5-0.9,0.7-1.1c0.3-0.3,0.6-0.4,0.9-0.5
				c0.3-0.1,0.7-0.2,1.1-0.2c0.3,0,0.6,0,0.9,0.1c0.3,0.1,0.4,0.1,0.5,0.1c0.3,0.1,0.4,0,0.5-0.2l0.8-2.2
				C305.5,374.5,305.3,374.4,305.3,374.4 M258.7,396.9c0,0.2-0.1,0.3-0.3,0.3h-2.8c-0.2,0-0.3-0.1-0.3-0.3v-22.3
				c0-0.2,0.1-0.3,0.3-0.3h2.8c0.2,0,0.3,0.1,0.3,0.3V396.9z"/>
		</g>
	</g>
	<g>
		<g>
			<circle class="st5" cx="1584" cy="384" r="143.8"/>
			<path class="st6" d="M1584,240.5c38.3,0,74.4,14.9,101.5,42c27.1,27.1,42,63.1,42,101.5s-14.9,74.4-42,101.5
				c-27.1,27.1-63.1,42-101.5,42s-74.4-14.9-101.5-42c-27.1-27.1-42-63.1-42-101.5s14.9-74.4,42-101.5
				C1509.6,255.4,1545.7,240.5,1584,240.5 M1584,240c-79.5,0-144,64.5-144,144s64.5,144,144,144s144-64.5,144-144
				S1663.5,240,1584,240L1584,240z"/>
		</g>
		<g>
			<path class="st8" d="M1607.5,356l12.5-12.5l0.8-5.3c-22.8-20.7-59.1-18.4-79.6,4.9c-5.7,6.5-9.9,14.5-12.2,22.9l4.5-0.6l25-4.1
				l1.9-2c11.1-12.2,30-13.9,42.8-3.5L1607.5,356z"/>
			<path class="st9" d="M1637.9,365.6c-2.9-10.6-8.8-20.1-17-27.4l-17.6,17.6c7.4,6.1,11.6,15.2,11.5,24.8v3.1
				c8.6,0,15.6,7,15.6,15.6c0,8.6-7,15.5-15.6,15.5h-31.3l-3.1,3.3v18.8l3.1,2.9h31.3c22.5,0.2,40.8-17.7,41-40.2
				C1655.9,386,1649.2,373.2,1637.9,365.6"/>
			<path class="st10" d="M1552.2,439.8h31.3v-25h-31.3c-2.2,0-4.4-0.5-6.4-1.4l-4.4,1.4l-12.6,12.5l-1.1,4.3
				C1534.7,436.8,1543.3,439.8,1552.2,439.8"/>
			<path class="st11" d="M1552.2,358.5c-22.5,0.1-40.6,18.5-40.4,40.9c0.1,12.5,5.9,24.3,15.9,32l18.1-18.1
				c-7.9-3.6-11.4-12.8-7.8-20.7s12.8-11.4,20.7-7.8c3.5,1.6,6.2,4.3,7.8,7.8l18.1-18.1C1576.9,364.4,1564.9,358.5,1552.2,358.5"/>
		</g>
	</g>
	<g>
		<g>
			<circle class="st5" cx="936" cy="408" r="143.8"/>
			<path class="st6" d="M936,264.5c38.3,0,74.4,14.9,101.5,42c27.1,27.1,42,63.1,42,101.5s-14.9,74.4-42,101.5
				c-27.1,27.1-63.1,42-101.5,42s-74.4-14.9-101.5-42c-27.1-27.1-42-63.1-42-101.5s14.9-74.4,42-101.5
				C861.6,279.4,897.7,264.5,936,264.5 M936,264c-79.5,0-144,64.5-144,144s64.5,144,144,144s144-64.5,144-144S1015.5,264,936,264
				L936,264z"/>
		</g>
		<g>
			<g>
				<path class="st13" d="M969.8,336h-23c-13.7,0-28.8,5.7-28.8,25.5c0.1,6.9,0,13.5,0,20.9h-15.8v25.1h16.3V480h29.9v-72.9h19.8
					l1.8-24.7h-22.1c0,0,0-11,0-14.2c0-7.8,8.1-7.4,8.6-7.4c3.9,0,11.4,0,13.3,0L969.8,336L969.8,336L969.8,336z"/>
			</g>
		</g>
	</g>
	<g>
		<g>
			<circle class="st5" cx="1584" cy="0" r="143.8"/>
			<path class="st6" d="M1584-143.5c38.3,0,74.4,14.9,101.5,42c27.1,27.1,42,63.1,42,101.5s-14.9,74.4-42,101.5
				c-27.1,27.1-63.1,42-101.5,42s-74.4-14.9-101.5-42c-27.1-27.1-42-63.1-42-101.5s14.9-74.4,42-101.5
				C1509.6-128.6,1545.7-143.5,1584-143.5 M1584-144c-79.5,0-144,64.5-144,144s64.5,144,144,144s144-64.5,144-144
				S1663.5-144,1584-144L1584-144z"/>
		</g>
		<g>
			<g>
				<path class="st5" d="M1591.9-65.5c-6.1-0.9-12.3-0.9-18.4,0c-3.5,0.7-6.8,2-9.9,3.8c-9.9-3.6-20.6-4.8-31-3.5
					c-7.6,1.3-14.2,5.8-18.1,12.4c-4.3,8.2-6.1,17.5-5,26.7c1.2,10.2,3.4,20.4,6.5,30.2c2.2,8.7,5.6,17,10.1,24.8
					c2.4,4.6,6.5,8.2,11.5,9.9c4,0.9,8.3-0.2,11.4-2.9c1.6,1.7,3.6,2.9,5.8,3.5c6,2.4,12.7,2.4,18.7,0c-0.4,8.3,0.7,16.6,3.2,24.5
					c1,3.9,3.3,7.2,6.5,9.6c3.9,2.2,8.5,3,13,2.2c3.9-0.6,7.7-1.9,11.1-3.8c3.5-2.2,6.3-5.5,7.9-9.3c3.3-8.6,4.8-17.8,4.5-27
					c8.9,1,17.9-1.8,24.8-7.6c2.9-2.1,4.4-5.7,3.9-9.2c-1.1-3.2-4.2-5.3-7.6-5c-3.5,0-6.5,1.3-10.2,1.3
					c7.8-13.2,13.3-27.6,16.2-42.6c1.4-6.3,1.4-12.8,0-19.1c-1.2-3.4-3.3-6.5-6-8.9c-6-5.7-13.5-9.6-21.6-11.1
					C1610.1-68.7,1600.7-68.3,1591.9-65.5z"/>
				<path class="st5" d="M1566.3,28c-3.2,1.9-7,1.6-9.9,3.2c6.8,3.5,15,1.9,20-3.9c1.4-1.6,1.3-4.1-0.3-5.5c-0.7-0.6-1.6-1-2.6-1
					C1570.4,22.8,1569.1,26.4,1566.3,28z M1618.7,21.4c-1,1.3-1.5,3-1.3,4.7c7.7,2,15.8,0.3,22-4.7c-5.6,1.4-11.4,1.1-16.8-0.7
					c-1.3-0.5-2.7-0.2-3.7,0.7H1618.7z M1554.3-21.5v13.1c-0.7,3.8-0.7,7.6,0,11.4c1.1,7.3,7.2,12.8,14.6,13.1
					c0.9-3.5,2.2-6.9,3.8-10.2c3.8-8.7,4.3-18.4,1.3-27.4c-0.5-2.6-2.8-4.4-5.4-4.5c-5.2,0.2-10.2,1.8-14.5,4.6L1554.3-21.5z
					 M1609.3-25c-2.2,2.2-3,5.5-1.9,8.5c2.8,8.9,6.6,17.4,11.3,25.3c2.1-6.3,2.3-13.2,0.7-19.6c-0.1-5.2,0.4-10.4,1.3-15.6
					c-3.9-0.7-7.9-0.1-11.5,1.6L1609.3-25z M1535.2-57.7c-5.7,0.9-10.8,4.4-13.8,9.4c-3.4,6.7-4.6,14.3-3.5,21.7
					c1.4,9.7,3.6,19.2,6.5,28.6c2,8,5.1,15.7,9.1,22.9c1.4,2.7,3.7,4.8,6.5,6c2.8,1,4.5-1.5,6-3.1c3.2-4.2,7-7.9,10.4-12.1
					c-5.1-4.7-7.7-11.5-7-18.4c0.7-5.3,0.9-10.6,0.7-16c-0.4-7.5,0.6-15.1,3-22.3c1.6-5.3,4.5-10.2,8.3-14.2
					c-8.6-2.4-17.5-3.1-26.4-2.2L1535.2-57.7z M1577.5-58.4c-6.1,0.7-11.6,3.9-15.3,8.9c-4.6,6.8-7.2,14.7-7.6,22.9
					c4.9-2.8,10.6-3.9,16.2-3.2c3.5,1.1,6.2,4,6.9,7.7c1.9,7.2,2.2,14.6,1,21.9c-1.3,5.7-4.7,10.8-6,16.8c1.5,0,3.1,0.3,4.5,1
					c2.9,1.5,4.5,4.7,4.2,7.9c-0.4,7.9-0.3,15.9,0.3,23.8c0.1,3.3,0.6,6.6,1.3,9.9c1.1,4,4,7.2,7.9,8.6c4.5,0.6,9.1-0.3,13.1-2.6
					c3.8-2.2,6.3-6.1,6.5-10.5c1.3-8.6,2.2-17.1,3.2-25.7c-0.3-3.2,0.3-6.3,1.6-9.2c1.8-2.9,2.8-2.6,4.5-3.5
					c-1.3-1.8-2.8-3.8-4.1-5.7c-5.1-8.2-9.1-17.1-12.1-26.3c-1.1-4.2,0.1-8.7,3.2-11.7c4.1-2.4,8.9-3.5,13.6-2.9
					c-2.9-7.7-7.8-14.5-14.3-19.6c-8.2-6.4-18.5-9.4-28.8-8.3L1577.5-58.4z M1599.8-59c1.9,1.3,3.9,2.2,5.7,3.5
					c7.6,5.1,13.6,12.3,17.2,20.7c1.3,2.3,1.9,4.9,1.9,7.6c-0.7,5.4-1.2,10.8-1.3,16.2c1.1,5.8,1.1,11.7,0,17.4
					c-0.6,2-1.3,3.9-2.2,5.8c0,0.3,0,0.7,0,1l1.9-2.9c6-9.9,10.5-20.6,13.6-31.8c1.8-6.1,2.7-12.4,2.9-18.8c0.4-2.5,0-5.1-1-7.4
					c-3.6-4.5-8.3-8-13.6-10.2c-8-2.6-16.6-2.9-24.8-0.9L1599.8-59z M1592.5-61.5c9.4-3.2,19.6-3.5,29.2-1
					c7.8,2.1,14.7,6.7,19.6,13.1c1.7,2.7,2.6,5.9,2.5,9.2c0,5.7-0.7,11.3-2.2,16.8c-3.7,14.5-9.7,28.4-17.8,41
					c4.6,1.3,9.4,1.3,13.9,0c1.9,0,4.5-1,5.7,1c0.9,1.9,0.4,4.1-1.3,5.4c-7,6.2-16.6,8.6-25.7,6.5c-1,7.9-1.9,15.9-3.2,24.2
					c-0.4,4.6-2.4,8.9-5.7,12.1c-3.4,2.6-7.5,4.2-11.8,4.7c-4.3,1.3-8.9,0.5-12.5-2c-3.4-3.3-5.6-7.7-6-12.4c-0.8-8-1.1-16.1-1-24.2
					c-3.9,3.3-8.9,5-14,4.7c-3.7,0-7.2-1.2-10.2-3.5c-1.4-1.2-1.6-3.3-0.4-4.7c0.1-0.1,0.3-0.3,0.4-0.4c2.8-2.2,6.5-1.8,9.8-3.1
					c2.2-1,4-2.6,5.1-4.7c-2.6-0.4-5.1-1.2-7.3-2.5c-3.9,4.1-7.6,8.6-11.1,12.7c-1.9,2.8-5.2,4.4-8.6,4.2c-3.6-1.1-6.8-3.4-8.8-6.5
					c-4.1-6.2-7.2-12.9-9.2-20c-3.6-11.2-6.3-22.7-8.1-34.4c-1.4-8.9,0.4-18,5-25.7c4.3-5.8,10.9-9.5,18.1-10
					c9.5-0.7,19.1,0.7,28,4.2c7.6-4.6,16.8-6,25.4-3.9c1-0.6,1.6,0,2.2-0.6L1592.5-61.5z"/>
				<path class="st5" d="M1575.6,3.1c2-1.2,4.4-1.4,6.5-0.7c-0.1,2.1-1.9,3.7-4,3.6c-0.5,0-1-0.2-1.4-0.4
					C1575.9,5.3,1574.8,4.1,1575.6,3.1z"/>
				<path class="st5" d="M1576.3,1.9c2-0.6,4.1-0.2,5.8,1c1,1,0,2.6-1,2.9c-1.9,1.2-4.4,0.6-5.6-1.3c-0.2-0.4-0.4-0.8-0.5-1.2
					C1575.1,2.5,1575.6,2,1576.3,1.9z"/>
				<g>
					<path class="st15" d="M1599.9-58.7c8.1-2,16.6-1.5,24.5,1.3c5.4,2.1,10.1,5.5,13.6,10.1c1.5,2.2,2.2,4.9,1.9,7.6
						c-0.2,6.4-1.2,12.7-2.9,18.8c-3.1,11.1-7.7,21.7-13.6,31.6l-1.9,2.9c0-0.3-0.1-0.7-0.3-1c0.9-1.9,1.6-3.8,2.2-5.8
						c1-5.8,0.9-11.7-0.3-17.4c0.1-5.4,0.5-10.9,1.3-16.2c0-2.6-0.7-5.2-1.9-7.6c-3.7-8.2-9.7-15.3-17.2-20.4
						C1603.7-56.3,1601.8-57.6,1599.9-58.7z"/>
					<path class="st15" d="M1577.7-58.1c10-1.2,20.1,1.5,28.2,7.6c6.6,5.1,11.6,12.1,14.3,20c-4.8-0.7-9.6,0.3-13.7,2.9
						c-3.1,3-4.3,7.5-3.1,11.7c2.7,9.4,6.7,18.3,11.8,26.6c1.1,2.1,2.5,4,4.2,5.7c-1.9,1-3.5,1.6-4.5,3.5c-0.8,3-1.3,6.1-1.5,9.2
						c-1,8.6-1.9,17.2-3.2,25.7c-0.4,4.3-2.8,8.2-6.5,10.5c-4,2.1-8.6,2.9-13.1,2.5c-4.1-1-7.3-4.4-7.9-8.6
						c-0.7-3.2-1.1-6.5-1.3-9.8c-0.3-7.9-0.3-15.9-0.3-23.8c0.3-3.2-1.3-6.3-4.1-7.9c-1.4-0.7-3-1-4.5-1c1.3-5.8,4.8-10.8,6.1-16.8
						c1.3-7.3,1-14.7-0.8-21.9c-0.8-3.6-3.5-6.6-7.1-7.6c-5.6-0.9-11.4,0.2-16.2,3.1c0.4-8.2,3.1-16.1,7.6-22.9
						C1565.9-54.1,1571.5-57.3,1577.7-58.1z"/>
					<path class="st15" d="M1535.3-57.4c8.8-1.2,17.8-0.3,26.2,2.5c-3.8,4.1-6.5,9-8.1,14.3c-2.2,7.2-3.2,14.8-2.9,22.3
						c0.4,5.3,0.2,10.7-0.7,15.9c-0.8,6.9,1.8,13.8,7,18.5c-3.5,4.1-7,7.9-10.4,12.1c-1.6,1.9-3.5,3.9-6,3.2
						c-2.8-1.2-5.1-3.4-6.5-6.1c-4.2-7.2-7.3-14.9-9.5-22.9c-3-9.3-5.2-18.9-6.5-28.6c-1.1-7.4,0.1-15,3.5-21.6
						C1524.4-52.9,1529.5-56.4,1535.3-57.4z"/>
					<path class="st15" d="M1610.6-23.5c-1,1,0,2.2,1,2.6c1.9,0.9,4.2,0.1,5.1-1.8c0.2-0.4,0.3-0.9,0.4-1.4
						C1614.9-24.8,1612.5-24.6,1610.6-23.5z M1609.3-24.7c3.4-1.8,7.4-2.3,11.1-1.6c-0.9,5.1-1.3,10.4-1.3,15.6
						c1.5,6.5,1.3,13.3-0.7,19.6c-4.9-7.8-8.7-16.3-11.1-25.1c-0.6-3,0.2-6.1,2-8.5H1609.3z"/>
					<path class="st15" d="M1565.9-23.1c-0.7,0-1.3,0.7-1.3,1.3c0.4,2.2,2.5,3.6,4.7,3.1c0.5-0.1,1-0.3,1.4-0.6c1-0.7,1.8-1.9,1-2.9
						C1570-23.4,1567.8-23.7,1565.9-23.1z M1554.5-21.2c4-2.8,8.7-4.4,13.6-4.5c2.6,0,4.8,1.9,5.4,4.5c2.8,9,2.3,18.7-1.3,27.4
						c-1.6,3.3-2.9,6.7-3.8,10.2c-7.4-0.2-13.6-5.5-14.9-12.8c-0.4-3.8-0.3-7.6,0.3-11.4c0-3.9,0-8.9,0-13.1L1554.5-21.2z"/>
					<path class="st15" d="M1619,21.7c1-0.7,2.5-1.6,3.8-0.7c5.4,2,11.3,2.2,16.8,0.7c-3.6,3-8.1,4.9-12.8,5.4
						c-3.1,0.6-6.2,0.4-9.2-0.7C1617.4,24.8,1617.9,23.1,1619,21.7z"/>
					<path class="st15" d="M1566.6,28.1c2.9-1.6,4.2-5,7-7c2.9-0.3,5.4,4.1,2.9,6.5c-4.9,5.9-13.3,7.5-20,3.9
						C1559.9,30.6,1563.3,29.5,1566.6,28.1z"/>
				</g>
				<path d="M1592.2-61.6c-0.7,0-1.6-0.3-2.2-0.3c-8.6-2.1-17.8-0.7-25.4,3.9c-8.9-3.5-18.4-4.9-28-4.2c-7.2,0.5-13.8,4.1-18.1,9.9
					c-4.4,7.8-6.1,16.9-4.8,25.9c1.7,11.6,4.3,23.1,7.9,34.3c2.2,7.1,5.3,13.8,9.2,20c1.9,3.3,5.1,5.7,8.8,6.5
					c3.4,0.2,6.6-1.4,8.4-4.3c3.9-4.5,7.4-8.5,11.1-12.7c2.5,1.2,5.2,1.9,7.9,2.2c-1.6,1.8-2.9,4.1-5.1,4.7
					c-3.5,0.4-6.8,1.5-9.8,3.2c-1.4,1.2-1.6,3.2-0.4,4.6c0.1,0.2,0.3,0.3,0.4,0.4c2.9,2.2,6.5,3.5,10.2,3.5c5.1,0.4,10.2-1.3,14-4.7
					c-0.2,8.1,0.2,16.1,1,24.2c0.3,4.8,2.4,9.3,6,12.4c3.5,2.7,8,3.7,12.4,2.8c4.3-0.6,8.3-2.2,11.8-4.7c3.3-3.2,5.3-7.5,5.7-12.1
					c1.3-7.9,2.2-15.9,3.2-24.2c9.1,1.9,18.6-0.5,25.7-6.5c1.3-1.3,2.9-3.8,1.3-5.4c-1.6-1.3-3.8-1.6-5.7-1c-4.5,1.6-9.4,1.6-13.9,0
					c8.1-12.6,14.1-26.4,17.8-40.9c1.4-5.5,2.1-11.1,2.2-16.8c0-3.2-0.9-6.4-2.5-9.2c-4.9-6.4-11.8-11-19.6-13.1
					C1611.8-64.7,1601.8-64.2,1592.2-61.6z M1592.5-65.4c8.7-2.4,17.8-3,26.7-1.6c8.2,1.4,15.8,5.2,21.7,11.1c2.7,2.4,4.8,5.5,6,8.9
					c1.4,6.3,1.4,12.8,0,19.1c-3,15-8.5,29.4-16.2,42.6c3.5,0,6.5-1,10.2-1.3c3.4-0.5,6.7,1.7,7.6,5c0.3,3.6-1.1,7.1-3.9,9.4
					c-7.1,5.6-16.1,8.3-25.1,7.6c0.1,9.2-1.4,18.3-4.5,27c-1.7,3.7-4.4,6.9-7.9,9.2c-3.4,2-7.2,3.3-11.1,3.9
					c-4.4,0.8-8.9,0-12.7-2.2c-3.3-2.3-5.6-5.7-6.5-9.6c-2.1-8-3.2-16.2-3.1-24.5c-6,2.4-12.8,2.4-18.8,0c-2.2-0.6-4.1-1.8-5.7-3.5
					c-3.2,2.6-7.4,3.7-11.5,2.8c-4.9-1.8-8.9-5.3-11.4-9.9c-4.5-7.8-7.9-16.1-10.2-24.8c-3-9.9-5.2-20-6.5-30.3
					c-1.2-9.2,0.5-18.5,5-26.7c4.3-6.3,10.8-10.7,18.3-12.2c10.5-1.6,21.2-0.6,31.2,2.8c3.1-1.7,6.4-3,9.9-3.8
					c6.3-0.6,12.6-0.3,18.8,1L1592.5-65.4z"/>
			</g>
		</g>
	</g>
	<g>
		<g>
			<circle class="st5" cx="936" cy="792" r="143.8"/>
			<path class="st6" d="M936,648.5c38.3,0,74.4,14.9,101.5,42c27.1,27.1,42,63.1,42,101.5s-14.9,74.4-42,101.5
				c-27.1,27.1-63.1,42-101.5,42s-74.4-14.9-101.5-42s-42-63.1-42-101.5s14.9-74.4,42-101.5S897.7,648.5,936,648.5 M936,648
				c-79.5,0-144,64.5-144,144s64.5,144,144,144s144-64.5,144-144S1015.5,648,936,648L936,648z"/>
		</g>
		<g>
			<g id="Symbols_2_">
				<g id="img_avatar-logo-amazon_s3_2_">
					<g id="Storage_AmazonS3_AmazonS3_2_">
						<g id="Group_2_">
							<polygon class="st16" points="875.6,735.2 875.6,848.5 864,842.7 864,741 							"/>
							<polygon class="st17" points="909.7,773.4 909.7,810.6 936,814 936,823.7 909.7,828.6 909.7,840.3 875.6,848.5 875.6,735.2 
								909.7,743.4 909.7,755.4 936,760.2 936,770.1 							"/>
							<polygon class="st16" points="996.4,735.2 996.4,848.5 962.3,840.3 962.3,828.6 942.2,824.9 936,823.7 936,814 950.9,812.1 
								950.9,812.1 962.3,810.6 962.3,773.4 951,772 936,770.1 936,760.2 942.3,759.1 962.3,755.4 962.3,743.4 							"/>
							<polygon class="st17" points="1008,741 1008,842.7 996.4,848.5 996.4,735.2 							"/>
							<polygon class="st16" points="936,770.1 936,814 909.7,810.6 909.7,773.4 							"/>
							<polygon class="st18" points="962.3,755.4 942.3,759.1 936,760.2 909.7,755.4 934.1,749.3 936,748.9 937.9,749.3 							"/>
							<polygon class="st17" points="962.3,718.1 962.3,755.4 937.9,749.3 936,748.9 936,705 							"/>
							<polygon class="st16" points="936,705 936,748.9 934.1,749.3 909.7,755.4 909.7,718.1 							"/>
							<polygon class="st17" points="962.3,773.4 962.3,810.6 950.9,812.1 950.9,812.1 936,814 936,770.1 951,772 							"/>
						</g>
					</g>
				</g>
			</g>
		</g>
	</g>
	<g>
		<g>
			<circle class="st5" cx="936" cy="0" r="143.8"/>
			<path class="st6" d="M936-143.5c38.3,0,74.4,14.9,101.5,42c27.1,27.1,42,63.1,42,101.5s-14.9,74.4-42,101.5
				c-27.1,27.1-63.1,42-101.5,42s-74.4-14.9-101.5-42s-42-63.1-42-101.5s14.9-74.4,42-101.5S897.7-143.5,936-143.5 M936-144
				c-79.5,0-144,64.5-144,144s64.5,144,144,144s144-64.5,144-144S1015.5-144,936-144L936-144z"/>
		</g>
		<path class="st20" d="M1008,49.8V-60.7l-42.9-23.4V84.1L1008,49.8z M910.5-69.5l34.6,10.2V47.3l-34.6,15.1V-69.5z M890.5-47.7
			L864.1-52L864,43.5l26.5-7V-47.7z"/>
	</g>
	<g>
		<g>
			<circle class="st5" cx="288" cy="792" r="143.8"/>
			<path class="st6" d="M288,648.5c38.3,0,74.4,14.9,101.5,42s42,63.1,42,101.5s-14.9,74.4-42,101.5s-63.1,42-101.5,42
				s-74.4-14.9-101.5-42s-42-63.1-42-101.5s14.9-74.4,42-101.5S249.7,648.5,288,648.5 M288,648c-79.5,0-144,64.5-144,144
				s64.5,144,144,144s144-64.5,144-144S367.5,648,288,648L288,648z"/>
		</g>
		<g>
			<path class="st21" d="M360,851.8c0.1,10.9-8.8,19.9-19.7,19.9c-0.8,0-1.6,0-2.4-0.1c-10.2-1.5-17.6-10.3-17.3-20.6V733
				c-0.2-10.3,7.2-19.1,17.4-20.6c10.9-1.3,20.7,6.5,22,17.4c0.1,0.8,0.1,1.6,0.1,2.4V851.8z"/>
			<path class="st22" d="M235.7,832.2c10.9,0,19.7,8.8,19.7,19.7c0,10.9-8.8,19.7-19.7,19.7c-10.9,0-19.7-8.8-19.7-19.7
				C216,841.1,224.8,832.2,235.7,832.2z M287.7,772.4c-11,0.6-19.5,9.8-19.2,20.8v53c0,14.4,6.3,23.1,15.6,25
				c10.7,2.2,21.1-4.7,23.3-15.5c0.3-1.3,0.4-2.6,0.4-4v-59.5c0-10.9-8.8-19.8-19.8-19.9C287.9,772.4,287.8,772.4,287.7,772.4z"/>
		</g>
	</g>
	<g>
		<g>
			<circle class="st5" cx="288" cy="0" r="144"/>
		</g>
		<g>
			<path class="st28" d="M375.8-5.2l-80.1-80.1L288-93l-60.3,60.3L200.1-5.2c-2.9,2.9-2.9,7.5,0,10.4l55.1,55.1L288,93l60.3-60.3
				l0.9-0.9l26.6-26.6C378.7,2.4,378.7-2.3,375.8-5.2C375.8-5.2,375.8-5.2,375.8-5.2L375.8-5.2z M288,27.5L260.5,0L288-27.5L315.5,0
				L288,27.5z"/>
			
				<linearGradient id="SVGID_1_" gradientUnits="userSpaceOnUse" x1="716.3799" y1="286.9565" x2="712.896" y2="290.4397" gradientTransform="matrix(11.028 0 0 11.028 -7617.1846 -3219.9089)">
				<stop  offset="0.18" style="stop-color:#0052CC"/>
				<stop  offset="1" style="stop-color:#2684FF"/>
			</linearGradient>
			<path class="st29" d="M288-27.5c-18-18-18.1-47.2-0.2-65.3l-60.2,60.2l32.8,32.8L288-27.5z"/>
			
				<linearGradient id="SVGID_2_" gradientUnits="userSpaceOnUse" x1="717.3025" y1="296.9644" x2="720.7797" y2="293.488" gradientTransform="matrix(11.028 0 0 11.028 -7617.1846 -3219.9089)">
				<stop  offset="0.18" style="stop-color:#0052CC"/>
				<stop  offset="1" style="stop-color:#2684FF"/>
			</linearGradient>
			<path class="st30" d="M315.6-0.1L288,27.5c18.1,18.1,18.1,47.4,0,65.5l60.4-60.3L315.6-0.1z"/>
		</g>
	</g>
	<g>
		<g>
			<circle class="st5" cx="1584" cy="792" r="143.8"/>
			<path class="st6" d="M1584,648.5c38.3,0,74.4,14.9,101.5,42c27.1,27.1,42,63.1,42,101.5s-14.9,74.4-42,101.5
				c-27.1,27.1-63.1,42-101.5,42s-74.4-14.9-101.5-42c-27.1-27.1-42-63.1-42-101.5s14.9-74.4,42-101.5
				C1509.6,663.4,1545.7,648.5,1584,648.5 M1584,648c-79.5,0-144,64.5-144,144s64.5,144,144,144s144-64.5,144-144
				S1663.5,648,1584,648L1584,648z"/>
		</g>
		<g>
			<polygon class="st31" points="1580.9,756.7 1580.9,801.4 1543.8,801.4 			"/>
			<path class="st31" d="M1580.9,740.5c0.2,10.2-7.9,18.7-18.2,18.9c-9.9,0.2-18.2-7.4-18.9-17.2c0-0.5,0-1.1,0-1.6L1580.9,740.5z"
				/>
			<path class="st31" d="M1587,801.4c-0.4-10.2,7.5-18.9,17.8-19.3c10.2-0.4,18.9,7.5,19.3,17.8l0,0c0,0.5,0,1.1,0,1.6L1587,801.4z"
				/>
			<polygon class="st31" points="1587,785.3 1587,740.5 1624.1,740.5 			"/>
		</g>
	</g>
</g>
<g id="Layer_3">
</g>
</svg>
