<svg width="192" height="192" viewBox="0 0 192 192" fill="none" xmlns="http://www.w3.org/2000/svg">
<path d="M118.707 89.606L80.2641 102.18L46.8125 116.914L37.4538 119.362C35.0541 121.618 32.5584 123.921 29.8708 126.273C27.1831 128.625 24.1595 131.168 22.0478 132.848C19.2788 135.121 16.7244 137.643 14.4168 140.383C11.7772 143.695 9.66546 147.198 8.80157 149.934C7.21778 154.829 7.98568 159.773 11.0573 164.332C14.9928 170.139 22.8637 176.09 32.0785 180.122C38.0786 182.633 44.2543 184.702 50.556 186.313C60.3947 188.809 79.4482 191.496 89.9588 191.928C91.6533 192.024 93.3517 192.024 95.0461 191.928C95.2861 191.784 96.9179 188.665 98.7896 184.825C105.221 171.675 109.876 159.293 112.42 148.782C113.908 142.399 115.107 133.856 115.923 123.777C116.115 120.946 116.211 111.491 116.019 108.323C115.827 103.754 115.346 99.2018 114.58 94.6933C114.471 94.3032 114.439 93.8959 114.484 93.4934C114.58 93.3975 114.964 93.3015 119.667 91.9097L118.707 89.654V89.606ZM109.924 94.7413C110.26 94.7413 111.22 103.668 111.412 109.283C111.479 109.939 111.463 110.6 111.364 111.251C111.124 111.251 106.469 108.467 103.109 106.404C99.7495 104.34 94.6622 100.932 93.7983 100.213C92.9344 99.4927 93.5583 99.9726 95.91 99.1567C100.037 97.8609 109.636 94.7893 109.924 94.7893V94.7413ZM90.3428 101.172C90.5827 101.172 91.2546 101.556 92.8864 102.516C98.8856 106.26 106.997 110.819 110.5 112.307C111.556 112.787 111.7 112.595 109.204 114.275C103.925 117.874 97.3018 121.426 89.2389 124.977L86.5993 126.129C86.654 125.591 86.7667 125.06 86.9352 124.545C88.903 117.298 90.0068 110.003 90.0548 104.1C90.1028 101.172 90.1028 101.172 90.3428 101.124C90.5827 101.076 90.2948 101.172 90.3428 101.172ZM86.3113 102.708C86.5033 102.9 86.3593 109.379 86.1193 111.155C85.5929 115.433 84.6936 119.656 83.4317 123.777C83.2447 124.461 83.0204 125.134 82.7598 125.793C82.6638 125.937 78.6803 122.05 77.3365 120.514C75.2553 118.145 73.4667 115.535 72.0092 112.739C71.3373 111.443 70.2814 108.851 70.3774 108.803C70.4734 108.755 86.1673 102.564 86.2633 102.66L86.3113 102.708ZM67.3058 110.195H67.4018C67.5825 110.531 67.7273 110.885 67.8338 111.251C69.0783 114.324 70.7071 117.227 72.6811 119.89C74.6542 122.539 76.8892 124.983 79.3522 127.185L80.792 128.385C80.984 128.577 81.032 128.529 76.2806 130.353C70.8094 132.464 64.8102 134.528 57.9471 136.736L53.0517 138.32C52.8117 138.415 52.8597 138.272 53.6276 137.072C57.0352 131.744 62.2185 121.33 65.0981 113.939C65.5781 112.643 66.106 111.395 66.154 111.107C66.1873 110.938 66.2617 110.779 66.3704 110.646C66.4792 110.512 66.6191 110.407 66.7779 110.339L67.2578 110.243L67.3058 110.195ZM61.4986 112.595C61.5946 112.643 60.1068 115.762 58.667 118.594C55.8353 124.065 52.7638 129.489 48.6363 136.064L47.1965 138.367C47.0525 138.559 47.0045 138.511 46.5246 137.6C45.4767 135.47 44.7181 133.211 44.2689 130.88C43.8549 128.012 43.9035 125.095 44.4129 122.242C44.7968 120.418 44.7488 120.466 45.6127 120.034C49.3562 118.162 61.3546 112.499 61.4986 112.643V112.595ZM111.604 114.611V115.81C111.534 123.121 110.956 130.417 109.876 137.648C109.684 138.799 109.54 139.711 109.54 139.759L107.716 139.231C103.078 137.767 98.5938 135.854 94.3262 133.52C91.4946 131.984 87.4152 129.441 87.5111 129.345L90.1988 127.905C95.6573 125.089 100.96 121.98 106.085 118.594C107.86 117.394 110.548 115.475 111.124 114.947L111.604 114.611ZM39.5655 123.249C39.6615 123.249 39.6615 123.489 39.4695 124.545C39.2775 125.601 39.2295 126.705 39.1336 127.665C38.8936 131.888 39.6135 135.056 41.6772 139.327C42.05 140.046 42.3864 140.783 42.6851 141.535C42.4931 141.727 23.2477 147.342 17.2005 149.022L13.6969 149.982C13.505 150.03 13.457 150.03 13.5529 149.502C14.2249 145.231 17.4884 139.663 21.9998 134.96C25.0234 131.84 27.4231 129.969 31.5506 127.617C34.5262 125.937 39.0856 123.393 39.4215 123.297H39.4695L39.5655 123.249ZM84.9195 131.36L86.5033 132.224C92.7424 135.824 101.381 139.183 108.772 140.863L109.444 141.007L108.532 141.535C104.645 143.695 91.9745 148.974 78.9683 153.821L74.8888 155.357L74.2169 155.549L75.4167 153.246C79.0643 146.43 82.7118 138.176 84.5835 132.416C84.8235 131.84 84.9675 131.36 84.9675 131.36H84.9195ZM80.3121 132.848C80.1908 133.309 80.0302 133.759 79.8322 134.192C76.893 141.16 73.527 147.94 69.7535 154.493C68.6976 156.413 67.7858 157.949 67.7378 157.949L65.77 156.797C59.6268 153.006 54.1556 148.35 50.556 143.887L50.0281 143.263L52.6678 142.543C61.3764 140.225 69.9088 137.29 78.2004 133.76L80.3121 132.848ZM109.012 142.879C109.06 143.551 107.572 149.55 106.325 153.869C105.077 158.189 104.453 160.349 102.821 165.388C102.101 167.596 101.525 169.419 101.477 169.419L101.093 169.323C93.0191 167.918 85.1078 165.699 77.4805 162.7C75.4647 161.884 72.5371 160.589 72.3452 160.445C72.1532 160.301 74.0249 159.581 76.2326 158.621C89.4309 152.862 103.157 146.286 107.86 143.455C108.183 143.225 108.539 143.047 108.916 142.927L109.012 142.879ZM42.6851 145.183C42.7331 145.231 39.0376 150.558 33.9022 157.805L29.2469 164.38C28.479 165.484 27.2791 167.212 26.6072 168.268L25.4074 170.139L24.1115 169.035C22.1595 167.343 20.3459 165.498 18.6883 163.516C16.1926 160.397 14.5128 157.133 13.8409 154.109C13.505 152.718 13.505 151.998 13.7929 151.95L29.2469 148.302L39.6135 145.903L42.6851 145.183ZM46.3806 146.622L47.2925 147.678C51.1997 152.12 55.8032 155.897 60.9227 158.861C61.5043 159.112 62.0525 159.434 62.5545 159.821C62.3625 159.965 44.6048 166.252 36.3499 169.131L27.903 172.059L27.3271 171.675L26.7992 171.291L27.6631 170.091C30.3987 166.156 33.8063 161.788 41.2933 152.814L46.4286 146.622H46.3806ZM69.6095 163.18L72.4891 164.188C76.0172 165.526 79.6234 166.648 83.2877 167.548C88.6549 168.868 94.1073 169.814 99.6055 170.379C100.229 170.427 100.613 170.475 100.469 170.571C100.325 170.667 96.006 172.107 92.8384 173.115C87.8471 174.699 72.5851 179.21 60.1548 182.762L55.7873 184.009C55.3479 184.019 54.9149 183.902 54.5395 183.674C55.012 182.988 55.5249 182.331 56.0753 181.706C60.2937 176.655 64.2196 171.367 67.8338 165.868L69.6095 163.18ZM64.4742 163.324C64.5222 163.372 62.4585 166.684 58.8589 172.347L54.9715 178.442L53.0037 181.658L52.1398 183.146L51.7079 183.05C50.652 182.762 43.309 180.17 41.3413 179.402C39.0332 178.48 36.7745 177.439 34.5742 176.282C32.2705 175.035 29.3429 173.163 29.5828 173.115L38.4136 170.715C51.132 167.26 58.187 165.244 62.8424 163.804L64.4262 163.372L64.4742 163.324ZM100.661 171.819H100.709C100.805 172.107 96.102 185.209 94.4222 189.289C94.0383 190.201 93.8943 190.441 93.7023 190.441L82.2318 188.857C74.9848 187.753 62.8424 185.641 59.8188 184.921L59.0989 184.777L63.4183 183.769C72.7291 181.658 77.1925 180.554 81.7039 179.162C87.5636 177.379 93.2892 175.181 98.8376 172.587C99.4422 172.286 100.068 172.03 100.709 171.819H100.661Z" fill="url(#paint0_linear)"/>
<path d="M79.0643 0.00180944C78.4403 -0.0941778 68.1217 3.64933 61.4506 6.33697C52.4758 9.98449 45.5167 13.488 41.1973 16.5116C39.6135 17.6635 37.5978 19.6312 37.2618 20.4471C37.1348 20.7679 37.0697 21.1099 37.0698 21.455L40.9573 25.1505L50.2201 28.1261L72.2972 32.0616L97.5418 36.381L97.7818 34.2213H97.5898L94.2783 33.6933L93.6063 32.4935C90.1988 26.4463 86.4073 18.9593 84.1996 13.872C82.5402 10.0638 81.1295 6.15216 79.9762 2.16152C79.4962 0.193784 79.4002 0.0498031 79.1123 0.0498031L79.0643 0.00180944ZM78.5843 1.48961H78.6323C78.6803 1.53761 78.7763 2.3535 78.8723 3.31337C79.3905 7.47977 80.3394 11.5812 81.7039 15.5518C82.7598 18.7673 82.7598 18.5753 81.5119 18.1914C78.5363 17.3755 65.2901 15.0718 55.6434 13.728L52.8117 13.2961C52.7158 13.2001 59.7708 9.50455 62.8424 8.01675C66.8259 6.19299 77.7684 1.63359 78.5843 1.48961ZM50.604 14.4959L51.7559 14.8798C57.8991 16.9916 73.401 19.9192 81.9439 20.6391L83.7676 20.8311C83.1852 21.1972 82.5755 21.5181 81.9439 21.7909C77.8164 23.8547 73.305 26.3983 70.1375 28.3181C69.5462 28.7251 68.9198 29.0784 68.2657 29.3739L66.9219 29.1819L65.77 28.99L62.8424 26.1583C57.7071 21.167 53.7236 17.3755 52.1878 15.8877L50.604 14.4959ZM49.4522 15.4078L53.5317 20.5431C55.7874 23.3747 58.0431 26.1104 58.523 26.7343C58.8395 27.0959 59.1283 27.481 59.3869 27.8861C59.2909 27.9821 53.4357 26.8303 50.3641 26.1583C47.2925 25.4864 45.9007 25.1025 43.9329 24.4786L42.3491 23.9506V23.5667C42.3971 21.5989 44.8448 18.7193 49.0203 15.7437L49.4042 15.5038L49.4522 15.4078ZM84.2476 22.3668C84.3436 22.3668 84.4876 22.6068 84.8715 23.4227C85.8794 25.5824 88.951 31.4856 89.7189 32.5895C89.9588 32.9734 90.3428 32.9734 86.2633 32.3495C76.4246 30.7657 73.257 30.2378 73.257 30.1898L73.9289 29.7579C77.0771 27.9971 80.0502 25.94 82.8078 23.6147L84.1996 22.4628H84.2956L84.2476 22.3668Z" fill="url(#paint1_linear)"/>
<path d="M37.5018 20.0151C37.2995 20.4071 37.19 20.8403 37.1816 21.2814C37.1733 21.7224 37.2664 22.1595 37.4538 22.5588C37.8377 23.4707 38.9416 24.6225 40.1894 25.7744C40.1894 25.7744 53.0997 38.3967 54.6835 40.1725C61.8346 48.4274 64.9542 56.5383 65.2421 67.7688C65.4341 74.9679 64.0423 81.303 60.6347 88.646C54.5875 101.844 41.8212 116.386 22.1438 132.56L25.0234 131.6C26.8952 130.209 29.3909 128.721 35.3421 125.457C49.0203 117.97 64.4262 111.059 83.3357 104.004C110.548 93.7814 155.278 81.783 180.715 77.8955L183.354 77.5115L182.971 76.8876C181.174 74.0443 179.22 71.3043 177.115 68.6807C171.548 61.7696 164.781 56.1544 156.478 51.499C145.104 45.1158 130.369 40.1725 111.7 36.477C108.196 35.7571 100.469 34.4612 94.1823 33.5014C80.888 31.4376 72.2492 29.9978 62.7944 28.366C59.3869 27.7901 54.2996 26.9262 50.94 26.2063C48.3458 25.6541 45.7826 24.9653 43.261 24.1426C41.1493 23.3267 38.1257 22.5108 37.5018 20.0631V20.0151ZM44.9888 27.3102L46.0926 27.6461L50.3161 28.942L54.1556 29.9498L57.3712 30.8137C57.5631 31.0057 60.4907 40.4124 61.4986 44.012C61.8826 45.3558 62.1705 46.5556 62.1225 46.5556C61.8387 46.2009 61.5971 45.8144 61.4026 45.4038C57.9951 39.3566 52.6198 33.3094 46.4286 28.414C45.9207 28.0664 45.4394 27.6814 44.9888 27.2622V27.3102ZM59.2909 31.2456L60.8747 31.4856C65.818 32.5895 74.6969 34.2692 80.3601 35.2291C80.9498 35.2846 81.5302 35.4136 82.0879 35.6131C81.8584 35.8119 81.5993 35.9738 81.32 36.093C80.3601 36.5729 76.4726 38.8766 75.2248 39.7405C72.2878 41.6684 69.5399 43.8699 67.0179 46.3157L65.4341 47.8514C65.4341 47.8514 65.2421 47.3715 65.0981 46.7476C63.7565 41.8646 62.0231 37.0977 59.9148 32.4935C59.6967 32.0572 59.5044 31.6085 59.3389 31.1497C59.3389 31.1977 59.3389 31.1977 59.3869 31.1977L59.2909 31.2456ZM84.4396 36.045C84.6315 36.093 84.9195 37.1009 85.4954 39.2606C86.5829 43.6044 87.0514 48.08 86.8872 52.5548C86.8392 53.7547 86.7913 54.9065 86.6953 55.0505L86.5993 55.3385L85.1115 54.8585C81.9919 53.8507 76.9526 52.4108 72.6331 51.163C70.1855 50.4911 68.1697 49.8672 68.1697 49.8192C68.1697 49.7712 71.7692 46.0277 73.305 44.6839C76.2327 42.0922 84.1996 35.949 84.4396 36.045ZM86.4553 36.333C86.5513 36.237 98.5017 38.3007 103.925 39.3566C107.956 40.1245 113.812 41.3723 114.196 41.5163C114.58 41.6603 113.764 41.9002 111.796 42.8121C105.159 45.7141 98.7842 49.1825 92.7425 53.1787L89.9588 55.0025C89.9059 54.3801 89.8899 53.7551 89.9108 53.1307C89.9351 47.712 88.8744 42.3432 86.7913 37.3408C86.6391 37.0196 86.5263 36.6812 86.4553 36.333ZM117.363 42.4282C117.459 42.5242 117.075 44.8758 116.739 46.2677C115.683 50.5871 112.852 57.0182 109.396 63.0654C109.036 63.7448 108.636 64.4019 108.196 65.0332C107.597 64.7752 107.02 64.4703 106.469 64.1213C102.806 62.0137 99.0057 60.1538 95.0942 58.554L92.8864 57.5942C92.6945 57.4022 102.053 51.211 106.997 48.2834C110.932 45.8837 117.315 42.3322 117.411 42.4762L117.363 42.4282ZM119.571 42.7641C119.811 42.7641 125.138 44.2039 127.874 45.0198C134.607 47.028 141.211 49.4482 147.647 52.2669L149.759 53.2267L148.271 53.5627C136.843 56.1073 125.64 59.5742 114.772 63.9293L113.092 64.5532C113.246 64.0363 113.455 63.5374 113.716 63.0654C116.835 56.4903 118.851 49.5792 119.331 43.724C119.379 43.1481 119.427 42.7161 119.523 42.7161L119.571 42.7641ZM66.9219 54.8585C67.0179 54.7625 71.0493 55.7224 73.2091 56.3463C76.5206 57.2582 83.5757 59.6099 83.5757 59.8019L81.8479 61.2897C78.0564 64.4572 74.3609 67.8168 69.9935 72.0402C68.6977 73.2881 67.5938 74.2959 67.5458 74.2959C67.4978 74.2959 67.4498 74.104 67.4978 73.912C68.1697 69.0166 68.0257 62.7295 67.1139 56.3943C66.9699 55.5784 66.8739 54.9065 66.9219 54.8585ZM151.823 54.9545C150.881 56.6056 149.856 58.2075 148.751 59.7539C147.023 62.2495 144.432 65.5611 138.672 72.8081L131.041 82.4069L128.882 85.0945C128.583 84.7302 128.31 84.3453 128.066 83.9427C124.804 79.0552 120.842 74.6731 116.307 70.9364L114.148 69.2086L113.572 68.7287C113.572 68.6327 118.515 66.521 122.259 64.9852C128.834 62.2975 137.761 59.13 144.48 57.0662C147.983 55.9624 151.727 54.9065 151.823 54.9545ZM154.078 55.5304C154.674 55.7229 155.239 55.9975 155.758 56.3463C162.814 60.3893 169.343 65.2899 175.196 70.9364C176.731 72.4242 180.523 76.4077 180.475 76.4077L177.547 76.6476C165.309 77.5595 149.663 80.1512 134.593 83.7987L132.625 84.2306C132.577 84.2306 133.681 83.0788 135.121 81.735C143.952 73.2401 147.983 67.8648 152.783 58.2661L154.078 55.5304ZM89.2869 62.1536C89.6709 62.2495 93.4624 64.0253 96.342 65.4171C99.2216 66.8089 102.869 68.8247 103.061 68.9687L99.9895 70.5524C94.5182 73.2881 89.8629 75.8797 84.9675 78.8553L82.3758 80.3911C82.2799 80.3911 82.2799 80.2952 83.0958 78.8553C85.8055 73.8323 87.7928 68.4519 88.999 62.8735C89.095 62.4415 89.2389 62.1536 89.3349 62.1536H89.2869ZM85.4954 62.8735C85.5914 62.9694 84.5835 66.521 84.0076 68.4887C82.6514 72.5541 80.9327 76.4894 78.8723 80.2472L77.3365 82.9348L76.6166 84.0866L74.9848 82.5029C73.3989 80.8968 71.5684 79.5523 69.5615 78.5194C69.0707 78.2961 68.6043 78.0227 68.1697 77.7035C68.1697 77.4635 73.1611 72.9521 76.9526 69.6886C79.6882 67.3369 85.4474 62.7295 85.5434 62.8255L85.4954 62.8735ZM108.628 72.3762L110.068 73.2881C113.548 75.5611 116.897 78.0287 120.099 80.6791C121.779 82.0229 124.946 84.9025 125.57 85.6224L125.906 86.0064L123.554 86.6783C110.26 90.3738 99.9415 93.6374 87.9431 98.0528L85.3994 98.9647C85.2075 98.9647 85.0635 99.1087 88.0871 96.373C95.7661 89.318 102.581 81.543 107.62 73.96L108.628 72.3762ZM102.533 73.864C102.581 73.912 98.5977 79.5273 96.246 82.6948C93.8943 85.8624 88.3271 92.8215 84.8715 96.9489L82.0879 100.117C81.9919 100.165 81.9919 99.7326 81.9919 99.0607C81.9658 95.4343 81.1296 91.8596 79.5442 88.5981C78.8723 87.2542 78.7763 86.9183 78.9203 86.7743C79.0643 86.6303 87.9431 81.447 93.2704 78.5674C96.8699 76.6476 102.533 73.816 102.581 73.864H102.533ZM65.818 82.8868L67.3058 83.6547C69.0717 84.6149 70.7429 85.7397 72.2972 87.0143C72.3452 87.0623 71.5773 87.6862 70.6174 88.4061C67.8338 90.3738 63.6583 93.5414 61.2106 95.5091C58.763 97.4769 58.571 97.6209 58.859 97.1889C60.3156 95.0462 61.6148 92.8006 62.7464 90.4698C63.6851 88.4895 64.5025 86.4541 65.1941 84.3746C65.3043 83.8508 65.4988 83.3483 65.77 82.8868H65.818ZM75.6087 90.5658C75.7527 90.5178 75.9447 90.8058 76.7126 91.9576C78.4026 94.502 79.5164 97.3848 79.9762 100.404V100.98L75.9927 102.516C68.8896 105.3 62.3145 107.987 57.8511 110.051L53.0037 112.355L50.4121 113.603L52.4278 112.115C61.1147 105.828 68.6497 98.9167 74.2649 91.9576L75.4648 90.5178H75.5128L75.6087 90.5658ZM71.0973 91.6696C71.1933 91.7656 67.8818 95.5571 65.6261 97.8128C60.2177 103.368 54.1587 108.251 47.5805 112.355L45.8527 113.459C45.6607 113.555 45.9007 113.267 48.9243 110.003C50.844 107.939 52.2838 106.212 53.9636 104.052C54.7364 102.932 55.7333 101.984 56.8912 101.268C61.1626 98.2448 71.0014 91.5257 71.0973 91.6696Z" fill="url(#paint2_radial)"/>
<defs>
<linearGradient id="paint0_linear" x1="27.3976" y1="152.3" x2="41.4472" y2="143.998" gradientUnits="userSpaceOnUse">
<stop stop-color="#909CA9"/>
<stop offset="1" stop-color="#EDEDEE"/>
</linearGradient>
<linearGradient id="paint1_linear" x1="27.7126" y1="-4.16461" x2="39.0174" y2="-4.16461" gradientUnits="userSpaceOnUse">
<stop stop-color="#939FAB"/>
<stop offset="1" stop-color="#DCDEE1"/>
</linearGradient>
<radialGradient id="paint2_radial" cx="0" cy="0" r="1" gradientUnits="userSpaceOnUse" gradientTransform="translate(79.7534 47.0349) rotate(-169.695) scale(13.9839 28.9747)">
<stop stop-color="#EE352C"/>
<stop offset="1" stop-color="#A91D22"/>
</radialGradient>
</defs>
</svg>
