<svg width="192" height="192" viewBox="0 0 192 192" fill="none" xmlns="http://www.w3.org/2000/svg">
<path d="M99.4583 187.605C102.976 190.466 107.029 191.718 111.441 191.956C113.274 192.067 115.114 191.967 116.925 191.658C119.783 191.142 122.609 190.465 125.39 189.631C131.054 187.903 135.942 184.982 139.578 180.212C141.685 177.541 143.337 174.539 144.467 171.33C145.361 168.647 146.196 165.965 146.911 163.223C147.626 160.48 147.686 158.811 148.044 156.605C148.401 154.4 148.401 153.684 148.52 152.194C148.759 149.809 148.938 147.425 149.117 145.04C149.295 142.656 149.236 141.702 149.295 140.033C149.295 139.496 149.415 139.019 149.474 138.542C149.534 138.066 149.772 137.887 150.249 137.946C151.918 137.946 153.647 138.006 155.316 137.946C157.212 137.902 159.103 137.743 160.98 137.469C163.603 137.052 166.226 136.456 168.849 135.8C171.882 134.928 174.773 133.623 177.433 131.925C180.601 130.105 183.425 127.745 185.779 124.95C186.793 123.786 187.541 122.415 187.974 120.933C188.406 119.451 188.511 117.893 188.283 116.366C187.567 111.776 183.693 108.795 179.222 108.557C177.587 108.517 175.951 108.617 174.333 108.855C172.366 109.093 170.458 109.57 168.491 109.809L164.437 110.226V110.047C166.941 105.278 169.564 100.628 171.949 95.7993C173.797 92.1033 175.347 88.288 176.956 84.4727C179.591 78.1753 181.782 71.7014 183.514 65.0983C185.183 58.7792 186.673 52.4005 187.091 45.843C187.269 43.22 187.389 40.597 187.389 37.974C187.389 35.351 187.15 33.801 186.971 31.7145C186.696 29.356 186.031 27.0595 185.004 24.9186C183.693 22.0571 181.666 19.6725 179.52 17.4668C177.374 15.2611 175.883 14.0689 174.035 12.3997C171.329 10.1191 168.368 8.15873 165.212 6.55752C161.681 4.67218 157.939 3.21142 154.065 2.20571C151.74 1.60957 149.295 1.07305 146.911 0.596138C146.076 0.417296 145.182 0 144.347 0H128.252C127.656 0 127.119 0.357683 126.523 0.417296C122.662 0.829849 118.85 1.60833 115.137 2.74223C113.766 3.15953 112.514 2.92108 111.202 2.80185C109.891 2.68262 109.175 2.44416 108.162 2.38455C104.168 2.26532 100.293 2.02687 96.4776 2.02687C92.7831 2.09499 89.1142 2.65635 85.5683 3.69605C82.5719 4.48013 79.6873 5.64198 76.9839 7.15365C75.8513 7.80941 74.9571 7.69018 73.7648 7.33249C69.7707 6.19983 65.7765 5.12679 61.7228 4.23258C59.2034 3.70723 56.6556 3.32903 54.0922 3.09992C51.6481 2.86146 49.1443 2.68262 46.6405 2.62301C44.2148 2.54884 41.7868 2.60855 39.3676 2.80185C35.529 3.13573 31.7454 3.93649 28.1006 5.1864C24.0665 6.56583 20.2967 8.62208 16.9529 11.267C13.5803 13.9715 10.7487 17.2885 8.60693 21.0437C6.32447 24.995 4.67504 29.2795 3.7186 33.7414C3.18207 36.1856 3.36091 38.6297 3.00323 41.1335C2.9878 41.8905 3.02765 42.6476 3.12246 43.3988V54.0697C3.03746 54.7818 2.99764 55.4986 3.00323 56.2158C3.24169 57.9446 3.12246 59.6734 3.42053 61.3426C3.89744 64.0252 4.31474 66.7078 4.85126 69.3904C5.62624 73.1461 6.3416 76.8422 7.23581 80.5978C7.87169 83.3003 8.54731 85.9829 9.26268 88.6457C10.3953 92.759 11.4684 96.8128 12.7799 100.867C14.0914 104.92 15.3433 108.318 16.6548 112.014C18.5082 117.141 20.7812 122.105 23.4508 126.858C25.7757 130.971 28.4583 134.846 31.9755 138.006C34.247 140.107 36.9848 141.64 39.9638 142.477C42.3414 143.099 44.8313 143.161 47.2367 142.656C50.0209 142.084 52.6212 140.835 54.8076 139.019C55.0461 138.84 55.3441 138.662 55.6422 139.019C56.8423 140.41 58.3261 141.528 59.994 142.298C64.3458 144.563 69.1149 145.279 73.9436 145.517C75.1359 145.577 76.2686 145.398 77.4608 145.398C79.7453 145.308 82.009 144.928 84.1972 144.265L87.6548 143.133C87.7144 144.385 87.774 145.577 87.8336 146.769L88.0125 153.327C88.0721 154.34 88.0721 155.294 88.1913 156.307C88.4298 158.871 88.6682 161.434 88.9663 163.998C89.1425 165.761 89.4211 167.513 89.8009 169.244C90.6312 172.716 91.7683 176.107 93.1989 179.378C94.5922 182.584 96.7396 185.407 99.4583 187.605ZM92.4835 154.936C92.3643 151.876 92.2649 148.796 92.1854 145.696C92.1258 141.881 92.0662 138.125 92.0066 134.31V134.191C90.099 135.323 88.1913 136.635 86.1644 137.648C83.8129 138.871 81.2368 139.601 78.5935 139.794C76.5132 139.995 74.4205 140.035 72.3341 139.914C68.9361 139.615 65.5381 139.139 62.5574 137.469C61.2896 136.838 60.1559 135.968 59.219 134.906C57.1922 132.343 58.146 129.064 61.2459 127.454C63.3324 126.381 65.6573 125.904 67.9822 125.368C70.3072 124.831 71.9764 124.354 73.884 123.758C75.7916 123.162 77.0435 121.552 78.2358 120.062L80.1435 117.618L77.8781 117.38C75.6324 117.161 73.4374 116.578 71.3802 115.651C69.5918 114.876 69.5918 114.757 68.2803 116.187C66.1342 118.512 63.9881 120.956 61.9016 123.341L57.2518 128.647C55.7018 130.375 54.2711 132.223 52.6019 133.833C50.9327 135.443 47.177 137.708 43.6598 137.529C41.4252 137.4 39.2742 136.634 37.46 135.323C33.4659 132.521 30.8429 128.766 28.4583 124.831C25.5008 119.757 23.045 114.406 21.1258 108.855C19.7547 105.039 18.3836 101.224 17.1317 97.2897C15.8798 93.3552 14.6875 88.8245 13.5549 84.5323C12.7203 81.3132 11.9453 78.0344 11.2299 74.8153C10.5146 71.5962 9.62036 67.4232 8.905 63.6675C8.42809 61.1637 8.18963 58.6003 7.77233 56.037C7.28256 52.6224 7.14273 49.1667 7.35504 45.7238C7.53388 42.6239 7.95118 39.5836 8.42809 36.4836C9.04954 32.268 10.4011 28.193 12.4222 24.4417C13.6866 22.1545 15.2283 20.0322 17.0125 18.1226C19.9001 14.9996 23.4145 12.5213 27.3257 10.8497C30.0827 9.6916 32.9627 8.85159 35.91 8.34593C40.2618 7.51134 44.6733 7.51134 49.0847 7.63056C50.9923 7.69018 52.9596 8.04786 54.8672 8.2267C58.9989 8.68784 63.0861 9.48533 67.088 10.6113C70.0091 11.3862 72.8706 12.3997 75.7916 13.2939C76.1058 13.3947 76.4464 13.3734 76.7455 13.2343C82.1342 9.70344 88.3727 7.68569 94.8084 7.39211C96.97 7.22095 99.14 7.18114 101.306 7.27288C103.87 7.39211 106.493 7.80941 109.056 8.16709C110.308 8.34593 111.5 8.76323 112.752 8.88245C114.004 9.00168 114.004 8.52477 114.6 8.34593C117.819 7.57095 121.039 6.79597 124.317 6.19983C126.72 5.73654 129.149 5.41802 131.59 5.24601C134.348 5.06009 137.114 5.02029 139.876 5.12678C143.35 5.29228 146.802 5.77113 150.19 6.55752C154.37 7.52649 158.415 9.00818 162.232 10.9689C165.132 12.4148 167.853 14.1955 170.339 16.2746C171.983 17.6218 173.555 19.0545 175.049 20.5668C176.837 22.4744 178.685 24.382 179.818 26.7666C180.685 28.5652 181.23 30.5023 181.427 32.4895C181.606 34.9933 181.904 37.4971 181.845 40.0008C181.785 42.5046 181.487 44.77 181.248 47.1545C180.651 52.5601 179.594 57.9049 178.089 63.131C176.897 67.4828 175.525 71.775 174.035 76.0076C172.545 80.2402 171.054 83.7574 169.445 87.5726C168.253 90.3745 166.941 93.1763 165.57 95.9186C162.998 101.132 160.153 106.207 157.045 111.12L155.436 113.683C156.805 114.526 158.361 115.017 159.966 115.114C161.47 115.291 162.986 115.331 164.497 115.233C166.882 115.055 169.326 114.697 171.71 114.399C174.095 114.101 176.42 113.385 178.804 113.564C181.189 113.743 182.977 115.591 182.798 117.856C182.669 119.269 182.059 120.595 181.07 121.612C176.539 126.62 170.876 129.6 164.437 131.091C161.96 131.613 159.451 131.971 156.926 132.164C154.766 132.364 152.596 132.423 150.428 132.343C148.828 132.208 147.236 131.989 145.659 131.687C145.48 133.177 145.361 134.727 145.182 136.217L144.407 142.119C144.169 143.967 143.99 145.875 143.751 147.723C143.513 149.571 143.215 151.359 142.976 153.148C142.738 154.936 142.559 156.546 142.321 158.215C141.963 160.778 141.546 163.401 141.069 165.965C140.511 169.025 139.486 171.98 138.028 174.728C136.216 178.017 133.508 180.725 130.219 182.537C126.761 184.505 123.065 185.518 119.25 186.353C116.569 186.935 113.814 187.096 111.083 186.83C108.802 186.66 106.579 186.028 104.55 184.972C102.521 183.917 100.728 182.46 99.2795 180.689C96.3411 177.266 94.4023 173.1 93.6758 168.647C93.3181 166.501 93.0796 164.296 92.9008 162.149C92.722 160.003 92.5431 157.321 92.4239 154.877L92.4835 154.936ZM97.7891 123.818C97.7891 125.427 97.6699 127.037 97.6699 128.647C97.7096 136.158 97.7693 143.689 97.8487 151.24C97.8487 152.492 97.9084 153.684 98.0276 154.936C98.2064 157.5 98.3853 160.063 98.6237 162.626C98.8622 165.19 99.041 166.263 99.3391 168.051C99.6372 169.84 100.889 172.88 102.26 175.086C103.362 176.991 104.945 178.574 106.85 179.676C110.189 181.524 113.766 181.703 117.342 180.987C119.766 180.484 122.156 179.827 124.496 179.02C126.818 178.279 128.94 177.015 130.696 175.324C132.328 173.719 133.572 171.761 134.332 169.601C135.882 165.428 136.359 161.017 136.955 156.665C137.194 155.055 137.373 153.386 137.611 151.777L138.326 146.173C138.505 144.802 138.684 143.371 138.863 142C139.042 140.629 139.34 138.006 139.578 136.039C139.817 134.071 139.876 132.939 140.055 131.389C140.234 129.839 140.473 127.454 140.651 125.427C140.83 123.401 140.711 122.387 141.009 120.897C141.191 119.576 141.658 118.31 142.379 117.188C143.1 116.066 144.056 115.114 145.182 114.399C146.226 113.824 147.301 113.307 148.401 112.849L148.222 112.551L145.122 108.557C143.612 106.402 142.315 104.106 141.248 101.701C140.175 99.4358 138.863 97.3493 137.671 95.084C135.704 91.2091 133.677 87.3342 131.829 83.3997C129.504 78.4517 127.715 73.2653 127.119 67.7809C126.818 65.4606 126.879 63.1078 127.298 60.8061C127.616 59.046 128.307 57.3745 129.325 55.904C130.343 54.4335 131.664 53.1982 133.2 52.2813C136.18 50.4333 139.519 49.8371 142.976 49.6583C145.122 49.5391 147.269 49.6583 149.415 49.6583V49.3006C148.044 46.4391 146.732 43.5181 145.242 40.7162C141.415 33.9221 136.266 27.9628 130.1 23.1898C127.51 21.1998 124.735 19.463 121.813 18.0034C118.325 16.2776 114.643 14.9767 110.845 14.1285C107.167 13.2807 103.411 12.8211 99.6372 12.7573C96.4359 12.6544 93.2337 12.9346 90.099 13.5919C85.3924 14.604 80.9971 16.7301 77.282 19.7918C75.196 21.5435 73.334 23.5458 71.7379 25.7532C69.8777 28.3398 68.2989 31.1177 67.0284 34.0395C65.2889 38.0553 64.0091 42.255 63.2131 46.5584C62.7959 48.7045 62.4978 50.8506 62.1401 52.9967C62.0209 53.7716 62.0209 54.5466 61.9613 55.3812L63.392 54.6658L64.7631 54.0697C69.4726 51.9236 74.3609 50.5525 79.6069 50.6717C81.7916 50.689 83.9469 51.177 85.926 52.1024C89.7413 53.9505 91.947 57.1696 92.9008 61.2234C93.5566 64.0252 94.0335 66.827 94.4508 69.6885C94.8422 71.895 95.0812 74.1259 95.1661 76.3652C95.2257 79.644 95.0469 82.8632 94.868 86.1419C94.7078 88.9166 94.1248 91.6506 93.1393 94.2494C91.3508 98.9589 89.3836 103.609 87.5952 108.259C86.999 109.809 86.5221 111.418 85.926 113.087H89.0855C91.168 113.542 93.0612 114.624 94.5104 116.187C96.5287 118.22 97.6823 120.954 97.7295 123.818H97.7891ZM57.5498 101.463C56.3534 98.66 55.6282 95.6789 55.4037 92.6398C55.2939 89.7717 55.4335 86.8994 55.821 84.0554C56.1191 81.3132 56.3576 78.5114 56.4172 75.7095C56.5364 71.1192 56.2383 66.5886 55.9999 61.9983C55.9523 59.2498 56.0917 56.5012 56.4172 53.7716C56.6112 51.3129 56.9295 48.8656 57.371 46.4391C58.1174 42.3776 59.2145 38.3885 60.6498 34.5164C61.9538 30.8138 63.7161 27.2891 65.8958 24.0244C67.4457 21.8186 69.2341 19.7322 70.9033 17.5861L70.4264 17.4072C64.9441 15.6012 59.2909 14.3627 53.5557 13.7112C50.8135 13.4131 48.1309 13.2939 45.3886 13.115C44.5522 13.092 43.7153 13.1318 42.8848 13.2343C40.7984 13.4131 38.7119 13.5323 36.6254 13.89C33.1458 14.5051 29.7982 15.715 26.7295 17.4668C24.0038 19.0813 21.6154 21.2067 19.6951 23.7263C17.5981 26.5211 16.0229 29.6716 15.0452 33.026C13.8578 36.9757 13.1963 41.0647 13.078 45.1872C12.8353 48.8084 12.9752 52.4451 13.4953 56.037C13.9722 58.7196 14.2702 61.4022 14.8068 64.0848C15.5221 67.7213 16.2375 71.3577 17.1317 74.9345C18.3836 80.0613 19.5759 85.2477 21.0662 90.3149C22.5565 95.382 24.0469 100.032 25.7757 104.801C27.5045 109.57 28.816 112.551 30.4852 116.306C31.6254 118.77 32.9196 121.159 34.3601 123.46C35.7872 125.97 37.6669 128.193 39.9042 130.018C42.8252 132.283 45.0906 132.581 48.0712 130.137C49.311 129.032 50.4667 127.837 51.5288 126.56L56.7152 120.599L63.4516 113.087L64.8227 111.478L64.0477 110.822C61.2408 108.187 59.0084 105.001 57.4902 101.463H57.5498ZM141.963 26.5877C143.811 28.7338 145.54 30.9396 147.149 33.2049C150.29 37.6117 152.817 42.4249 154.661 47.5122C155.495 49.7775 156.151 52.0428 155.853 54.487C155.555 56.9312 155.674 57.9446 155.495 59.6734C155.316 61.4022 155.138 62.5349 154.959 63.9656C154.78 65.3963 154.243 68.3174 154.124 70.4635C154.04 72.5505 154.079 74.6407 154.243 76.7229C154.363 78.8094 154.661 80.9555 154.84 83.042C155.018 85.1285 155.376 87.8111 155.436 90.1956C155.448 92.167 155.349 94.1374 155.138 96.0974C154.93 98.4536 154.367 100.765 153.468 102.953C152.813 104.503 152.097 105.993 151.382 107.543L151.68 107.841L152.097 108.199L152.515 107.424C156.191 101.639 159.458 95.6029 162.291 89.3611C164.139 85.3073 165.808 81.2536 167.478 77.1402C170.019 70.7473 172.071 64.171 173.618 57.4677C174.333 54.487 174.87 51.3871 175.347 48.3468C175.755 45.9609 176.014 43.5517 176.122 41.1335C176.177 38.5665 176.077 35.9984 175.824 33.4433C175.732 31.4968 175.092 29.6159 173.976 28.0185C172.099 25.4374 169.871 23.13 167.358 21.1629C165.219 19.5107 162.99 17.9783 160.682 16.5726C156.994 14.484 153.016 12.957 148.878 12.042C144.826 11.1379 140.69 10.6584 136.538 10.6113C134.088 10.609 131.64 10.7483 129.206 11.0286C127 11.2074 124.794 11.5651 122.588 11.8631C124.973 13.2343 127.358 14.4265 129.563 15.7977C134.216 18.7496 138.397 22.3873 141.963 26.5877ZM81.1569 109.57C82.6472 104.741 84.7337 100.092 86.701 95.5013C88.2893 91.7514 89.2364 87.7614 89.5028 83.6977C89.6264 81.6728 89.6264 79.6421 89.5028 77.6171C89.3836 75.3518 89.2047 73.1461 88.9067 70.9404C88.6086 68.7347 88.0125 65.2771 87.3567 62.4752C86.701 59.6734 84.7933 57.3485 81.6338 56.5735C79.7535 56.1503 77.8072 56.1097 75.9109 56.4543C71.2603 57.2053 66.8154 58.9102 62.8555 61.4618C62.0209 61.9983 61.6036 62.4156 61.7228 63.5483C61.9961 66.0224 62.1156 68.5111 62.0805 71C62.0805 74.5172 61.9016 78.0344 61.7824 81.5516C61.7228 82.6843 61.6036 83.817 61.4247 84.9496C61.1474 86.6868 60.9683 88.4383 60.8882 90.1956C60.8941 92.0037 61.1143 93.8046 61.544 95.5609C62.9151 101.105 65.8362 105.576 70.6649 108.795C73.5933 110.727 76.9953 111.82 80.5011 111.955L81.1569 109.57ZM75.5532 62.2368C74.8974 60.9253 75.2551 59.7926 76.7455 59.3157C77.0906 59.1758 77.4507 59.0758 77.8185 59.0176H79.3685C81.2165 59.0176 83.0049 59.3157 84.5549 60.4484C86.1048 61.581 85.8068 62.2368 85.151 63.2502C84.7287 63.9371 84.1429 64.5089 83.4461 64.9145C82.7492 65.3202 81.9627 65.5471 81.1569 65.5752C78.5339 65.8136 76.6859 64.5617 75.5532 62.2368ZM149.594 61.7599L150.19 56.4543C150.249 55.7389 149.892 55.56 149.295 55.56L143.692 55.3812C141.593 55.3126 139.503 55.6779 137.552 56.4543C135.405 57.3485 133.736 58.7792 133.021 61.1637C132.521 62.9053 132.359 64.7265 132.544 66.529C132.797 69.3209 133.418 72.0672 134.392 74.6961C135.704 78.2133 137.075 81.6709 138.744 85.0092C140.95 89.5399 143.453 93.9513 145.838 98.4223C146.494 99.6146 147.03 100.867 147.686 102.238C149.017 99.4816 149.749 96.4744 149.832 93.4148C149.892 90.8514 149.713 88.3476 149.534 85.7842C149.415 84.2343 149.236 82.6843 149.057 81.1344C148.878 79.5844 148.52 76.8422 148.461 74.6365C148.442 72.427 148.541 70.2181 148.759 68.0193C148.997 65.9328 149.355 63.8464 149.594 61.7599ZM145.361 60.0311C145.056 60.9165 144.509 61.6986 143.782 62.2887C143.055 62.8789 142.177 63.2533 141.248 63.3695C140.401 63.5194 139.529 63.4317 138.729 63.1159C137.93 62.8002 137.233 62.2689 136.717 61.581C135.882 60.5676 136.18 59.3753 137.432 58.66C138.684 57.9446 140.473 57.6465 142.321 57.5273C142.982 57.6123 143.639 57.7317 144.288 57.885C144.518 57.9248 144.735 58.0182 144.923 58.1575C145.11 58.2968 145.262 58.4781 145.367 58.687C145.471 58.8958 145.525 59.1262 145.524 59.3597C145.523 59.5932 145.467 59.8231 145.361 60.0311ZM89.622 119.287C89.152 118.868 88.5412 118.641 87.9114 118.652C87.2816 118.663 86.6791 118.911 86.2241 119.347C85.0361 120.53 83.9212 121.784 82.8857 123.102C81.6338 124.593 80.5011 126.143 78.8916 127.335C77.282 128.527 73.884 129.72 71.1418 130.375L64.6439 131.866V132.164C65.2801 132.503 65.9372 132.802 66.6111 133.058C69.8736 134.14 73.3178 134.565 76.7455 134.31C79.2419 134.135 81.6859 133.509 83.9587 132.462C87.1183 130.971 89.5028 128.647 91.5297 125.904C91.8643 125.388 92.05 124.79 92.0662 124.175C92.1854 122.089 91.1124 120.539 89.622 119.287ZM149.951 118.393C148.342 118.929 147.03 119.764 146.613 121.493C146.371 122.693 146.212 123.908 146.136 125.129C146.153 125.27 146.206 125.404 146.289 125.519C146.373 125.634 146.484 125.725 146.613 125.785C147.839 126.167 149.096 126.446 150.368 126.62C151.956 126.731 153.55 126.731 155.138 126.62C156.854 126.56 158.566 126.4 160.264 126.143C164.199 125.487 168.074 124.414 171.472 122.149L175.108 119.704L174.989 119.526L171.114 120.122C168.431 120.42 165.808 120.718 163.126 120.837C161.829 120.826 160.534 120.726 159.251 120.539C157.084 120.431 154.977 119.797 153.111 118.691C152.652 118.378 152.122 118.186 151.569 118.134C151.017 118.082 150.46 118.171 149.951 118.393Z" fill="#336791"/>
</svg>
