<svg width="192" height="192" viewBox="0 0 192 192" fill="none" xmlns="http://www.w3.org/2000/svg">
<path d="M80.387 42.7229C83.534 39.4059 87.3244 36.7654 91.5264 34.963C95.7285 33.1607 100.254 32.2342 104.826 32.2403C110.921 32.242 116.903 33.883 122.146 36.9913C127.388 40.0996 131.699 44.5607 134.624 49.9073C139.932 47.4952 145.696 46.2502 151.526 46.2561C162.397 46.6632 172.688 51.2684 180.236 59.1038C187.783 66.9391 192 77.3948 192 88.2741C192 99.1533 187.783 109.609 180.236 117.444C172.688 125.28 162.397 129.885 151.526 130.292C148.816 130.283 146.114 130.007 143.458 129.467C139.668 136.251 133.428 141.329 126.016 143.661C118.604 145.993 110.581 145.403 103.59 142.011C100.898 148.483 96.3127 153.989 90.435 157.807C84.5573 161.625 77.6624 163.576 70.6557 163.404C63.6489 163.232 56.858 160.945 51.1747 156.843C45.4914 152.741 41.1814 147.017 38.8108 140.421C36.624 140.892 34.3932 141.129 32.1562 141.128C25.0325 141.025 18.138 138.594 12.5261 134.205C6.91409 129.816 2.8931 123.71 1.07734 116.821C-0.738428 109.932 -0.249055 102.638 2.47051 96.0526C5.19007 89.4676 9.99034 83.9535 16.1382 80.3532C12.5179 71.9485 12.0947 62.5104 14.9483 53.8154C17.8019 45.1204 23.7353 37.7686 31.6318 33.1436C39.5283 28.5186 48.8432 26.9395 57.8228 28.7038C66.8024 30.4681 74.8274 35.454 80.387 42.7229Z" fill="#059AD6"/>
<path d="M27.9755 98.0786C27.9755 98.4319 27.9755 98.432 27.9755 98.4909L29.1532 99.1975C30.958 100.172 32.9929 100.64 35.0422 100.552C38.9878 100.552 41.4613 98.4319 41.4613 95.0751C41.4613 91.8951 38.6346 90.8351 36.1023 89.9518H35.749C33.8057 89.304 32.0977 88.7741 32.0977 87.4785C32.0977 86.3007 33.0988 85.535 34.6889 85.535C36.4351 85.5745 38.1485 86.0181 39.6945 86.8308C39.6945 86.8308 40.0479 86.8308 40.2245 86.8308L41.0491 84.5929C41.103 84.5379 41.1332 84.4637 41.1332 84.3866C41.1332 84.3096 41.103 84.2357 41.0491 84.1807C39.2729 83.1231 37.225 82.6111 35.1601 82.7084H34.8068C34.0748 82.6606 33.3406 82.7586 32.6469 82.997C31.9532 83.2355 31.3138 83.6096 30.7658 84.0973C30.2179 84.5849 29.7724 85.1767 29.4551 85.838C29.1379 86.4994 28.9552 87.2171 28.9178 87.9497C28.9178 91.3064 31.7445 92.3664 34.2768 93.0731H34.7478C36.6912 93.7209 38.2812 94.133 38.2812 95.5464C38.2812 96.783 37.2212 97.6663 35.4545 97.6663C33.6392 97.6892 31.8573 97.1772 30.3311 96.1941L29.7421 95.7232C29.6679 95.6609 29.5742 95.6265 29.4772 95.6265C29.3803 95.6265 29.2864 95.6609 29.2122 95.7232L27.9755 98.0786Z" fill="white"/>
<path d="M85.9229 98.0789C85.9229 98.4323 85.9229 98.4323 85.9229 98.4912L87.0418 99.1978C88.8536 100.154 90.8834 100.621 92.9308 100.553C96.9353 100.553 99.4087 98.4322 99.4087 95.0755C99.4087 91.8954 96.5819 90.8354 93.9908 89.9521H93.6375C91.6941 89.3043 90.0453 88.7744 90.0453 87.4788C90.0453 86.301 91.0464 85.5354 92.5775 85.5354C94.3414 85.5824 96.0721 86.0253 97.6419 86.8311C97.6419 86.8311 97.9952 86.8311 98.1719 86.8311L98.9375 84.5933C98.9915 84.5382 99.0218 84.464 99.0218 84.387C99.0218 84.3099 98.9915 84.236 98.9375 84.181C97.1613 83.1235 95.1134 82.6115 93.0485 82.7088H92.6363C91.881 82.6189 91.1154 82.6858 90.3871 82.905C89.6588 83.1242 88.9836 83.4912 88.4034 83.983C87.8232 84.4747 87.3504 85.0807 87.0149 85.7632C86.6793 86.4458 86.488 87.1903 86.4529 87.95C86.4529 91.3068 89.2796 92.3668 91.8119 93.0734H92.2829C94.2263 93.7212 95.8164 94.1333 95.8164 95.5467C95.8164 96.7834 94.7565 97.6666 92.9898 97.6666C91.1745 97.6895 89.3924 97.1775 87.8662 96.1944L87.2774 95.7235C87.2032 95.6612 87.1093 95.6269 87.0124 95.6269C86.9154 95.6269 86.8215 95.6612 86.7473 95.7235L85.9229 98.0789Z" fill="white"/>
<path d="M125.556 91.4248C125.626 93.005 125.259 94.5742 124.495 95.9594C124.165 96.405 123.749 96.7794 123.271 97.0604C122.793 97.3413 122.263 97.523 121.714 97.5945C121.164 97.666 120.605 97.6256 120.071 97.4762C119.538 97.3268 119.039 97.0715 118.606 96.725C118.341 96.499 118.104 96.242 117.9 95.9594C117.205 94.5594 116.843 93.0174 116.843 91.4543C116.843 89.8911 117.205 88.3491 117.9 86.9491C118.224 86.4966 118.638 86.1157 119.116 85.8298C119.594 85.544 120.126 85.3596 120.678 85.2878C121.23 85.216 121.791 85.2584 122.327 85.4125C122.862 85.5667 123.359 85.8294 123.789 86.1839C124.072 86.4088 124.329 86.6654 124.554 86.9491C125.31 88.316 125.677 89.8641 125.614 91.4248H125.556ZM128.971 87.8916C128.663 86.8353 128.142 85.8534 127.44 85.006C126.758 84.1705 125.891 83.5051 124.908 83.0625C123.788 82.596 122.587 82.3559 121.374 82.3559C120.161 82.3559 118.961 82.596 117.841 83.0625C116.858 83.5051 115.99 84.1705 115.309 85.006C114.607 85.8534 114.086 86.8353 113.778 87.8916C113.129 90.2025 113.129 92.6475 113.778 94.9584C114.085 96.0329 114.605 97.0344 115.309 97.9029C115.99 98.7384 116.858 99.4035 117.841 99.846C120.114 100.727 122.634 100.727 124.908 99.846C125.891 99.4035 126.758 98.7384 127.44 97.9029C128.143 97.0344 128.664 96.0329 128.971 94.9584C129.62 92.6475 129.62 90.2025 128.971 87.8916Z" fill="white"/>
<path d="M156.001 97.0188C155.937 96.9609 155.853 96.9289 155.766 96.9289C155.679 96.9289 155.595 96.9609 155.53 97.0188L154.058 97.4311H152.174C151.481 97.4804 150.785 97.3799 150.135 97.136C149.484 96.8921 148.894 96.5106 148.405 96.0178C147.391 94.755 146.886 93.1582 146.991 91.5421C146.927 89.9946 147.36 88.4673 148.228 87.1843C148.684 86.6543 149.256 86.2353 149.899 85.9597C150.542 85.6841 151.239 85.5592 151.938 85.5942C153.136 85.5901 154.327 85.769 155.471 86.1243C155.471 86.1243 155.471 86.1243 155.825 86.1243L156.59 83.8275V83.4742L154.411 82.944H151.938C150.667 82.9392 149.408 83.1791 148.228 83.6507C147.213 84.1002 146.309 84.765 145.577 85.5988C144.845 86.4326 144.302 87.4156 143.988 88.4797C143.639 89.6253 143.461 90.8159 143.458 92.0133C143.331 94.4353 144.131 96.8148 145.696 98.6679C146.551 99.5148 147.575 100.173 148.701 100.599C149.827 101.025 151.03 101.21 152.233 101.141C153.819 101.13 155.391 100.852 156.885 100.317C156.916 100.263 156.932 100.202 156.932 100.14C156.932 100.078 156.916 100.017 156.885 99.9633L156.001 97.0188Z" fill="white"/>
<path d="M161.714 89.5989C161.829 88.6656 162.129 87.7645 162.597 86.9488C162.948 86.4347 163.424 86.019 163.981 85.7407C164.537 85.4624 165.156 85.3311 165.777 85.359C166.402 85.3065 167.03 85.4272 167.591 85.7076C168.151 85.9881 168.624 86.4173 168.957 86.9488C169.424 87.7537 169.668 88.6685 169.664 89.5989H161.714ZM172.844 87.1846C172.563 86.2122 172.082 85.3093 171.431 84.5344C170.829 83.8776 170.11 83.3383 169.311 82.9443C167.095 82.0803 164.636 82.0803 162.421 82.9443C161.437 83.411 160.565 84.0837 159.864 84.9169C159.163 85.75 158.649 86.7242 158.357 87.7733C158.066 88.931 157.888 90.1147 157.827 91.3069C157.823 92.5048 158.002 93.6962 158.357 94.8402C158.698 95.8771 159.238 96.8373 159.947 97.6668C160.747 98.4857 161.71 99.1277 162.774 99.5513C164.083 99.984 165.459 100.184 166.837 100.14C168.864 100.282 170.893 99.8961 172.726 99.0215C172.726 99.0215 173.021 99.0213 172.726 98.4913L172.02 96.4303C171.951 96.3822 171.868 96.3563 171.784 96.3563C171.7 96.3563 171.618 96.3822 171.549 96.4303C170.095 97.0319 168.528 97.3128 166.955 97.2545C165.57 97.3133 164.217 96.8272 163.186 95.9001C162.726 95.4021 162.37 94.8178 162.137 94.181C161.905 93.5441 161.801 92.8673 161.832 92.19H173.08C173.133 92.2211 173.194 92.2375 173.256 92.2375C173.318 92.2375 173.379 92.2211 173.433 92.19C173.619 90.6506 173.499 89.0898 173.08 87.5968L172.844 87.1846Z" fill="white"/>
<path d="M72.1428 89.5989C72.258 88.6656 72.5583 87.7645 73.0261 86.9488C73.3768 86.4347 73.853 86.019 74.4096 85.7407C74.9661 85.4624 75.5846 85.3311 76.2062 85.359C76.8312 85.3065 77.4584 85.4272 78.0194 85.7076C78.5803 85.9881 79.0531 86.4173 79.3861 86.9488C79.8527 87.7537 80.0968 88.6685 80.093 89.5989H72.1428ZM83.2729 87.1846C82.9921 86.2122 82.5107 85.3093 81.8596 84.5344C81.2576 83.8776 80.5388 83.3383 79.7396 82.9443C77.5242 82.0803 75.0649 82.0803 72.8494 82.9443C71.8656 83.411 70.9937 84.0837 70.2926 84.9169C69.5915 85.75 69.0777 86.7242 68.786 87.7733C68.4946 88.931 68.3171 90.1147 68.256 91.3069C68.252 92.5048 68.4307 93.6962 68.786 94.8402C69.1265 95.8771 69.6666 96.8373 70.376 97.6668C71.1761 98.4857 72.1391 99.1277 73.2028 99.5513C74.5123 99.984 75.8877 100.184 77.2662 100.14C79.2928 100.282 81.3215 99.8961 83.1552 99.0215C83.1552 99.0215 83.4496 99.0213 83.1552 98.4913L82.4485 96.4303C82.3794 96.3822 82.2971 96.3563 82.2129 96.3563C82.1287 96.3563 82.0464 96.3822 81.9773 96.4303C80.5216 97.0266 78.9561 97.3074 77.3839 97.2545C75.9988 97.3133 74.6459 96.8272 73.615 95.9001C73.155 95.4021 72.7984 94.8178 72.5659 94.181C72.3333 93.5441 72.2296 92.8673 72.2605 92.19H83.1552C83.2061 92.2283 83.2681 92.249 83.3318 92.249C83.3955 92.249 83.4575 92.2283 83.5085 92.19C83.6942 90.6506 83.5742 89.0898 83.1552 87.5968L83.2729 87.1846Z" fill="white"/>
<path d="M47.8211 96.9009C47.5639 96.7237 47.3602 96.4793 47.2322 96.1943C46.9372 95.7637 46.8114 95.2395 46.8789 94.722C46.8303 94.2995 46.8914 93.8718 47.0564 93.4798C47.2215 93.0878 47.4849 92.7447 47.8211 92.4842C48.8088 91.8793 49.9658 91.6111 51.1189 91.7189C52.1192 91.6606 53.1221 91.6606 54.1224 91.7189V96.8423C53.1311 97.0567 52.1283 97.2138 51.1189 97.3132C50.0048 97.5554 48.8414 97.4099 47.8211 96.9009ZM52.2379 89.0688H50.4712C49.5566 89.0666 48.6456 89.1854 47.7622 89.4222C46.946 89.6535 46.1711 90.0111 45.4656 90.4821C44.7856 90.9418 44.2374 91.5711 43.8754 92.3077C43.4639 93.1104 43.2424 93.9969 43.2277 94.8989C43.2145 95.7718 43.3955 96.6367 43.7577 97.4311C44.1026 98.1452 44.631 98.7549 45.2889 99.1977C45.9781 99.6846 46.7597 100.025 47.5855 100.199C48.5831 100.318 49.5914 100.318 50.589 100.199C51.7258 100.286 52.8676 100.286 54.0045 100.199L56.8313 99.6689H57.6558C57.682 99.6137 57.6955 99.5532 57.6955 99.4921C57.6955 99.431 57.682 99.3708 57.6558 99.3156V89.0688C57.7385 88.1654 57.623 87.2547 57.3179 86.4004C57.0128 85.5461 56.5252 84.7686 55.889 84.1219C54.4277 83.0031 52.5979 82.4773 50.7656 82.6497H47.7622C46.5665 82.8828 45.4144 83.3001 44.3466 83.8865C44.3105 83.9492 44.2915 84.0201 44.2915 84.0925C44.2915 84.1648 44.3105 84.2361 44.3466 84.2988L45.171 86.4187C45.171 86.4187 45.1711 86.4187 45.4656 86.4187C46.9733 85.695 48.6222 85.3129 50.2946 85.2998C51.2692 85.231 52.24 85.4788 53.0624 86.0064C53.6513 86.4187 53.9457 87.1254 53.9457 88.6566V89.0688H52.2379Z" fill="white"/>
<path d="M142.693 83.2975V82.9442L140.808 82.5908C139.916 82.4799 139.009 82.5883 138.168 82.9064C137.326 83.2245 136.575 83.7427 135.979 84.4164V83.121C135.979 83.0273 135.942 82.9374 135.876 82.8712C135.809 82.8049 135.72 82.7677 135.626 82.7677H132.681C132.588 82.7677 132.498 82.8049 132.432 82.8712C132.365 82.9374 132.328 83.0273 132.328 83.121V99.7869C132.328 99.8806 132.365 99.9705 132.432 100.037C132.498 100.103 132.588 100.14 132.681 100.14H135.626C135.72 100.14 135.809 100.103 135.876 100.037C135.942 99.9705 135.979 99.8806 135.979 99.7869V91.4243C135.922 90.4296 136.042 89.4327 136.333 88.4798C136.528 87.8705 136.849 87.3091 137.275 86.8311C137.688 86.4671 138.168 86.187 138.688 86.0065C139.197 85.9487 139.711 85.9487 140.219 86.0065H141.456C141.511 86.0605 141.585 86.0906 141.662 86.0906C141.739 86.0906 141.813 86.0605 141.868 86.0065L142.693 83.2975Z" fill="white"/>
<path d="M115.073 75.5825H113.895H112.6C111.73 75.518 110.855 75.6367 110.034 75.9308C109.212 76.225 108.461 76.6883 107.83 77.2906C106.52 78.6983 105.712 80.4996 105.533 82.414V83.1796H102.942C102.848 83.1796 102.758 83.2168 102.692 83.2831C102.626 83.3493 102.588 83.4392 102.588 83.5329L102.176 85.8297C102.176 85.8297 102.176 86.183 102.53 86.183H105.003L102.706 100.022C102.533 100.959 102.297 101.884 102 102.79C101.796 103.354 101.519 103.888 101.175 104.38C100.933 104.761 100.553 105.035 100.115 105.145H98.8196H97.9363H97.2884C97.2884 105.145 97.2884 105.145 96.9351 105.145L96.1107 107.442C96.0694 107.514 96.0475 107.595 96.0475 107.678C96.0475 107.76 96.0694 107.842 96.1107 107.913H97.1707C98.6189 108.29 100.139 108.29 101.587 107.913C102.368 107.595 103.071 107.113 103.649 106.5C104.291 105.776 104.791 104.937 105.121 104.026C105.565 102.762 105.899 101.462 106.122 100.14L108.654 85.8297H112.364C112.458 85.8297 112.548 85.7924 112.614 85.7262C112.68 85.6599 112.718 85.5697 112.718 85.476L113.189 83.1796C113.251 83.1015 113.28 83.0018 113.269 82.9024C113.258 82.803 113.208 82.7119 113.13 82.6494C113.052 82.5869 112.952 82.5582 112.853 82.5692C112.753 82.5803 112.662 82.6302 112.6 82.7083H108.949C109.074 81.8436 109.291 80.9948 109.596 80.1761C109.744 79.723 110.008 79.3167 110.362 78.9983C110.636 78.715 110.982 78.5116 111.363 78.4095H112.6H113.483H114.072C114.425 78.4095 114.543 78.4095 114.543 78.4095L115.427 75.9948C115.427 75.9948 115.426 75.9949 115.132 75.7004L115.073 75.5825Z" fill="white"/>
<path d="M65.0757 99.8456C65.0757 99.9393 65.0384 100.03 64.9722 100.096C64.9059 100.162 64.8161 100.199 64.7224 100.199H61.7189C61.6252 100.199 61.5354 100.162 61.4691 100.096C61.4029 100.03 61.3656 99.9393 61.3656 99.8456V75.9364C61.3656 75.8426 61.4029 75.7528 61.4691 75.6865C61.5354 75.6203 61.6252 75.583 61.7189 75.583H64.7224C64.7711 75.5717 64.8219 75.5732 64.8699 75.587C64.918 75.6007 64.9618 75.6264 64.9972 75.6617C65.0325 75.6971 65.0582 75.7409 65.0719 75.789C65.0857 75.837 65.087 75.8877 65.0757 75.9364V99.8456Z" fill="white"/>
</svg>
