<svg width="192" height="192" viewBox="0 0 192 192" fill="none" xmlns="http://www.w3.org/2000/svg">
<g clip-path="url(#clip0)">
<path fill-rule="evenodd" clip-rule="evenodd" d="M192 97.2801C192 83.6267 185.387 72.8534 172.747 72.8534C160.054 72.8534 152.374 83.6267 152.374 97.1734C152.374 113.227 161.44 121.333 174.454 121.333C180.8 121.333 185.6 119.893 189.227 117.867V107.2C185.6 109.013 181.44 110.133 176.16 110.133C170.987 110.133 166.4 108.32 165.814 102.027H191.894C191.894 101.333 192 98.5601 192 97.2801ZM165.654 92.2134C165.654 86.1867 169.334 83.6801 172.694 83.6801C175.947 83.6801 179.414 86.1867 179.414 92.2134H165.654Z" fill="#635BFF"/>
<path fill-rule="evenodd" clip-rule="evenodd" d="M131.787 72.8534C126.56 72.8534 123.2 75.3067 121.333 77.0134L120.64 73.7067H108.907V135.893L122.24 133.067L122.293 117.973C124.213 119.36 127.04 121.333 131.733 121.333C141.28 121.333 149.973 113.653 149.973 96.7467C149.92 81.2801 141.12 72.8534 131.787 72.8534ZM128.587 109.6C125.44 109.6 123.573 108.48 122.293 107.093L122.24 87.3067C123.627 85.7601 125.547 84.6934 128.587 84.6934C133.44 84.6934 136.8 90.1334 136.8 97.1201C136.8 104.267 133.493 109.6 128.587 109.6Z" fill="#635BFF"/>
<path fill-rule="evenodd" clip-rule="evenodd" d="M90.5598 69.7067L103.946 66.8267V56L90.5598 58.8267V69.7067Z" fill="#635BFF"/>
<path d="M103.946 73.76H90.5598V120.427H103.946V73.76Z" fill="#635BFF"/>
<path fill-rule="evenodd" clip-rule="evenodd" d="M76.2134 77.7067L75.3601 73.76H63.8401V120.427H77.1734V88.8C80.3201 84.6933 85.6534 85.44 87.3068 86.0267V73.76C85.6001 73.12 79.3601 71.9467 76.2134 77.7067Z" fill="#635BFF"/>
<path fill-rule="evenodd" clip-rule="evenodd" d="M49.5466 62.1867L36.5333 64.9601L36.48 107.68C36.48 115.573 42.4 121.387 50.2933 121.387C54.6666 121.387 57.8666 120.587 59.6266 119.627V108.8C57.92 109.493 49.4933 111.947 49.4933 104.053V85.1201H59.6266V73.7601H49.4933L49.5466 62.1867Z" fill="#635BFF"/>
<path fill-rule="evenodd" clip-rule="evenodd" d="M13.4933 87.3067C13.4933 85.2267 15.2 84.4267 18.0267 84.4267C22.08 84.4267 27.2 85.6534 31.2533 87.8401V75.3067C26.8267 73.5467 22.4533 72.8534 18.0267 72.8534C7.2 72.8534 0 78.5067 0 87.9467C0 102.667 20.2667 100.32 20.2667 106.667C20.2667 109.12 18.1333 109.92 15.1467 109.92C10.72 109.92 5.06667 108.107 0.586666 105.653V118.347C5.54667 120.48 10.56 121.387 15.1467 121.387C26.24 121.387 33.8667 115.893 33.8667 106.347C33.8133 90.4534 13.4933 93.2801 13.4933 87.3067Z" fill="#635BFF"/>
</g>
<defs>
<clipPath id="clip0">
<rect width="192" height="192" fill="white"/>
</clipPath>
</defs>
</svg>
