<svg id="graphics" xmlns="http://www.w3.org/2000/svg" xmlns:xlink="http://www.w3.org/1999/xlink" width="100" height="100" viewBox="0 0 100 100">
  <defs>
    <style>
      .cls-1 {
        fill: #fff;
      }

      .cls-1, .cls-3, .cls-5 {
        fill-rule: evenodd;
      }

      .cls-2 {
        mask: url(#mask);
      }

      .cls-3 {
        fill: #93c8a2;
      }

      .cls-4 {
        mask: url(#mask-2);
      }

      .cls-5 {
        fill: #43af79;
      }
    </style>
    <mask id="mask" x="31.82" y="51.92" width="33.11" height="13.63" maskUnits="userSpaceOnUse">
      <g id="b">
        <path id="a" class="cls-1" d="M64.93,65.56H31.82V51.92H64.93Z"/>
      </g>
    </mask>
    <mask id="mask-2" x="31.82" y="51.92" width="33.11" height="13.66" maskUnits="userSpaceOnUse">
      <g id="b-2" data-name="b">
        <path id="a-2" data-name="a" class="cls-1" d="M64.93,65.56H31.82V51.92H64.93Z"/>
      </g>
    </mask>
  </defs>
  <title>connectors</title>
  <g>
    <g>
      <g class="cls-2">
        <path class="cls-3" d="M53.64,55.29H33.5a1.69,1.69,0,0,1,0-3.37H53.64a1.69,1.69,0,0,1,0,3.37"/>
      </g>
      <g class="cls-4">
        <path class="cls-5" d="M49.32,65.58a16.25,16.25,0,0,1-4.81-.72,1.68,1.68,0,0,1,1-3.22,12.69,12.69,0,0,0,3.82.58,12.82,12.82,0,0,0,12.33-9.11A1.66,1.66,0,0,1,63.74,52h0a1.68,1.68,0,0,1,1.12,2.09A16.16,16.16,0,0,1,49.32,65.58"/>
      </g>
    </g>
    <path class="cls-3" d="M65.14,46.75H45a1.68,1.68,0,0,1,0-3.36H65.14a1.68,1.68,0,0,1,0,3.36"/>
    <path class="cls-5" d="M35.39,46.75a1.67,1.67,0,0,1-1.6-2.18A16.25,16.25,0,0,1,54.14,33.82a1.68,1.68,0,0,1,1.11,2.1h0A1.68,1.68,0,0,1,53.15,37h0A12.92,12.92,0,0,0,37,45.56a1.67,1.67,0,0,1-1.6,1.19"/>
    <path class="cls-3" d="M61,38.66A1.68,1.68,0,1,1,59.3,37,1.68,1.68,0,0,1,61,38.66M41,60a1.68,1.68,0,1,1-1.68-1.68A1.68,1.68,0,0,1,41,60"/>
  </g>
</svg>
