<svg id="graphics" xmlns="http://www.w3.org/2000/svg" width="100" height="100" viewBox="0 0 100 100">
  <defs>
    <style>
      .cls-1 {
        fill: #fc66ff;
      }

      .cls-2 {
        fill: #521fcc;
      }
    </style>
  </defs>
  <title>connectors</title>
  <g>
    <path class="cls-1" d="M48.9,47.39c-1.46,2.45-2.86,4.82-4.28,7.16a1.87,1.87,0,0,0-.25,1.86,3.56,3.56,0,1,1-6.85,1.79,3.64,3.64,0,0,1,3.23-4.09l.65,0,3.21-5.36a8.78,8.78,0,0,1-3-7.25,8.23,8.23,0,0,1,2.47-5.28,8.39,8.39,0,0,1,10.47-1.1A8.15,8.15,0,0,1,58,44.55l-2.92-.79a5.55,5.55,0,0,0-1.19-5.08A5.11,5.11,0,0,0,50.72,37a5.16,5.16,0,0,0-5.63,3.66c-.82,2.76.42,5,3.81,6.71Z"/>
    <path class="cls-2" d="M53.06,44.49,56.16,50a8.51,8.51,0,0,1,10.56,4.36,8.38,8.38,0,0,1-13.63,9.38l2.38-2c3,2,5.64,1.85,7.59-.45A5.22,5.22,0,0,0,63,54.42c-2-2.22-4.62-2.29-7.82-.16-1.33-2.35-2.68-4.69-4-7.07a2.4,2.4,0,0,0-1.89-1.43,3.36,3.36,0,0,1-2.75-3.26,3.55,3.55,0,0,1,6.32-2.4,3.32,3.32,0,0,1,.61,3.3c-.11.34-.26.67-.42,1.06Z"/>
    <path class="cls-2" d="M55.51,59.28H49.23A8.59,8.59,0,0,1,45.09,65a8.42,8.42,0,0,1-5.62,1A8.4,8.4,0,0,1,39,49.57l.81,2.92C36.25,54.3,35,56.58,36,59.43a5.17,5.17,0,0,0,6,3.36c2.7-.54,4.15-2.84,4-6.51,2.61,0,5.23,0,7.84,0a2.86,2.86,0,0,0,2.58-1,3.38,3.38,0,0,1,5,0,3.56,3.56,0,0,1-5.15,4.92h0A9,9,0,0,1,55.51,59.28Z"/>
  </g>
</svg>
