<svg id="Layer_1" data-name="Layer 1" xmlns="http://www.w3.org/2000/svg" viewBox="0 0 240 66.78"><defs><style>.cls-1{fill:#0073ff;}</style></defs><title>logo</title><path class="cls-1" d="M934.39,526.26v5.61H919.27V538h13.92v5.65H919.27v11.79H912V526.26Z" transform="translate(-840 -507.22)"/><path class="cls-1" d="M940.33,526.22h6.28v4.95h-6.28Zm0,7.6h6.28v21.61h-6.28Z" transform="translate(-840 -507.22)"/><path class="cls-1" d="M951.11,533.86h6.7c2.65,9.59,3.1,11.55,3.8,15.67.87-4.79,1-5.32,2.28-10.41l1.32-5.28h6.53l-7,21.57H958.1Z" transform="translate(-840 -507.22)"/><path class="cls-1" d="M995.84,549.93a17.26,17.26,0,0,1-2.61,3.23,11.92,11.92,0,0,1-8.14,3.06c-6.41,0-10.91-4.13-10.91-11.16,0-5.21,2.56-11.91,11.07-11.91a10.49,10.49,0,0,1,7.77,3.1c2.82,3,3,7.24,3.06,9.67h-15.4c0,2.69,1.48,5.37,4.94,5.37s4.67-2.28,5.46-3.8Zm-6.33-8a5.11,5.11,0,0,0-1.2-3.06,4.44,4.44,0,0,0-3.1-1.19,4.34,4.34,0,0,0-3.22,1.4,5.62,5.62,0,0,0-1.28,2.85Z" transform="translate(-840 -507.22)"/><path class="cls-1" d="M1002.38,527.62h6.33v6.74h4.17v3.88h-4.21V548c0,1.32,0,2.47,1.65,2.47l2.28-.08v4.95a21,21,0,0,1-3.35.33c-2.2,0-4.59-.12-6-2.11-.87-1.28-.91-2.81-.91-4.87V538.2h-3.14v-3.89h3.14Z" transform="translate(-840 -507.22)"/><path class="cls-1" d="M1024.32,536.09a10,10,0,0,1,6.24-2.47v5.64l-2.1.33c-3.06.53-4,1-4,3.72v12.12h-6.33V533.82h6.2Z" transform="translate(-840 -507.22)"/><path class="cls-1" d="M1035.16,540a6,6,0,0,1,2.28-4.79c2-1.56,4.54-1.89,7.07-1.89s9.07.61,9.07,6.19V552c0,2.32.12,2.65.62,3.39H1048v-2c-1.65,1.2-3.43,2.57-6.6,2.57-4.94,0-7.06-3.56-7.06-6.6,0-3.47,2.77-5.45,4.54-6.19a54.92,54.92,0,0,1,8.51-2v-1.16c-.08-1-.16-2.65-2.47-2.65-2.81,0-3.19,1.74-3.35,2.53Zm8.06,6.5c-1.07.41-2.73,1-2.73,2.68a2.32,2.32,0,0,0,2.42,2.19,4.18,4.18,0,0,0,2.19-.7c2.1-1.32,2.19-3.3,2.24-5.54Z" transform="translate(-840 -507.22)"/><path class="cls-1" d="M1067.22,535.8a6.25,6.25,0,0,1,2.16-1.69,10.54,10.54,0,0,1,3.92-.82,8.16,8.16,0,0,1,3.85.86c2.27,1.2,2.85,3.14,2.85,6.49v14.79h-6.32V543.28a8.55,8.55,0,0,0-.29-3.22,2.89,2.89,0,0,0-2.85-1.65c-3.35,0-3.35,2.69-3.35,5.37v11.65h-6.34V533.9h6.41Z" transform="translate(-840 -507.22)"/><path class="cls-1" d="M873.19,540.62h6.71a1,1,0,0,0,1-1,1.06,1.06,0,0,0-.08-.4l-11.54-31.41a1,1,0,0,0-.91-.64h-6.73a1,1,0,0,0-1,1,1,1,0,0,0,.06.34L872.25,540A1,1,0,0,0,873.19,540.62Z" transform="translate(-840 -507.22)"/><path class="cls-1" d="M872,574h6.71a1,1,0,0,0,1-1,1,1,0,0,0-.06-.34l-23.79-64.83a1,1,0,0,0-.92-.64h-6.7a1,1,0,0,0-1,1,1,1,0,0,0,.06.34l23.79,64.84A1,1,0,0,0,872,574Z" transform="translate(-840 -507.22)"/><path class="cls-1" d="M858.78,574h6.7a1,1,0,0,0,1-.92,1.32,1.32,0,0,0-.06-.39l-11.58-31.44a1,1,0,0,0-.91-.64h-6.74a1,1,0,0,0-.94,1,.87.87,0,0,0,.06.32l11.53,31.45A1,1,0,0,0,858.78,574Z" transform="translate(-840 -507.22)"/><path class="cls-1" d="M874,508.54l5.41,14.71a1,1,0,0,0,.91.64H887a1,1,0,0,0,1-1,1,1,0,0,0-.06-.34l-5.41-14.72a1,1,0,0,0-.91-.64h-6.71a1,1,0,0,0-1,1A1,1,0,0,0,874,508.54Z" transform="translate(-840 -507.22)"/><path class="cls-1" d="M846.41,574h6.7a1,1,0,0,0,1-1,1,1,0,0,0-.06-.34l-5.44-14.75a1,1,0,0,0-.92-.64H841a1,1,0,0,0-1,1,1.07,1.07,0,0,0,.06.35l5.41,14.75A1,1,0,0,0,846.41,574Z" transform="translate(-840 -507.22)"/></svg>