<?xml version="1.0" encoding="utf-8"?>
<!-- Generator: Adobe Illustrator 16.0.0, SVG Export Plug-In . SVG Version: 6.00 Build 0)  -->
<!DOCTYPE svg PUBLIC "-//W3C//DTD SVG 1.1//EN" "http://www.w3.org/Graphics/SVG/1.1/DTD/svg11.dtd">
<svg version="1.1" id="Layer_1" xmlns="http://www.w3.org/2000/svg" xmlns:xlink="http://www.w3.org/1999/xlink" x="0px" y="0px"
	 width="1000px" height="124.247px" viewBox="0 0 1000 124.247" enable-background="new 0 0 1000 124.247" xml:space="preserve">
<g>
	<g>
		<polygon points="775.563,3.799 775.563,27.483 811.044,27.483 811.044,120.477 836.721,120.477 836.721,27.483 872.195,27.483 
			872.195,3.799 		"/>
		<polygon points="379.348,3.799 379.348,75.647 324.693,3.799 301.039,3.799 301.039,120.477 326.361,120.477 326.361,46.309 
			382.85,120.477 404.684,120.477 404.684,3.799 		"/>
		<g>
			<path d="M599.083,78.955h33.784c-1.573,8.86-10.275,21.913-32.022,21.913c-21.319,0-38.477-16.954-38.477-38.606
				c0-22.074,16.693-38.738,38.883-38.738c22.349,0,32.682,17.665,33.117,18.419l19.898-12.328
				c-11.675-18.796-30.993-29.601-53.016-29.601c-34.858,0-63.226,27.802-63.226,61.986c0,34.894,27.403,62.247,62.392,62.247
				c32.45,0,57.859-23.306,57.859-54.821v-13.56h-59.193V78.955z"/>
			<path d="M490.1,53.531c-16.824-6.309-33.43-8.47-33.43-19.71c0-6.526,6.787-11.414,21.146-11.414
				c13.814,0,29.456,6.294,39.919,11.82V9.354C503.616,3.48,490.114,0,476.169,0c-28.186,0-47.258,14.271-47.258,34.981
				c0,22.61,19.282,30.602,32.704,35.634c16.809,6.279,32.937,8.586,32.937,19.825c0,6.512-7.752,11.399-22.095,11.414
				c-13.408,0-29.688-6.323-40.145-11.834v24.974c14.619,6.251,27.969,9.253,41.761,9.253c28.484,0.016,48.208-14.271,48.208-34.98
				C522.282,66.655,503.529,58.578,490.1,53.531"/>
			<path d="M216.008,0c-33.93,0-61.522,27.584-61.522,61.522c0,34.532,27.28,62.595,60.811,62.595
				c35.032,0,62.479-27.426,62.479-62.465C277.776,27.671,250.061,0,216.008,0 M215.717,99.824
				c-20.543,0-36.656-16.592-36.656-37.766c0-21.087,16.337-37.606,37.2-37.606c20.645,0,36.787,16.417,36.787,37.331
				C253.048,83.465,237.022,99.824,215.717,99.824"/>
			<polygon points="25.663,3.814 0,3.814 0,120.462 83.631,120.462 83.631,97.142 25.663,97.142 			"/>
			<path d="M971.374,97.634h-54.509V73.139h49.948c-0.341-4.09-0.565-8.237-0.565-12.429c0-3.524,0.159-6.976,0.449-10.399h-49.832
				V26.643h53.914c2.154-7.919,5.048-15.577,8.564-22.828V3.799h-87.96v116.677h88.765
				C976.566,113.226,973.615,105.582,971.374,97.634"/>
			<rect x="104.646" y="3.814" width="25.663" height="116.662"/>
			<path d="M713.091,3.799l-49.637,116.663h26.171l9.281-22.958h52.066l9.282,22.958h26.852L737.448,3.829L713.091,3.799z
				 M707.608,75.967l17.317-42.16l17.439,42.16H707.608z"/>
		</g>
	</g>
	<path fill-rule="evenodd" clip-rule="evenodd" d="M991.8,7.344c1.11,0,1.909,0.117,2.415,0.351c0.906,0.389,1.358,1.081,1.368,2.22
		c0,0.789-0.272,1.354-0.871,1.724c-0.298,0.195-0.726,0.36-1.267,0.419c0.672,0.117,1.169,0.409,1.5,0.886
		c0.326,0.467,0.487,0.896,0.487,1.354v0.662v0.663c0.029,0.224,0.038,0.37,0.121,0.448l0.049,0.098h-1.466c0,0,0-0.02-0.02-0.068
		c0-0.029,0-0.029-0.033-0.107l-0.02-0.283v-0.711c0-1.003-0.288-1.675-0.838-2.016c-0.316-0.195-0.906-0.253-1.724-0.292h-1.237
		v3.477h-1.533V7.344H991.8 M993.455,8.747c-0.365-0.204-0.993-0.341-1.855-0.341h-1.334v3.224h1.427
		c0.628,0,1.125-0.078,1.446-0.214c0.609-0.233,0.916-0.691,0.926-1.393C994.064,9.429,993.864,8.98,993.455,8.747 M997.657,17.473
		c-1.587,1.597-3.472,2.376-5.706,2.376c-2.226,0-4.101-0.779-5.674-2.376c-1.548-1.539-2.313-3.438-2.313-5.697
		c0-2.181,0.765-4.061,2.322-5.639c1.563-1.568,3.438-2.318,5.664-2.337c2.225,0,4.119,0.75,5.706,2.337
		c1.544,1.559,2.333,3.428,2.343,5.639C1000,14.016,999.23,15.875,997.657,17.473 M987.086,6.926
		c-1.339,1.314-1.996,2.97-1.996,4.85c0,1.928,0.657,3.574,1.996,4.928c1.314,1.383,2.961,2.036,4.865,2.036
		c1.933,0,3.549-0.652,4.908-2.036c1.344-1.354,1.981-3,1.981-4.928c0-1.879-0.638-3.496-1.981-4.85
		c-1.359-1.412-2.976-2.045-4.908-2.045C990.066,4.88,988.449,5.514,987.086,6.926"/>
</g>
</svg>
