<svg width="26" height="28" viewBox="0 0 26 28" fill="none" xmlns="http://www.w3.org/2000/svg">
<path d="M20.7143 19.04L25.8571 14L20.7143 8.96V12.74H14.1429C13.7143 8.82 11.2857 5.46 7.85714 3.78C7.71429 1.68 6 0 3.85714 0C1.71429 0 0 1.68 0 3.78C0 5.88 1.71429 7.56 3.85714 7.56C5.14286 7.56 6.14286 7 6.85714 6.16C9.28571 7.42 11.1429 9.8 11.5714 12.74H7.57143C7 11.2 5.57143 10.22 3.85714 10.22C1.71429 10.22 0 11.9 0 14C0 16.1 1.71429 17.78 3.85714 17.78C5.57143 17.78 7 16.66 7.57143 15.26H11.5714C11.1429 18.06 9.42857 20.44 6.85714 21.84C6.14286 21 5 20.44 3.85714 20.44C1.71429 20.44 0 22.12 0 24.22C0 26.32 1.71429 28 3.85714 28C6 28 7.71429 26.32 7.71429 24.22C11.1429 22.54 13.7143 19.18 14.1429 15.26H20.7143V19.04Z" fill="url(#paint0_linear)"/>
<defs>
<linearGradient id="paint0_linear" x1="0" y1="14" x2="25.974" y2="14" gradientUnits="userSpaceOnUse">
<stop offset="0.1" stop-color="#8FD966"/>
<stop offset="0.9" stop-color="#007D79"/>
</linearGradient>
</defs>
</svg>
