<svg width="192" height="192" viewBox="0 0 192 192" fill="none" xmlns="http://www.w3.org/2000/svg">
<g clip-path="url(#clip0)">
<path d="M66.7394 22.1222C68.5952 17.2508 71.1469 12.766 74.9358 9.13174C90.0913 -5.63716 115.144 -1.92561 125.428 16.6322C133.161 30.7052 141.357 44.4689 149.322 58.3872C162.621 81.5071 176.076 104.627 189.221 127.824C200.278 147.233 188.293 171.744 166.333 175.069C152.878 177.08 140.275 170.894 133.315 158.831C121.64 138.495 109.886 118.159 98.2103 97.8998C97.9784 97.4359 97.6691 97.0493 97.3598 96.6626C96.1226 95.6574 95.5813 94.1883 94.8081 92.8738C89.6274 83.7495 84.292 74.7026 79.1113 65.6557C75.7863 59.779 72.3068 53.9797 68.9818 48.1031C65.9662 42.8451 64.5743 37.1231 64.729 31.0918C64.961 27.9988 65.3476 24.9059 66.7394 22.1222Z" fill="#3C8BD9"/>
<path d="M66.7394 22.1222C66.0435 24.9059 65.4249 27.6895 65.2702 30.6278C65.0383 37.1231 66.6621 43.1544 69.9097 48.799C78.4153 63.4133 86.921 78.1049 95.3493 92.7964C96.1226 94.1109 96.7411 95.4255 97.5144 96.6626C92.8749 104.704 88.2355 112.669 83.5187 120.71C77.0235 131.922 70.5283 143.212 63.9557 154.424C63.6464 154.424 63.5691 154.269 63.4918 154.037C63.4145 153.419 63.6464 152.877 63.8011 152.259C66.9714 140.66 64.3424 130.376 56.378 121.561C51.5065 116.226 45.3206 113.21 38.2068 112.205C28.9279 110.89 20.7316 113.287 13.3858 119.087C12.0713 120.092 11.2207 121.561 9.6742 122.334C9.36491 122.334 9.21026 122.18 9.13293 121.948C12.8445 115.53 16.4787 109.112 20.1903 102.694C35.5005 76.0944 50.8106 49.4949 66.1981 22.9728C66.3528 22.6635 66.5847 22.4315 66.7394 22.1222Z" fill="#FABC04"/>
<path d="M9.44222 122.18C10.9114 120.865 12.3032 119.473 13.8497 118.236C32.6394 103.39 60.8627 114.138 64.9609 137.644C65.9661 143.289 65.4249 148.702 63.7237 154.114C63.6464 154.578 63.5691 154.965 63.4144 155.429C62.7185 156.666 62.0999 157.981 61.3267 159.218C54.4448 170.584 44.3154 176.229 31.0156 175.379C15.7828 174.296 3.79756 162.852 1.70981 147.697C0.704593 140.351 2.17375 133.469 5.96263 127.128C6.73587 125.736 7.66376 124.499 8.51433 123.107C8.90095 122.798 8.7463 122.18 9.44222 122.18Z" fill="#34A852"/>
<path d="M9.44217 122.18C9.13288 122.489 9.13288 123.03 8.59161 123.108C8.51428 122.566 8.82358 122.257 9.13288 121.87L9.44217 122.18Z" fill="#FABC04"/>
<path d="M63.4145 155.429C63.1052 154.888 63.4145 154.501 63.7238 154.115C63.8011 154.192 63.9558 154.346 64.0331 154.424L63.4145 155.429Z" fill="#E1C025"/>
</g>
<defs>
<clipPath id="clip0">
<rect width="192" height="192" fill="white"/>
</clipPath>
</defs>
</svg>
