<svg width="192" height="192" viewBox="0 0 192 192" fill="none" xmlns="http://www.w3.org/2000/svg">
<path d="M153.137 131.731C150.981 134.497 148.258 136.769 145.15 138.393C142.042 140.018 138.622 140.958 135.121 141.149H133.954C129.966 141.062 126.056 140.025 122.548 138.125C118.492 135.996 115.055 132.856 112.568 129.009C109.864 125.447 108.352 121.123 108.247 116.652V115.313C108.149 111.01 109.161 106.755 111.185 102.956C113.35 98.8242 116.551 95.3256 120.474 92.8033C124.307 90.2359 128.823 88.8809 133.436 88.9148H133.868C138.141 88.8232 142.367 89.8224 146.147 91.8181C149.927 93.8139 153.136 96.7404 155.47 100.321C157.84 103.974 159.32 108.132 159.791 112.461C159.791 113.368 159.791 114.319 159.791 115.183C159.792 121.351 157.408 127.281 153.137 131.731ZM176.64 91.3345C172.364 84.0335 166.259 77.9727 158.926 73.7499C153.458 70.5047 147.387 68.4032 141.083 67.5719V44.3278C144.227 42.9962 146.906 40.7631 148.782 37.9103C150.659 35.0576 151.648 31.7128 151.625 28.2984C151.655 23.7529 149.932 19.3708 146.814 16.0627C143.696 12.7547 139.424 10.7753 134.884 10.5361C130.345 10.2969 125.888 11.8165 122.44 14.7785C118.992 17.7406 116.818 21.9174 116.37 26.4409C116.327 27.0595 116.327 27.6799 116.37 28.2984C116.286 31.703 117.231 35.0541 119.081 37.9135C120.931 40.7729 123.599 43.0082 126.739 44.3278V67.6146C121.311 68.3905 116.044 70.0391 111.142 72.4968L48.5816 24.9716C49.0926 23.2894 49.3689 21.545 49.4025 19.7872C49.4195 15.8926 48.2818 12.0804 46.1331 8.83206C43.9844 5.58373 40.9211 3.04517 37.3302 1.53705C33.7394 0.0289256 29.7821 -0.381118 25.9583 0.358832C22.1346 1.09878 18.6159 2.95518 15.8469 5.69402C13.0779 8.43286 11.1828 11.9314 10.401 15.7468C9.61921 19.5622 9.98585 23.5236 11.4545 27.1308C12.9232 30.7379 15.4281 33.8286 18.6527 36.0127C21.8773 38.1969 25.677 39.3767 29.5716 39.4024C33.2082 39.4039 36.777 38.4183 39.8975 36.5507L44.218 39.6613L100.384 80.1009C97.3481 82.8447 94.6764 85.9666 92.4345 89.39C87.8379 96.3468 85.32 104.47 85.176 112.807V114.579C85.2194 120.358 86.2571 126.087 88.2436 131.515C89.9807 136.082 92.4625 140.331 95.5884 144.087L76.924 162.795C74.1245 161.801 71.0936 161.66 68.2136 162.387C65.3336 163.115 62.7337 164.679 60.7419 166.883C58.7501 169.086 57.4557 171.831 57.022 174.769C56.5883 177.708 57.0348 180.709 58.3051 183.395C59.5754 186.08 61.6127 188.328 64.1597 189.857C66.7067 191.385 69.6494 192.125 72.6164 191.983C75.5835 191.84 78.4418 190.822 80.8309 189.057C83.22 187.292 85.0327 184.859 86.0402 182.064C87.0784 178.922 87.0784 175.528 86.0402 172.386L105.309 153.117C113.718 158.887 123.67 161.989 133.868 162.017H135.294C143.448 162.036 151.471 159.97 158.602 156.016C165.733 152.061 171.734 146.348 176.036 139.421C180.578 132.296 182.991 124.022 182.992 115.572V115.14C183.029 106.781 180.836 98.5639 176.64 91.3345Z" fill="#F37621"/>
</svg>
