<svg width="192" height="192" viewBox="0 0 192 192" fill="none" xmlns="http://www.w3.org/2000/svg">
<path d="M176.853 147.468C166.406 147.208 158.309 148.251 151.519 151.117C149.56 151.899 146.426 151.9 146.164 154.375C147.21 155.418 147.34 157.112 148.254 158.545C149.822 161.151 152.563 164.67 155.045 166.495C157.787 168.58 160.529 170.665 163.402 172.489C168.495 175.617 174.241 177.441 179.203 180.569C182.077 182.392 184.948 184.739 187.821 186.694C189.258 187.735 190.171 189.43 192 190.082V189.691C191.086 188.518 190.824 186.824 189.911 185.521C188.606 184.217 187.299 183.044 185.993 181.741C182.206 176.659 177.505 172.228 172.412 168.58C168.234 165.713 159.093 161.803 157.395 156.982C157.395 156.982 157.264 156.852 157.134 156.722C160.007 156.461 163.402 155.418 166.144 154.636C170.585 153.463 174.632 153.724 179.203 152.551C181.292 152.03 183.382 151.378 185.471 150.727V149.554C183.121 147.208 181.423 144.081 178.942 141.865C172.282 136.13 164.969 130.528 157.395 125.837C153.346 123.231 148.123 121.536 143.814 119.321C142.248 118.538 139.635 118.148 138.722 116.845C136.37 113.978 135.065 110.199 133.367 106.81C129.582 99.6424 125.924 91.6943 122.659 84.1363C120.31 79.0537 118.873 73.9711 116 69.2801C102.55 47.1267 87.9239 33.7045 65.4632 20.5423C60.6314 17.806 54.8862 16.6328 48.7486 15.1997C45.4848 15.0689 42.2193 14.8089 38.9547 14.6781C36.8657 13.7658 34.7758 11.2903 32.9473 10.1171C25.5055 5.42533 6.30851 -4.73821 0.823811 8.68401C-2.70214 17.1545 6.0472 25.494 9.05044 29.7951C11.2714 32.7921 14.1436 36.18 15.7108 39.5687C16.625 41.7825 16.8855 44.1297 17.7998 46.4751C19.8896 52.2076 21.8476 58.5942 24.5903 63.9376C26.0273 66.6739 27.5936 69.541 29.4221 72.0164C30.4667 73.4495 32.2943 74.1019 32.6868 76.4474C30.8591 79.0537 30.728 82.9631 29.6826 86.221C24.9819 100.946 26.8104 119.19 33.4699 130.006C35.559 133.263 40.5218 140.432 47.1813 137.695C53.0577 135.35 51.7518 127.922 53.4492 121.406C53.8417 119.841 53.5803 118.8 54.3635 117.757C54.3642 117.887 54.3635 118.018 54.3635 118.018C56.192 121.667 58.0197 125.185 59.7171 128.834C63.7658 135.219 70.8168 141.865 76.6931 146.296C79.8283 148.641 82.3089 152.681 86.2264 154.115V153.724H85.9651C85.1811 152.55 84.0063 152.03 82.9618 151.117C80.6115 148.772 77.9989 145.905 76.1713 143.298C70.6874 136 65.8547 127.922 61.5456 119.581C59.4566 115.542 57.6281 111.111 55.9307 107.071C55.1467 105.507 55.1467 103.162 53.8408 102.38C51.8821 105.247 49.0099 107.723 47.5729 111.242C45.0931 116.845 44.831 123.751 43.9167 130.919C43.3949 131.049 43.6554 130.919 43.394 131.179C39.216 130.136 37.7791 125.837 36.2119 122.187C32.2943 112.935 31.6414 98.0792 35.0371 87.3942C35.9514 84.6571 39.8689 76.0566 38.3017 73.4504C37.5185 70.974 34.906 69.5409 33.4699 67.5862C31.7725 65.1099 29.944 61.9829 28.7692 59.2458C25.6348 51.9485 24.0677 43.8689 20.6728 36.5708C19.1056 33.1821 16.3637 29.6643 14.1436 26.5372C11.663 23.0186 8.92019 20.5423 6.9614 16.372C6.3093 14.9389 5.39421 12.5934 6.43873 11.0295C6.70006 9.98714 7.2219 9.59636 8.26724 9.33556C9.96468 7.90161 14.7965 9.72633 16.4939 10.5079C21.3257 12.4618 25.3735 14.2873 29.4221 17.0236C31.2498 18.3267 33.2085 20.8031 35.5589 21.4546H38.3017C42.4805 22.3662 47.1813 21.7154 51.0988 22.8878C58.0204 25.1024 64.2875 28.3611 69.9033 31.8798C87.0104 42.6957 101.113 58.0734 110.646 76.4474C112.213 79.4437 112.865 82.1816 114.302 85.3086C117.045 91.6944 120.44 98.2101 123.182 104.465C125.924 110.589 128.535 116.845 132.453 121.927C134.412 124.663 142.247 126.097 145.773 127.531C148.384 128.703 152.433 129.746 154.783 131.179C159.223 133.915 163.663 137.044 167.842 140.041C169.932 141.604 176.46 144.862 176.852 147.468L176.853 147.468Z" fill="#006A83"/>
<path d="M43.7262 33.3469C41.4362 33.3469 39.8206 33.6132 38.2041 34.011C38.2041 34.0103 38.2041 34.1441 38.2041 34.2764H38.4737C39.5519 36.3983 41.4362 37.8578 42.7832 39.7143C43.8614 41.8362 44.8036 43.9589 45.8818 46.0816C46.0162 45.9485 46.1505 45.8162 46.1505 45.8162C48.0374 44.4889 48.9796 42.3671 48.9796 39.1842C48.1709 38.2556 48.0366 37.3269 47.3631 36.3983C46.5553 35.0711 44.8036 34.4087 43.7262 33.3469Z" fill="#006A83"/>
</svg>
