<svg width="24" height="21" viewBox="0 0 24 21" fill="none" xmlns="http://www.w3.org/2000/svg">
<path d="M18.72 9.1L17.04 7.46667L21.36 3.26667L23.04 4.9C22.8 5.01667 18.72 9.1 18.72 9.1ZM13.2 0H10.8V5.83333H13.2V0ZM5.28 9.1L6.96 7.46667L2.76 3.26667L0.96 5.01667C1.2 5.01667 5.28 9.1 5.28 9.1ZM21.6 12.8333H17.52C16.56 14.9333 14.52 16.3333 12 16.3333C9.48 16.3333 7.44 14.9333 6.48 12.8333H2.4V18.6667H21.6V12.8333ZM21.6 10.5C22.92 10.5 24 11.55 24 12.8333V18.6667C24 19.95 22.92 21 21.6 21H2.4C1.08 21 0 19.95 0 18.6667V12.8333C0 11.55 1.08 10.5 2.4 10.5H8.4C8.4 12.4833 9.96 14 12 14C14.04 14 15.6 12.4833 15.6 10.5H21.6Z" fill="url(#paint0_linear)"/>
<defs>
<linearGradient id="paint0_linear" x1="0" y1="10.5" x2="24" y2="10.5" gradientUnits="userSpaceOnUse">
<stop offset="0.1" stop-color="#F7B068"/>
<stop offset="0.9" stop-color="#FCDFC3"/>
</linearGradient>
</defs>
</svg>
