<?xml version="1.0" encoding="UTF-8"?>
<svg width="400px" height="225px" viewBox="0 0 400 225" version="1.1" xmlns="http://www.w3.org/2000/svg" xmlns:xlink="http://www.w3.org/1999/xlink">
    <!-- Generator: Sketch 51.3 (57544) - http://www.bohemiancoding.com/sketch -->
    <title>Artboard Copy 5</title>
    <desc>Created with Sketch.</desc>
    <defs></defs>
    <g id="Artboard-Copy-5" stroke="none" stroke-width="1" fill="none" fill-rule="evenodd">
        <g id="okta-logo-(1)" transform="translate(70.000000, 69.000000)" fill="#007DC1" fill-rule="nonzero">
            <g id="Group">
                <path d="M32.8043478,22.0325926 C14.673913,22.0325926 0,36.6992593 0,54.8207407 C0,72.9422222 14.673913,87.6088889 32.8043478,87.6088889 C50.9347826,87.6088889 65.6086957,72.9422222 65.6086957,54.8207407 C65.6086957,36.6992593 50.9347826,22.0325926 32.8043478,22.0325926 Z M32.8043478,71.2474074 C23.7391304,71.2474074 16.3695652,63.8814815 16.3695652,54.8207407 C16.3695652,45.76 23.7391304,38.3940741 32.8043478,38.3940741 C41.8695652,38.3940741 49.2391304,45.76 49.2391304,54.8207407 C49.2391304,63.8814815 41.8695652,71.2474074 32.8043478,71.2474074 Z" id="Shape"></path>
                <path d="M90.4565217,65.837037 C90.4565217,63.2296296 93.5869565,61.9911111 95.4130435,63.8162963 C103.630435,72.16 117.195652,86.5007407 117.26087,86.5659259 C117.456522,86.7614815 117.652174,87.0874074 118.434783,87.3481481 C118.76087,87.4785185 119.282609,87.4785185 119.869565,87.4785185 L134.673913,87.4785185 C137.347826,87.4785185 138.130435,84.4148148 136.891304,82.8503704 L112.369565,57.7540741 L111.065217,56.4503704 C108.26087,53.1259259 108.586957,51.8222222 111.782609,48.4325926 L131.217391,26.7259259 C132.456522,25.1614815 131.673913,22.162963 128.934783,22.162963 L115.5,22.162963 C114.978261,22.162963 114.586957,22.162963 114.195652,22.2933333 C113.413043,22.5540741 113.086957,22.8148148 112.891304,23.0755556 C112.826087,23.1407407 102.065217,34.7437037 95.4130435,41.8488889 C93.5869565,43.8044444 90.326087,42.5007407 90.326087,39.8281481 L90.326087,2.60740741 C90.326087,0.717037037 88.7608696,0 87.5217391,0 L76.5652174,0 C74.673913,0 73.7608696,1.23851852 73.7608696,2.34666667 L73.7608696,84.8711111 C73.7608696,86.7614815 75.326087,87.282963 76.6304348,87.282963 L87.5869565,87.282963 C89.2826087,87.282963 90.3913043,86.0444444 90.3913043,84.8059259 L90.3913043,83.9585185 L90.3913043,65.837037 L90.4565217,65.837037 Z" id="Shape"></path>
                <path d="M179.934783,84.48 L178.76087,73.5288889 C178.630435,72.0296296 177.195652,70.9866667 175.695652,71.2474074 C174.847826,71.3777778 174,71.442963 173.152174,71.442963 C164.413043,71.442963 157.304348,64.5985185 156.782609,55.9288889 C156.782609,55.6681481 156.782609,55.3422222 156.782609,55.0162963 L156.782609,41.5881481 C156.782609,39.8281481 158.086957,38.3940741 159.847826,38.3940741 L174.521739,38.3940741 C175.565217,38.3940741 177.130435,37.4814815 177.130435,35.5911111 L177.130435,25.2266667 C177.130435,23.2059259 175.826087,22.162963 174.652174,22.162963 L159.847826,22.162963 C158.152174,22.162963 156.782609,20.9244444 156.717391,19.2296296 L156.717391,2.60740741 C156.717391,1.56444444 155.934783,0 153.913043,0 L143.021739,0 C141.652174,0 140.347826,0.847407407 140.347826,2.54222222 C140.347826,2.54222222 140.347826,55.6681481 140.347826,55.9288889 C140.804348,73.6592593 155.347826,87.8044444 173.152174,87.8044444 C174.652174,87.8044444 176.086957,87.6740741 177.521739,87.4785185 C179.086957,87.282963 180.130435,85.9792593 179.934783,84.48 Z" id="Shape"></path>
            </g>
            <path d="M259.115,70.326487 C249.885,70.326487 248.455,67.0314993 248.455,54.6914471 C248.455,54.6268395 248.455,54.6268395 248.455,54.5622319 L248.455,24.9073421 C248.455,23.8736205 247.675,22.1292152 245.595,22.1292152 L234.675,22.1292152 C233.31,22.1292152 231.815,23.2275445 231.815,24.9073421 L231.815,26.2641018 C227.07,23.5505825 221.545,22 215.695,22 C197.625,22 183,36.5367107 183,54.4976243 C183,72.4585379 197.625,86.9952486 215.695,86.9952486 C223.82,86.9952486 231.23,84.0232989 236.95,79.1777287 C240.005,83.8294761 244.945,86.930641 252.68,86.9952486 C253.98,86.9952486 261,87.253679 261,83.9586913 L261,72.3939303 C261,71.4248163 260.22,70.326487 259.115,70.326487 Z M215.76,70.8433479 C206.725,70.8433479 199.38,63.5426887 199.38,54.5622319 C199.38,45.5817751 206.725,38.281116 215.76,38.281116 C224.795,38.281116 232.14,45.5817751 232.14,54.5622319 C232.075,63.5426887 224.73,70.8433479 215.76,70.8433479 Z" id="Shape"></path>
        </g>
    </g>
</svg>