<svg width="800" height="400" xmlns="http://www.w3.org/2000/svg">
 <!-- Created with Method Draw - http://github.com/duopixel/Method-Draw/ -->

 <g>
  <title>background</title>
  <rect fill="#e5f2ff" id="canvas_background" height="402" width="802" y="-1" x="-1"/>
 </g>
 <g>
  <title>Layer 1</title>
  <g id="svg_5">
   <path id="svg_4" fill="#007FFF" d="m343.98934,288.01662l16.00299,0c8.85155,0 16.00299,-7.2011 16.00299,-16.00299l0,-16.00299c0,-8.80151 -7.15144,-16.00299 -16.00299,-16.00299l-16.00299,0c-8.85155,0 -16.00299,7.20148 -16.00299,16.00299l0,16.00299c0,8.80189 7.15144,16.00299 16.00299,16.00299zm0,-32.00598l16.00299,0l0,16.00299l-16.00299,0l0,-16.00299zm0,-96.0183l16.00299,0c8.85155,0 16.00299,-7.2011 16.00299,-16.00299l0,-16.00299c0,-8.80151 -7.15144,-16.00299 -16.00299,-16.00299l-16.00299,0c-8.85155,0 -16.00299,7.20148 -16.00299,16.00299l0,16.00299c0,8.80189 7.15144,16.00299 16.00299,16.00299zm0,-32.00598l16.00299,0l0,16.00299l-16.00299,0l0,-16.00299zm152.02895,-56.01065l-192.03657,0c-8.85166,0 -16.00303,7.20136 -16.00303,16.00303l0,224.04254c0,8.80189 7.15136,16.00299 16.00303,16.00299l192.03657,0c8.85155,0 16.00299,-7.2011 16.00299,-16.00299l0,-224.04254c0,-8.80166 -7.15144,-16.00303 -16.00299,-16.00303zm0,240.04557l-192.03657,0l0,-224.04254l192.03657,0l0,224.04254zm-100.01896,-168.03194l64.01195,0c2.20047,0 4.00103,-1.80018 4.00103,-4.00065l0,-8.00168c0,-2.20047 -1.80056,-4.00065 -4.00103,-4.00065l-64.01195,0c-2.20047,0 -4.00103,1.80018 -4.00103,4.00065l0,8.00168c0,2.20047 1.80056,4.00065 4.00103,4.00065zm0,64.01233l64.01195,0c2.20047,0 4.00103,-1.80056 4.00103,-4.00103l0,-8.00131c0,-2.20047 -1.80056,-4.00065 -4.00103,-4.00065l-64.01195,0c-2.20047,0 -4.00103,1.80018 -4.00103,4.00065l0,8.00131c0,2.20047 1.80056,4.00103 4.00103,4.00103zm0,64.01195l64.01195,0c2.20047,0 4.00103,-1.80018 4.00103,-4.00065l0,-8.00168c0,-2.2001 -1.80056,-4.00065 -4.00103,-4.00065l-64.01195,0c-2.20047,0 -4.00103,1.80056 -4.00103,4.00065l0,8.00168c0,2.20047 1.80056,4.00065 4.00103,4.00065zm-48.70947,-56.81085c1.05039,1.05039 2.7505,1.05039 3.80088,0l32.10605,-31.80583c1.05001,-1.05039 1.05001,-2.7505 0,-3.80088l-6.3012,-6.35123c-1.05039,-1.05001 -2.7505,-1.05001 -3.80088,0l-23.80452,23.60475l-10.30185,-10.45196c-1.05001,-1.05039 -2.7505,-1.05039 -3.80051,0l-6.35123,6.3012c-1.05039,1.05001 -1.05039,2.7505 0,3.80051l18.45327,18.70345z"/>
  </g>
 </g>
</svg>