<svg width="800" height="400" xmlns="http://www.w3.org/2000/svg">
 <!-- Created with Method Draw - http://github.com/duopixel/Method-Draw/ -->

 <g>
  <title>background</title>
  <rect fill="#e5f2ff" id="canvas_background" height="402" width="802" y="-1" x="-1"/>
 </g>
 <g>
  <title>Layer 1</title>
  <g id="svg_10">
   <path id="svg_9" fill="#007FFF" d="m448.00895,238.00733l0,4.00065c0,3.30052 -2.70046,6.00135 -6.00098,6.00135l-34.0063,0l0,34.0063c0,3.30052 -2.70083,6.00098 -6.00135,6.00098l-4.00065,0c-3.30052,0 -6.00135,-2.70046 -6.00135,-6.00098l0,-34.0063l-34.0063,0c-3.30052,0 -6.00098,-2.70083 -6.00098,-6.00135l0,-4.00065c0,-3.30052 2.70046,-6.00135 6.00098,-6.00135l34.0063,0l0,-34.0063c0,-3.30052 2.70083,-6.00098 6.00135,-6.00098l4.00065,0c3.30052,0 6.00135,2.70046 6.00135,6.00098l0,34.0063l34.0063,0c3.30052,0 6.00098,2.70083 6.00098,6.00135zm64.01233,-110.02096l0,176.03362c0,13.25249 -10.75218,24.0043 -24.00467,24.0043l-176.03336,0c-13.25253,0 -24.00456,-10.7518 -24.00456,-24.0043l0,-176.03362c0,-13.25249 10.75203,-24.00456 24.00456,-24.00456l24.00441,0l0,-26.00496c0,-3.30063 2.70083,-6.00113 6.00135,-6.00113l4.00065,0c3.30052,0 6.00135,2.7005 6.00135,6.00113l0,26.00496l96.01793,0l0,-26.00496c0,-3.30063 2.70083,-6.00113 6.00135,-6.00113l4.00065,0c3.30052,0 6.00135,2.7005 6.00135,6.00113l0,26.00496l24.0043,0c13.25249,0 24.00467,10.75206 24.00467,24.00456zm-208.03956,0l0,24.00467l192.03657,0l0,-24.00467c0,-4.40094 -3.60074,-8.00168 -8.00168,-8.00168l-176.03336,0c-4.40083,0 -8.00153,3.60074 -8.00153,8.00168zm192.03657,176.03362l0,-136.02596l-192.03657,0l0,136.02596c0,4.40057 3.6007,8.00131 8.00153,8.00131l176.03336,0c4.40094,0 8.00168,-3.60074 8.00168,-8.00131z"/>
  </g>
 </g>
</svg>