<svg width="800" height="400" xmlns="http://www.w3.org/2000/svg">
 <!-- Created with Method Draw - http://github.com/duopixel/Method-Draw/ -->

 <g>
  <title>background</title>
  <rect fill="#e5f2ff" id="canvas_background" height="402" width="802" y="-1" x="-1"/>
 </g>
 <g>
  <title>Layer 1</title>
  <g id="svg_5">
   <path id="svg_4" fill="#007FFF" d="m504.96991,168.94397l-25.95496,-25.95459c-4.50064,-4.50102 -10.60207,-7.05137 -16.9533,-7.05137l-14.0527,0l0,-23.95463c0,-13.25257 -10.7518,-24.00463 -24.0043,-24.00463l-33.40662,0c-3.30052,-9.30176 -12.15207,-16.00303 -22.60403,-16.00303c-10.45196,0 -19.30388,6.70126 -22.6044,16.00303l-33.40635,0c-13.25253,0 -24.00456,10.75206 -24.00456,24.00463l0,144.02727c0,13.25249 10.75203,24.00467 24.00456,24.00467l40.00777,0l0,24.00467c0,13.25249 10.7518,24.0043 24.0043,24.0043l112.02129,0c13.25249,0 24.00467,-10.7518 24.00467,-24.0043l0,-118.07268c0,-6.35123 -2.55035,-12.50232 -7.05137,-17.00334zm-11.3022,11.35224c1.00035,1.00035 1.75052,2.30054 2.1004,3.70081l-31.7558,0l0,-31.75617c1.40027,0.35025 2.70046,1.05039 3.70044,2.1004l25.95496,25.95496zm-125.6737,-93.31762c4.95097,0 9.00166,4.05076 9.00166,9.00169c0,4.95093 -4.05069,9.00173 -9.00166,9.00173c-4.95097,0 -9.00166,-4.0508 -9.00166,-9.00173c0,-4.95093 4.05069,-9.00169 9.00166,-9.00169zm-56.01076,177.03374c-4.40083,0 -8.00153,-3.60074 -8.00153,-8.00168l0,-144.02727c0,-4.40091 3.6007,-8.00157 8.00153,-8.00157l33.40635,0c3.30052,9.30176 12.20248,16.00288 22.6044,16.00288c10.40192,0 19.30351,-6.70111 22.60403,-16.00288l33.40662,0c4.40057,0 8.00131,3.60066 8.00131,8.00157l0,24.00467l-56.01065,0c-13.25249,0 -24.0043,10.7518 -24.0043,24.0043l0,104.01998l-40.00777,0zm176.03336,48.00896l-112.02129,0c-4.40057,0 -8.00131,-3.60074 -8.00131,-8.00131l0,-144.02764c0,-4.40057 3.60074,-8.00131 8.00131,-8.00131l72.01363,0l0,36.00663c0,6.60141 5.40129,12.00233 12.00233,12.00233l36.007,0l0,104.01998c0,4.40057 -3.60074,8.00131 -8.00168,8.00131z"/>
  </g>
 </g>
</svg>