<svg width="800" height="400" xmlns="http://www.w3.org/2000/svg">
 <!-- Created with Method Draw - http://github.com/duopixel/Method-Draw/ -->

 <g>
  <title>background</title>
  <rect fill="#e5f2ff" id="canvas_background" height="402" width="802" y="-1" x="-1"/>
 </g>
 <g>
  <title>Layer 1</title>
  <g id="svg_5">
   <path id="svg_4" fill="#007FFF" d="m319.98479,143.98936c0,3.05071 1.70033,5.80121 4.40083,7.15144l18.95363,9.45161l9.50165,18.95363c1.35023,2.70046 4.1011,4.40094 7.15144,4.40094c3.05071,0 5.80121,-1.70048 7.15144,-4.40094l9.45161,-18.95363l18.95363,-9.45161c2.70046,-1.35023 4.40094,-4.10073 4.40094,-7.15144c0,-3.05034 -1.70048,-5.80121 -4.40094,-7.15144l-18.95363,-9.45161l-9.45161,-18.95367c-1.35023,-2.7005 -4.10073,-4.40083 -7.15144,-4.40083c-3.05034,0 -5.80121,1.70033 -7.15144,4.40083l-9.50165,18.95367l-18.95363,9.45161c-2.7005,1.35023 -4.40083,4.1011 -4.40083,7.15144zm32.90614,-3.50067c1.55037,-0.80021 2.80053,-2.05036 3.60074,-3.60074l3.50067,-7.05137l3.50067,7.05137c0.80021,1.55037 2.05036,2.80053 3.60074,3.60074l7.00133,3.50067l-7.00133,3.50067c-1.55037,0.80021 -2.80053,2.05036 -3.60074,3.60074l-3.50067,7.05137l-3.50067,-7.05137c-0.80021,-1.55037 -2.05036,-2.80053 -3.60074,-3.60074l-7.00133,-3.50067l7.00133,-3.50067zm31.10607,59.51131c0,3.05071 1.70011,5.80121 4.40094,7.15144l24.30451,12.15244l12.15207,24.30451c1.3506,2.70046 4.1011,4.40094 7.15144,4.40094c3.05071,0 5.80121,-1.70048 7.15144,-4.40094l12.15244,-24.30451l24.30451,-12.15244c2.70046,-1.35023 4.40094,-4.10073 4.40094,-7.15144c0,-3.05034 -1.70048,-5.80121 -4.40094,-7.15144l-24.30451,-12.15207l-12.15244,-24.30489c-2.70046,-5.40092 -11.60205,-5.40092 -14.30288,0l-12.15207,24.30489l-24.30451,12.15207c-2.70083,1.35023 -4.40094,4.1011 -4.40094,7.15144zm38.25714,-6.20113c1.55037,-0.80021 2.80053,-2.05036 3.60074,-3.60074l6.15109,-12.35221l6.15109,12.35221c0.80021,1.55037 2.05074,2.80053 3.60074,3.60074l12.35259,6.20113l-12.35259,6.20113c-1.55,0.80021 -2.80053,2.05036 -3.60074,3.60074l-6.15109,12.30255l-6.15109,-12.35259c-0.80021,-1.55037 -2.05036,-2.80053 -3.60074,-3.60074l-12.35221,-6.15109l12.35221,-6.20113zm89.76714,74.2141l0,-184.03496c0,-6.65126 -5.35088,-12.0023 -12.00233,-12.0023l-172.03259,0c-22.10427,0 -40.00766,17.90339 -40.00766,40.00766l0,184.03492c0,17.70347 14.30273,32.00598 32.00609,32.00598l186.03551,0c3.30052,0 6.00098,-2.70046 6.00098,-6.00098l0,-4.00065c0,-3.30089 -2.70046,-6.00135 -6.00098,-6.00135l-1.65045,0c-2.00033,-10.10171 -1.60041,-24.85454 0.20014,-32.90625c4.35053,-1.80018 7.45128,-6.10105 7.45128,-11.10206zm-21.85423,44.00831l-170.18226,0c-8.8517,0 -16.00306,-7.15144 -16.00306,-16.00299c0,-8.85155 7.15136,-16.00299 16.00306,-16.00299l170.18226,0c-1.4503,9.40157 -1.55037,21.8042 0,32.00598zm5.85125,-48.00896l-176.0335,0c-5.85113,0 -11.25213,1.70011 -16.00306,4.45061l0,-156.47955c0,-13.25257 10.75206,-24.00463 24.00463,-24.00463l168.03194,0l0,176.03358z"/>
  </g>
 </g>
</svg>