<svg id="graphics" xmlns="http://www.w3.org/2000/svg" width="100" height="100" viewBox="0 0 100 100">
  <defs>
    <style>
      .cls-1 {
        fill: #205c99;
      }

      .cls-2 {
        fill: none;
      }

      .cls-3 {
        fill: #5295d0;
      }

      .cls-4 {
        fill: #2f73b8;
      }

      .cls-5 {
        fill: #252f3e;
      }

      .cls-6 {
        fill: #f90;
      }
    </style>
  </defs>
  <title>connectors</title>
  <g>
    <polygon class="cls-1" points="65.2 36.92 65.2 63.99 64.72 64.23 64.72 64.22 64.23 64.11 64.23 36.79 64.72 36.66 64.72 36.67 65.2 36.92"/>
    <path class="cls-2" d="M35.37,36.67l-2.82,1.41V62.82L34.89,64l.48.24h0l.49-.11V36.79Zm29.84.24-.48-.24h0l-.49.11V64.11l.49.11h0l.48-.24,2.34-1.16V38.08ZM53.8,31.21H46.29l-.49.24L40.71,34V67l5.09,2.55v.24h8.49v-.24L59.38,67V34l-5.09-2.55Z"/>
    <polygon class="cls-2" points="54.29 39.2 59.38 37.97 59.38 62.93 54.29 61.7 53.8 61.58 53.08 61.41 51.57 61.04 50.53 60.79 50.05 60.67 50.05 40.22 50.53 40.11 51.57 39.86 53.01 39.51 53.01 39.51 53.8 39.32 54.29 39.2"/>
    <polygon class="cls-2" points="64.72 36.67 64.72 64.22 64.72 64.22 64.23 64.11 64.23 36.79 64.72 36.66 64.72 36.67"/>
    <polygon class="cls-3" points="67.54 38.08 67.54 62.82 65.2 63.99 64.72 64.23 64.72 64.22 64.23 64.11 64.23 36.79 64.72 36.66 64.72 36.67 65.2 36.92 67.54 38.08"/>
    <path class="cls-2" d="M35.37,36.67l-2.82,1.41V62.82L34.89,64l.48.24h0l.49-.11V36.79Zm29.84.24-.48-.24h0l-.49.11V64.11l.49.11h0l.48-.24,2.34-1.16V38.08ZM53.8,31.21H46.29l-.49.24L40.71,34V67l5.09,2.55v.24h8.49v-.24L59.38,67V34l-5.09-2.55Z"/>
    <polygon class="cls-2" points="67.54 38.08 67.54 62.82 65.2 63.99 64.72 64.23 64.72 36.66 64.72 36.67 65.2 36.92 67.54 38.08"/>
    <polygon class="cls-3" points="35.37 36.66 35.86 36.79 35.86 64.11 35.37 64.22 35.37 64.23 34.89 63.99 34.89 36.91 35.37 36.66"/>
    <path class="cls-2" d="M35.37,36.67l-2.82,1.41V62.82L34.89,64l.48.24h0l.49-.11V36.79Zm29.84.24-.48-.24h0l-.49.11V64.11l.49.11h0l.48-.24,2.34-1.16V38.08ZM53.8,31.21H46.29l-.49.24L40.71,34V67l5.09,2.55v.24h8.49v-.24L59.38,67V34l-5.09-2.55Z"/>
    <polygon class="cls-2" points="35.37 36.66 35.86 36.79 35.86 64.11 35.37 64.22 35.37 36.66"/>
    <polygon class="cls-2" points="50.05 40.22 50.05 60.67 49.56 60.79 48.52 61.04 47.01 61.41 46.29 61.58 45.8 61.7 40.71 62.93 40.71 37.97 45.8 39.2 46.29 39.32 47.09 39.51 48.52 39.86 49.56 40.11 50.05 40.22"/>
    <polygon class="cls-1" points="35.86 36.79 35.86 64.11 35.37 64.22 35.37 64.23 34.89 63.99 32.55 62.82 32.55 38.08 35.37 36.66 35.86 36.79"/>
    <path class="cls-2" d="M35.37,36.67l-2.82,1.41V62.82L34.89,64l.48.24h0l.49-.11V36.79Zm29.84.24-.48-.24h0l-.49.11V64.11l.49.11h0l.48-.24,2.34-1.16V38.08ZM53.8,31.21H46.29l-.49.24L40.71,34V67l5.09,2.55v.24h8.49v-.24L59.38,67V34l-5.09-2.55Z"/>
    <polygon class="cls-2" points="35.37 36.66 35.37 64.23 34.89 63.99 32.55 62.82 32.55 38.08 35.37 36.66"/>
    <polygon class="cls-3" points="59.38 33.99 59.38 66.98 54.29 69.53 54.29 69.77 51.57 69.77 51.57 31.21 53.8 31.21 54.29 31.45 59.38 33.99"/>
    <path class="cls-2" d="M35.37,36.67l-2.82,1.41V62.82L34.89,64l.48.24h0l.49-.11V36.79Zm29.84.24-.48-.24h0l-.49.11V64.11l.49.11h0l.48-.24,2.34-1.16V38.08ZM53.8,31.21H46.29l-.49.24L40.71,34V67l5.09,2.55v.24h8.49v-.24L59.38,67V34l-5.09-2.55Z"/>
    <polygon class="cls-2" points="59.38 33.99 59.38 66.98 54.29 69.53 53.8 69.77 53.36 64.71 53.08 61.41 52.05 49.54 53.01 39.51 53.01 39.51 53.32 36.18 53.8 31.21 54.29 31.45 59.38 33.99"/>
    <polygon class="cls-1" points="48.52 31.21 48.52 69.77 45.8 69.77 45.8 69.53 40.71 66.98 40.71 33.99 45.8 31.45 46.29 31.21 48.52 31.21"/>
    <path class="cls-2" d="M35.37,36.67l-2.82,1.41V62.82L34.89,64l.48.24h0l.49-.11V36.79Zm29.84.24-.48-.24h0l-.49.11V64.11l.49.11h0l.48-.24,2.34-1.16V38.08ZM53.8,31.21H46.29l-.49.24L40.71,34V67l5.09,2.55v.24h8.49v-.24L59.38,67V34l-5.09-2.55Z"/>
    <polygon class="cls-2" points="48.04 49.48 47.01 61.41 46.73 64.71 46.29 69.77 45.8 69.53 40.71 66.98 40.71 33.99 45.8 31.45 46.29 31.21 46.77 36.18 47.09 39.51 48.04 49.48"/>
    <polygon class="cls-4" points="54.29 31.45 54.29 69.77 45.8 69.77 45.8 31.45 46.29 31.21 48.52 31.21 48.52 31.21 51.57 31.21 51.57 31.21 53.8 31.21 54.29 31.45"/>
    <path class="cls-2" d="M35.37,36.67l-2.82,1.41V62.82L34.89,64l.48.24h0l.49-.11V36.79Zm29.84.24-.48-.24h0l-.49.11V64.11l.49.11h0l.48-.24,2.34-1.16V38.08ZM53.8,31.21H46.29l-.49.24L40.71,34V67l5.09,2.55v.24h8.49v-.24L59.38,67V34l-5.09-2.55Z"/>
    <polygon class="cls-1" points="64.23 36.79 64.23 64.11 59.86 63.05 59.38 62.93 59.38 37.97 59.86 37.85 64.23 36.79"/>
    <polygon class="cls-3" points="40.71 37.97 40.71 62.93 40.23 63.05 35.86 64.11 35.86 36.79 40.23 37.85 40.71 37.97"/>
    <rect class="cls-2" x="46.29" y="31.21" width="7.51" height="38.55"/>
  </g>
  <g>
    <path class="cls-5" d="M54.4,22.25a3.25,3.25,0,0,1-.69-.08A2.21,2.21,0,0,1,53.2,22a.35.35,0,0,1-.14-.13.28.28,0,0,1,0-.13v-.22c0-.09,0-.14.11-.14l.08,0,.11,0a2.81,2.81,0,0,0,.49.16,2.38,2.38,0,0,0,.53.05,1.16,1.16,0,0,0,.65-.15.47.47,0,0,0,.23-.41.39.39,0,0,0-.12-.31,1.17,1.17,0,0,0-.44-.23l-.65-.2a1.42,1.42,0,0,1-.7-.45,1,1,0,0,1-.23-.64.91.91,0,0,1,.12-.49,1.14,1.14,0,0,1,.32-.37,1.37,1.37,0,0,1,.47-.23,2,2,0,0,1,.55-.08l.3,0,.29,0,.26.07a.58.58,0,0,1,.18.08.53.53,0,0,1,.14.11.28.28,0,0,1,0,.15v.21c0,.09,0,.14-.11.14a.48.48,0,0,1-.17-.05,1.93,1.93,0,0,0-.85-.17,1.08,1.08,0,0,0-.59.13.42.42,0,0,0-.21.39.41.41,0,0,0,.14.31,1.14,1.14,0,0,0,.49.25l.63.2a1.44,1.44,0,0,1,.69.43A1,1,0,0,1,56,21a1.12,1.12,0,0,1-.11.51,1.25,1.25,0,0,1-.33.39,1.74,1.74,0,0,1-.49.25A2.07,2.07,0,0,1,54.4,22.25Zm-5.72-.12a.22.22,0,0,1-.17-.05.4.4,0,0,1-.1-.17l-1-3.42a1,1,0,0,1,0-.17.1.1,0,0,1,.08-.12h.46a.26.26,0,0,1,.17.05.39.39,0,0,1,.09.17l.75,2.93.69-2.93a.22.22,0,0,1,.23-.22h.4a.31.31,0,0,1,.18.05.3.3,0,0,1,.08.17l.7,3,.77-3a.28.28,0,0,1,.09-.17.34.34,0,0,1,.17-.05h.41a.11.11,0,0,1,.11.09v0a.13.13,0,0,1,0,.06.2.2,0,0,1,0,.11L51.6,21.91a.32.32,0,0,1-.1.17.26.26,0,0,1-.17.05H51a.24.24,0,0,1-.18-.05.37.37,0,0,1-.08-.18L50,19.06l-.69,2.84a.25.25,0,0,1-.08.18.24.24,0,0,1-.18.05Zm-3.57-.48a1.42,1.42,0,0,0,.45-.08,1,1,0,0,0,.43-.28.8.8,0,0,0,.15-.29,1.67,1.67,0,0,0,0-.39v-.18l-.41-.08c-.14,0-.27,0-.42,0a1,1,0,0,0-.66.18.63.63,0,0,0-.22.51.63.63,0,0,0,.17.47.69.69,0,0,0,.47.17Zm1.8-.67a1.27,1.27,0,0,0,.06.39,1.36,1.36,0,0,0,.14.33.17.17,0,0,1,0,.1.2.2,0,0,1-.09.13l-.28.18a.2.2,0,0,1-.11,0,.16.16,0,0,1-.13-.06.83.83,0,0,1-.16-.21,1.52,1.52,0,0,1-.14-.26,1.64,1.64,0,0,1-1.3.62A1.19,1.19,0,0,1,44,21.9a1.11,1.11,0,0,1-.34-.84,1.13,1.13,0,0,1,.41-.91,1.62,1.62,0,0,1,1.09-.34,2.56,2.56,0,0,1,.47,0l.51.09v-.33A1,1,0,0,0,46,18.9a1,1,0,0,0-.72-.2,2.52,2.52,0,0,0-.48.06,4.42,4.42,0,0,0-.48.15l-.15.06-.08,0c-.06,0-.09,0-.09-.14v-.22a.23.23,0,0,1,0-.16.27.27,0,0,1,.12-.09,2.88,2.88,0,0,1,.56-.2,2.74,2.74,0,0,1,.7-.08,1.61,1.61,0,0,1,1.16.36,1.44,1.44,0,0,1,.37,1.09V21Z"/>
    <path class="cls-6" d="M55.24,24.44a9.66,9.66,0,0,1-5.42,1.64,9.82,9.82,0,0,1-6.62-2.5c-.13-.12,0-.29.15-.19A13.27,13.27,0,0,0,55,24.11C55.27,24,55.48,24.26,55.24,24.44Z"/>
    <path class="cls-6" d="M55.85,23.76c-.19-.24-1.24-.12-1.71-.06-.14,0-.17-.11,0-.21a2.68,2.68,0,0,1,2.37-.22,2.53,2.53,0,0,1-.83,2.21c-.12.1-.23,0-.17-.08C55.64,25,56,24,55.85,23.76Z"/>
  </g>
</svg>
