<svg id="graphics" xmlns="http://www.w3.org/2000/svg" width="100" height="100" viewBox="0 0 100 100">
  <defs>
    <style>
      .cls-1 {
        fill: #4386fa;
      }

      .cls-2 {
        opacity: 0.1;
        isolation: isolate;
      }

      .cls-3 {
        fill: #fff;
      }
    </style>
  </defs>
  <title>connectors</title>
  <g>
    <path class="cls-1" d="M58.41,38a2,2,0,0,0-1.69-1H43.64A1.9,1.9,0,0,0,42,38L35.44,49.32a1.83,1.83,0,0,0,0,1.94L42,62.54a2,2,0,0,0,1.68,1h13a1.89,1.89,0,0,0,1.69-1l6.52-11.28a1.88,1.88,0,0,0,0-1.94Zm0,24.58a2,2,0,0,1-1.69,1H55.8c-2.16-2.13-7.58-7.62-8.9-8.94-.07-.07-.18-.11-.25-.18a5.46,5.46,0,0,1,6.66-8.65,6.62,6.62,0,0,1,1,1,.39.39,0,0,0-.07-.18L62.69,55Z"/>
    <path class="cls-1" d="M50,54.26a4.1,4.1,0,1,0-4.11-4.1A4.09,4.09,0,0,0,50,54.26Zm1.5-3.66h1.1v1a2.71,2.71,0,0,1-1.1,1.1Zm-2.05-2.09h1.1v4.58a2.55,2.55,0,0,1-1.1,0Zm-2.09,1.43h1.1v2.82a3.13,3.13,0,0,1-1.1-1.1Z"/>
    <path class="cls-1" d="M54.34,46.83a5.45,5.45,0,0,1,0,6.63s0,0,.07.07l2,2h0a.33.33,0,0,1,0,.44l-.52.51h0a.33.33,0,0,1-.44,0l-2-2s0,0,0-.07a5.42,5.42,0,0,1-6.44.18c1.28,1.32,6.7,6.78,8.86,8.91h.92a1.9,1.9,0,0,0,1.68-1L62.76,55,54.3,46.61S54.3,46.72,54.34,46.83Z"/>
    <path class="cls-2" d="M54.34,46.83a5.45,5.45,0,0,1,0,6.63s0,0,.07.07l2,2h0a.33.33,0,0,1,0,.44l-.52.51h0a.33.33,0,0,1-.44,0l-2-2s0,0,0-.07a5.42,5.42,0,0,1-6.44.18c1.28,1.32,6.7,6.78,8.86,8.91h.92a1.9,1.9,0,0,0,1.68-1L62.76,55,54.3,46.61S54.3,46.72,54.34,46.83Z"/>
    <path class="cls-3" d="M53.35,54.45s0,0,0,.07l2,2a.33.33,0,0,0,.44,0h0l.51-.52a.33.33,0,0,0,0-.44h0l-2-2-.07-.07a5.46,5.46,0,0,0,0-6.63,6.62,6.62,0,0,0-1-1,5.46,5.46,0,1,0-6.67,8.64c.07.07.18.11.26.18A5.61,5.61,0,0,0,53.35,54.45Zm-7.44-4.29A4.11,4.11,0,1,1,50,54.26,4.1,4.1,0,0,1,45.91,50.16Z"/>
    <path class="cls-3" d="M48.48,52.73V49.91h-1.1v1.68A2.81,2.81,0,0,0,48.48,52.73Z"/>
    <path class="cls-3" d="M50.57,53.09V48.51h-1.1v4.58A2.55,2.55,0,0,0,50.57,53.09Z"/>
    <path class="cls-3" d="M52.62,51.63v-1h-1.1v2.12A3.3,3.3,0,0,0,52.62,51.63Z"/>
  </g>
</svg>
