<svg width="287" height="90" viewBox="0 0 287 90" fill="none" xmlns="http://www.w3.org/2000/svg">
<path d="M211.624 56.8421L105.966 90L75.1763 6.18421L186.097 0L211.624 56.8421Z" fill="#02797E"/>
<path d="M131.755 40C131.755 42.1053 131.229 43.9474 130.308 45.6579C129.387 47.2369 128.071 48.6842 126.361 49.7369C124.65 50.7895 122.545 51.579 120.176 52.1053C117.808 52.6316 115.176 52.8948 112.15 52.8948H110.045V63.6842H96.3605V27.7632H112.413C118.466 27.7632 123.203 28.8158 126.624 30.7895C130.045 32.7632 131.755 35.9211 131.755 40ZM118.597 40.1316C118.597 36.9737 116.229 35.3948 111.624 35.3948H109.913V45H111.492C113.729 45 115.571 44.6053 116.755 43.8158C117.939 43.1579 118.597 41.8421 118.597 40.1316Z" fill="white"/>
<path d="M165.703 63.6842C163.597 64.079 161.229 64.3421 158.466 64.3421C154.65 64.3421 151.229 63.9474 148.334 63.0263C145.308 62.1053 142.808 60.9211 140.703 59.3421C138.597 57.7632 137.018 55.7895 135.966 53.5526C134.913 51.1842 134.387 48.6842 134.387 45.9211C134.387 43.1579 134.913 40.6579 136.097 38.2895C137.282 36.0526 138.861 34.079 140.966 32.3684C143.071 30.7895 145.571 29.4737 148.466 28.5526C151.361 27.6316 154.518 27.2368 157.939 27.2368C160.571 27.2368 163.071 27.3684 165.308 27.7632C167.545 28.2895 167.545 28.2895 169.255 28.9474V38.5526C167.939 37.7632 166.361 37.1053 164.65 36.7105C162.939 36.1842 161.097 35.9211 159.255 35.9211C156.097 35.9211 153.597 36.8421 151.624 38.4211C149.65 40.1316 148.729 42.5 148.729 45.7895C148.729 47.3684 148.992 48.8158 149.65 50.1316C150.308 51.3158 151.097 52.3684 152.15 53.1579C153.203 53.9474 154.387 54.6053 155.834 55C157.282 55.3947 158.729 55.6579 160.308 55.6579C161.887 55.6579 163.597 55.5263 165.176 55.1316C166.755 54.7368 168.466 54.3421 170.176 53.5526V62.6316C168.071 63.1579 167.808 63.2895 165.703 63.6842Z" fill="white"/>
<path d="M189.65 27.7632H175.834V63.8158H189.65V27.7632Z" fill="white"/>
<path d="M191.097 16.4473C191.097 18.8158 190.308 20.7895 188.729 22.1052C187.15 23.421 185.176 24.2105 182.808 24.2105C180.439 24.2105 178.466 23.5526 176.887 22.1052C175.308 20.7895 174.518 18.8158 174.518 16.4473C174.518 13.9473 175.308 12.1052 176.887 10.6579C178.466 9.21051 180.439 8.55261 182.808 8.55261C185.176 8.55261 187.15 9.21051 188.729 10.6579C190.308 11.9737 191.097 13.9473 191.097 16.4473Z" fill="white"/>
</svg>
