<svg width="287" height="90" viewBox="0 0 287 90" fill="none" xmlns="http://www.w3.org/2000/svg">
<path d="M192.291 0.365662H94.5085V85.1108H192.291V0.365662Z" fill="white"/>
<path d="M94.5085 45V90H143.4H192.291V45V-3.1013e-06H143.4H94.5085V45ZM145.222 10.3827C147.556 10.4655 150.338 10.9209 152.822 11.6329C160.456 13.8188 166.997 18.563 171.7 25.3027C171.957 25.6753 172.172 26.023 172.172 26.0727C172.172 26.1389 171.799 26.1638 170.98 26.1638H169.787L169.406 25.6256C168.355 24.1684 166.302 21.8832 164.952 20.6826L164.372 20.1693L162.957 20.5253C160.423 21.1463 157.633 21.6513 154.851 21.9908C154.222 22.0736 153.708 22.1647 153.708 22.1895C153.708 22.2226 153.824 22.6201 153.965 23.0672C154.288 24.1352 154.785 25.9236 154.785 26.0561C154.785 26.1389 154.528 26.1638 153.75 26.1638H152.723L152.582 25.6835C152.516 25.4269 152.375 24.9466 152.292 24.632C152.027 23.7212 151.622 22.4876 151.555 22.4131C151.522 22.3717 150.976 22.3799 150.347 22.4296C149.726 22.4793 147.962 22.5621 146.439 22.6201C143.516 22.7194 139.401 22.6283 136.652 22.3965C135.948 22.3385 135.344 22.3137 135.311 22.3468C135.245 22.4131 134.648 24.276 134.367 25.3275L134.143 26.1638H133.125C132.189 26.1638 132.098 26.1472 132.098 26.0147C132.098 25.8326 132.57 24.0773 132.926 22.943C133.067 22.5124 133.15 22.1316 133.108 22.0984C133.075 22.0736 132.661 21.9991 132.181 21.9494C129.921 21.6927 126.642 21.0883 124.133 20.4756L122.585 20.0948L122.146 20.4673C120.813 21.6099 118.669 23.9614 117.567 25.4765L117.071 26.1638H115.854C115.175 26.1638 114.628 26.1389 114.628 26.1141C114.628 26.0064 115.953 24.1684 116.698 23.2245C119.877 19.2419 123.769 16.1122 128.372 13.8353C131.883 12.0966 135.311 11.0782 139.343 10.5566C140.361 10.4241 143.061 10.2833 143.69 10.3247C143.847 10.333 144.543 10.3661 145.222 10.3827ZM141.33 29.3183C142.622 29.4756 143.35 29.5087 146.819 29.5336L150.81 29.5667V34.0377V38.5005H147.25H143.698L143.673 37.5317L143.648 36.5547L143.152 36.356C141.727 35.793 139.815 35.4867 137.687 35.4784C135.592 35.4784 134.648 35.6605 133.746 36.2649C132.819 36.8694 132.686 38.103 133.456 38.8648C134.259 39.6762 135.245 39.9328 139.633 40.4793C143.425 40.9595 144.89 41.2659 146.728 41.9862C147.614 42.3339 148.732 42.988 149.428 43.5759C150.454 44.4287 151.299 45.8362 151.688 47.3266C151.978 48.4361 152.061 50.5722 151.854 51.7065C151.498 53.644 150.769 55.035 149.436 56.3017C147.995 57.6762 146.141 58.5787 143.582 59.15C140.759 59.7875 136.76 59.8868 132.752 59.4315C131.378 59.2824 130.583 59.2493 127.279 59.2245L123.405 59.1914V54.7617V50.3404H126.965H130.525V51.2511V52.1619L130.848 52.3275C131.9 52.8574 134.061 53.2465 136.337 53.2962C140.262 53.3956 142.026 52.7001 142.034 51.0442C142.034 50.3983 141.852 50.0506 141.305 49.6697C140.51 49.1067 139.393 48.85 135.824 48.3947C131.535 47.8399 129.838 47.4508 127.975 46.5731C125.003 45.1656 123.537 43.0212 123.239 39.6431C123.073 37.8546 123.363 36.1822 124.067 34.7249C125.648 31.4545 129.267 29.575 134.872 29.1113C135.998 29.0202 139.889 29.1444 141.33 29.3183ZM172.669 29.2686C176.361 29.8234 179.301 31.2143 181.578 33.483C184.351 36.2567 185.693 39.8169 185.684 44.379C185.684 46.5649 185.444 48.2042 184.873 49.9264C182.927 55.7718 177.885 59.2659 170.789 59.6881C167.072 59.9034 163.288 59.1665 160.58 57.6927C158.75 56.6992 156.805 54.9522 155.753 53.3625C154.478 51.425 153.692 49.2061 153.377 46.6145C153.253 45.5796 153.278 42.9632 153.418 41.8786C154.097 36.7452 156.846 32.8537 161.268 30.759C163.114 29.8896 165.109 29.368 167.577 29.1113C168.405 29.0285 171.758 29.1279 172.669 29.2686ZM121.252 33.3257V37.0101H118.851H116.45V44.4618V51.9135H118.851H121.252V55.598V59.2824L111.714 59.2659L102.167 59.241L102.142 55.5731L102.126 51.9135H104.527H106.928V44.4618V37.0101L104.552 36.9936L102.167 36.9687L102.142 33.3008L102.126 29.6412H111.689H121.252V33.3257ZM117.36 63.149C118.412 64.6394 120.714 67.1978 122.014 68.3238L122.486 68.7295L123.835 68.3983C126.427 67.7608 128.993 67.2889 131.643 66.966C132.463 66.8666 133.141 66.7755 133.158 66.7672C133.175 66.759 133.067 66.3864 132.926 65.931C132.587 64.8629 132.098 63.0911 132.098 62.9089C132.098 62.7764 132.198 62.7599 133.125 62.7599H134.143L134.367 63.563C134.491 64.0101 134.748 64.8712 134.93 65.4839L135.278 66.5851L135.741 66.5354C138.416 66.2622 145.387 66.1877 148.658 66.4029C149.684 66.4692 150.761 66.5271 151.05 66.5271H151.589L151.87 65.6578C152.027 65.1776 152.276 64.3413 152.425 63.7948L152.698 62.8013L153.741 62.7764C154.437 62.7599 154.785 62.7847 154.785 62.8427C154.785 62.9834 154.064 65.5667 153.841 66.2125L153.634 66.8086L153.899 66.85C154.048 66.8749 154.627 66.9577 155.199 67.0239C157.624 67.3303 160.638 67.9016 162.923 68.4811C164.107 68.7875 164.248 68.804 164.414 68.6964C164.811 68.4315 166.6 66.6513 167.461 65.6826C167.957 65.1113 168.686 64.2254 169.075 63.7038L169.796 62.7599H170.98C171.634 62.7599 172.172 62.793 172.172 62.8261C172.172 62.9338 171.079 64.5069 170.441 65.3266C164.728 72.6872 156.291 77.3901 146.96 78.425C145.42 78.5906 140.966 78.5658 139.509 78.3836C131.933 77.4066 125.549 74.4259 120.01 69.276C118.106 67.5041 115.721 64.6394 114.678 62.8592C114.628 62.7847 114.885 62.7599 115.854 62.7599H117.087L117.36 63.149Z" fill="#E30613"/>
<path d="M142.274 12.4444C140.361 13.0984 138.54 15.1684 136.867 18.5879C136.486 19.3579 136.155 20.0617 136.13 20.1362C136.089 20.2521 136.155 20.2852 136.511 20.3266C138.565 20.5502 143.946 20.6661 146.877 20.5419C150.396 20.3929 150.727 20.368 150.727 20.2107C150.727 20.0037 149.486 17.5115 148.956 16.667C147.879 14.9283 146.811 13.7194 145.718 12.9991C144.567 12.2539 143.4 12.0635 142.274 12.4444Z" fill="#E30613"/>
<path d="M137.646 12.7672C133.208 13.7028 129.581 15.2014 125.789 17.6853C124.862 18.2897 124.564 18.5464 124.796 18.5464C124.829 18.5464 125.359 18.6623 125.971 18.7948C127.975 19.2502 132.156 19.9374 133.613 20.0533L133.928 20.0782L134.276 19.2502C135.286 16.8905 136.859 14.3155 138.134 12.9742C138.416 12.6761 138.416 12.6679 138.225 12.6761C138.109 12.6844 137.853 12.7175 137.646 12.7672Z" fill="#E30613"/>
<path d="M148.782 13.0156C149.353 13.678 150.297 14.9779 150.777 15.7479C151.365 16.7001 152.251 18.4388 152.632 19.4075L152.922 20.1279L153.46 20.0782C156.068 19.8215 162.236 18.7369 162.236 18.5299C162.236 18.4885 161.706 18.1076 161.06 17.6854C157.533 15.3588 153.625 13.7029 149.742 12.8832C148.409 12.6017 148.418 12.6017 148.782 13.0156Z" fill="#E30613"/>
<path d="M168.371 36.1076C165.614 36.5299 164.008 38.4921 163.511 42.0358C163.321 43.4186 163.387 46.391 163.635 47.5501C164.422 51.1766 166.451 52.8739 169.804 52.7166C171.551 52.6338 172.503 52.253 173.538 51.2097C174.979 49.7773 175.558 47.7985 175.566 44.379C175.566 41.5722 175.161 39.7921 174.184 38.3183C173.505 37.2833 172.404 36.5216 171.178 36.2235C170.491 36.0662 169.059 36 168.371 36.1076Z" fill="#E30613"/>
<path d="M139.881 68.357C137.646 68.4812 136.114 68.5722 136.089 68.5971C136.023 68.6633 137.066 70.8077 137.612 71.7516C138.788 73.7719 139.947 75.1297 141.14 75.908C141.918 76.4131 142.39 76.5787 143.16 76.6449C143.913 76.7029 144.46 76.5787 145.304 76.1481C146.256 75.6596 147.631 74.2769 148.566 72.8611C149.187 71.9255 150.727 68.9862 150.727 68.7378C150.727 68.6054 150.554 68.5805 148.947 68.4729C147.589 68.3818 140.974 68.299 139.881 68.357Z" fill="#E30613"/>
<path d="M133.05 68.862C132.918 68.8786 132.123 68.9862 131.287 69.1021C129.3 69.3754 127.743 69.6403 125.996 70.0129C124.887 70.253 124.589 70.3441 124.655 70.4269C124.804 70.609 126.981 72.0083 128.074 72.6127C130.906 74.1941 133.986 75.3615 137.066 76.0073C137.704 76.1481 138.267 76.2557 138.316 76.2557C138.366 76.2557 138.209 76.0239 137.96 75.7341C136.619 74.2024 135.352 72.1159 134.325 69.7562L133.928 68.8455L133.613 68.8372C133.44 68.8289 133.191 68.8372 133.05 68.862Z" fill="#E30613"/>
<path d="M152.723 69.3257C152.417 70.104 151.39 72.1408 150.852 73.0267C150.272 73.9871 149.568 74.9641 148.956 75.6679C148.699 75.966 148.508 76.2144 148.525 76.2392C148.616 76.3303 151.431 75.6513 152.938 75.1711C155.646 74.31 159.057 72.621 161.524 70.9237L162.253 70.4186L161.814 70.3192C159.595 69.8059 156.937 69.3257 154.826 69.0525C154.097 68.9614 153.369 68.8703 153.211 68.8455C152.922 68.8123 152.922 68.8123 152.723 69.3257Z" fill="#E30613"/>
</svg>
