<svg width="287" height="90" viewBox="0 0 287 90" fill="none" xmlns="http://www.w3.org/2000/svg">
<path d="M143.4 90C168.253 90 188.4 69.8528 188.4 45C188.4 20.1472 168.253 0 143.4 0C118.547 0 98.4 20.1472 98.4 45C98.4 69.8528 118.547 90 143.4 90Z" fill="#034EA2"/>
<path d="M143.4 9L144.68 12.9407H148.824L145.472 15.3761L146.752 19.3168L143.4 16.8813L140.048 19.3168L141.328 15.3761L137.976 12.9407H142.12L143.4 9Z" fill="#FFF600"/>
<path d="M143.4 69.5941L144.68 73.5347H148.824L145.472 75.9702L146.752 79.9109L143.4 77.4754L140.048 79.9109L141.328 75.9702L137.976 73.5347H142.12L143.4 69.5941Z" fill="#FFF600"/>
<path d="M128.43 65.6733L129.71 69.6139H133.854L130.501 72.0494L131.782 75.99L128.43 73.5546L125.078 75.99L126.358 72.0494L123.006 69.6139H127.149L128.43 65.6733Z" fill="#FFF600"/>
<path d="M116.667 54.2673L117.948 58.208H122.091L118.739 60.6434L120.019 64.5841L116.667 62.1486L113.315 64.5841L114.596 60.6434L111.243 58.208H115.387L116.667 54.2673Z" fill="#FFF600"/>
<path d="M173.697 39.2971L174.977 43.2377H179.121L175.769 45.6732L177.049 49.6138L173.697 47.1784L170.345 49.6138L171.625 45.6732L168.273 43.2377H172.417L173.697 39.2971Z" fill="#FFF600"/>
<path d="M169.776 54.2673L171.057 58.208H175.2L171.848 60.6434L173.128 64.5841L169.776 62.1486L166.424 64.5841L167.705 60.6434L164.352 58.208H168.496L169.776 54.2673Z" fill="#FFF600"/>
<path d="M158.37 65.6733L159.651 69.6139H163.794L160.442 72.0494L161.722 75.99L158.37 73.5546L155.018 75.99L156.299 72.0494L152.946 69.6139H157.09L158.37 65.6733Z" fill="#FFF600"/>
<path d="M169.42 23.9703L170.7 27.9109H174.844L171.491 30.3464L172.772 34.287L169.42 31.8516L166.068 34.287L167.348 30.3464L163.996 27.9109H168.139L169.42 23.9703Z" fill="#FFF600"/>
<path d="M158.37 12.9208L159.651 16.8614H163.794L160.442 19.2969L161.722 23.2375L158.37 20.8021L155.018 23.2375L156.299 19.2969L152.946 16.8614H157.09L158.37 12.9208Z" fill="#FFF600"/>
<path d="M113.103 39.2971L114.383 43.2377H118.527L115.175 45.6732L116.455 49.6138L113.103 47.1784L109.751 49.6138L111.031 45.6732L107.679 43.2377H111.823L113.103 39.2971Z" fill="#FFF600"/>
<path d="M117.024 23.9703L118.304 27.9109H122.448L119.095 30.3464L120.376 34.287L117.024 31.8516L113.672 34.287L114.952 30.3464L111.6 27.9109H115.743L117.024 23.9703Z" fill="#FFF600"/>
<path d="M128.073 12.9208L129.354 16.8614H133.497L130.145 19.2969L131.425 23.2375L128.073 20.8021L124.721 23.2375L126.002 19.2969L122.649 16.8614H126.793L128.073 12.9208Z" fill="#FFF600"/>
</svg>
