<svg width="287" height="90" viewBox="0 0 287 90" fill="none" xmlns="http://www.w3.org/2000/svg">
<circle cx="143.4" cy="45" r="45" fill="white"/>
<path d="M143.4 3.41476C166.321 3.41476 184.985 22.079 184.985 45C184.985 67.921 166.337 86.5852 143.4 86.5852C120.463 86.5852 101.815 67.921 101.815 45C101.815 22.079 120.479 3.41476 143.4 3.41476ZM143.4 0C118.546 0 98.4 20.1455 98.4 45C98.4 69.8545 118.546 90 143.4 90C168.255 90 188.4 69.8545 188.4 45C188.4 20.1455 168.255 0 143.4 0Z" fill="url(#paint0_linear)"/>
<path d="M143.4 22.1414C155.999 22.1414 166.259 32.4013 166.259 45C166.259 57.5988 155.999 67.8586 143.4 67.8586C130.801 67.8586 120.541 57.6144 120.541 45C120.541 32.4013 130.801 22.1414 143.4 22.1414ZM143.4 10.4314C124.299 10.4314 108.831 25.9148 108.831 45C108.831 64.1008 124.315 79.5686 143.4 79.5686C162.501 79.5686 177.969 64.0852 177.969 45C177.969 25.8992 162.501 10.4314 143.4 10.4314Z" fill="url(#paint1_linear)"/>
<path d="M120.573 56.71C120.292 56.1175 119.871 55.7588 119.325 55.6029C118.764 55.447 118.156 55.5405 117.47 55.868C116.768 56.211 116.316 56.632 116.082 57.131C115.864 57.6455 115.895 58.2068 116.176 58.7994C116.347 59.1736 116.628 59.5634 116.986 59.9844L116.441 60.2495C116.129 59.9532 115.832 59.5166 115.567 58.9865C115.193 58.2068 115.131 57.474 115.411 56.8191C115.677 56.1642 116.253 55.6185 117.142 55.1975C117.688 54.9324 118.218 54.8077 118.733 54.8077C119.247 54.8233 119.699 54.9636 120.12 55.2443C120.526 55.5249 120.869 55.9303 121.118 56.4605C121.383 57.0218 121.524 57.5676 121.508 58.0821L120.853 58.0665C120.869 57.5676 120.76 57.1154 120.573 56.71Z" fill="white"/>
<path d="M124.72 66.1123C124.019 66.7516 123.317 67.0946 122.6 67.1102C121.882 67.1258 121.228 66.8295 120.635 66.2058C120.042 65.5665 119.777 64.896 119.84 64.1788C119.902 63.4615 120.292 62.7755 121.009 62.1206C121.711 61.4657 122.428 61.1227 123.13 61.1071C123.847 61.0915 124.502 61.4033 125.094 62.0426C125.671 62.6663 125.936 63.3368 125.858 64.0541C125.796 64.7713 125.422 65.4574 124.72 66.1123ZM121.493 62.6663C120.9 63.2121 120.573 63.7578 120.51 64.2879C120.448 64.8181 120.635 65.3326 121.072 65.8004C121.524 66.2838 122.007 66.5021 122.537 66.4709C123.067 66.4397 123.629 66.1434 124.221 65.5977C124.798 65.052 125.126 64.5218 125.204 63.9917C125.282 63.4615 125.094 62.9626 124.642 62.4948C124.19 62.0114 123.707 61.7931 123.161 61.8243C122.631 61.8399 122.07 62.1206 121.493 62.6663Z" fill="white"/>
<path d="M128.868 72.4116L129.491 66.8295L129.46 66.8139C129.304 67.2037 129.086 67.6403 128.821 68.1549L127.106 71.5073L126.544 71.211L129.273 65.9563L130.193 66.4397L129.616 71.6476L129.647 71.6632L133.577 68.1861L134.497 68.6538L131.768 73.9085L131.16 73.5967L132.922 70.2131C133.125 69.8233 133.358 69.4179 133.623 68.9657L133.592 68.9501L129.382 72.6767L128.868 72.4116Z" fill="white"/>
<path d="M141.201 71.8191C141.108 72.4116 140.827 72.8326 140.375 73.0977C139.923 73.3472 139.315 73.4251 138.566 73.3004L137.88 73.1913L137.522 75.4989L136.836 75.3898L137.771 69.5426L139.284 69.7765C140.734 69.9948 141.389 70.6809 141.201 71.8191ZM137.974 72.5987L138.582 72.6923C139.19 72.7858 139.642 72.7547 139.938 72.6143C140.235 72.4584 140.422 72.1777 140.5 71.7411C140.562 71.3513 140.484 71.0395 140.25 70.8212C140.032 70.5873 139.642 70.4314 139.112 70.3534L138.348 70.2287L137.974 72.5987Z" fill="white"/>
<path d="M145.209 75.9979L144.616 70.1039L145.302 70.0416L145.832 75.3118L148.436 75.0468L148.499 75.6705L145.209 75.9979Z" fill="white"/>
<path d="M152.615 74.6258L150.791 68.9813L151.446 68.763L153.27 74.4075L152.615 74.6258Z" fill="white"/>
<path d="M161.02 70.6185L159.414 69.3867L157.371 70.6029L157.714 72.5987L157.122 72.9574L156.061 66.658L156.56 66.3617L161.628 70.2599L161.02 70.6185ZM158.915 68.9657L157.371 67.7495C157.168 67.5935 156.95 67.4064 156.701 67.1569C156.778 67.4064 156.856 67.7027 156.919 68.0145L157.262 69.948L158.915 68.9657Z" fill="white"/>
<path d="M168.067 63.9917L167.537 64.5842L161.675 63.6642L161.659 63.6954C162.127 64.0541 162.532 64.3971 162.891 64.7245L165.401 66.9699L164.98 67.4376L160.567 63.4771L161.082 62.9002L166.929 63.8046L166.945 63.789C166.882 63.7422 166.711 63.6019 166.399 63.3524C166.087 63.1029 165.884 62.9158 165.76 62.8067L163.234 60.5302L163.67 60.0468L168.067 63.9917Z" fill="white"/>
<path d="M171.607 57.9886L171.311 58.6123L166.508 56.3202L165.697 58.0198L165.152 57.7547L167.054 53.7474L167.6 54.0125L166.789 55.7121L171.607 57.9886Z" fill="white"/>
<path d="M125.593 27.8482L124.362 29.6413L121.68 27.7858L120.245 29.8596L122.927 31.7152L121.68 33.5083L115.084 28.9397L116.331 27.1465L118.779 28.8461L120.214 26.7723L117.766 25.0727L119.013 23.2796L125.593 27.8482Z" fill="white"/>
<path d="M130.754 23.8566L126.856 16.8555L128.759 15.7952L132.657 22.7963L130.754 23.8566Z" fill="white"/>
<path d="M144.211 14.6881C144.273 15.5769 144.07 16.2942 143.587 16.8243C143.104 17.3545 142.371 17.6507 141.404 17.7287L140.796 17.7755L140.999 20.4262L138.831 20.5977L138.208 12.5987L140.968 12.3804C141.981 12.3025 142.761 12.4584 143.291 12.8638C143.837 13.2692 144.148 13.8773 144.211 14.6881ZM140.64 16.0135L141.03 15.9823C141.357 15.9511 141.607 15.842 141.778 15.6549C141.95 15.4522 142.028 15.2027 142.012 14.8752C141.965 14.3295 141.654 14.0956 141.046 14.1424L140.484 14.1892L140.64 16.0135Z" fill="white"/>
<path d="M154.642 23.0302L154.892 21.5021L152.506 20.4574L151.524 21.6736L149.341 20.7069L154.985 14.3919L157.62 15.5613L156.794 23.9969L154.642 23.0302ZM155.204 19.6934L155.422 18.3524C155.469 18.0561 155.531 17.6663 155.609 17.1986C155.687 16.7308 155.749 16.3877 155.796 16.2006C155.687 16.3566 155.515 16.606 155.25 16.9647C154.985 17.3233 154.455 17.9938 153.644 19.0229L155.204 19.6934Z" fill="white"/>
<path d="M164.138 32.0894L165.152 30.9044L163.67 28.7682L162.205 29.2827L160.848 27.3337L168.956 24.9012L170.593 27.2713L165.479 34.0229L164.138 32.0894ZM166.352 29.5322L167.241 28.5031C167.428 28.2692 167.693 27.973 168.005 27.6143C168.317 27.2557 168.551 27.0062 168.691 26.8659C168.52 26.9439 168.223 27.0686 167.818 27.2245C167.412 27.3805 166.602 27.6923 165.37 28.1289L166.352 29.5322Z" fill="white"/>
<path d="M140.5 49.3815C139.97 49.3815 139.502 49.0385 139.346 48.5239C139.143 47.8846 139.502 47.1985 140.141 46.9958L145.817 45.2183C145.942 45.1871 146.051 45.1559 146.176 45.1559C146.706 45.1559 147.173 45.4989 147.345 46.0135C147.439 46.3254 147.407 46.6528 147.267 46.9491C147.111 47.2297 146.862 47.448 146.55 47.5416L140.874 49.3191C140.749 49.3659 140.625 49.3815 140.5 49.3815Z" fill="url(#paint2_linear)"/>
<path d="M140.905 53.1393C140.422 53.1393 140.001 52.8274 139.861 52.3752C139.783 52.0946 139.798 51.7983 139.939 51.5488C140.079 51.2838 140.297 51.0967 140.578 51.0187L145.443 49.5062C145.552 49.475 145.661 49.4594 145.77 49.4594C146.254 49.4594 146.675 49.7713 146.815 50.2235C146.986 50.8004 146.675 51.4085 146.098 51.5956L141.233 53.1081C141.124 53.1237 141.014 53.1393 140.905 53.1393Z" fill="url(#paint3_linear)"/>
<path d="M141.326 56.8815C140.905 56.8815 140.531 56.6009 140.406 56.211C140.25 55.6965 140.531 55.1663 141.046 54.9948L145.1 53.7318C145.193 53.7006 145.287 53.6851 145.38 53.6851C145.801 53.6851 146.176 53.9501 146.3 54.3555C146.378 54.605 146.347 54.8545 146.238 55.0884C146.113 55.3223 145.91 55.4782 145.677 55.5562L141.622 56.8192C141.513 56.8815 141.42 56.8815 141.326 56.8815Z" fill="url(#paint4_linear)"/>
<path d="M141.732 60.6393C141.357 60.6393 141.046 60.4054 140.937 60.0468C140.796 59.6102 141.046 59.1268 141.482 59.0021L144.71 57.9885C144.788 57.9574 144.881 57.9574 144.959 57.9574C145.334 57.9574 145.645 58.1913 145.755 58.5499C145.817 58.7682 145.801 58.9865 145.692 59.1892C145.583 59.3919 145.412 59.5322 145.209 59.5946L141.966 60.6081C141.903 60.6237 141.81 60.6393 141.732 60.6393Z" fill="url(#paint5_linear)"/>
<path d="M145.599 36.2994C145.599 35.0832 144.616 34.1008 143.4 34.1008C142.184 34.1008 141.202 35.0832 141.202 36.2994C141.202 37.079 141.607 37.7651 142.231 38.1549H142.168L142.48 45.92L144.304 45.343L144.632 38.1549H144.585C145.193 37.7651 145.599 37.079 145.599 36.2994Z" fill="url(#paint6_linear)"/>
<path d="M142.808 54.106L143.93 53.7474L143.977 52.5779L142.761 52.9522L142.808 54.106Z" fill="url(#paint7_linear)"/>
<path d="M142.963 58.1913L143.727 57.9574L143.805 56.5073L142.917 56.7879L142.963 58.1913Z" fill="url(#paint8_linear)"/>
<path d="M143.119 62.0894H143.54L143.618 60.4366L143.057 60.6237L143.119 62.0894Z" fill="url(#paint9_linear)"/>
<path d="M142.636 50.0052L144.117 49.553L144.164 48.6487L142.605 49.132L142.636 50.0052Z" fill="url(#paint10_linear)"/>
<path d="M141.373 40.0104C141.373 40.0104 139.798 39.4803 139.814 37.0946C139.829 34.7089 125.375 36.0343 125.375 36.0343C125.375 36.0343 124.923 37.6403 126.934 37.8275C126.934 37.8275 127.106 39.5894 128.494 39.7453C128.494 39.7453 128.431 41.9751 131.83 41.7412C131.83 41.7412 130.458 44.2204 141.638 43.6591L141.373 40.0104Z" fill="url(#paint11_linear)"/>
<path d="M145.427 40.0104C145.427 40.0104 147.002 39.4803 146.986 37.0946C146.971 34.7089 161.425 36.0343 161.425 36.0343C161.425 36.0343 161.862 37.6403 159.866 37.8275C159.866 37.8275 159.694 39.5894 158.307 39.7453C158.307 39.7453 158.369 41.9751 154.97 41.7412C154.97 41.7412 156.342 44.2204 145.162 43.6591L145.427 40.0104Z" fill="url(#paint12_linear)"/>
<path d="M116.721 45C116.721 46.0915 115.848 46.9647 114.757 46.9647C113.681 46.9647 112.792 46.0915 112.792 45C112.792 43.9241 113.665 43.0354 114.757 43.0354C115.848 43.0354 116.721 43.9241 116.721 45Z" fill="white"/>
<path d="M173.993 45C173.993 46.0915 173.119 46.9647 172.028 46.9647C170.952 46.9647 170.063 46.0915 170.063 45C170.063 43.9241 170.936 43.0354 172.028 43.0354C173.119 43.0354 173.993 43.9241 173.993 45Z" fill="white"/>
<defs>
<linearGradient id="paint0_linear" x1="175.216" y1="76.8164" x2="111.583" y2="13.1834" gradientUnits="userSpaceOnUse">
<stop stop-color="#31498D"/>
<stop offset="0.1141" stop-color="#355292"/>
<stop offset="0.3392" stop-color="#416AA1"/>
<stop offset="0.6536" stop-color="#5693BE"/>
<stop offset="0.9725" stop-color="#71CCE4"/>
</linearGradient>
<linearGradient id="paint1_linear" x1="118.953" y1="20.5532" x2="167.846" y2="69.4461" gradientUnits="userSpaceOnUse">
<stop stop-color="#31498D"/>
<stop offset="0.1141" stop-color="#355292"/>
<stop offset="0.3392" stop-color="#416AA1"/>
<stop offset="0.6536" stop-color="#5693BE"/>
<stop offset="0.9725" stop-color="#71CCE4"/>
</linearGradient>
<linearGradient id="paint2_linear" x1="139.287" y1="47.2742" x2="147.403" y2="47.2742" gradientUnits="userSpaceOnUse">
<stop stop-color="#314B8D"/>
<stop offset="0.1162" stop-color="#355493"/>
<stop offset="0.3454" stop-color="#426BA2"/>
<stop offset="0.6621" stop-color="#5795BF"/>
<stop offset="0.9725" stop-color="#72CBE3"/>
</linearGradient>
<linearGradient id="paint3_linear" x1="139.82" y1="51.283" x2="146.868" y2="51.283" gradientUnits="userSpaceOnUse">
<stop stop-color="#314B8D"/>
<stop offset="0.1162" stop-color="#355493"/>
<stop offset="0.3454" stop-color="#426BA2"/>
<stop offset="0.6621" stop-color="#5795BF"/>
<stop offset="0.9725" stop-color="#72CBE3"/>
</linearGradient>
<linearGradient id="paint4_linear" x1="140.356" y1="55.2926" x2="146.334" y2="55.2926" gradientUnits="userSpaceOnUse">
<stop stop-color="#314B8D"/>
<stop offset="0.1162" stop-color="#355493"/>
<stop offset="0.3454" stop-color="#426BA2"/>
<stop offset="0.6621" stop-color="#5795BF"/>
<stop offset="0.9725" stop-color="#72CBE3"/>
</linearGradient>
<linearGradient id="paint5_linear" x1="140.89" y1="59.3006" x2="145.8" y2="59.3006" gradientUnits="userSpaceOnUse">
<stop stop-color="#314B8D"/>
<stop offset="0.1162" stop-color="#355493"/>
<stop offset="0.3454" stop-color="#426BA2"/>
<stop offset="0.6621" stop-color="#5795BF"/>
<stop offset="0.9725" stop-color="#72CBE3"/>
</linearGradient>
<linearGradient id="paint6_linear" x1="141.201" y1="40.0116" x2="145.597" y2="40.0116" gradientUnits="userSpaceOnUse">
<stop stop-color="#314B8D"/>
<stop offset="0.1162" stop-color="#355493"/>
<stop offset="0.3454" stop-color="#426BA2"/>
<stop offset="0.6621" stop-color="#5795BF"/>
<stop offset="0.9725" stop-color="#72CBE3"/>
</linearGradient>
<linearGradient id="paint7_linear" x1="142.758" y1="53.3399" x2="143.978" y2="53.3399" gradientUnits="userSpaceOnUse">
<stop stop-color="#314B8D"/>
<stop offset="0.1162" stop-color="#355493"/>
<stop offset="0.3454" stop-color="#426BA2"/>
<stop offset="0.6621" stop-color="#5795BF"/>
<stop offset="0.9725" stop-color="#72CBE3"/>
</linearGradient>
<linearGradient id="paint8_linear" x1="142.911" y1="57.3516" x2="143.801" y2="57.3516" gradientUnits="userSpaceOnUse">
<stop stop-color="#314B8D"/>
<stop offset="0.1162" stop-color="#355493"/>
<stop offset="0.3454" stop-color="#426BA2"/>
<stop offset="0.6621" stop-color="#5795BF"/>
<stop offset="0.9725" stop-color="#72CBE3"/>
</linearGradient>
<linearGradient id="paint9_linear" x1="143.063" y1="61.2651" x2="143.622" y2="61.2651" gradientUnits="userSpaceOnUse">
<stop stop-color="#314B8D"/>
<stop offset="0.1162" stop-color="#355493"/>
<stop offset="0.3454" stop-color="#426BA2"/>
<stop offset="0.6621" stop-color="#5795BF"/>
<stop offset="0.9725" stop-color="#72CBE3"/>
</linearGradient>
<linearGradient id="paint10_linear" x1="142.604" y1="49.3272" x2="144.157" y2="49.3272" gradientUnits="userSpaceOnUse">
<stop stop-color="#314B8D"/>
<stop offset="0.1162" stop-color="#355493"/>
<stop offset="0.3454" stop-color="#426BA2"/>
<stop offset="0.6621" stop-color="#5795BF"/>
<stop offset="0.9725" stop-color="#72CBE3"/>
</linearGradient>
<linearGradient id="paint11_linear" x1="125.326" y1="39.7168" x2="141.621" y2="39.7168" gradientUnits="userSpaceOnUse">
<stop stop-color="#314B8D"/>
<stop offset="0.1162" stop-color="#355493"/>
<stop offset="0.3454" stop-color="#426BA2"/>
<stop offset="0.6621" stop-color="#5795BF"/>
<stop offset="0.9725" stop-color="#72CBE3"/>
</linearGradient>
<linearGradient id="paint12_linear" x1="145.176" y1="39.7168" x2="161.474" y2="39.7168" gradientUnits="userSpaceOnUse">
<stop stop-color="#314B8D"/>
<stop offset="0.1162" stop-color="#355493"/>
<stop offset="0.3454" stop-color="#426BA2"/>
<stop offset="0.6621" stop-color="#5795BF"/>
<stop offset="0.9725" stop-color="#72CBE3"/>
</linearGradient>
</defs>
</svg>
