<svg id="Layer_1" data-name="Layer 1" xmlns="http://www.w3.org/2000/svg" viewBox="0 0 400 400">
  <defs>
    <style>
      .cls-1 {
        fill: #00a1e0;
      }

      .cls-2, .cls-3 {
        fill: #fff;
      }

      .cls-3 {
        fill-rule: evenodd;
      }
    </style>
  </defs>
  <title>d</title>
  <g>
    <path class="cls-1" d="M166.5,90.5a70.1,70.1,0,0,1,50.7-21.8c26.4,0,49.4,14.7,61.7,36.6a85.3,85.3,0,0,1,34.9-7.4c47.6,0,86.2,38.9,86.2,87s-38.6,87-86.2,87a85.6,85.6,0,0,1-17-1.7,63,63,0,0,1-82.6,25.9,71.9,71.9,0,0,1-133.7-3.3,66,66,0,0,1-13.7,1.4C29.9,294.3,0,264.1,0,226.9a67.6,67.6,0,0,1,33.4-58.4A77.7,77.7,0,0,1,166.5,90.5"/>
    <path class="cls-2" d="M57.9,205.2c-.3.7.1.8.2.9l2.3,1.4a24.4,24.4,0,0,0,12,2.8c8.2,0,13.3-4.4,13.3-11.4h0c0-6.5-5.7-8.9-11.1-10.6l-.7-.2c-4.1-1.3-7.6-2.5-7.6-5.1h0c0-2.3,2.1-4,5.2-4a23.7,23.7,0,0,1,10.4,2.7s.8.5,1.1-.3l1.7-4.5a.8.8,0,0,0-.4-.9,23.3,23.3,0,0,0-11.8-3.2h-.8c-7.5,0-12.8,4.5-12.8,11h0c0,6.9,5.8,9.1,11.2,10.6l.9.3c3.9,1.2,7.4,2.3,7.4,5h0c0,2.5-2.2,4.4-5.8,4.4a19.4,19.4,0,0,1-10.6-3l-1.4-.8a.7.7,0,0,0-1.1.4Z"/>
    <path class="cls-2" d="M178.1,205.2c-.3.7.1.8.2.9l2.3,1.4a24.4,24.4,0,0,0,12,2.8c8.2,0,13.3-4.4,13.3-11.4h0c0-6.5-5.7-8.9-11.1-10.6l-.7-.2c-4.1-1.3-7.6-2.5-7.6-5.1h0c0-2.3,2.1-4,5.2-4a23.7,23.7,0,0,1,10.4,2.7s.8.5,1.1-.3l1.7-4.5a.8.8,0,0,0-.4-.9,23.3,23.3,0,0,0-11.8-3.2h-.8c-7.5,0-12.8,4.5-12.8,11h0c0,6.9,5.8,9.1,11.2,10.6l.9.3c3.9,1.2,7.4,2.3,7.4,5h0c0,2.5-2.2,4.4-5.8,4.4a19.4,19.4,0,0,1-10.6-3l-1.4-.8a.7.7,0,0,0-1.1.4Z"/>
    <path class="cls-2" d="M266.9,184.1a16.5,16.5,0,0,0-3.1-5.9,15.1,15.1,0,0,0-5.3-4,19.1,19.1,0,0,0-14.7,0,15.1,15.1,0,0,0-5.3,4,16.8,16.8,0,0,0-3.1,5.9,27.5,27.5,0,0,0,0,14.7,16.6,16.6,0,0,0,3.1,5.9,14.7,14.7,0,0,0,5.3,4,19.5,19.5,0,0,0,14.7,0,14.7,14.7,0,0,0,5.3-4,16.5,16.5,0,0,0,3.1-5.9,27.4,27.4,0,0,0,0-14.7m-6.8,7.4c0,4-.7,7.1-2.2,9.3s-3.6,3.3-6.7,3.3-5.2-1.1-6.6-3.3-2.2-5.3-2.2-9.3.7-7.1,2.2-9.3,3.6-3.2,6.6-3.2,5.2,1.1,6.7,3.2,2.2,5.3,2.2,9.3"/>
    <path class="cls-3" d="M323.2,202.9a.6.6,0,0,0-.9-.4,15.7,15.7,0,0,1-3.2.9l-3.8.3a10.4,10.4,0,0,1-7.8-2.9c-1.9-1.9-3-5.1-2.9-9.4a14.5,14.5,0,0,1,2.6-9c1.7-2.2,4.2-3.3,7.6-3.3a22.8,22.8,0,0,1,7.2,1s.5.2.8-.5l1.7-4.7a.6.6,0,0,0-.4-.8,26.7,26.7,0,0,0-4.6-1.2,34.3,34.3,0,0,0-5.1-.3,18.6,18.6,0,0,0-7.6,1.5,15.8,15.8,0,0,0-5.5,4,17,17,0,0,0-3.3,5.9,23.7,23.7,0,0,0-1.1,7.4c0,5.7,1.5,10.3,4.6,13.6s7.6,5.1,13.5,5.1a27.9,27.9,0,0,0,9.7-1.7.6.6,0,0,0,.3-.8Z"/>
    <path class="cls-3" d="M358.2,182.8a14.4,14.4,0,0,0-3-5.4,13.6,13.6,0,0,0-4.4-3.4,17,17,0,0,0-6.6-1.3,18.1,18.1,0,0,0-7.7,1.5,15.2,15.2,0,0,0-5.3,4.1,16.7,16.7,0,0,0-3.1,6,26,26,0,0,0-1,7.4,24.8,24.8,0,0,0,1.1,7.4,14.9,14.9,0,0,0,9.2,9.8,23.3,23.3,0,0,0,8.4,1.4c6.7,0,10.2-1.5,11.7-2.3s.5-.4.2-1.1l-1.5-4.2a.7.7,0,0,0-.9-.4,22.4,22.4,0,0,1-9.5,1.7c-3.6,0-6.3-1.1-7.9-2.7s-2.6-4.2-2.7-7.7h23.2a.7.7,0,0,0,.7-.6A24.9,24.9,0,0,0,358.2,182.8Zm-23.1,4.8a13.5,13.5,0,0,1,1.9-5.5,7.4,7.4,0,0,1,6.6-3.4,7.2,7.2,0,0,1,6.5,3.4,11.5,11.5,0,0,1,1.5,5.5Z"/>
    <path class="cls-3" d="M172.5,182.8a14.4,14.4,0,0,0-3-5.4,13.6,13.6,0,0,0-4.4-3.4,17,17,0,0,0-6.6-1.3,18.1,18.1,0,0,0-7.7,1.5,15.2,15.2,0,0,0-5.3,4.1,16.7,16.7,0,0,0-3.1,6,26.2,26.2,0,0,0-1,7.4,24.8,24.8,0,0,0,1.1,7.4,14.9,14.9,0,0,0,9.2,9.8,23.3,23.3,0,0,0,8.4,1.4c6.7,0,10.2-1.5,11.7-2.3s.5-.4.2-1.1l-1.5-4.2a.7.7,0,0,0-.9-.4,22.4,22.4,0,0,1-9.5,1.7c-3.6,0-6.3-1.1-7.9-2.7s-2.6-4.2-2.7-7.7h23.2a.7.7,0,0,0,.7-.6A24.8,24.8,0,0,0,172.5,182.8Zm-23.1,4.8a13.6,13.6,0,0,1,1.9-5.5,7.4,7.4,0,0,1,6.6-3.4,7.2,7.2,0,0,1,6.5,3.4,11.5,11.5,0,0,1,1.5,5.5Z"/>
    <path class="cls-2" d="M108.6,186.5h-3.6a22,22,0,0,0-5.7.7,14.9,14.9,0,0,0-4.8,2.2,10.8,10.8,0,0,0-4.6,9.2,12.1,12.1,0,0,0,1.1,5.3,9.5,9.5,0,0,0,3,3.6,12.7,12.7,0,0,0,4.7,2,27.7,27.7,0,0,0,6.1.6,41.9,41.9,0,0,0,7-.6l5.8-1.1,1.6-.4a.7.7,0,0,0,.5-.8V186.1c0-4.6-1.2-8.1-3.7-10.2s-6-3.2-10.6-3.2a38.1,38.1,0,0,0-6.2.6s-5.1,1-7.2,2.6a.7.7,0,0,0-.2.9l1.6,4.4a.6.6,0,0,0,.8.4l.4-.2a23.5,23.5,0,0,1,10.1-2.4,9.3,9.3,0,0,1,5.7,1.5c1.3,1,1.9,2.4,1.9,5.5v1l-3.8-.5m-9.2,16.3a4.7,4.7,0,0,1-1.3-1.4,5.6,5.6,0,0,1-.7-3,5.1,5.1,0,0,1,2.1-4.5s2-1.7,6.7-1.7a47.6,47.6,0,0,1,6.3.5v10.5h0a47.1,47.1,0,0,1-6.3.8c-4.7.3-6.8-1.4-6.8-1.4"/>
    <path class="cls-3" d="M295.6,174.6a.6.6,0,0,0-.3-.8,20.1,20.1,0,0,0-3.9-.7,11.6,11.6,0,0,0-6,1,10.5,10.5,0,0,0-3.9,2.9v-2.8a.7.7,0,0,0-.7-.7h-5.9a.7.7,0,0,0-.7.7v34.6a.7.7,0,0,0,.7.7H281a.7.7,0,0,0,.7-.7V191.4a20.2,20.2,0,0,1,.8-6.1,8.8,8.8,0,0,1,2-3.4,7.1,7.1,0,0,1,2.9-1.7,11.2,11.2,0,0,1,3.1-.4,13,13,0,0,1,2.5.3c.4.1.7-.2.8-.6l1.7-4.9"/>
    <path class="cls-3" d="M238.4,158.6l-2.3-.5-3.2-.2c-4.2,0-7.5,1.2-9.8,3.5s-3.9,5.9-4.7,10.5l-.3,1.6h-5.3a.8.8,0,0,0-.8.7l-.9,4.8c-.1.5.1.7.8.7h5.1l-5.2,29a35.9,35.9,0,0,1-1.4,5.7,11.7,11.7,0,0,1-1.6,3.3,4.3,4.3,0,0,1-2.1,1.6,8.6,8.6,0,0,1-2.7.4l-1.9-.2-1.3-.4a.6.6,0,0,0-.8.4l-1.7,4.7a.7.7,0,0,0,.4.9l2.1.6a14.1,14.1,0,0,0,3.4.3,17,17,0,0,0,5.7-.9,10.7,10.7,0,0,0,4.3-3,15.3,15.3,0,0,0,3-5.2,44,44,0,0,0,2-7.8l5.2-29.6h7.6a.8.8,0,0,0,.8-.7l.9-4.8c.1-.5-.1-.7-.8-.7h-7.4a32.2,32.2,0,0,1,1.2-5.2,6.8,6.8,0,0,1,1.6-2.5,4.9,4.9,0,0,1,1.9-1.2,8.1,8.1,0,0,1,2.5-.4l1.9.2,1.2.3c.8.2.9,0,1-.4l1.8-4.9a.6.6,0,0,0-.4-.8"/>
    <path class="cls-3" d="M134.8,208.7a.7.7,0,0,1-.7.7H128a.7.7,0,0,1-.7-.7V159.2a.7.7,0,0,1,.7-.7h6.1a.7.7,0,0,1,.7.7Z"/>
  </g>
</svg>
