<svg xmlns="http://www.w3.org/2000/svg" xmlns:xlink="http://www.w3.org/1999/xlink" width="300" height="132" viewBox="0 0 300 132"><defs><style>.a{fill:#f5f5f5;}.b{clip-path:url(#a);}.c{fill:#fff;}.d{fill:#4a4a4a;}</style><clipPath id="a"><rect class="a" width="300" height="132" transform="translate(390 156)"/></clipPath></defs><g class="b" transform="translate(-390 -156)"><g transform="translate(390 158.538)"><rect class="c" width="300" height="126.923"/><path class="d" d="M56.087,71.433c-4.269,0-6.731-3.346-6.731-7.115,0-4.365,2.808-7.288,6.731-7.288a8.538,8.538,0,0,1,4.683,1.625l2.048-3.683a12.5,12.5,0,0,0-6.481-2.087c-6.731,0-11.6,4.808-11.6,11.394a11.212,11.212,0,0,0,11.6,11.442,12.346,12.346,0,0,0,6.481-2.144l-2.048-3.683a9.26,9.26,0,0,1-4.683,1.538M70.51,42.894h4.346V75.115H70.5ZM99.933,53.606l-.51,1.923a9.135,9.135,0,0,0-6.317-2.644c-5.375,0-10.327,4.279-10.327,11.221,0,7.2,4.952,11.538,10.327,11.538a9.317,9.317,0,0,0,6.308-2.577l.51,1.971H103.6V53.692H99.923ZM99.51,64.49c0,4.885-2.981,7.115-5.769,7.115s-6.24-1.971-6.24-7.375c0-3.423,1.8-7.115,5.885-7.115,3.077,0,6.144,2.49,6.144,7.115ZM119.135,66.2c2.981.769,4.26,1.375,4.26,2.885,0,1.2-1.019,2.4-3.413,2.4a11.538,11.538,0,0,1-5.712-1.712l-1.923,3.683a16.971,16.971,0,0,0,7.692,2.231c4.808,0,7.6-3.26,7.6-6.519,0-5.654-5.548-6.51-7-7.029-3.067-.856-3.846-1.452-3.846-2.74s1.192-2.317,3.413-2.317a10.144,10.144,0,0,1,4.808,1.288l2.048-3.683a17.1,17.1,0,0,0-6.827-1.721c-4.692,0-7.51,3.346-7.51,6.433-.087,4.885,4.1,6.173,6.49,6.731m23.279,0c2.99.769,4.269,1.375,4.269,2.885,0,1.2-1.019,2.4-3.413,2.4a11.452,11.452,0,0,1-5.712-1.712l-1.923,3.683a16.933,16.933,0,0,0,7.692,2.231c4.808,0,7.6-3.26,7.6-6.519,0-5.654-5.548-6.51-7-7.029-3.067-.856-3.846-1.452-3.846-2.74s1.192-2.317,3.413-2.317a10.144,10.144,0,0,1,4.808,1.288l2.048-3.683A17.1,17.1,0,0,0,143.6,52.9c-4.692,0-7.51,3.346-7.51,6.433-.087,4.885,4.1,6.173,6.481,6.731M169.7,52.885a9.308,9.308,0,0,0-6.308,2.567l-.51-1.971h-3.673V84.029h4.1V73.452l.173-.087a8.558,8.558,0,0,0,5.885,2.317c5.538,0,10.663-3.606,10.663-11.538.087-7.192-4.865-11.135-10.327-11.135m-.471,18.6c-2.817,0-5.769-2.231-5.769-7.115v-.26c0-4.712,3.067-7.115,6.144-7.115,4.087,0,5.885,3.692,5.885,7.115,0,5.4-3.327,7.375-6.231,7.375m35.144-18-.51,1.923a9.163,9.163,0,0,0-6.317-2.577c-5.375,0-10.317,4.288-10.317,11.231,0,7.2,4.942,11.538,10.317,11.538a9.336,9.336,0,0,0,6.269-2.49l.51,1.923h3.673V53.779h-3.673Zm-.423,10.885c0,4.885-2.99,7.115-5.769,7.115s-6.221-1.923-6.221-7.375c0-3.423,1.788-7.115,5.885-7.115,3.067,0,6.144,2.49,6.144,7.115ZM223.6,66.2c2.99.769,4.269,1.375,4.269,2.885,0,1.2-1.029,2.4-3.413,2.4a11.452,11.452,0,0,1-5.712-1.712l-1.923,3.683a17.01,17.01,0,0,0,7.692,2.231c4.808,0,7.587-3.26,7.587-6.519,0-5.654-5.538-6.51-6.99-7.029-3.067-.856-3.846-1.452-3.846-2.74s1.192-2.317,3.413-2.317a10.077,10.077,0,0,1,4.808,1.288l2.048-3.683a17.048,17.048,0,0,0-6.817-1.721c-4.692,0-7.51,3.346-7.51,6.433-.087,4.885,4.1,6.173,6.481,6.731m23.288,0c2.99.769,4.269,1.375,4.269,2.885,0,1.2-1.029,2.4-3.413,2.4a11.538,11.538,0,0,1-5.721-1.712l-1.923,3.683a17.01,17.01,0,0,0,7.692,2.231c4.808,0,7.587-3.26,7.587-6.519,0-5.654-5.538-6.51-6.99-7.029-3.067-.856-3.846-1.452-3.846-2.74s1.192-2.317,3.413-2.317a10.106,10.106,0,0,1,4.808,1.288l2.048-3.683a17.048,17.048,0,0,0-6.817-1.721c-4.692,0-7.51,3.346-7.51,6.433-.087,4.885,4.1,6.173,6.481,6.731"/></g></g></svg>