<svg xmlns="http://www.w3.org/2000/svg" xmlns:xlink="http://www.w3.org/1999/xlink" width="294" height="132" viewBox="0 0 294 132"><defs><style>.a{fill:#f5f5f5;}.b{clip-path:url(#a);}.c{fill:#fff;}.d{fill:#4a4a4a;}</style><clipPath id="a"><rect class="a" width="294" height="132" transform="translate(714 156)"/></clipPath></defs><g class="b" transform="translate(-714 -156)"><g transform="translate(714 159.808)"><rect class="c" width="294" height="124.385"/><path class="d" d="M250.154,50.658a1.818,1.818,0,0,1-.254.782l-9.282,24.613a3.892,3.892,0,0,1-1.423,1.819,4.316,4.316,0,0,1-2.186.641,3.468,3.468,0,0,1-2.2-.773,4.966,4.966,0,0,1-1.423-1.819l-4.9-13.861-4.9,13.861a3.326,3.326,0,0,1-1.413,1.819,3.505,3.505,0,0,1-2.2.773,4.316,4.316,0,0,1-2.186-.641,3.336,3.336,0,0,1-1.423-1.819L206.95,51.441c-.132-.264-.132-.518-.254-.782v-.773a4.052,4.052,0,0,1,1.159-2.827,3.769,3.769,0,0,1,2.827-1.168,4.391,4.391,0,0,1,2.2.65,3.166,3.166,0,0,1,1.282,1.819l5.4,15,5.286-14.907a3.882,3.882,0,0,1,1.31-1.809,3.26,3.26,0,0,1,2.2-.782,3.477,3.477,0,0,1,2.186.782,3.59,3.59,0,0,1,1.272,1.809l5.418,15.077,5.418-14.9a3.336,3.336,0,0,1,1.413-1.809,3.383,3.383,0,0,1,2.2-.65,3.977,3.977,0,0,1,2.827,1.168,3.713,3.713,0,0,1,1.027,2.827Zm-51.572,8.16a11.95,11.95,0,0,0-1.555-2.827,6.6,6.6,0,0,0-2.45-1.809,6.907,6.907,0,0,0-3.345-.65,8.943,8.943,0,0,0-3.355.65,6.982,6.982,0,0,0-2.45,1.809,8.547,8.547,0,0,0-1.545,2.827,11.2,11.2,0,0,0,0,6.738,7.1,7.1,0,0,0,1.545,2.723,6.6,6.6,0,0,0,2.45,1.819,7.058,7.058,0,0,0,3.355.641,9.074,9.074,0,0,0,3.345-.641,7,7,0,0,0,2.45-1.819,9.169,9.169,0,0,0,1.555-2.723,9.678,9.678,0,0,0,.509-3.364,14.427,14.427,0,0,0-.509-3.373m7.783,9.847a18.893,18.893,0,0,1-3.487,5.315,14.445,14.445,0,0,1-5.286,3.5,17.791,17.791,0,0,1-6.445,1.3,15.407,15.407,0,0,1-6.455-1.3,18.771,18.771,0,0,1-5.286-3.5,14.653,14.653,0,0,1-3.487-5.315,16.9,16.9,0,0,1,0-12.957,18.846,18.846,0,0,1,3.487-5.305,14.446,14.446,0,0,1,5.286-3.5,17.791,17.791,0,0,1,6.445-1.3,15.407,15.407,0,0,1,6.445,1.3,18.77,18.77,0,0,1,5.286,3.5,13.579,13.579,0,0,1,3.487,5.305,16.905,16.905,0,0,1,0,12.957m-30.6-18.007a1.884,1.884,0,0,1-.264.782l-9.282,24.613a3.835,3.835,0,0,1-1.423,1.819,4.316,4.316,0,0,1-2.186.641,3.505,3.505,0,0,1-2.2-.773A4.938,4.938,0,0,1,159,75.922L154.1,62.06l-4.9,13.861a3.345,3.345,0,0,1-1.423,1.819,3.468,3.468,0,0,1-2.2.773,4.316,4.316,0,0,1-2.186-.641,3.374,3.374,0,0,1-1.423-1.819l-9.282-24.613c-.132-.264-.132-.518-.254-.782v-.773a4.052,4.052,0,0,1,1.159-2.827,3.769,3.769,0,0,1,2.827-1.168,4.391,4.391,0,0,1,2.2.65,3.166,3.166,0,0,1,1.282,1.819l5.418,15.152,5.286-14.9a3.882,3.882,0,0,1,1.291-1.809,3.458,3.458,0,0,1,4.382,0,3.59,3.59,0,0,1,1.291,1.809l5.286,14.9,5.418-14.9a3.336,3.336,0,0,1,1.413-1.809,3.383,3.383,0,0,1,2.2-.65,3.958,3.958,0,0,1,2.827,1.168,3.769,3.769,0,0,1,1.037,2.827c.123.132,0,.264,0,.518m-46.173,1.687a3.769,3.769,0,0,1-2.827,1.168,13.042,13.042,0,0,0-3.873.518,9.63,9.63,0,0,0-3.355,1.423,6.445,6.445,0,0,0-2.318,2.591,7.086,7.086,0,0,0-.942,3.769V74.113a4.212,4.212,0,0,1-1.291,3.11,4.259,4.259,0,0,1-3.091,1.291,4.2,4.2,0,0,1-3.044-1.244,4.052,4.052,0,0,1-1.282-3.11V50.4a4.41,4.41,0,0,1,4.382-4.41,3.769,3.769,0,0,1,2.968,1.3,4.777,4.777,0,0,1,1.282,3.11,20.976,20.976,0,0,1,2.328-2.346,11,11,0,0,1,2.318-1.423,8.424,8.424,0,0,1,2.7-.782,26.452,26.452,0,0,1,3.232-.254,3.977,3.977,0,0,1,2.827,1.168,3.769,3.769,0,0,1,1.159,2.827,3.534,3.534,0,0,1-1.159,2.723M96.313,58.791a8.754,8.754,0,0,0-1.545-2.827,6.672,6.672,0,0,0-2.422-1.8,6.973,6.973,0,0,0-3.355-.65,8.98,8.98,0,0,0-3.354.65,7.161,7.161,0,0,0-2.45,1.809A8.716,8.716,0,0,0,81.642,58.8a11.2,11.2,0,0,0,0,6.737,6.738,6.738,0,0,0,1.423,2.723,6.191,6.191,0,0,0,2.318,1.819,6.6,6.6,0,0,0,3.223.641,9.169,9.169,0,0,0,3.355-.641,9.423,9.423,0,0,0,2.582-1.819,7.218,7.218,0,0,0,1.574-2.7,9.678,9.678,0,0,0,.509-3.364,14.549,14.549,0,0,0-.254-3.373m7.821,18.45a4.287,4.287,0,0,1-3.1,1.291,4.419,4.419,0,0,1-2.959-1.291,4.787,4.787,0,0,1-1.291-3.11,4.711,4.711,0,0,1-1.291,1.555,14.512,14.512,0,0,1-2.064,1.555,13.569,13.569,0,0,1-2.7,1.168,12.938,12.938,0,0,1-3.1.386,13.692,13.692,0,0,1-6.059-1.3,18.969,18.969,0,0,1-4.9-3.5A14.709,14.709,0,0,1,73.5,68.666a18.045,18.045,0,0,1-1.159-6.474,15.718,15.718,0,0,1,1.291-6.483A22.116,22.116,0,0,1,77.4,50.527a16.472,16.472,0,0,1,5.286-3.5,16.735,16.735,0,0,1,12.891,0,18.771,18.771,0,0,1,5.249,3.5,16.679,16.679,0,0,1,3.487,5.315,15.84,15.84,0,0,1,1.282,6.483V74.367a4.306,4.306,0,0,1-1.413,2.827M71.436,74.631a9.536,9.536,0,0,1-2.064,1.555,13.109,13.109,0,0,1-2.7,1.291,27.541,27.541,0,0,1-3.1.942,13.739,13.739,0,0,1-3.223.254A15.548,15.548,0,0,1,53.9,77.382a16.5,16.5,0,0,1-5.286-3.505,16.546,16.546,0,0,1,0-23.322,15.152,15.152,0,0,1,5.286-3.5,17.979,17.979,0,0,1,6.408-1.319,20.665,20.665,0,0,1,5.654.773A11.44,11.44,0,0,1,70.673,49a4.061,4.061,0,0,1,1.545,3.11,3.185,3.185,0,0,1-.773,2.073,3.684,3.684,0,0,1-3.091,1.545,5.324,5.324,0,0,1-2.45-.641,15.36,15.36,0,0,0-2.582-1.168,10.168,10.168,0,0,0-3.015-.405,7.124,7.124,0,0,0-3.355.773,4.2,4.2,0,0,0-2.3,1.687A8.716,8.716,0,0,0,53.108,58.8a9.3,9.3,0,0,0-.5,3.392,9.677,9.677,0,0,0,.518,3.364,10.12,10.12,0,0,0,1.545,2.827,9.178,9.178,0,0,0,2.45,1.941,7.133,7.133,0,0,0,3.355.782,7.67,7.67,0,0,0,3.769-.782c1.027-.518,1.8-1.037,2.45-1.423a4.844,4.844,0,0,1,2.7-.942,3.015,3.015,0,0,1,2.582,1.291,4.41,4.41,0,0,1,.942,2.337A5.833,5.833,0,0,1,71.5,74.565"/></g></g></svg>