<svg xmlns="http://www.w3.org/2000/svg" xmlns:xlink="http://www.w3.org/1999/xlink" width="294" height="133" viewBox="0 0 294 133"><defs><style>.a{fill:#f5f5f5;}.b{clip-path:url(#a);}.c{fill:#fff;}.d{fill:#4a4a4a;}</style><clipPath id="a"><rect class="a" width="294" height="133" transform="translate(72 312)"/></clipPath></defs><g class="b" transform="translate(-72 -312)"><g transform="translate(72 316.308)"><rect class="c" width="294" height="124.385"/><rect class="d" width="6.436" height="19.053" transform="translate(162.247 61.363)"/><path class="d" d="M145.464,64.492V43.544h-6.427V64.586a15.869,15.869,0,0,0,4.636,11.185,11.91,11.91,0,0,0,1.027.942,16.019,16.019,0,0,0,10.61,3.769h3.7V73.99h-4.137A9.508,9.508,0,0,1,145.464,64.492Z"/><path class="d" d="M212.962,52.157a10.62,10.62,0,0,0-8.019-3.242,10.789,10.789,0,0,0-8.057,3.242,14.747,14.747,0,0,0-2.516,3.769,14.408,14.408,0,0,0-2.516-3.769,11.59,11.59,0,0,0-16.076,0,14.5,14.5,0,0,0-3.552,10.149V80.36h6.4c0-2.469.085-13.532.085-18.055,0-5.588,3.034-7.538,6.021-7.538a6.087,6.087,0,0,1,1.969.33,6.7,6.7,0,0,1,3.308,2.657,7.718,7.718,0,0,1,.942,4.4V80.36h6.775V62.117a7.736,7.736,0,0,1,.942-4.4,6.653,6.653,0,0,1,3.308-2.657,6.087,6.087,0,0,1,1.969-.33c2.987,0,6.021,1.988,6.021,7.538,0,4.5.075,15.586.085,18.055h6.4V62.268A14.053,14.053,0,0,0,212.962,52.157Z"/><path class="d" d="M250.154,64.388a14.973,14.973,0,0,0-4.316-10.573,15.661,15.661,0,0,0-22.955.217c-2.827,2.987-3.967,6.6-3.967,10.968a15.247,15.247,0,0,0,4.862,11.383,16.019,16.019,0,0,0,11.59,4.476,20.514,20.514,0,0,0,11.506-3.769l-4.146-4.184a13.013,13.013,0,0,1-7.152,2.327,11.213,11.213,0,0,1-9.188-5.267l23.737-4.2C250.117,65.358,250.154,64.793,250.154,64.388Zm-24.5-.471c.066-4.712,2.695-9.122,8.943-9.122,5.541,0,8.123,3.694,8.716,6.6l-17.659,3.138v-.641Z"/><path class="d" d="M165.479,57.528h0c-3.863,0-4.834-2.233-4.834-4.325s1.14-4.335,4.834-4.335h0c3.684,0,4.825,2.243,4.825,4.335S169.333,57.528,165.479,57.528Z"/><path class="d" d="M81.152,28.948a33.088,33.088,0,1,1-.019,0m0-4.25a37.264,37.264,0,1,0,.019,0Z"/><ellipse class="d" cx="4.825" cy="4.853" rx="4.825" ry="4.853" transform="translate(76.327 57.339)"/><path class="d" d="M89.331,55l11.6-6.709a4.1,4.1,0,0,0,1.47-5.569,4.881,4.881,0,0,0-.6-.792A28.778,28.778,0,0,0,88.351,34.1,4.052,4.052,0,0,0,83.4,37a4.231,4.231,0,0,0-.123,1.018V51.469a4.033,4.033,0,0,0,4.061,4.052A3.769,3.769,0,0,0,89.331,55Z"/><path class="d" d="M79.041,51.488V38.041A4.061,4.061,0,0,0,75,33.97a4.127,4.127,0,0,0-1.018.132,28.806,28.806,0,0,0-13.456,7.812,4.071,4.071,0,0,0,.075,5.758,4.5,4.5,0,0,0,.792.6L72.972,55a4.061,4.061,0,0,0,6.068-3.515Z"/><path class="d" d="M91.4,65.726,103,72.445a4.033,4.033,0,0,0,5.522-1.489,3.769,3.769,0,0,0,.386-.942,29.211,29.211,0,0,0,0-15.652,4.043,4.043,0,0,0-5-2.827,3.345,3.345,0,0,0-.942.4L91.4,58.678a4.09,4.09,0,0,0-1.489,5.55,4.2,4.2,0,0,0,1.489,1.5Z"/><path class="d" d="M72.982,69.382,61.41,76.11a4.061,4.061,0,0,0-1.479,5.56,4.2,4.2,0,0,0,.613.8A28.806,28.806,0,0,0,74,90.283a4.043,4.043,0,0,0,4.938-2.9,3.826,3.826,0,0,0,.132-1.018V72.925a4.052,4.052,0,0,0-4.043-4.061A3.892,3.892,0,0,0,72.982,69.382Z"/><path class="d" d="M70.871,58.678l-11.59-6.728a4.033,4.033,0,0,0-5.522,1.5,4.589,4.589,0,0,0-.386.942,29.259,29.259,0,0,0,0,15.661,4.033,4.033,0,0,0,4.994,2.827,3.7,3.7,0,0,0,.942-.386L70.9,65.783a4.071,4.071,0,0,0,1.489-5.55,3.986,3.986,0,0,0-1.517-1.555Z"/><path class="d" d="M83.262,72.9V86.334a4.052,4.052,0,0,0,4.052,4.071,4.2,4.2,0,0,0,1.027-.132,28.854,28.854,0,0,0,13.428-7.821A4.071,4.071,0,0,0,101.7,76.7a4.627,4.627,0,0,0-.8-.612L89.331,69.363a4.052,4.052,0,0,0-5.522,1.489A4.184,4.184,0,0,0,83.262,72.9Z"/></g></g></svg>