<svg xmlns="http://www.w3.org/2000/svg" xmlns:xlink="http://www.w3.org/1999/xlink" width="300" height="133" viewBox="0 0 300 133"><defs><style>.a{fill:#f5f5f5;}.b{clip-path:url(#a);}.c{fill:#fff;}.d{fill:#4a4a4a;}</style><clipPath id="a"><rect class="a" width="300" height="133" transform="translate(390 312)"/></clipPath></defs><g class="b" transform="translate(-390 -312)"><g transform="translate(390 315.038)"><rect class="c" width="300" height="126.923"/><path class="d" d="M86.538,87.654l1.413,1.317c1.308,1.221,3.125.577,4.394-.788s1.808-3.279.5-4.5l-1.4-1.327Zm4.5-9.433,3.683,3.442c2.673,2.5,2.337,5.962-.125,8.654s-5.827,3.2-8.51.7L82.4,87.548Z"/><path class="d" d="M94.558,98.048l7.327-10.385,2.51,1.788L97.067,99.837Z"/><path class="d" d="M109.9,95.971l-1.442,2.769,1.8.962a1.567,1.567,0,0,0,1.433-2.769Zm-7.356,7.471,5.865-11.288,4.644,2.442a4.087,4.087,0,0,1,1.923,5.769,4,4,0,0,1-4.577,2.212l.7,5.337-3.154-1.654-.471-5.029-.231-.125-1.923,3.769Z"/><path class="d" d="M128.625,100.731l-.837,2.567-4.894-1.615-.75,2.317,4.3,1.423-.817,2.51-4.308-1.413-.692,2.135,5.048,1.663-.837,2.567-7.971-2.625,3.952-12.1Z"/><path class="d" d="M142.308,113.308a6.323,6.323,0,1,1-.433-9.183,6.73,6.73,0,0,1,1.519,2.067c.231-.135-2.8,1.394-2.8,1.394a3.385,3.385,0,1,0-1.692,4.5,3.3,3.3,0,0,0,1.173-.875Z"/><path class="d" d="M156.5,103.308l.067,2.7-3.269.067.221,10.029-3.067.077-.231-10.029-3.269.077-.058-2.7Z"/><path class="d" d="M180.769,108.212a6.49,6.49,0,1,1-4.183-8.2,6.6,6.6,0,0,1,2.221,1.25c.163-.221-1.923,2.433-1.923,2.433a3.385,3.385,0,0,0-4.808.308,3.423,3.423,0,0,0,.317,4.808,3.375,3.375,0,0,0,4.808-.308,3.5,3.5,0,0,0,.712-1.3Z"/><path class="d" d="M184.6,95.587l4.308,9.048,4.115-1.981,1.163,2.442-6.923,3.317-5.471-11.481Z"/><path class="d" d="M195.923,98.8l-4.577-6.673,2.567-1.74,4.558,6.673a1.915,1.915,0,1,0,3.154-2.173h0l-4.51-6.683,2.548-1.76,4.548,6.673a5.009,5.009,0,1,1-8.251,5.683"/><path class="d" d="M210.654,86.538l1.788,1.856,1.413-1.375a1.317,1.317,0,0,0,.106-1.923,1.279,1.279,0,0,0-1.923.087Zm-.558-2.981a1.01,1.01,0,0,0,.115-1.413l-.077-.087a.962.962,0,0,0-1.548-.115l-1.221,1.173,1.538,1.6Zm2.529-1.038a2.885,2.885,0,0,1,3.846.471c1.279,1.327,1.837,3.462-.385,5.625l-3.99,3.846-8.808-9.154,3.721-3.625c1.692-1.644,3.74-1.731,5.163-.25a2.587,2.587,0,0,1,.462,3.048"/><path class="d" d="M89.808,44.8c-8.971-2.442-9.029-7.019-8.971-9.788.067-4.442,5.394-8.558,11.663-8.558,5.962,0,12.24,2.635,12.3,9.981H96.4c-.058-2.26-1.981-2.644-3.394-2.644-1.923,0-3.2.9-3.135,2.25.058.9.837,1.808,2.625,2.26l5.058,1.346c7.24,2,8.144,6.837,8.144,8.76,0,6.356-6.663,9.394-12.942,9.394-6.1,0-12.433-3.663-12.5-10.365H88.6c.058,1.74,1.981,3.529,4.413,3.529,1.99-.067,3.654-.962,3.654-2.51,0-1.288-.769-2-2.942-2.577Z"/><path class="d" d="M137.337,41.26v15.9h-8.913V40.933c-.058-3.846-2.365-5.769-4.923-5.769s-5.183,1.538-5.183,6.125V57.173H109.4V27.1h8.913v4.375a8.529,8.529,0,0,1,7.817-4.942c4.74,0,7.942,1.8,9.615,5.279a10.216,10.216,0,0,1,8.971-5.346c7.115,0,11.538,4.567,11.538,13.644V57.173H147.4V41.154c0-3.933-2.308-5.99-4.923-5.99-2.817,0-5.125,1.74-5.125,6.125"/><path class="d" d="M165.981,10.74a5.25,5.25,0,1,1,0,10.5,5.442,5.442,0,0,1-5.567-5.279,5.394,5.394,0,0,1,5.567-5.221M170.4,57.154h-8.865V27.1h8.837Z"/><rect class="d" width="8.904" height="46.413" transform="translate(176.048 10.74)"/><path class="d" d="M218.067,51.683c-3.01,4.5-8.577,6.125-13.644,6.125-8.587,0-15.635-6.308-15.635-15.788s7.048-15.577,15.635-15.577,15.317,6.375,15.317,15.865c0,.779-.067,2-.135,2.769H197.7c.442,3.471,4.221,5.019,7.365,5.019a8.26,8.26,0,0,0,6.529-2.827Zm-7.3-12.26c-.452-3.663-3.779-5.144-6.279-5.144a6.538,6.538,0,0,0-6.654,5.144Z"/><path class="d" d="M214.635,13.346l.885,2.817.865-2.817h2.029v4.923h-1.3V14.692l-1.048,3.577h-1.115l-1.058-3.529v3.529h-1.288V13.346ZM207.9,14.529V13.346h4.3v1.183H210.75v3.74h-1.423v-3.75Z"/></g></g></svg>