<svg xmlns="http://www.w3.org/2000/svg" xmlns:xlink="http://www.w3.org/1999/xlink" width="294" height="133" viewBox="0 0 294 133"><defs><style>.a{fill:#f5f5f5;}.b{clip-path:url(#a);}.c{fill:#fff;}.d{fill:#4a4a4a;}</style><clipPath id="a"><rect class="a" width="294" height="133" transform="translate(714 312)"/></clipPath></defs><g class="b" transform="translate(-714 -312)"><g transform="translate(714 316.308)"><rect class="c" width="294" height="124.385"/><path class="d" d="M43.846,75.206l6.6-7.915A21.211,21.211,0,0,0,63.4,71.672c2.214,0,3.185-.594,3.185-1.593v-.113c0-1.084-1.15-1.64-5.107-2.459-8.3-1.706-15.6-4.09-15.6-11.911v-.1c0-7.067,5.475-12.542,15.689-12.542,7.143,0,12.4,1.715,16.7,5.1L72.19,56.454a19.129,19.129,0,0,0-11.1-3.684c-1.885,0-2.7.631-2.7,1.527v.113c0,1,1,1.63,4.928,2.384,9.47,1.753,15.84,4.5,15.84,12v.075c0,7.812-6.427,12.57-16.321,12.57-7.538,0-14.248-2.082-18.95-6.247ZM91.4,54.164H80.558V43.638h34.13V54.164H103.8v26.63H91.4Zm53.928,13.974c4.495-2.177,7.322-5.946,7.322-11.336v-.113a11.685,11.685,0,0,0-3.373-8.82c-2.591-2.6-6.775-4.24-13.324-4.24H117.911V80.784h12.363v-10.6h2.591l6.954,10.6h14.135ZM140.3,57.688c0,2.271-1.819,3.609-4.712,3.609h-5.324V54.051h5.428c2.827,0,4.712,1.15,4.712,3.571v.066Zm31.238-15.614L151.627,80.793H164.9l6.7-13.541,6.7,13.541h13.249Zm58.63,0L210.257,80.793h13.249l6.7-13.541,6.7,13.541h13.249ZM200.853,82.311l20.024-38.719H207.628l-6.7,13.541-6.737-13.541H180.923Z"/></g></g></svg>