<svg xmlns="http://www.w3.org/2000/svg" xmlns:xlink="http://www.w3.org/1999/xlink" width="294" height="132" viewBox="0 0 294 132"><defs><style>.a{fill:#f5f5f5;}.b{clip-path:url(#a);}.c{fill:#fff;}.d{fill:#4a4a4a;}</style><clipPath id="a"><rect class="a" width="294" height="132" transform="translate(72 156)"/></clipPath></defs><g class="b" transform="translate(-72 -156)"><g transform="translate(72 159.808)"><rect class="c" width="294" height="124.385"/><path class="d" d="M108.686,26.385a2.073,2.073,0,0,0-2.893,0l-1.2,1.187a2.1,2.1,0,0,0,0,2.912l18.846,18.931L104.6,68.346a2.1,2.1,0,0,0,0,2.912l1.2,1.2a2.073,2.073,0,0,0,2.893,0l22.9-23.011Z"/><path class="d" d="M150.411,27.572l-1.2-1.187a2.073,2.073,0,0,0-2.893,0L130.368,42.451l4.09,4.108L150.477,30.54a2.13,2.13,0,0,0-.066-2.968Z"/><path class="d" d="M234.635,46.691s-2.158-.528-3.345-.942c-3.769-1.291-7.237-3.317-7.237-7.058,0-4.269,3.675-7.152,9.14-7.152,3.628,0,6.493,1.037,8.481,3.072l.66.669a2.073,2.073,0,0,0,2.893,0l1.2-1.2a2.1,2.1,0,0,0,0-2.912l-.669-.669A18.008,18.008,0,0,0,233.2,25.791,16.773,16.773,0,0,0,222,29.485a11.741,11.741,0,0,0-4.288,9.291c0,9.084,8.424,11.308,15.906,13.324l.245.047c6.6,1.545,9.847,4.156,9.847,7.774,0,4.523-3.769,7.218-10.073,7.218a13.729,13.729,0,0,1-9.8-3.684l-.707-.716a2.073,2.073,0,0,0-2.893,0l-1.451,1.451a2.092,2.092,0,0,0,0,2.9l.773.754h0c3.392,3.364,8.3,5.192,14.135,5.192,4.843,0,8.726-1.2,11.911-3.647a11.534,11.534,0,0,0,4.589-9.48C250.154,51.516,242.8,48.567,234.635,46.691Z"/><path class="d" d="M150.411,71.229l-1.2,1.206a2.073,2.073,0,0,1-2.893,0L130.368,56.359l4.09-4.108L150.477,68.27a2.12,2.12,0,0,1-.066,2.959Z"/><path class="d" d="M181.762,31.567A17.828,17.828,0,1,1,164.018,49.4a17.828,17.828,0,0,1,17.744-17.828m0-5.814a23.558,23.558,0,1,0,16.688,6.93,23.642,23.642,0,0,0-16.688-6.93Z"/><path class="d" d="M88.831,25.753H87.126a2.026,2.026,0,0,0-2.017,2.026v6.068a23.643,23.643,0,1,0,0,30.993v6.068a2.026,2.026,0,0,0,2.017,2.035h1.706a2.026,2.026,0,0,0,2.017-2.035V27.826a2.035,2.035,0,0,0-2.017-2.073ZM85.062,49.509a17.828,17.828,0,1,1,0-.188Z"/><path class="d" d="M181.781,85.75a27.382,27.382,0,0,1,3.194-.254c3.006,0,4.8,1.084,4.8,3.524a2.827,2.827,0,0,1-2.478,2.827,2.931,2.931,0,0,1,3.053,3.138c0,2.243-1.611,3.694-5.578,3.694a19,19,0,0,1-2.987-.254V85.75Zm2.111,5.39h1.037c1.772,0,2.686-.669,2.686-1.979s-.942-1.819-2.525-1.819a9.67,9.67,0,0,0-1.2.085Zm0,5.607c.415.047.876.094,1.131.094,2.017,0,3.1-.669,3.1-1.988s-1.131-1.885-2.827-1.885h-1.357v3.769Z"/><path class="d" d="M200.712,95.446l-1.121,3h-2.3l4.872-12.693H204.8l4.957,12.7H207.4l-1.131-3Zm2.827-7.633-2.177,5.861H205.7Z"/><path class="d" d="M226.154,95.173V85.75h2.12v12.7h-2.12l-6.493-9.291v9.291h-2.111V85.75h2.224Z"/><path class="d" d="M237.509,85.75h2.186v12.7h-2.186Zm7.114,0h2.6l-4.966,6.276,5.305,6.474h-2.638l-5.117-6.266Z"/></g></g></svg>