<svg xmlns="http://www.w3.org/2000/svg" xmlns:xlink="http://www.w3.org/1999/xlink" width="300" height="132" viewBox="0 0 300 132"><defs><style>.a{fill:#f5f5f5;}.b{clip-path:url(#a);}.c{fill:#fff;}.d{fill:#4a4a4a;}</style><clipPath id="a"><rect class="a" width="300" height="132" transform="translate(390 156)"/></clipPath></defs><g class="b" transform="translate(-390 -156)"><g transform="translate(390 158.538)"><rect class="c" width="300" height="126.923"/><path class="d" d="M72.7,26.779H57.24V100H72.7ZM113.462,100h15.452V48.683H113.462Zm39.51,0h17.817l17.865-51.317H173.269S164.923,76.625,162.5,85.471h-.212c-2.471-8.846-10.952-36.788-10.952-36.788H134.99Zm89.75-51.356H227.885v7.01c-2.577-5.394-8.587-8.413-15.567-8.413-12.663,0-22.654,10.356-22.654,27.077s9.663,27.077,21.9,27.077c8.587,0,13.74-4.2,16.346-8.846V100h14.923ZM227.337,75.615c0,9.49-5.769,13.913-11.6,13.913-6.337,0-10.413-6.471-10.413-15.212s4.365-15.173,11.019-15.173c5.481,0,11.067,4.538,11.067,13.923v2.587ZM76.673,73.077c24.8,0,30.6-20.827,30.6-24.385h-2.144C80.317,48.683,74.519,69.5,74.519,73.077ZM74.519,75c0,3.769,4.3,25,31.029,25h2.144c0-3.769-4.3-25-31.029-25Zm55.942-40.462a9.24,9.24,0,0,0-18.471,0,9.24,9.24,0,0,0,18.471,0"/></g></g></svg>