<svg xmlns="http://www.w3.org/2000/svg" xmlns:xlink="http://www.w3.org/1999/xlink" width="294" height="132" viewBox="0 0 294 132"><defs><style>.a{fill:#f5f5f5;}.b{clip-path:url(#a);}.c{fill:#fff;}.d,.e{fill:#4a4a4a;}.d{fill-rule:evenodd;}</style><clipPath id="a"><rect class="a" width="294" height="132" transform="translate(714 156)"/></clipPath></defs><g class="b" transform="translate(-714 -156)"><g transform="translate(714 159.808)"><rect class="c" width="294" height="124.385"/><path class="d" d="M100.883,56.538a9.423,9.423,0,0,0,.075,18.752,9.546,9.546,0,0,0,7.407-3.128l-2.676-2.827a6.3,6.3,0,0,1-4.712,2.082,5.051,5.051,0,0,1-5.211-4.335h13.777V65.962c-.236-5.814-3.647-9.423-8.66-9.423m-5.041,7.388a4.947,4.947,0,0,1,4.712-3.7,4.278,4.278,0,0,1,4.57,3.7h-9.3"/><path class="d" d="M122.434,56.538a6.832,6.832,0,0,0-5.079,2.007v-1.6h-3.967v18.1h3.967V63.587a4.335,4.335,0,0,1,4.316-3.213,4.014,4.014,0,0,1,4.127,4.071V75.027h4V64.407c0-4.712-2.874-7.831-7.359-7.831"/><rect class="e" width="3.977" height="18.102" transform="translate(156.376 56.944)"/><path class="d" d="M232.383,64.35l-1.31-.481c-1.706-.688-2.318-1.272-2.318-2.214s.942-1.451,2-1.451a2.827,2.827,0,0,1,2.638,1.649l2.931-2.045a6.153,6.153,0,0,0-5.654-3.176c-3.364,0-5.833,2.177-5.833,5.117,0,2.469,1.329,4.391,4.41,5.6l1.272.518c1.668.613,2.431,1.225,2.431,2.29s-.942,1.677-2.318,1.677a3.92,3.92,0,0,1-3.684-2.328L223.9,71.681a7.341,7.341,0,0,0,6.738,3.7c3.835,0,6.483-2.214,6.483-5.418,0-2.827-1.7-4.41-4.712-5.654"/><ellipse class="e" cx="2.318" cy="2.328" rx="2.318" ry="2.328" transform="translate(156.056 49.32)"/><path class="d" d="M192.985,67.639l-5.437-10.676h-4.485l9.923,18.45,9.9-18.45h-4.561"/><rect class="e" width="3.977" height="25.744" transform="translate(83.79 49.302)"/><path class="d" d="M250.154,60.515V56.944h-3.948v-5.3l-3.977,2.318v2.978h-2.243v3.571h2.243V69.6c0,3.458,2.054,5.522,5.531,5.522h2.393V71.455h-1.385c-2.054,0-2.563-.839-2.563-2.695V60.515h3.948"/><path class="d" d="M174.327,56.538a6.813,6.813,0,0,0-5.07,2.007v-1.6h-3.977v18.1h3.977V63.587a4.325,4.325,0,0,1,4.316-3.213,4.014,4.014,0,0,1,4.118,4.071V75.027h4V64.407c0-4.712-2.827-7.831-7.359-7.831"/><path class="d" d="M212.717,56.538a9.423,9.423,0,0,0,.075,18.752,9.583,9.583,0,0,0,7.378-3.166L217.485,69.3a6.285,6.285,0,0,1-4.712,2.082,5.07,5.07,0,0,1-5.211-4.335h13.8V65.962c-.254-5.8-3.618-9.376-8.65-9.376m-5.041,7.388a4.947,4.947,0,0,1,4.712-3.7,4.278,4.278,0,0,1,4.561,3.7h-9.3"/><path class="d" d="M147.5,58.282a8.2,8.2,0,0,0-4.768-1.63h-.057a9.423,9.423,0,0,0,0,18.761h.075a8.226,8.226,0,0,0,4.768-1.611v1.244h4V49.3h-4v8.98h0m-4.825,13.334a5.56,5.56,0,1,1,5.324-5.56,5.249,5.249,0,0,1-5.324,5.56h0"/><path class="d" d="M52.722,49.32l-8.877,5.136V75.064l8.877,5.154,8.867-5.154-8.867-5.136"/><path class="d" d="M61.589,64.774l8.877,5.154V49.32l-8.877-5.154"/></g></g></svg>