<svg xmlns="http://www.w3.org/2000/svg" xmlns:xlink="http://www.w3.org/1999/xlink" width="294" height="133" viewBox="0 0 294 133"><defs><style>.a{fill:#f5f5f5;}.b{clip-path:url(#a);}.c{fill:#fff;}.d{fill:#4a4a4a;}</style><clipPath id="a"><rect class="a" width="294" height="133" transform="translate(72 312)"/></clipPath></defs><g class="b" transform="translate(-72 -312)"><g transform="translate(72 316.308)"><rect class="c" width="294" height="124.385"/><path class="d" d="M59.686,30.672l2.186,3.769a2.629,2.629,0,0,1,0,2.535L48.887,59.592l6.144,10.742a5.362,5.362,0,0,0,9.319,0l6.144-10.686-1.611-2.883L61.91,68.883a2.516,2.516,0,0,1-2.177,1.272,2.459,2.459,0,0,1-2.177-1.272l-5.362-9.235L64.265,38.635,66.442,42.4a2.648,2.648,0,0,1,0,2.544l-8.405,14.7,1.649,2.893,9.15-15.934,6.012,10.46a5.3,5.3,0,0,1,0,5.211L68.788,72.916a10.441,10.441,0,0,1-18.121,0L44.524,62.277a5.3,5.3,0,0,1,0-5.211L59.686,30.682"/><path class="d" d="M88.049,42.008H92.28V67.092H88.049Z"/><ellipse class="d" cx="2.488" cy="2.497" rx="2.488" ry="2.497" transform="translate(95.456 41.612)"/><path class="d" d="M95.8,49.669h4.269V67.092H95.8Zm15.463-.433a8.481,8.481,0,0,0-8.754,8.839c0,5.428,3.4,8.754,8.8,8.754,2.13,0,4.4,1.093,4.4,3.505s-1.885,3.769-4.4,3.769-4.532-1.489-4.532-3.769h-4.269c0,4.712,3.769,7.793,8.8,7.793s8.669-2.978,8.669-7.793a5.889,5.889,0,0,0-3.571-5.786c2.827-1.31,3.656-4.325,3.656-6.521a8.481,8.481,0,0,0-8.8-8.792Zm0,14.05c-2.488,0-4.532-2.148-4.532-5.211s2.045-5.258,4.532-5.258,4.485,2.28,4.485,5.258S113.708,63.285,111.268,63.285Zm21.127-14.05a6.474,6.474,0,0,0-5.352,2.591V41.961h-4.269V67.045h4.269V58.206a4.412,4.412,0,0,1,4.269-4.712c2.262,0,3.92,1.357,3.92,4.514v9.056h4.231V57.679c.047-5.117-2.13-8.481-7.058-8.481Zm17.518,14.841a1.451,1.451,0,0,1-1.216-.528,2.714,2.714,0,0,1-.4-1.658V53.344h3.411l.4-3.769h-3.769V44.854l-4.316.481v4.335h-3.27v3.722h3.27V62.06a5.918,5.918,0,0,0,1.263,4.071,4.806,4.806,0,0,0,3.7,1.395,7.539,7.539,0,0,0,2.177-.3,6.6,6.6,0,0,0,1.96-.942l-1.479-2.752A3.11,3.11,0,0,1,149.912,64.077Zm17.555-6.389c-1.743-1.093-3.769-1.225-5.8-1.357-1.168-.094-2.959-.349-2.959-1.885,0-1.093,1.131-1.706,3.185-1.706a5.974,5.974,0,0,1,4.306,1.527l2.4-2.827a9.423,9.423,0,0,0-6.8-2.271c-3.176,0-7.359,1.395-7.359,5.428a4.759,4.759,0,0,0,2.309,4.071c1.611,1,3.7,1.131,5.494,1.357,1.216.132,3.223.433,2.827,2.139-.217,1.187-1.658,1.536-2.657,1.574a11.666,11.666,0,0,1-3.27-.3,10.545,10.545,0,0,1-3.053-1.489l-2.177,2.761a1.886,1.886,0,0,1,.264.217,11.977,11.977,0,0,0,10.2,2.271c2.657-.612,4.919-2.535,4.919-5.428a4.335,4.335,0,0,0-1.885-4.108Zm14.078-8.481a6.926,6.926,0,0,0-5.654,2.752l-.132-2.365h-4.137V74.706l4.269-.481V65.019c1.225,1.885,3.882,2.488,5.71,2.488,5.531,0,8.754-4.156,8.754-9.188s-3.524-9.1-8.839-9.1ZM181.2,63.775c-2.921,0-4.881-2.667-4.881-5.381s1.828-5.654,4.881-5.654,4.881,2.94,4.881,5.654S184.108,63.8,181.2,63.8ZM196,59.912a5.2,5.2,0,0,0,5.4,3.854,7.472,7.472,0,0,0,4.664-1.8l2.742,2.714a10.733,10.733,0,0,1-7.444,2.827c-5.409,0-9.329-3.59-9.329-9.15a8.924,8.924,0,0,1,9.018-9.1c5.23,0,9.583,3.581,9.15,10.676Zm10.064-3.279a5.192,5.192,0,0,0-5.051-3.863A5.268,5.268,0,0,0,196,56.633Zm9.725,3.279a5.2,5.2,0,0,0,5.4,3.854,7.473,7.473,0,0,0,4.664-1.8l2.742,2.714a10.733,10.733,0,0,1-7.444,2.827c-5.409,0-9.329-3.59-9.329-9.15a8.924,8.924,0,0,1,9.018-9.1c5.23,0,9.583,3.581,9.15,10.676ZM225.9,56.633a5.2,5.2,0,0,0-5.06-3.863,5.258,5.258,0,0,0-5.051,3.863Zm14.389,10.893a6.9,6.9,0,0,0,5.654-2.752l.132,2.318h4.137V42.008h-4.269v9.715c-1.216-1.885-3.92-2.45-5.748-2.45-5.531,0-8.716,4.118-8.716,9.2s3.534,9.056,8.848,9.056Zm.3-14.577c2.921,0,4.881,2.676,4.881,5.39s-1.828,5.6-4.881,5.6-4.881-2.931-4.881-5.6,1.941-5.39,4.862-5.39Z"/></g></g></svg>