<svg xmlns="http://www.w3.org/2000/svg" xmlns:xlink="http://www.w3.org/1999/xlink" width="300" height="133" viewBox="0 0 300 133"><defs><style>.a{fill:#f5f5f5;}.b{clip-path:url(#a);}.c{fill:#fff;}.d{fill:#4a4a4a;}</style><clipPath id="a"><rect class="a" width="300" height="133" transform="translate(390 312)"/></clipPath></defs><g class="b" transform="translate(-390 -312)"><g transform="translate(390 315.038)"><rect class="c" width="300" height="126.923"/><path class="d" d="M86.856,85.885H89.49v19.163H86.856Z"/><path class="d" d="M96.25,94.856v10.192H93.683V90.538H96.25V92.7a8.212,8.212,0,0,1,5.462-2.558c2.019,0,3.846,1.135,3.846,4.067v10.837H102.99V95.019c0-1.74-.8-2.548-2.183-2.548C99.106,92.471,97.308,93.76,96.25,94.856Z"/><path class="d" d="M118.74,91.346l-.769,2.067a6.779,6.779,0,0,0-3.692-1.106c-1.346,0-2.5.548-2.5,1.808s1.4,1.837,2.885,2.317c2.279.673,4.6,1.423,4.6,4.26,0,3.163-2.346,4.712-5.231,4.712a7.913,7.913,0,0,1-5.269-1.923l.962-1.923a7.442,7.442,0,0,0,4.3,1.615c1.606,0,2.788-.74,2.788-2.029s-1.25-1.74-2.692-2.231c-2.115-.606-4.721-1.481-4.721-4.452s2.144-4.317,5.029-4.317A7.788,7.788,0,0,1,118.74,91.346Z"/><path class="d" d="M131.856,102.885a8.2,8.2,0,0,1-5.452,2.548c-2.029,0-3.846-1.125-3.846-4.058V90.529h2.6v10.038c0,1.74.8,2.548,2.183,2.548,1.7,0,3.5-1.3,4.558-2.394V90.529h2.567v14.519h-2.567v-2.163Z"/><path class="d" d="M140.933,96.087v8.962h-2.567V90.538h2.567v3.481a5.769,5.769,0,0,1,5.106-3.846v2.615A7.288,7.288,0,0,0,140.933,96.087Z"/><path class="d" d="M156.462,103.337a5.394,5.394,0,0,1-4.269,2.1c-2.154,0-4.048-1.192-4.048-3.769,0-2.808,2.019-4.423,6-4.808l2.279-.192V94.74c0-1.923-1.413-2.288-2.635-2.288a8.654,8.654,0,0,0-4.3,1.125l-.606-1.923a11.1,11.1,0,0,1,5.587-1.519c2.6,0,4.519,1.1,4.519,3.971v10.933h-2.5Zm-3.635,0a4.462,4.462,0,0,0,3.6-1.923V98.644L153.538,99c-1.606.192-2.827.865-2.8,2.452-.029,1.115.683,1.856,2.087,1.856Z"/><path class="d" d="M165.5,94.856v10.192h-2.567V90.538H165.5V92.7a8.212,8.212,0,0,1,5.462-2.558c2.019,0,3.846,1.135,3.846,4.067v10.837H172.24V95.019c0-1.74-.8-2.548-2.183-2.548C168.356,92.471,166.558,93.76,165.5,94.856Z"/><path class="d" d="M189.913,104.115a7.692,7.692,0,0,1-4.269,1.288c-4.106,0-7.154-2.885-7.154-7.692s3.048-7.615,7.154-7.615a8.991,8.991,0,0,1,3.981.962l-.769,2.163a5.836,5.836,0,0,0-3.106-.875c-2.346,0-4.529,1.644-4.529,5.356s2.183,5.356,4.529,5.356a6.241,6.241,0,0,0,3.337-1.038Z"/><path class="d" d="M199.635,105.433c-4.3,0-7.125-2.885-7.125-7.577s3.019-7.692,6.808-7.692a5.769,5.769,0,0,1,5.9,6.029v1.644H195.192c0,3.644,2.183,5.288,4.885,5.288a6.567,6.567,0,0,0,3.942-1.317l.808,1.923A8.183,8.183,0,0,1,199.635,105.433Zm-4.24-9.615h7.288c-.288-2.385-1.442-3.615-3.433-3.615-1.837.038-3.337,1.2-3.856,3.654Z"/><path class="d" d="M228.2,103.644a8.8,8.8,0,0,1-5.106,1.577c-4.721,0-8.654-3.288-8.654-10.154s3.913-10.288,8.76-10.288a9.106,9.106,0,0,1,4.529,1.154L226.962,88a9.683,9.683,0,0,0-3.692-.808c-3.558,0-6.1,2.548-6.1,7.808s2.538,7.808,6.1,7.808a7.212,7.212,0,0,0,3.952-1.163Z"/><path class="d" d="M230.183,97.587c0-4.942,3.365-7.644,6.933-7.644s6.962,2.7,6.962,7.644-3.365,7.635-6.962,7.635S230.183,102.519,230.183,97.587Zm11.2,0c0-3.846-2.058-5.548-4.269-5.548s-4.24,1.74-4.24,5.548,2.058,5.538,4.24,5.538,4.231-1.74,4.231-5.538Z"/><path class="d" d="M88.856,55.962l1.048-.529c6.673-3.375,10.5-9.308,10.5-16.279,0-5.279-1.683-9.433-5.01-12.346-4.048-3.529-10.519-5.327-19.308-5.327A161.926,161.926,0,0,0,55.894,23.25V76.26H70.423V58.25h6.192l10.26,18.01h16.077Zm-13.106-6.5H70.423V32.154l.558-.087a29.491,29.491,0,0,1,4.51-.337c6.3,0,9.779,3.154,9.779,8.875C85.269,45.635,81.173,49.462,75.75,49.462Z"/><path class="d" d="M147.058,34.788a26.394,26.394,0,0,0-17.846-6.4,26.1,26.1,0,0,0-17.673,6.4c-4.962,4.5-7.577,10.913-7.577,18.538s2.615,14.038,7.577,18.529a26.115,26.115,0,0,0,17.683,6.375,26.423,26.423,0,0,0,17.846-6.375c4.962-4.481,7.587-10.885,7.587-18.529S152.019,39.279,147.058,34.788ZM135.779,64.183a7.875,7.875,0,0,1-12.894,0c-1.731-2.462-2.692-6.106-2.692-10.856s.894-8.394,2.673-10.865a7.846,7.846,0,0,1,12.894,0c1.779,2.462,2.683,6.125,2.683,10.865S137.558,61.731,135.779,64.183Z"/><path class="d" d="M231.106,58.135V43.269H241.6V32.442h-10.49V21.865l-15.048,4.567.067,36.067a15.913,15.913,0,0,0,3.913,11.067,14.115,14.115,0,0,0,10.731,4.317,51.028,51.028,0,0,0,13.337-1.7V63.462a24.615,24.615,0,0,1-6.808.962C232.154,64.423,231.106,61.875,231.106,58.135Z"/><path class="d" d="M203.144,34.788a26.394,26.394,0,0,0-17.846-6.4,26.115,26.115,0,0,0-17.683,6.4c-4.952,4.5-7.577,10.913-7.577,18.538s2.625,14.038,7.577,18.529A26.115,26.115,0,0,0,185.3,78.231a26.4,26.4,0,0,0,17.846-6.375c4.962-4.481,7.587-10.885,7.587-18.529S208.106,39.279,203.144,34.788ZM191.865,64.183a7.875,7.875,0,0,1-12.894,0c-1.779-2.462-2.673-6.106-2.673-10.856s.894-8.394,2.673-10.865a7.846,7.846,0,0,1,12.894,0c1.779,2.462,2.683,6.125,2.683,10.865S193.644,61.731,191.865,64.183Z"/></g></g></svg>