<svg xmlns="http://www.w3.org/2000/svg" xmlns:xlink="http://www.w3.org/1999/xlink" width="294" height="133" viewBox="0 0 294 133"><defs><style>.a{fill:#f5f5f5;}.b{clip-path:url(#a);}.c{fill:#fff;}.d{fill:#4a4a4a;}</style><clipPath id="a"><rect class="a" width="294" height="133" transform="translate(714 312)"/></clipPath></defs><g class="b" transform="translate(-714 -312)"><g transform="translate(714 316.308)"><rect class="c" width="294" height="124.385"/><path class="d" d="M75.884,67.554a1.536,1.536,0,0,1-1.527,1.536H63.681a1.536,1.536,0,0,1-1.489-1.536V56.831a1.536,1.536,0,0,1,1.527-1.536H74.358a1.536,1.536,0,0,1,1.527,1.536Zm9.15,8.057a2.676,2.676,0,0,1-2.667,2.676h-26.7A2.686,2.686,0,0,1,53,75.611V48.783A2.686,2.686,0,0,1,55.662,46.1h26.7a2.676,2.676,0,0,1,2.667,2.686ZM85.8,36.9H52.232a8.481,8.481,0,0,0-8.387,8.481V79.06a8.481,8.481,0,0,0,8.387,8.424H85.8a8.481,8.481,0,0,0,8.434-8.424V45.334a8.481,8.481,0,0,0-8.4-8.481"/><path class="d" d="M117.5,78.805a11.157,11.157,0,0,1-7.878-3.185,9.329,9.329,0,0,1-2.827-6.6h3.025a6.3,6.3,0,0,0,1.885,4.467,8.1,8.1,0,0,0,5.739,2.3h0c4.212,0,7.642-2.968,7.642-6.6,0-2.742-1.508-4.909-8.829-6.6-2.978-.688-4.985-1.611-6.323-2.912a7.454,7.454,0,0,1-2.12-5.654c0-4.712,4.24-8.622,9.423-8.622a9.979,9.979,0,0,1,6.6,2.431A8.142,8.142,0,0,1,126.656,54H123.64c0-3.072-2.9-5.56-6.474-5.56s-6.436,2.563-6.436,5.588c0,2.77.942,4.4,6.106,5.654,5.663,1.187,11.317,3.336,11.317,9.47a9.141,9.141,0,0,1-3.176,6.879,11.2,11.2,0,0,1-7.491,2.77Z"/><path class="d" d="M144.117,57.273a9.423,9.423,0,1,0,9.15,9.423,9.282,9.282,0,0,0-9.15-9.423m8.98,30.154V74.141h-.085a10.365,10.365,0,0,1-8.9,4.57,12.043,12.043,0,1,1,0-24.076,10.365,10.365,0,0,1,8.9,4.608h.085V55.219h2.921V87.446Z"/><path class="d" d="M197.96,57.273A9.423,9.423,0,1,0,207.1,66.7a9.272,9.272,0,0,0-9.14-9.423m8.98,20.938V74.141h-.085a10.478,10.478,0,0,1-8.9,4.57,12.043,12.043,0,0,1,0-24.085,10.215,10.215,0,0,1,8.9,4.617h.085V55.219h2.921V78.212Z"/><path class="d" d="M218.615,64.746V78.212h-2.921V55.219h2.921v3.307h.085c1.253-2.931,3.468-3.684,6.427-3.9v3.11c-4,.339-6.511,2.893-6.511,7.011"/><path class="d" d="M238.215,57.273a9.037,9.037,0,0,0-8.9,7.849h17.828a9.084,9.084,0,0,0-8.933-7.849m11.892,10.488H229.32a9.065,9.065,0,0,0,8.848,8.311,8.641,8.641,0,0,0,8.189-5.4h3.081a11.93,11.93,0,1,1-11.308-16.019A12.25,12.25,0,0,1,250.117,66.9c0,.292-.047.547-.047.839"/><path class="d" d="M178.7,78.212V74.631h-.085c-1.338,2.827-4.325,4.137-7.341,4.137a9.857,9.857,0,0,1-7.887-3.458c-1.64-2.064-2.017-4.853-2.017-7.416V55.144h2.94v12.7c0,4.768,1.715,8.264,6.964,8.264a6.6,6.6,0,0,0,4.862-1.885c2.017-1.885,2.393-4.222,2.393-6.917V55.144h2.94V78.212Z"/></g></g></svg>