<svg xmlns="http://www.w3.org/2000/svg" xmlns:xlink="http://www.w3.org/1999/xlink" width="294" height="133" viewBox="0 0 294 133"><defs><style>.a{fill:#f5f5f5;}.b{clip-path:url(#a);}.c{fill:#fff;}.d{fill:#4a4a4a;}</style><clipPath id="a"><rect class="a" width="294" height="133" transform="translate(714 312)"/></clipPath></defs><g class="b" transform="translate(-714 -312)"><g transform="translate(714 316.308)"><rect class="c" width="294" height="124.385"/><path class="d" d="M181.762,46.4a13.117,13.117,0,1,0,13.051,13.117A13.117,13.117,0,0,0,181.762,46.4Zm0,23.869a10.752,10.752,0,1,1,10.7-10.752,10.752,10.752,0,0,1-10.7,10.752Z"/><path class="d" d="M222.564,55.6a11.647,11.647,0,0,0-5.277-1.253,11.807,11.807,0,0,0,0,23.6,11.647,11.647,0,0,0,5.277-1.253V69.589a6.785,6.785,0,0,1-5.268,2.629,6.04,6.04,0,0,1,0-12.071,6.775,6.775,0,0,1,5.268,2.629Z"/><path class="d" d="M48.538,54.352l8.01,17.668,7.831-17.838L68.9,77.09H66.47l-2.789-14.87-7.133,15.4L49.236,62.051l-2.959,14.86H43.846Z"/><path class="d" d="M94.316,66.244H85.957v8.745h8.877v2.1H83.526V54.88H94.834v2.45H85.957v6.822h8.528Z"/><path class="d" d="M124.771,58.423c-2.827-3.317-9.574-3.5-9.574-3.5l-4.174.179V77.269h4.344s5.569,0,8.877-3.5,3.307-6.116,3.307-7.341A12.052,12.052,0,0,0,124.771,58.423ZM122.783,71.86c-2.328,2.629-6.257,2.629-6.257,2.629h-3.072V57.782l2.949-.132s4.787.132,6.747,2.638a9.423,9.423,0,0,1,1.969,6.05C125.12,67.253,125.12,69.231,122.783,71.86Z"/><path class="d" d="M157.224,56.925c-1.3-1.64-5.578-2.1-5.578-2.1h-9.423V77.156H148V69.872h4.57a6.191,6.191,0,0,0,5.286-2.563,8.311,8.311,0,0,0,1.2-5.117,7.586,7.586,0,0,0-1.828-5.268Zm-4.636,7.246a3.223,3.223,0,0,1-2.582,1.027h-2.064V59.544h2.214a3.845,3.845,0,0,1,2.544,1.084,2.827,2.827,0,0,1,.556,1.96c-.047.405.179.433-.669,1.583Z"/><path class="d" d="M169.842,77.26h6.087l5.4-14.512h.7L186.9,77.26h6.266l-8.358-22.2h-6.436Z"/><path class="d" d="M249.636,68.43H243.5V72.5h6.653v4.721H237.631V54.927h12.523V59.78H243.5v3.8h6.266Z"/></g></g></svg>