<svg xmlns="http://www.w3.org/2000/svg" xmlns:xlink="http://www.w3.org/1999/xlink" width="300" height="133" viewBox="0 0 300 133"><defs><style>.a{fill:#f5f5f5;}.b{clip-path:url(#a);}.c{fill:#fff;}.d{fill:#4a4a4a;}</style><clipPath id="a"><rect class="a" width="300" height="133" transform="translate(390 312)"/></clipPath></defs><g class="b" transform="translate(-390 -312)"><g transform="translate(390 315.038)"><rect class="c" width="300" height="126.923"/><path class="d" d="M83,29.269c.885.077,1.76.125,2.644.221a36.82,36.82,0,0,1,31.712,29.077,37.287,37.287,0,0,1,.654,4.615,36.21,36.21,0,0,1,0,5.4,36.856,36.856,0,0,1-25.3,32.558,36.2,36.2,0,0,1-6.731,1.49c-.962.125-1.923.2-2.827.25a.322.322,0,0,0-.231.058H45.029c-.1-.1-.221-.163-.288-.288V65.24l.2-2.471a32.184,32.184,0,0,1,.76-4.894A36.538,36.538,0,0,1,57.692,38.01a36,36,0,0,1,15.173-7.75,35.509,35.509,0,0,1,7.587-.962C81.327,29.26,82.163,29.269,83,29.269ZM51.654,79.856V95.308c0,.663,0,.7.7.7H83.279a28.461,28.461,0,0,0,5.308-.817A29.913,29.913,0,0,0,111.2,67.615a28.846,28.846,0,0,0-.356-6.365,29.865,29.865,0,0,0-10.74-18.423,29.514,29.514,0,0,0-27.481-5.24,30.269,30.269,0,0,0-19.74,20.25,30.769,30.769,0,0,0-1.2,8.721Q51.654,73.2,51.654,79.856Z"/><path class="d" d="M255.26,81.731a.519.519,0,0,1-.51.192h-5.125c-.471,0-.548-.077-.548-.548V67.308a7.684,7.684,0,0,0-.144-1.479,3.038,3.038,0,0,0-2.693-2.675,5.981,5.981,0,0,0-3.048.24,4.221,4.221,0,0,0-2.548,2.587,7.539,7.539,0,0,0-.442,2.692V81.192c0,.644,0,.683-.673.683H234.4c-.288,0-.385-.106-.4-.394V50.962c0-.663,0-.663.673-.663h5.24a.288.288,0,0,1,.279.279,1.857,1.857,0,0,1,0,.327V61.365a.962.962,0,0,0,.3-.337A7.4,7.4,0,0,1,245.644,58a10.413,10.413,0,0,1,3.971.115,6.875,6.875,0,0,1,5.413,5.606,6.538,6.538,0,0,1,.163,1.154c0,.3.077.577.058.875Z"/><path class="d" d="M255.26,65.75a6.685,6.685,0,0,1-.058-.875h.058Z"/><path class="d" d="M44.74,102.654c.067.125.192.192.288.288C44.74,102.942,44.74,102.942,44.74,102.654Z"/><path class="d" d="M141.067,61.356c.221-.288.4-.548.606-.788a7.144,7.144,0,0,1,3.846-2.385,10.25,10.25,0,0,1,5.144,0,6.788,6.788,0,0,1,5.106,5.077,10.115,10.115,0,0,1,.356,2.779v15.24a2.159,2.159,0,0,1,0,.25.346.346,0,0,1-.327.337,1.452,1.452,0,0,1-.288,0h-5.24a.365.365,0,0,1-.365-.375V67.25a6.732,6.732,0,0,0-.144-1.519,3.077,3.077,0,0,0-2.885-2.663,6.2,6.2,0,0,0-2.587.192,4.192,4.192,0,0,0-2.779,2.587,7.461,7.461,0,0,0-.471,2.788q0,6.274,0,12.5c0,.673,0,.712-.692.712h-5.192a.337.337,0,0,1-.327-.337q0-.144,0-.288V50.779c0-.394.087-.471.481-.471h5.24c.423,0,.5.087.5.519V60.9A1.1,1.1,0,0,0,141.067,61.356Z"/><path class="d" d="M199.212,79.058a13.912,13.912,0,0,1-1.048,1.067,9.1,9.1,0,0,1-5.433,2.3,9.615,9.615,0,0,1-3.6-.308,6.26,6.26,0,0,1-4.519-5.471,8.99,8.99,0,0,1,.26-3.394,6.423,6.423,0,0,1,3.74-4.26,11.125,11.125,0,0,1,3.038-.827c1.654-.25,3.317-.4,4.962-.731a7.692,7.692,0,0,0,1.375-.452,1.635,1.635,0,0,0,1.048-1.317,2.019,2.019,0,0,0-.885-2.163,4.192,4.192,0,0,0-1.837-.635,6.731,6.731,0,0,0-2.673.1,3.01,3.01,0,0,0-2.3,2.644c-.048.385-.115.452-.51.452h-4.942c-.375,0-.471-.087-.442-.452a7.759,7.759,0,0,1,2.231-5.24,7.933,7.933,0,0,1,3.231-1.846,15.385,15.385,0,0,1,3.5-.606,20.365,20.365,0,0,1,2.885,0,10.894,10.894,0,0,1,4.808,1.423,5.942,5.942,0,0,1,2.885,3.846,7.03,7.03,0,0,1,.173,1.558V77.663a12.829,12.829,0,0,0,.077,1.606,1.923,1.923,0,0,0,.962,1.558.731.731,0,0,1,.2.837.308.308,0,0,1-.231.163h-5.856c-.462,0-.5,0-.606-.49A13.525,13.525,0,0,1,199.212,79.058Zm-.173-8.452-.183.077a9.434,9.434,0,0,1-1.923.692c-.962.24-1.923.385-2.952.587a5.019,5.019,0,0,0-2.1.856,2.731,2.731,0,0,0-1.077,1.76,4.008,4.008,0,0,0,0,1.269A2.442,2.442,0,0,0,192.923,78a5.856,5.856,0,0,0,4.567-1.24,3.7,3.7,0,0,0,1.212-1.529,5.635,5.635,0,0,0,.385-1.99c0-.808,0-1.606,0-2.413C199.1,70.76,199.125,70.683,199.038,70.606Z"/><path class="d" d="M173.519,71.721H166c-.413,0-.413,0-.375.4a10.357,10.357,0,0,0,.481,2.356,4.163,4.163,0,0,0,3.394,2.942,6.26,6.26,0,0,0,2.673,0,4.711,4.711,0,0,0,2.163-1.192,2.884,2.884,0,0,0,.683-1.029c.125-.337.154-.346.51-.346h5.308c.442,0,.558.144.423.587a8.875,8.875,0,0,1-3.4,4.9,11.009,11.009,0,0,1-4.721,1.923,15.481,15.481,0,0,1-4.163.144,10.269,10.269,0,0,1-5.644-2.173,10.048,10.048,0,0,1-3.125-4.663,15.952,15.952,0,0,1-.76-3.74,22.406,22.406,0,0,1,0-3.212,12.856,12.856,0,0,1,1.394-5.433,9.442,9.442,0,0,1,6.471-4.962,14.211,14.211,0,0,1,4.51-.308,11.913,11.913,0,0,1,3.846.913,9.26,9.26,0,0,1,4.471,4.183,13.144,13.144,0,0,1,1.288,4.288,22.689,22.689,0,0,1,.212,2.8,8.642,8.642,0,0,1-.067,1.317c0,.288,0,.288-.337.3h-7.692Zm-7.865-3.99a.827.827,0,0,0,.423,0h8.8c.308,0,.317,0,.279-.3a8.778,8.778,0,0,0-.423-1.769,3.952,3.952,0,0,0-2.615-2.51,5.769,5.769,0,0,0-2.837-.1,3.769,3.769,0,0,0-2,1.106A6.971,6.971,0,0,0,165.654,67.731Z"/><path class="d" d="M220.856,70.192V62.865c0-.433,0-.394-.394-.394h-2.327c-.433,0-.5-.067-.5-.519v-3.3c0-.452.058-.51.538-.519h2.356c.317,0,.327,0,.327-.317V52.644c0-.327.1-.423.413-.423h5.183c.471,0,.548.067.548.548v4.923c0,.558-.048.481.49.481h2.731c.423,0,.51.077.51.51v3.279c0,.452-.077.529-.538.529H227.4c-.394,0-.394,0-.394.394V76.327a.962.962,0,0,0,.808.962,8.058,8.058,0,0,0,1.442.144h1.058c.356,0,.413.1.413.413v3.731c0,.337-.106.442-.462.462-.567,0-1.135.058-1.712.067H226.2a9.442,9.442,0,0,1-2.433-.385,3.846,3.846,0,0,1-2.885-3.452,10.079,10.079,0,0,1-.067-1.317Z"/><path class="d" d="M214.606,66.115V81.24c0,.577-.058.635-.615.635h-5.2a.317.317,0,0,1-.317-.337q0-.144,0-.288V50.962c0-.606,0-.625.606-.625h5.192a.308.308,0,0,1,.327.317v.327Z"/><path class="d" d="M68.365,66.087V50.962c0-.606,0-.625.615-.625h5.885c.26,0,.346.106.365.365V64.4a.356.356,0,0,0,.212.317.317.317,0,0,0,.365-.1l.231-.231q4.25-4.26,8.481-8.529a.961.961,0,0,1,.74-.3h8.471a.288.288,0,0,1,.317.183.346.346,0,0,1-.087.4l-.2.2-8.971,9.029c-.356.356-.327.26-.077.654l9.375,15.077a1.692,1.692,0,0,1,.135.221c.154.3,0,.519-.317.548a1.7,1.7,0,0,1-.221,0H86.952a.731.731,0,0,1-.7-.394q-3.173-5.125-6.356-10.221c-.317-.51-.423-.529-.837-.106-1.173,1.163-2.327,2.346-3.5,3.51a.875.875,0,0,0-.3.7q0,2.885,0,5.846c0,.6,0,.615-.606.615H68.692a.3.3,0,0,1-.3-.308V66.087Z"/></g></g></svg>