<svg xmlns="http://www.w3.org/2000/svg" xmlns:xlink="http://www.w3.org/1999/xlink" width="294" height="132" viewBox="0 0 294 132"><defs><style>.a{fill:#f5f5f5;}.b{clip-path:url(#a);}.c{fill:#fff;}.d{fill:#4a4a4a;}</style><clipPath id="a"><rect class="a" width="294" height="132" transform="translate(714 156)"/></clipPath></defs><g class="b" transform="translate(-714 -156)"><g transform="translate(714 159.808)"><rect class="c" width="294" height="124.385"/><path class="d" d="M95.541,55.6l-2.026,2.412c-1.838-1.592-3.025-1.988-4.533-1.988-3.232,0-5.211,2.4-5.211,6.172s2.035,6.191,5.154,6.191c1.885,0,3-.7,4.862-2.262l2.026,2.356a9.159,9.159,0,0,1-6.832,2.959c-5.484,0-8.763-3.967-8.763-9.291,0-5.154,3.138-9.169,8.763-9.169a9.046,9.046,0,0,1,6.558,2.62Z"/><path class="d" d="M109.477,64.652a6.6,6.6,0,0,1-13.192,0,6.6,6.6,0,1,1,13.192,0Zm-9.885,0c0,2.45,1.31,4,3.317,4s3.3-1.545,3.3-4-1.319-4.024-3.3-4.024S99.593,62.192,99.593,64.652Z"/><path class="d" d="M114.283,70.993H111.07v-17.6h3.213Z"/><path class="d" d="M119.814,70.993h-3.223v-17.6h3.223Z"/><path class="d" d="M131.923,66.9l1.809,1.988a7.369,7.369,0,0,1-5.654,2.478c-4.08,0-6.6-2.629-6.6-6.672s2.375-6.813,6.361-6.813,5.927,2.431,5.927,6.323a10.655,10.655,0,0,1-.047,1.263h-9.074a3.345,3.345,0,0,0,3.505,3.185C129.6,68.657,130.4,68.167,131.923,66.9Zm-7.256-3.769h5.918a2.7,2.7,0,0,0-2.827-2.752,3.124,3.124,0,0,0-3.128,2.8Z"/><path class="d" d="M141.271,60.628c-2.13,0-3.27,1.809-3.27,4.024s1.14,3.986,3.251,3.986c1.234,0,2.13-.547,3.439-1.96l2.13,1.79c-1.809,2.252-3.421,2.921-5.654,2.921-3.816,0-6.464-2.582-6.464-6.738s2.733-6.747,6.54-6.747a6.6,6.6,0,0,1,5.333,2.4l-2.007,1.979C143.146,60.93,142.288,60.628,141.271,60.628Z"/><path class="d" d="M155.66,70.805a8.669,8.669,0,0,1-2.827.462c-2.573,0-3.609-1.216-3.609-3.562V60.779h-2.252V58.319h2.252V54.409h3.223v3.911h3.034v2.459h-3.025v6.6c0,.886.424,1.159,1.263,1.159a5.945,5.945,0,0,0,1.583-.217Z"/><path class="d" d="M160.145,70.993h-3.223V58.329h3.223Z"/><path class="d" d="M173.658,58.319l-4.316,12.674h-3.911l-4.3-12.674h3.392l1.319,4.127c.669,2.214,1.216,4.071,1.63,5.758.424-1.687.942-3.543,1.621-5.758l1.263-4.127Z"/><path class="d" d="M184.061,66.9l1.8,1.988a7.35,7.35,0,0,1-5.654,2.478c-4.09,0-6.6-2.629-6.6-6.672s2.384-6.813,6.351-6.813,5.918,2.431,5.918,6.323a10.26,10.26,0,0,1,0,1.263h-9.074a3.355,3.355,0,0,0,3.571,3.166C181.781,68.657,182.582,68.167,184.061,66.9ZM176.8,63.135h5.927a2.7,2.7,0,0,0-2.883-2.752c-1.762,0-2.686,1.121-3.034,2.752Z"/><path class="d" d="M208.712,70.965h-3.468V63.182h-7.859v7.783h-3.468v-17.6h3.468v6.9h7.859v-6.9h3.468Z"/><path class="d" d="M220.783,66.9l1.809,1.979a7.35,7.35,0,0,1-5.654,2.478c-4.09,0-6.6-2.62-6.6-6.672s2.375-6.813,6.37-6.813c3.854,0,5.918,2.431,5.918,6.323a10.182,10.182,0,0,1-.047,1.263h-9.1a3.364,3.364,0,0,0,3.571,3.176C218.5,68.638,219.294,68.138,220.783,66.9Zm-7.265-3.769h5.927a2.686,2.686,0,0,0-2.827-2.742A3.094,3.094,0,0,0,213.518,63.135Z"/><path class="d" d="M235.1,62.418v8.547h-2.9v-1.31a4.712,4.712,0,0,1-4.08,1.734c-2.412,0-4.542-1.037-4.542-3.609,0-2.931,2.6-3.939,5.475-4.467l2.978-.509v-.3c0-1.244-.942-1.885-2.375-1.885-1.743,0-2.629.792-3.948,2.064L223.676,60.8a7.265,7.265,0,0,1,5.937-2.827C233.249,57.9,235.1,59.733,235.1,62.418Zm-3.091,3.392v-.744l-2.13.452c-1.885.4-3.176.839-3.176,2.026,0,.792.716,1.263,1.885,1.263,1.677,0,3.411-.792,3.411-3Z"/><path class="d" d="M131.923,66.9l1.809,1.988a7.369,7.369,0,0,1-5.654,2.478c-4.08,0-6.6-2.629-6.6-6.672s2.375-6.813,6.361-6.813,5.927,2.431,5.927,6.323a10.655,10.655,0,0,1-.047,1.263h-9.074a3.345,3.345,0,0,0,3.505,3.185C129.6,68.657,130.4,68.167,131.923,66.9Zm-7.256-3.769h5.918a2.7,2.7,0,0,0-2.827-2.752,3.124,3.124,0,0,0-3.128,2.8Z"/><path class="d" d="M240.468,70.965h-3.213v-17.6h3.213Z"/><path class="d" d="M250.437,70.805a8.66,8.66,0,0,1-2.827.462c-2.582,0-3.609-1.216-3.609-3.562V60.751H241.74V58.3H244v-3.92h3.213V58.3h3.025v2.45h-3.025v6.6c0,.942.424,1.168,1.272,1.168a6.37,6.37,0,0,0,1.574-.245Z"/><path class="d" d="M263.055,62.287v8.679h-3.213V63.257c0-1.658-.82-2.6-2.356-2.6a2.507,2.507,0,0,0-2.582,2.676v7.633h-3.223v-17.6H254.9V59.45a4.485,4.485,0,0,1,3.609-1.545C261.462,57.9,263.055,59.714,263.055,62.287Z"/><path class="d" d="M160.418,54.927a1.885,1.885,0,1,1-1.885-1.885,1.8,1.8,0,0,1,1.338.537A1.885,1.885,0,0,1,160.418,54.927Z"/><path class="d" d="M50.7,78.664a16.472,16.472,0,0,1,0-32.934V42.4a19.788,19.788,0,0,0,0,39.577Z"/><path class="d" d="M50.7,49a13.192,13.192,0,1,1,0,26.385v3.3a16.472,16.472,0,0,0,0-32.934Z"/><path class="d" d="M50.7,75.385A13.192,13.192,0,1,1,50.7,49v3.3a9.894,9.894,0,1,0,0,19.788Z"/></g></g></svg>