<svg xmlns="http://www.w3.org/2000/svg" xmlns:xlink="http://www.w3.org/1999/xlink" width="294" height="132" viewBox="0 0 294 132"><defs><style>.a{fill:#f5f5f5;}.b{clip-path:url(#a);}.c{fill:#fff;}.d{fill:#4a4a4a;}</style><clipPath id="a"><rect class="a" width="294" height="132" transform="translate(72 156)"/></clipPath></defs><g class="b" transform="translate(-72 -156)"><g transform="translate(72 159.808)"><rect class="c" width="294" height="124.385"/><path class="d" d="M82.753,33.923c-1.951-1.432-5.494-2.752-11.506.631-.405.236-.8.481-1.14.631-.942-.4-2.007-.8-3.213-1.263a53.335,53.335,0,0,1-12.712-5.937c-4.712-2.978-7.359-6.2-8.556-11.213-.245-.942-.481-.942-.81.641-2.469,11.213,1.027,19.214,7.9,23.558.236.113.349.17.123-.17-5.211-5.409-7.793-11.308-7.048-19,3.034,6.219,12.307,11.006,20.269,13.635.744.236,1.489.518,2.12.754-2.629,1.206-5.1,2.007-8.415,3.279C49.942,43.063,44.194,50.6,43.846,61.646c0,.292.113.349.226.057,3.769-4.429,7.209-7.878,11.685-10.365a34.479,34.479,0,0,1,11.854-3.684,3.468,3.468,0,0,0,3.383-3.562c2.563.481,4.712-1.15,4.457-3.92-.17-1.611-1.2-2.931-3.543-4.193,4.806-2.931,8.415-2.073,9.847-.867a18.848,18.848,0,0,0,2.978,2.13c-5.041,1.885-4.985,7.482-10.827,10.808-5.277,2.987-9.1,1.206-12.768,3.505-.179.113-.113.179.057.113,3.948-1.234,8.537.368,13.475-2.186,2.827-1.5,4.806-4.09,7.209-7.708,1.951-2.94,4.523-3.769,6.869-4.306a21.767,21.767,0,0,1-5.955-3.543m-9.178,7.831c-.735,1.442-3.43.81-4.919.123-.17-.123-.226,0-.113.113,1.423,2.073.942,3.911-1.206,4.137a31.812,31.812,0,0,0-21.532,11.44c1.828-8.99,7.727-14.135,14.6-16.641a95.524,95.524,0,0,0,9.743-3.911c3.835,1.885,4,3.571,3.43,4.712"/><path class="d" d="M78.89,72.7v.057c0,.057-.057.057-.057.113a7.463,7.463,0,0,1-1.668,2.591,3.892,3.892,0,0,1-2.723,1.329c-1.093,0-1.6-.631-1.6-1.96a4.062,4.062,0,0,1,.113-.942c-1.319,1.96-2.827,2.931-4.353,2.931a2.648,2.648,0,0,1-2.233-1.093,3.986,3.986,0,0,1-.688-2.412,11.6,11.6,0,0,1,2.573-6.6c1.715-2.393,3.769-3.854,5.654-3.854a2.488,2.488,0,0,1,2.064,1.1c.17-.575.481-.942.942-.942.942,0,1.385.17,1.385.481,0,.057-.236.8-.688,2.13-1.781,5.352-2.638,8.4-2.638,9.2,0,.405.122.575.405.575.565,0,1.206-.509,1.951-1.555a17.035,17.035,0,0,1,1.15-1.593.481.481,0,0,1,.4.481M75.262,65.2a1.4,1.4,0,0,0-.4-1.037,1.423,1.423,0,0,0-.942-.471c-1.263,0-2.573,1.319-3.9,4.024a13.843,13.843,0,0,0-1.885,5.814c0,1.329.481,1.96,1.319,1.96,1.263,0,2.469-1.272,3.769-3.769a24.5,24.5,0,0,0,1.951-5.465c.057-.518.17-.867.17-1.037"/><path class="d" d="M97.519,60.732c0,3.967-2.695,5.984-8.094,5.984-.688,0-1.432-.066-2.243-.122v5.381c0,1.885.349,2.931.942,3.223.057,0,.481.17,1.263.405.481.113.688.283.688.481s-.17.339-.481.339H81.519c-.292,0-.481-.113-.481-.339s.226-.349.688-.481a5.974,5.974,0,0,0,1.263-.405c.622-.283.942-1.385.942-3.223V59.723c0-1.885-.349-2.931-.942-3.223-.057,0-.481-.179-1.263-.405-.481-.113-.688-.292-.688-.481s.17-.339.481-.339H90.33a8.641,8.641,0,0,1,4.985,1.263,4.542,4.542,0,0,1,2.177,4.2m-3.5,0a4.778,4.778,0,0,0-1.206-3.628,4.891,4.891,0,0,0-3.666-1.037c-1.272,0-1.885.292-1.885.867v8.481a11.41,11.41,0,0,0,1.6.179C92.28,65.547,94,63.926,94,60.713"/><path class="d" d="M104.888,76.035c0,.236-.17.349-.481.349H98c-.283,0-.471-.113-.471-.349s.226-.283.678-.4a3.034,3.034,0,0,0,1.263-.481c.236-.17.349-.575.405-1.329V58.15a1.95,1.95,0,0,0-.17-1.037c-.122-.17-.405-.226-.942-.226-.744,0-1.15-.113-1.15-.349s.236-.481.688-.518a22.277,22.277,0,0,0,3.383-.942.7.7,0,0,1,.339-.057.33.33,0,0,1,.349.311h0a9.226,9.226,0,0,1,.057,1.442V72.039c0,2.007.113,3.11.4,3.223a7.275,7.275,0,0,0,1.263.4c.575.057.8.236.744.405"/><path class="d" d="M119.145,74.31a2.827,2.827,0,0,1-2.827,2.29,2.5,2.5,0,0,1-2.61-2.158,6.7,6.7,0,0,1-4.589,2.186,2.968,2.968,0,0,1-3.2-2.714,2.3,2.3,0,0,1,0-.509c0-1.885.942-3.166,2.921-4.08a17.6,17.6,0,0,1,4.862-1.15,7.435,7.435,0,0,0-.481-3.684c-.368-.575-.942-.744-2-.688a1.724,1.724,0,0,0-1.715.857c-.113.518-.283.942-.4,1.5a1.206,1.206,0,0,1-1.263.8c-.858,0-1.319-.4-1.319-1.14,0-.942.631-1.724,1.885-2.3a7.84,7.84,0,0,1,3.147-.575c3.213,0,4.806,1.15,4.806,3.345V73.66c0,1.1.292,1.611.942,1.611a1.112,1.112,0,0,0,.942-.631c.292-.4.481-.631.575-.631a.443.443,0,0,1,.283.113c.057.057.123.179.057.236m-5.437-1.885V69.062a11.826,11.826,0,0,0-3.336,1.037,3.081,3.081,0,0,0-1.772,2.827,2.045,2.045,0,0,0,.565,1.555,1.828,1.828,0,0,0,1.5.575,3.147,3.147,0,0,0,2.111-.744,2.469,2.469,0,0,0,.942-1.885"/><path class="d" d="M130.839,74.31a5.871,5.871,0,0,1-4.712,2.535,6.1,6.1,0,0,1-4.712-1.885,7.011,7.011,0,0,1-1.772-4.947,7.133,7.133,0,0,1,1.913-5.145,6.982,6.982,0,0,1,7.68-1.442c1.093.518,1.658,1.15,1.658,1.96s-.4,1.15-1.2,1.15a1.3,1.3,0,0,1-1.15-.688c-.264-.452-.518-.942-.744-1.385a1.8,1.8,0,0,0-1.489-.688,3.232,3.232,0,0,0-2.978,1.885,8.283,8.283,0,0,0-.8,3.769,7.915,7.915,0,0,0,.942,4.033,3.515,3.515,0,0,0,3.336,2.017,3.769,3.769,0,0,0,2.4-.942,20.961,20.961,0,0,0,1.489-1.555c.113-.113.17-.17.292-.17s.283.17.283.481a2.111,2.111,0,0,1-.481,1.027"/><path class="d" d="M144.456,68.675a.377.377,0,0,1-.339.4H135.24c0,.292-.057.518-.057.631a7.425,7.425,0,0,0,.942,3.977,3.684,3.684,0,0,0,3.373,1.885,5.032,5.032,0,0,0,2.525-.631,16.016,16.016,0,0,0,1.6-1.5.4.4,0,0,1,.283-.113c.292,0,.405.113.405.339a1.565,1.565,0,0,1-.113.292,5.72,5.72,0,0,1-5.381,2.827,6.182,6.182,0,0,1-4.712-1.885,6.6,6.6,0,0,1-1.772-4.778,7.416,7.416,0,0,1,1.772-5.07,5.955,5.955,0,0,1,4.815-2.13,5.465,5.465,0,0,1,3.769,1.329,5.71,5.71,0,0,1,1.828,4.372m-2.827-1.263c-.113-2.365-1.093-3.571-2.827-3.515q-2.827,0-3.439,4.146H139.2c1.715-.057,2.572-.236,2.525-.631"/><path class="d" d="M161.917,56.586a1.4,1.4,0,0,1-.283.81,1.018,1.018,0,0,1-.744.339c-.481,0-.857-.339-1.14-1.037s-.631-1.027-1.1-1.027a2.827,2.827,0,0,0-2.459,1.885,19.7,19.7,0,0,0-1.027,3.166l-.8,2.827h3.006c.283,0,.4.113.4.339a.556.556,0,0,1-.5.631.264.264,0,0,1-.122,0H154.2l-2.978,11.308a26.328,26.328,0,0,1-2.045,5.8c-1.263,2.243-2.752,3.392-4.636,3.392a2.883,2.883,0,0,1-1.885-.575,1.885,1.885,0,0,1-.792-1.611c0-.942.4-1.319,1.2-1.319.575,0,.942.226,1.027.631a6.276,6.276,0,0,1,.066,1.263c0,.481.226.688.622.688.857,0,1.6-.744,2.243-2.29a23.941,23.941,0,0,0,1.027-3.4l3.666-13.993h-3.1c-.17,0-.283-.113-.283-.349,0-.481.17-.631.575-.631h2.978a21.976,21.976,0,0,1,2.346-5.654c1.319-2.073,2.827-3.166,4.806-3.166a4.711,4.711,0,0,1,1.951.481,1.79,1.79,0,0,1,.942,1.5"/><path class="d" d="M166.958,67.752a10.884,10.884,0,0,1-1.885,5.927c-1.376,2.064-3.091,3.166-5.032,3.166a3.326,3.326,0,0,1-2.978-1.555,5.729,5.729,0,0,1-.942-3.355,10.535,10.535,0,0,1,1.885-5.927c1.423-2.13,3.091-3.166,5.032-3.166a3.336,3.336,0,0,1,2.978,1.555,5.786,5.786,0,0,1,.942,3.355m-2.177-1.611c0-1.611-.565-2.478-1.668-2.478-1.263,0-2.412,1.329-3.43,3.967a15.171,15.171,0,0,0-1.319,5.654c0,1.724.565,2.582,1.772,2.582s2.346-1.319,3.383-4.024a17.687,17.687,0,0,0,1.263-5.654"/><path class="d" d="M178.973,64.416a1.885,1.885,0,0,1-.283.942.942.942,0,0,1-.8.481c-.339,0-.565-.226-.8-.631s-.4-.631-.688-.631c-1.093,0-2.827,3.911-5.371,11.8h-2.356l1.781-6.1a45.755,45.755,0,0,0,1.376-5.409c0-.405-.17-.518-.471-.518a2.186,2.186,0,0,0-1.545.942,12.69,12.69,0,0,0-.942,1.668.565.565,0,0,1-.518.349c-.283,0-.471-.122-.471-.349l.057-.113a6.182,6.182,0,0,1,1.545-2.7,3.656,3.656,0,0,1,2.686-1.329c1.027,0,1.611.631,1.611,1.885a4.259,4.259,0,0,1-.236,1.376c-.113.481-.283.942-.4,1.395,1.489-3.11,2.921-4.712,4.24-4.712a1.432,1.432,0,0,1,1.084.481,1.357,1.357,0,0,1,.518,1.15"/><path class="d" d="M206.243,76.035c0,.236-.17.349-.481.349h-7.821c-.292,0-.481-.113-.481-.349s.226-.339.688-.471a5.974,5.974,0,0,0,1.263-.405c.631-.283.942-1.385.942-3.223V57.8l-7.68,18.177c-.17.405-.339.631-.4.631a1.941,1.941,0,0,1-.518-.8L185.1,60.562A11.458,11.458,0,0,0,184,58.489l.179,13.466a11.4,11.4,0,0,0,.113,1.96,1.527,1.527,0,0,0,.858,1.263c.057,0,.471.17,1.263.405.471.113.678.283.678.471s-.17.349-.471.349h-6.266c-.283,0-.481-.113-.481-.349s.236-.339.688-.471a5.974,5.974,0,0,0,1.263-.405,1.536,1.536,0,0,0,.858-1.329,12.957,12.957,0,0,0,.113-1.885l.17-14.728a12.543,12.543,0,0,0-1.376-.81,7.538,7.538,0,0,1-1.263-.4c-.471-.113-.678-.292-.678-.481s.17-.339.471-.339h3.571a8.188,8.188,0,0,1,2.346.17,4.551,4.551,0,0,1,.942,1.555l6.361,14.954L200.184,55.6a.8.8,0,0,1,.8-.481h4.862c.283,0,.471.123.471.349s-.226.349-.678.481a5.955,5.955,0,0,0-1.263.4c-.631.292-.942,1.395-.942,3.232v12.25c0,1.885.339,2.931.942,3.223.057,0,.471.179,1.263.405.4.226.622.349.622.575"/><path class="d" d="M220.443,69.731a7.133,7.133,0,0,1-1.951,5.126A6.945,6.945,0,0,1,206.7,70.673a4.715,4.715,0,0,1,0-.726,6.907,6.907,0,0,1,1.941-5.06,6.728,6.728,0,0,1,4.985-1.96,6.511,6.511,0,0,1,4.862,1.96,6.445,6.445,0,0,1,1.951,4.843m-2.827.179a9.225,9.225,0,0,0-.8-4.09,3.59,3.59,0,0,0-4.8-1.743,3.637,3.637,0,0,0-1.743,1.781,9.244,9.244,0,0,0-.8,4.033,8.99,8.99,0,0,0,.8,3.967,3.373,3.373,0,0,0,3.27,2.017,3.458,3.458,0,0,0,3.26-2.017,7.812,7.812,0,0,0,.8-3.967"/><path class="d" d="M246.206,76.035c0,.236-.17.349-.471.349h-6.389c-.292,0-.481-.113-.481-.349s.226-.283.688-.4a3.713,3.713,0,0,0,1.319-.481c.226-.17.339-1.263.339-3.223V68.082a5.908,5.908,0,0,0-.471-2.648,2.356,2.356,0,0,0-2.29-1.15,3.713,3.713,0,0,0-2.459.858,2.827,2.827,0,0,0-1.027,2.2v4.636l.057,1.96c.057.688.17,1.15.339,1.272a6.6,6.6,0,0,0,1.263.4c.481.113.688.292.688.481s-.17.349-.481.349H230.47c-.283,0-.481-.122-.481-.349s.236-.283.688-.405A3.769,3.769,0,0,0,232,75.206c.226-.179.349-1.272.349-3.232V68.119a6.031,6.031,0,0,0-.481-2.638,2.327,2.327,0,0,0-2.28-1.15,3.675,3.675,0,0,0-2.469.858,2.761,2.761,0,0,0-1.027,2.186v4.6c0,2.007.113,3.11.405,3.223a8.482,8.482,0,0,0,1.253.405c.481.113.688.283.688.481s-.17.339-.471.339h-6.379c-.283,0-.471-.113-.471-.339s.226-.292.678-.405a2.384,2.384,0,0,0,1.263-.518c.236-.226.349-1.263.349-3.223V66.2a1.951,1.951,0,0,0-.17-1.037c-.123-.17-.405-.226-.942-.226-.744,0-1.15-.122-1.15-.349s.236-.481.688-.518a22.276,22.276,0,0,0,3.383-.933,1.027,1.027,0,0,1,.339-.057c.17,0,.283.113.339.4l.066,1.555a4.5,4.5,0,0,1,1.941-1.376,6.756,6.756,0,0,1,2.582-.518c2.054,0,3.373.744,3.892,2.29a5.908,5.908,0,0,1,4.975-2.29,4.024,4.024,0,0,1,3.383,1.319,8.132,8.132,0,0,1,1.027,4.608v3.025a13.634,13.634,0,0,0,.057,1.96c.057.688.17,1.15.349,1.263a6.7,6.7,0,0,0,1.253.405c.518,0,.744.17.744.339"/><path class="d" d="M249.759,76.2a1.432,1.432,0,1,1-1.979-2.064,1.329,1.329,0,0,1,.942-.405,1.47,1.47,0,0,1,1.027,2.478m-1.885-1.885a1.225,1.225,0,0,0,0,1.724,1.206,1.206,0,0,0,1.715,0,1.178,1.178,0,0,0,.368-.886,1.2,1.2,0,0,0-2.054-.858m.226,1.668v-1.6h.829a1.6,1.6,0,0,1,.292.057.49.49,0,0,1,.226.405.4.4,0,0,1-.386.4h0a.311.311,0,0,1,.236.113c.113.057.113.179.113.349v.283h-.405v-.405a.113.113,0,0,0-.113-.113h-.339v.565h-.405Zm.744-1.319c-.057,0-.113-.057-.236-.057h-.113v.471h.17c.122,0,.179,0,.236-.057a.217.217,0,0,0,.057-.17c0-.057,0-.113-.113-.17"/></g></g></svg>