<svg xmlns="http://www.w3.org/2000/svg" xmlns:xlink="http://www.w3.org/1999/xlink" width="294" height="133" viewBox="0 0 294 133"><defs><style>.a{fill:#f5f5f5;}.b{clip-path:url(#a);}.c{fill:#fff;}.d{fill:#4a4a4a;}</style><clipPath id="a"><rect class="a" width="294" height="133" transform="translate(72 312)"/></clipPath></defs><g class="b" transform="translate(-72 -312)"><g transform="translate(72 316.308)"><rect class="c" width="294" height="124.385"/><path class="d" d="M76.826,50.225a8.792,8.792,0,0,0-5.315-6.549,13.419,13.419,0,0,0-5.258-1,11.308,11.308,0,0,0-9.046,4.212c-2.393,2.827-3.515,6.945-3.515,12.561s1.272,9.63,3.835,11.967a12.533,12.533,0,0,0,8.707,3.543,11.308,11.308,0,0,0,7.849-2.742,11.986,11.986,0,0,0,3.769-7.284H67.309V57.179H86.344V81.773H80.03l-.942-5.748A22.776,22.776,0,0,1,74.1,80.633a17.433,17.433,0,0,1-9.31,2.346,19.4,19.4,0,0,1-14.851-6.285c-4.052-4.212-6.05-10.026-6.05-17.376s2.007-13.362,6.05-17.857,9.423-6.756,16.161-6.756q8.679,0,13.984,4.41a16.49,16.49,0,0,1,6.059,11.11Z"/><path class="d" d="M121.322,77.627c-2.827,3.543-7.18,5.277-12.966,5.277S98.254,81.2,95.39,77.627a19.722,19.722,0,0,1-4.269-12.768A19.572,19.572,0,0,1,95.39,52.166c2.827-3.609,7.18-5.343,12.966-5.343s10.111,1.8,12.966,5.343a19.788,19.788,0,0,1,4.269,12.693,20.118,20.118,0,0,1-4.269,12.768Zm-7.1-4.881c1.4-1.885,2.064-4.476,2.064-7.878s-.669-6-2.064-7.821a7.812,7.812,0,0,0-11.883,0c-1.385,1.809-2.064,4.476-2.064,7.821s.669,6,2.064,7.878a7.812,7.812,0,0,0,11.882,0Z"/><path class="d" d="M158.977,77.627C156.15,81.17,151.787,82.9,146,82.9S135.89,81.2,133.035,77.627a19.789,19.789,0,0,1-4.269-12.768,19.572,19.572,0,0,1,4.269-12.693c2.827-3.609,7.18-5.343,12.966-5.343s10.111,1.8,12.976,5.343a19.788,19.788,0,0,1,4.259,12.693A19.788,19.788,0,0,1,158.977,77.627Zm-7.058-4.881c1.395-1.885,2.064-4.476,2.064-7.878s-.669-6-2.064-7.821a7.821,7.821,0,0,0-11.892,0c-1.385,1.809-2.064,4.476-2.064,7.821s.669,6,2.064,7.878A6.926,6.926,0,0,0,146,75.488,7.086,7.086,0,0,0,151.919,72.746Z"/><path class="d" d="M186.436,48.444a10.884,10.884,0,0,1,3.863,3.769v-16.2h8.98V81.792h-8.584V77.081a13.079,13.079,0,0,1-4.325,4.41,11.666,11.666,0,0,1-5.965,1.338,12.636,12.636,0,0,1-9.979-4.815c-2.733-3.2-4.061-7.284-4.061-12.363q0-8.735,3.986-13.635a12.928,12.928,0,0,1,10.667-4.994,10.61,10.61,0,0,1,5.418,1.423Zm2.13,24.114a12.109,12.109,0,0,0,1.885-7.218c0-4.146-1.065-7.086-3.128-8.886a6.738,6.738,0,0,0-4.457-1.621,6.172,6.172,0,0,0-5.654,2.94,13.748,13.748,0,0,0-1.79,7.284,13.1,13.1,0,0,0,1.885,7.482,6.144,6.144,0,0,0,5.578,2.827,6.417,6.417,0,0,0,5.654-2.827Z"/><path class="d" d="M210.587,61.325V82.179l-4.335-.075V36.26h17.9q7.538,0,11.572,2.827t4,9.225a12.457,12.457,0,0,1-1.706,6.879,13.569,13.569,0,0,1-5.654,4.353,7.227,7.227,0,0,1,3.2,2.064,9.988,9.988,0,0,1,1.724,3.072c.4,1.14,10.233,21.258,10.507,21.928a7.2,7.2,0,0,0,1.329,1.885,4.712,4.712,0,0,0,1.065.669v.405l-4.787.066a8.377,8.377,0,0,1-2.064-3.2c-.528-1.479-10.7-21.673-11.242-22.455a5.268,5.268,0,0,0-2.054-1.668,7.124,7.124,0,0,0-2.733-.744,23.614,23.614,0,0,0-3.053-.2H210.568Zm13.428-3.769a18.667,18.667,0,0,0,4.457-.537,10.036,10.036,0,0,0,3.59-1.6,8.075,8.075,0,0,0,2.393-2.827,8.754,8.754,0,0,0,.858-4.146,8.942,8.942,0,0,0-.942-4.212,6.69,6.69,0,0,0-2.459-2.61,10.365,10.365,0,0,0-3.524-1.338,21.673,21.673,0,0,0-4.127-.4H210.587v17.7Z"/><path class="d" d="M250.022,62.258a6.21,6.21,0,0,0-2.064,1.668c-.594.735-13.645,21.051-14.427,22.455a16.338,16.338,0,0,1-2.064,3.213l-4.787-.075v-.4a6.964,6.964,0,0,0,1.065-.669,8.858,8.858,0,0,0,1.329-1.941c.264-.669,13.032-20.919,13.7-21.918a19.465,19.465,0,0,1,1.592-2.205c.735-.857,4.269-.735,5.654-.735Z"/></g></g></svg>