<svg xmlns="http://www.w3.org/2000/svg" xmlns:xlink="http://www.w3.org/1999/xlink" width="300" height="132" viewBox="0 0 300 132"><defs><style>.a{fill:#f5f5f5;}.b{clip-path:url(#a);}.c{fill:#fff;}.d{fill:#acacac;}.e{fill:#7b7b7b;}.f{fill:#626262;}.g{fill:#4a4a4a;}</style><clipPath id="a"><rect class="a" width="300" height="132" transform="translate(390 156)"/></clipPath></defs><g class="b" transform="translate(-390 -156)"><g transform="translate(390 158.538)"><rect class="c" width="300" height="126.923"/><path class="d" d="M102.76,57.048c0-6.481,3.163-26.048,70.269-40.981h0A260.4,260.4,0,0,0,131.971,26.24C114.077,32.721,97.76,43.433,97.76,57.01c-.519,26.183,50.529,37.683,98.288,38.212h0C188.683,95.125,103.288,91.558,102.76,57.048Z"/><path class="e" d="M106.452,57.048c.394-25.519,63.288-40.192,66.7-40.981h0c-4.606,1.058-72.115,13.75-71.971,40.981.269,34.375,84.865,37.942,94.865,38.212h0C184.74,94.462,105.923,88.779,106.452,57.048Z"/><path class="f" d="M172.115,16.346s-66.183,14.942-65.788,40.721c0,33.587,86.837,38.212,89.471,38.212-15.788-1.192-86.048-8.6-86.048-38.212C109.74,36.163,152.24,21.75,172.115,16.346Z"/><path class="g" d="M158.548,16.721c.135-.125-65.519,11.24-66.183,40.462-.125,28.558,65,40.058,83.029,40.452-1.712-.394-77.24-10.308-77.24-40.587C97.115,31,158.423,16.99,158.548,16.721Z"/><path class="g" d="M125.26,49.644c0-4.49-.394-5.423-3.154-5.683v-.692h11.538c5.769,0,9.212,1.721,9.212,6.212,0,3.7-3.288,5.558-6.048,5.952v.135c4.337.529,7.625,2.779,7.625,7.01a6.933,6.933,0,0,1-3.683,6.346,17.029,17.029,0,0,1-8.154,1.712h-10.75v-.654c3.154-.269,3.413-1.192,3.413-5.692Zm5.269,5.423h.962c3.683,0,5.769-1.587,5.769-5.029,0-3.962-2.5-5.019-4.74-5.019a4.183,4.183,0,0,0-1.712.26c-.26.135-.26,1.058-.26,2.25Zm0,8.856c0,3.846.519,4.808,2.76,4.808,2.5,0,5.26-1.452,5.26-5.817s-2.885-6.077-7.231-6.077h-.788Z"/><path class="g" d="M167.894,54.4V47.529c0-5.769-.394-6.875-4.471-7.269V39.2h15.788V40.26c-4.212.26-4.74,1.317-4.74,7.269V66.173c0,5.817.394,6.875,4.606,7.269V74.5H163.029V73.442c4.471-.26,4.865-1.317,4.865-7.269V57.317h-15.01v8.856c0,5.817.394,6.875,4.606,7.269V74.5H141.712V73.442c4.212-.26,4.606-1.317,4.606-7.269V47.394c0-5.769-.394-6.875-4.865-7.269V39.067H157.24v1.058c-3.952.269-4.346,1.327-4.346,7.269V54.4Z"/><path class="g" d="M207.635,42.51a2.394,2.394,0,0,1-2.5,2.375,2.438,2.438,0,1,1,2.5-2.375Zm-4.346,0a1.923,1.923,0,0,0,1.846,1.981,1.808,1.808,0,0,0,1.837-1.856,1.923,1.923,0,0,0-1.837-1.981,1.808,1.808,0,0,0-1.846,1.856Zm1.577,1.317h-.654V41.452c.26,0,.529-.135.962-.135a4.606,4.606,0,0,1,.788.135.683.683,0,0,1,.26.529.567.567,0,0,1-.529.529h0c.269.125.394.26.394.529a1.731,1.731,0,0,1,.135.654h-.654c-.135-.125-.135-.26-.135-.529s-.135-.394-.529-.394h-.26v1.058Zm0-1.317h.269c.26,0,.519-.135.519-.4s-.125-.394-.519-.394h-.269Z"/><path class="g" d="M198.288,50.442c-1.183-5.288-3.288-5.952-6.577-5.952-5.26,0-9.077,4.365-9.077,11.769,0,6.471,2.625,12.817,9.731,12.817,1.712,0,3.163-.394,3.163-2.644v-3.7c0-2.769-.135-3.7-4.481-4.1v-.942h12.24v.962c-2.106.394-2.24,1.192-2.24,4.1v2.779a16.038,16.038,0,0,0,.269,3.846c-2.5.663-5.923,1.721-9.077,1.721-9.481,0-15.663-5.423-15.663-13.885,0-9.519,7.635-14.548,15.923-14.548a31.423,31.423,0,0,1,7.894,1.058C200.529,45.192,198.288,50.442,198.288,50.442Z"/></g></g></svg>