<svg xmlns="http://www.w3.org/2000/svg" xmlns:xlink="http://www.w3.org/1999/xlink" width="294" height="132" viewBox="0 0 294 132"><defs><style>.a{fill:#f5f5f5;}.b{clip-path:url(#a);}.c{fill:#fff;}.d,.e{fill:#4a4a4a;}.e{stroke:#fff;stroke-miterlimit:10;stroke-width:1.291px;}</style><clipPath id="a"><rect class="a" width="294" height="132" transform="translate(72 156)"/></clipPath></defs><g class="b" transform="translate(-72 -156)"><g transform="translate(72 159.808)"><rect class="c" width="294" height="124.385"/><path class="d" d="M242.173,54.437c-2.507,4.344-5.569,7.962-8.358,11.779-2.252,3.091-4.561,6.144-6.86,9.206a1.724,1.724,0,0,1-2.912-.057q-5.23-7.011-10.469-14.031a72.41,72.41,0,0,1-4.8-6.832V79c-.5.151-.66-.2-.867-.405-1.79-1.743-3.543-3.524-5.343-5.258a2.563,2.563,0,0,1-.848-2.017q0-10.742,0-21.466c0-4.288,3.015-6.106,6.417-6.445.65-.075.942.377,1.234.792l15.077,19.5c1.64,2.111,1.658,2.12,3.27,0,3.694-4.843,7.35-9.715,11.053-14.549,1.885-2.412,3.769-4.712,6.964-5.494a18.291,18.291,0,0,1,3.722-.264c.556,0,.678.273.669.754s0,1.055,0,1.574v33.6c0,1.008-.264,1.338-1.272,1.291-1.885-.075-3.7-.066-5.56,0-.989,0-1.31-.283-1.3-1.3.132-8.085-.188-16.17.2-24.246A3.77,3.77,0,0,0,242.173,54.437Z"/><path class="d" d="M168.673,80.586H164.9a1.536,1.536,0,0,1-1.6-.989c-1.037-1.988-2.167-3.939-3.2-5.937a2.007,2.007,0,0,0-2.045-1.263c-6.964.057-13.927,0-20.891,0a1.658,1.658,0,0,0-1.753,1.1c-.942,2.064-2.111,4.071-3.147,6.125a1.517,1.517,0,0,1-1.592.942c-2.13-.057-4.259,0-6.4,0-1,0-1.168-.2-.641-1.121q5.654-10,11.308-20.033c2.035-3.618,3.948-7.312,6.106-10.855a10.139,10.139,0,0,1,8.9-5.183c2.148-.075,2.94.782,3.854,2.422,4.834,8.66,9.781,17.263,14.7,25.876,1.479,2.591,2.959,5.183,4.476,7.746.5.829.528,1.187-.6,1.131s-2.5,0-3.769,0Zm-20.731-29.7a3.846,3.846,0,0,0-.4.509c-2.441,4.448-4.862,8.9-7.312,13.352-.49.886-.245,1.065.66,1.065h13.758c.942,0,1.131-.207.66-1.065-1.272-2.337-2.478-4.712-3.722-7.039S149.205,53.231,147.942,50.885Z"/><path class="e" d="M43.846,71.719a7.246,7.246,0,0,1,1.885-2.111Q55.285,59.874,64.9,50.187a1.96,1.96,0,0,1,1.479-.65h7.246a1.809,1.809,0,0,1,1.376.6c2.7,2.7,5.409,5.418,8.151,8.094.584.565.631.942,0,1.527-2.591,2.544-5.088,5.183-7.689,7.708a14.04,14.04,0,0,1-9.225,4.212c-7.209.349-14.427.075-21.673.123a7.1,7.1,0,0,1-.716-.085Z"/><path class="e" d="M125.779,52.609c-2.591,2.563-4.947,4.872-7.265,7.209q-6.879,6.973-13.72,13.974a3.034,3.034,0,0,1-2.441,1.027,43.675,43.675,0,0,0-5.654,0,3.769,3.769,0,0,1-3.411-1.555C91.4,70.993,89.237,69.015,87.2,66.9a1.649,1.649,0,0,0-.188-.151c-1.329-1.31-1.395-1.47-.094-2.742,2.827-2.827,5.39-5.88,8.481-8.424a13.1,13.1,0,0,1,8.349-3.015c7.039-.113,14.078-.066,21.117-.075Q125.325,52.53,125.779,52.609Z"/><path class="d" d="M208.033,80.322a2.375,2.375,0,0,1-1.489.245H175.985a1.658,1.658,0,0,1-1.715-.942c-1.527-2.827-3.138-5.531-4.712-8.283a3.449,3.449,0,0,1-.471-1.838c0-6.3.066-12.608,0-18.922a6.238,6.238,0,0,1,3.006-5.569,9.63,9.63,0,0,1,3.929-1.47c1.583-.264,1.753-.094,1.753,1.5V71.973c0,1.593,0,1.593,1.536,1.593H200.2a2.412,2.412,0,0,1,1.885.773C204,76.327,205.979,78.268,208.033,80.322Z"/><path class="e" d="M79.54,84.346a13.051,13.051,0,0,1-7.925-3.458c-2.563-2.4-4.966-4.975-7.435-7.472a6.69,6.69,0,0,1-.481-.631c1.319-.122,2.507-.188,3.684-.339a14.6,14.6,0,0,0,8.245-3.939c1.762-1.658,3.468-3.383,5.145-5.126.594-.622.942-.726,1.611-.047,5.249,5.456,10.676,10.676,15.85,16.189,1.366,1.461,2.827,2.827,4.24,4.269.443.452.415.66-.254.622a.726.726,0,0,0-.707,0h-1.63a1.518,1.518,0,0,0-.339-.094Z"/><path class="e" d="M105.614,51.573A16.519,16.519,0,0,0,95.974,54c-2.262,1.451-3.939,3.562-5.871,5.381s-1.112,1.885-3.552.452c-2.827-1.7-4.909-4.259-7.218-6.54-2.714-2.667-5.3-5.465-7.981-8.16-1.64-1.64-3.373-3.185-5.117-4.815a1.951,1.951,0,0,1,1.687-.462H93.138a2.4,2.4,0,0,1,1.885.792c3.392,3.468,6.813,6.9,10.224,10.365a4.1,4.1,0,0,1,.368.556Z"/></g></g></svg>