<svg xmlns="http://www.w3.org/2000/svg" xmlns:xlink="http://www.w3.org/1999/xlink" width="300" height="132" viewBox="0 0 300 132"><defs><style>.a{fill:#f5f5f5;}.b{clip-path:url(#a);}.c{fill:#fff;}.d,.e{fill:#4a4a4a;}.d{fill-rule:evenodd;}</style><clipPath id="a"><rect class="a" width="300" height="132" transform="translate(390 156)"/></clipPath></defs><g class="b" transform="translate(-390 -156)"><g transform="translate(390 158.538)"><rect class="c" width="300" height="126.923"/><path class="d" d="M55.5,48.317l7.25,2.471-1.163,5.837L51.538,53.192,54,48.865a1.163,1.163,0,0,1,1.5-.548Z"/><path class="d" d="M45.25,66.865,51.606,61.3l4.923,4.327-8.817,7.692-2.74-4.74a1.212,1.212,0,0,1,.279-1.712Z"/><path class="d" d="M56.6,85.962,54.75,76.827l6.837-2.337,2.529,12.7h-6.01A1.423,1.423,0,0,1,56.6,85.962Z"/><path class="d" d="M79.981,85.577l-9.712-3.3,1.577-7.827,13.394,4.6-3.279,5.769a1.49,1.49,0,0,1-1.981.76Z"/><path class="d" d="M92.01,63.9l-8.481,7.423-6.558-5.769L88.663,55.25l3.644,6.288a1.587,1.587,0,0,1-.3,2.365Z"/><path class="d" d="M78.538,41.346,80.933,53.51,71.846,56.6,68.49,39.731h8a1.856,1.856,0,0,1,2.048,1.615Z"/><path class="e" d="M122.567,74.76a14.423,14.423,0,0,1-6.971,1.788c-7.385,0-11.692-5.087-11.692-12.163s4.808-12.567,12.173-12.567a12.962,12.962,0,0,1,6.038,1.308v3.019a12.24,12.24,0,0,0-5.942-1.51c-5.538,0-8.817,4.26-8.817,9.615,0,5.567,3.279,9.481,8.606,9.481a11.731,11.731,0,0,0,5.769-1.577Z"/><path class="e" d="M128.038,52.1h12.1l-.962,2.673H131.25V62.5h7.8v2.673h-7.8V73.49h9.029v2.673h-12.24Z"/><path class="e" d="M145.606,52.1h3.144L159.615,66.24c1.433,1.856,2.462,3.3,3.212,4.471h.067c-.067-1.308-.067-2.471-.067-4.192V52.1h3.212V76.2h-2.885L151.923,61.538c-1.365-1.779-2.317-3.154-3.144-4.327h-.067c.067,1.106.135,2.337.135,4.058v15h-3.173V52.1Z"/><path class="e" d="M181.981,66.346l-.962-2.683H191V74.692a18.981,18.981,0,0,1-8.135,1.856c-7.385,0-12.1-5.019-12.1-12.019,0-7.356,5.058-12.644,12.644-12.644a18.048,18.048,0,0,1,6.635,1.308v2.952a14.192,14.192,0,0,0-6.5-1.51c-6.019,0-9.433,3.913-9.433,9.548,0,5.837,3.49,9.548,8.952,9.548a10.481,10.481,0,0,0,4.587-.894v-6.49Z"/><path class="e" d="M203.788,52.029h2.317L215.385,76.2h-3.462l-2.394-6.317h-9.3L197.9,76.2h-3.346ZM208.6,67.135l-2.25-6.317c-.683-2.058-1.029-3.163-1.365-4.058H204.9c-.269.894-.683,2-1.365,4.058l-2.25,6.25H208.6Z"/><path class="e" d="M228.192,66.346l-.962-2.683h9.981V74.692a18.9,18.9,0,0,1-8.135,1.856c-7.385,0-12.1-5.019-12.1-12.019,0-7.356,5.058-12.644,12.644-12.644a18.01,18.01,0,0,1,6.635,1.308v2.952a14.163,14.163,0,0,0-6.452-1.51c-6.01,0-9.433,3.913-9.433,9.548,0,5.837,3.49,9.548,8.962,9.548a10.442,10.442,0,0,0,4.577-.894v-6.49H228.24Z"/><path class="e" d="M243.029,52.1h12.1l-.962,2.673h-7.933V62.5h7.788v2.673h-7.788V73.49h9.019v2.673H243.029Z"/></g></g></svg>