<svg xmlns="http://www.w3.org/2000/svg" xmlns:xlink="http://www.w3.org/1999/xlink" width="294" height="132" viewBox="0 0 294 132"><defs><style>.a{fill:#f5f5f5;}.b{clip-path:url(#a);}.c{fill:#fff;}.d{fill:#4a4a4a;}</style><clipPath id="a"><rect class="a" width="294" height="132" transform="translate(714 156)"/></clipPath></defs><g class="b" transform="translate(-714 -156)"><g transform="translate(714 159.808)"><rect class="c" width="294" height="124.385"/><path class="d" d="M79.012,60.034h11.9c.6,0,.792.217.8.782a28.156,28.156,0,0,1-3.081,13.852,20.194,20.194,0,0,1-12.806,10.29,27.252,27.252,0,0,1-8.17,1.084,21.673,21.673,0,0,1-13.626-5,24.82,24.82,0,0,1-6.068-6.992,22.917,22.917,0,0,1-2.733-9.225A24.764,24.764,0,0,1,46.748,53a22.766,22.766,0,0,1,9.979-11.43A24.707,24.707,0,0,1,71.154,38.39,23.624,23.624,0,0,1,85,44.213a21.852,21.852,0,0,1,5.07,6.917c.16.311.141.471-.226.594q-1.885.66-3.769,1.385c-.32.123-.471,0-.669-.226a47.266,47.266,0,0,0-3.194-4.061,16.49,16.49,0,0,0-9.894-5.192,20.335,20.335,0,0,0-11.713,1.6c-4.938,2.28-7.849,6.276-9.423,11.364a18.545,18.545,0,0,0-.8,6.851c.509,6.464,3.383,11.534,8.99,14.926a17.9,17.9,0,0,0,10.629,2.667A17.282,17.282,0,0,0,85.854,68.6a12.023,12.023,0,0,0,.565-3c0-.528-.122-.707-.678-.7H67.111c-.556,0-.744-.151-.716-.716V60.647c0-.528.151-.65.66-.65C71.041,60.044,75.027,60.034,79.012,60.034Z"/><path class="d" d="M208.542,62.192V40.265c0-.942,0-.942.942-.942,3.194,0,6.4-.057,9.583,0,2.827.1,5.748,0,8.613.245a23.247,23.247,0,0,1,14.832,6.4,20.41,20.41,0,0,1,5.965,11.515,24.868,24.868,0,0,1-.528,11.967,21.465,21.465,0,0,1-4.542,8.047c-3.553,3.948-8.113,5.946-13.192,6.954a60.071,60.071,0,0,1-11.487.7h-9.244c-.942,0-.942,0-.942-.942Zm5.362,0v17.32c0,.942,0,.942,1,.942l9.084-.264a29.117,29.117,0,0,0,5.654-.556c5.889-1.385,10.2-4.712,12.57-10.365a19.082,19.082,0,0,0,.942-10.62,15.6,15.6,0,0,0-8.518-11.967,22.992,22.992,0,0,0-9.065-2.309c-3.609-.292-7.227-.3-10.846-.452-.669,0-.82.207-.82.848Q213.9,53.49,213.9,62.192Z"/><path class="d" d="M101.242,53.712V40.359c0-.688.2-.942.886-.876,1.178.047,2.356,0,3.534,0,.876,0,.942,0,.876.942-.141,6.813-.141,13.616-.132,20.429,0,1.753-.057,3.505,0,5.249.207,4.476,1.583,8.481,4.919,11.647a11.232,11.232,0,0,0,5.569,2.827,14.493,14.493,0,0,0,7.538-.132,12.486,12.486,0,0,0,8.773-9.517,35.7,35.7,0,0,0,.839-8.839c0-4.222-.057-8.481,0-12.674.066-3.242.075-6.483.094-9.734,0-.443.122-.594.575-.584h4.014c.443,0,.565.141.584.584.236,6.144.122,12.25.066,18.45,0,2.968.047,5.946-.075,8.914a20.853,20.853,0,0,1-5.333,13.494A16.594,16.594,0,0,1,123.6,85.854a19.986,19.986,0,0,1-9.583-.726,18.969,18.969,0,0,1-7.425-4.514A18.676,18.676,0,0,1,101.6,70.541c-.669-3.666-.33-7.378-.405-11.063v-5.8Z"/><path class="d" d="M168.532,62.192V40.255c0-.613.151-.82.792-.792,1.15.047,2.309,0,3.458,0,.415,0,.584.123.556.547s0,.942,0,1.366V79.719c0,.942,0,.942.942.942h24.5c.612,0,.839.141.8.782a21.2,21.2,0,0,0,0,2.827c.047.7-.217.81-.839.81h-29.5c-.565,0-.716-.16-.716-.726Q168.541,73.227,168.532,62.192Z"/><path class="d" d="M156.159,62.192V84.129c0,.726-.217.876-.876.848-1.159-.057-2.309,0-3.468,0-.415,0-.594-.122-.537-.547V40.416c0-.942,0-.942.942-.942h2.827c1.263,0,1.093-.16,1.093,1.065Q156.169,51.375,156.159,62.192Z"/><path class="d" d="M224.024,51.167v-.057h0l.066.066a1.809,1.809,0,0,0,.207.942,32.924,32.924,0,0,1,1.828,8.886,31.634,31.634,0,0,1-1.5,10.771c-.188.622-.368,1.244-.556,1.885.358,0,.462-.226.613-.377.537-.556,1.055-1.131,1.583-1.677,2.77-2.827,5.531-5.758,8.321-8.613.377-.377.368-.584,0-.942-2.177-2.243-4.316-4.533-6.511-6.756C226.672,53.891,225.466,52.411,224.024,51.167Zm-.066,22.615Z"/><path class="d" d="M224.024,51.167c1.442,1.244,2.648,2.723,3.986,4.071,2.2,2.224,4.335,4.514,6.511,6.756.368.377.377.584,0,.942-2.827,2.827-5.55,5.739-8.321,8.613-.528.547-1.046,1.121-1.583,1.677-.151.151-.254.386-.613.377.188-.641.368-1.263.556-1.885a31.633,31.633,0,0,0,1.5-10.752,32.925,32.925,0,0,0-1.79-8.886,1.809,1.809,0,0,1-.207-.942Z"/><path class="d" d="M224.024,51.167l-.066-.066h0v.057Z"/><path class="d" d="M223.958,73.83l.009.038-.028-.009Z"/></g></g></svg>