<svg xmlns="http://www.w3.org/2000/svg" xmlns:xlink="http://www.w3.org/1999/xlink" width="294" height="133" viewBox="0 0 294 133"><defs><style>.a{fill:#f5f5f5;}.b{clip-path:url(#a);}.c{fill:#fff;}.d,.e{fill:#4a4a4a;}.e{fill-rule:evenodd;}</style><clipPath id="a"><rect class="a" width="294" height="133" transform="translate(72 312)"/></clipPath></defs><g class="b" transform="translate(-72 -312)"><g transform="translate(72 316.308)"><rect class="c" width="294" height="124.385"/><path class="d" d="M203.849,50.1v4.909h7.322v19.28h5.3V55.012h7.322V50.1Z"/><path class="d" d="M122.1,50.1V64.991L110.834,50.1h-4.881V74.292h5.22V58.913L122.83,74.292h4.5V50.1Z"/><path class="d" d="M167.439,65.679h6.973c-.32,1.885-2.12,4.542-6.6,4.542a8.01,8.01,0,1,1,6.917-12.2l4.108-2.554A12.636,12.636,0,0,0,167.9,49.33a12.957,12.957,0,0,0-13.051,12.863,12.759,12.759,0,0,0,12.881,12.881c6.69,0,11.93-4.834,11.93-11.364V60.883H167.41v4.8Z"/><path class="d" d="M144.955,60.411c-3.468-1.31-6.9-1.753-6.9-4.09,0-1.347,1.4-2.365,4.363-2.365a19.28,19.28,0,0,1,8.236,2.45V51.252a22.059,22.059,0,0,0-8.575-1.941c-5.814,0-9.743,2.959-9.743,7.256,0,4.712,3.977,6.342,6.747,7.388,3.468,1.3,6.794,1.781,6.794,4.108,0,1.348-1.6,2.365-4.561,2.365a19.855,19.855,0,0,1-8.283-2.45v5.173a21.268,21.268,0,0,0,8.613,1.885c5.88,0,9.951-2.959,9.951-7.256,0-4.712-3.873-6.361-6.6-7.407"/><path class="d" d="M88.407,49.311A12.872,12.872,0,1,0,101.147,62.1a12.74,12.74,0,0,0-12.74-12.787m-.057,20.731a7.812,7.812,0,1,1,7.7-7.878,7.623,7.623,0,0,1-7.7,7.878"/><path class="d" d="M49.141,50.1h-5.3v24.18H61.1V69.448H49.141Z"/><path class="d" d="M244.256,69.552H233V64.473h10.309c-.075-.848-.122-1.706-.122-2.573a15.35,15.35,0,0,1,.094-2.158H233V54.833h11.129a27.327,27.327,0,0,1,1.762-4.712H227.746v24.17h18.318a27.328,27.328,0,0,1-1.809-4.712"/><rect class="d" width="5.296" height="24.189" transform="translate(65.434 50.102)"/><path class="d" d="M190.968,50.1l-10.243,24.18h5.4l1.885-4.712h10.818l1.885,4.712h5.541L196,50.112Zm-1.131,14.964,3.571-8.745,3.6,8.745Z"/><path class="e" d="M248.468,50.885a1.131,1.131,0,0,1,.5.075.443.443,0,0,1,.283.452.377.377,0,0,1-.179.358.622.622,0,0,1-.264.094.452.452,0,0,1,.311.179.48.48,0,0,1,.094.283v.368h-.3v-.207a.443.443,0,0,0-.17-.415.8.8,0,0,0-.358-.057h-.254v.716h-.3V50.885h.631m.339.292a.773.773,0,0,0-.386-.075h-.273v.669h.3a.782.782,0,0,0,.292,0,.264.264,0,0,0,.188-.283.283.283,0,0,0-.123-.264m.867,1.809a1.593,1.593,0,0,1-1.178.49,1.555,1.555,0,0,1-1.168-.49,1.687,1.687,0,0,1,0-2.356,1.668,1.668,0,0,1,2.346,0,1.611,1.611,0,0,1,.481,1.168,1.593,1.593,0,0,1-.481,1.187m-2.177-2.186a1.338,1.338,0,0,0-.415,1,1.385,1.385,0,0,0,.415,1.027,1.319,1.319,0,0,0,1,.424,1.385,1.385,0,0,0,1.018-.424,1.436,1.436,0,0,0-1.018-2.45,1.31,1.31,0,0,0-1,.424"/></g></g></svg>