<svg xmlns="http://www.w3.org/2000/svg" xmlns:xlink="http://www.w3.org/1999/xlink" width="300" height="133" viewBox="0 0 300 133"><defs><style>.a{fill:#f5f5f5;}.b{clip-path:url(#a);}.c{fill:#fff;}.d{fill:#4a4a4a;fill-rule:evenodd;}</style><clipPath id="a"><rect class="a" width="300" height="133" transform="translate(390 312)"/></clipPath></defs><g class="b" transform="translate(-390 -312)"><g transform="translate(390 315.038)"><rect class="c" width="300" height="126.923"/><path class="d" d="M110.212,66.423c0,3.365-2.74,5.827-6.538,5.827s-6.558-2.462-6.558-5.827V53.99H94.529V66.548c0,4.4,3.788,8.163,9.144,8.163s9.154-3.846,9.154-8.163V53.99h-2.615ZM131.644,53.99h-7.058V74.712h7.058c5.875,0,9.923-4.019,9.923-10.365S137.5,53.99,131.644,53.99Zm-.269,18.125H127.2V56.577h4.173c4.452,0,7.587,2.981,7.587,7.769C138.962,69.529,135.692,71.99,131.375,72.115Zm57.24.394c-4.7,0-7.846-3.5-7.846-8.163a7.692,7.692,0,0,1,7.846-8.029,9.125,9.125,0,0,1,5.875,2.077l1.048-1.817s-2.356-2.462-7.183-2.462a9.865,9.865,0,0,0-10.192,10.231,10.144,10.144,0,0,0,10.452,10.49,9.538,9.538,0,0,0,7.442-3.365l-1.433-1.548A9.067,9.067,0,0,1,188.615,72.51Zm19.6-18.519h2.615V74.712h-2.615Zm14.423,2.587h6.538V74.712h2.558V56.577h6.538V53.99H222.587m40.25,0-6.269,9.471-6.4-9.452h-2.75l7.846,11.538v9.163h2.606V65.519l7.692-11.538m-107.144,0-8.087,20.731h2.615l2.221-5.962,8.49-1.808,2.885,7.769h2.615L161.183,53.99Zm-2.49,12.3,3.923-9.615h.135l3.26,8.154Z"/><path class="d" d="M72.577,44.288l1.317.663V62.144c0,7.337-3.8,11.538-7.885,13.346h0L55.981,81.26l-.231.135-.115.067h0A14.048,14.048,0,0,1,48.9,83.269c-6.577,0-14.471-5.288-14.471-15.865V51.567l2.615,1.317V67.433c0,10.577,7.9,13.221,11.846,13.221a12.067,12.067,0,0,0,9.067-4.308c-4.885-1.154-10.385-5.375-10.385-14.2V46.538L37.048,52.885l-2.625-1.317,13.154-7.933,1.317.654,1.317.663V62.144c0,9.173,5.942,11.385,9.231,11.808a15.481,15.481,0,0,0,1.3-6.529V50.24l2.625,1.317V67.423a17.856,17.856,0,0,1-1.154,6.5c3.327-.481,9.048-2.779,9.048-11.788V46.606l-7.894,4.952L60.74,50.24,71.26,43.625Z"/></g></g></svg>