<svg xmlns="http://www.w3.org/2000/svg" xmlns:xlink="http://www.w3.org/1999/xlink" width="294" height="133" viewBox="0 0 294 133"><defs><style>.a{fill:#f5f5f5;}.b{clip-path:url(#a);}.c{fill:#fff;}.d{fill:#4a4a4a;}</style><clipPath id="a"><rect class="a" width="294" height="133" transform="translate(714 312)"/></clipPath></defs><g class="b" transform="translate(-714 -312)"><g transform="translate(714 316.308)"><rect class="c" width="294" height="124.385"/><path class="d" d="M95.173,52.336h1.121v7.35c0,2.761,1.291,3.769,3.458,3.769s3.5-1.046,3.477-3.769v-7.35h1.131v7.6c0,2.45-1.31,4.523-4.608,4.523s-4.58-2.073-4.58-4.523V52.336"/><path class="d" d="M106.415,55.6h1.008V57.1h0a2.883,2.883,0,0,1,2.827-1.724c2.4,0,3.128,1.263,3.128,3.307v5.522h-1.037V58.857c0-1.479-.481-2.6-2.167-2.6a2.738,2.738,0,0,0-2.752,2.949v5h-1.037V55.6"/><path class="d" d="M115.329,55.6h1.046v8.584h-1.046Zm0-3.289h1.046v1.677h-1.046Z"/><path class="d" d="M117.412,55.6h1.159l2.686,7.538h0L123.9,55.6h1.074l-3.185,8.584H120.71l-3.3-8.584"/><path class="d" d="M132.178,59.365a2.884,2.884,0,0,0-2.714-3.062c-1.687,0-2.648,1.5-2.827,3.063Zm-5.531.886c0,1.527.81,3.373,2.827,3.373a2.61,2.61,0,0,0,2.676-2.2H133.2a3.5,3.5,0,0,1-3.769,3.072c-2.714,0-3.854-2.092-3.854-4.533,0-2.262,1.14-4.542,3.854-4.542s3.835,2.412,3.769,4.825h-6.6"/><path class="d" d="M134.628,55.6h.942v2.017h0a3.147,3.147,0,0,1,3.223-2.13v1.055a2.949,2.949,0,0,0-3.1,3.1v4.57h-1.037V55.6"/><path class="d" d="M144.946,58.14a1.969,1.969,0,0,0-2.233-1.885c-.942,0-2.017.368-2.017,1.479,0,.942,1.055,1.263,1.772,1.451l1.395.311a2.519,2.519,0,0,1,2.431,2.384c0,1.885-1.837,2.573-3.43,2.573-1.988,0-3.345-.942-3.505-3.025H140.4a2.262,2.262,0,0,0,2.516,2.148c.942,0,2.337-.433,2.337-1.63,0-1-.942-1.329-1.885-1.564l-1.348-.3c-1.357-.368-2.375-.829-2.375-2.29,0-1.753,1.7-2.412,3.2-2.412a2.8,2.8,0,0,1,3.128,2.761h-1.046"/><path class="d" d="M147.81,55.6h1.074v8.584h-1.046Zm0-3.289h1.074v1.677h-1.046Z"/><path class="d" d="M152.513,55.6h1.734v.942h-1.734v5.786c0,.678.094,1.074.848,1.131a6.985,6.985,0,0,0,.884-.056l0,.942H153.3c-1.385,0-1.885-.462-1.885-1.885V56.538h-1.489V55.6h1.489V53.052h1.046V55.6"/><path class="d" d="M154.793,55.6H155.9l2.827,7.322,2.62-7.322h1.037l-3.7,9.894c-.594,1.451-.942,1.885-2.252,1.885a2.713,2.713,0,0,1-.792-.085V66.4a3.138,3.138,0,0,0,.707.085c.942,0,1.15-.547,1.489-1.347l.367-.942-3.411-8.6"/><path class="d" d="M168.673,59.912c0,1.885.942,3.666,2.987,3.666s3-1.828,3-3.666-.989-3.656-3-3.656S168.673,58.084,168.673,59.912Zm7.03,0c0,2.469-1.423,4.542-4.042,4.542s-4.033-2.073-4.033-4.542,1.423-4.533,4.033-4.533,4.042,2.073,4.042,4.533"/><path class="d" d="M180.508,56.538h-1.687v7.7h-1.037v-7.7h-1.461V55.6h1.461v-.754c0-1.479.4-2.507,2.064-2.507a5.74,5.74,0,0,1,.876.066v.942a4.5,4.5,0,0,0-.763-.085c-1.159,0-1.121.735-1.14,1.668V55.6h1.687v.942"/><path class="d" d="M194.945,55.926a3.59,3.59,0,0,0-3.656-2.874c-3.128,0-4.448,2.62-4.448,5.22s1.319,5.22,4.448,5.22a3.836,3.836,0,0,0,3.769-3.769h1.121c-.311,2.912-2.148,4.778-4.909,4.778-3.722,0-5.578-2.94-5.578-6.182s1.885-6.191,5.578-6.191a4.532,4.532,0,0,1,4.712,3.845H194.86"/><path class="d" d="M198.365,59.912c0,1.885.989,3.666,3,3.666s3-1.828,3-3.666-1-3.656-3-3.656S198.365,58.084,198.365,59.912Zm7.03,0c0,2.469-1.423,4.542-4.033,4.542s-4.042-2.073-4.042-4.542,1.423-4.533,4.042-4.533,4.061,2.1,4.061,4.533"/><path class="d" d="M206.968,52.336h1.046V64.209h-1.046Z"/><path class="d" d="M210.634,59.912c0,1.885.989,3.666,2.987,3.666s3-1.828,3-3.666-.942-3.656-3-3.656S210.634,58.084,210.634,59.912Zm7.03,0c0,2.469-1.423,4.542-4.042,4.542s-4.033-2.073-4.033-4.542,1.423-4.533,4.033-4.533,4.052,2.1,4.052,4.533"/><path class="d" d="M219.218,55.6h.942v2.017h0a3.147,3.147,0,0,1,3.223-2.13v1.055a2.949,2.949,0,0,0-3.176,3.081v4.57h-1.037V55.6"/><path class="d" d="M229.923,59.516h0c-.132.254-.594.33-.876.386-1.772.311-3.977.292-3.977,1.979a1.79,1.79,0,0,0,1.885,1.7,2.752,2.752,0,0,0,2.968-2.695Zm-5.56-1.263c.1-2.017,1.508-2.827,3.458-2.827,1.508,0,3.147.462,3.147,2.761v4.551a.556.556,0,0,0,.612.631.942.942,0,0,0,.33-.066v.886a2.959,2.959,0,0,1-.678.066c-1.055,0-1.225-.6-1.225-1.5h0A3.27,3.27,0,0,1,226.9,64.5c-1.574,0-2.827-.782-2.827-2.507,0-2.412,2.327-2.5,4.58-2.761.867-.1,1.338-.217,1.338-1.168,0-1.413-1.008-1.762-2.233-1.762a2.016,2.016,0,0,0-2.28,2h-1.046"/><path class="d" d="M236.519,63.568c2.214,0,3-1.885,3-3.656s-.782-3.656-3-3.656c-1.988,0-2.827,1.885-2.827,3.656S234.5,63.568,236.519,63.568Zm4.042.631h-.942V62.579h0a3.373,3.373,0,0,1-3.044,1.885c-2.6,0-3.835-2.111-3.835-4.542s1.234-4.542,3.835-4.542a3.034,3.034,0,0,1,2.959,1.885h0V52.336h1.046V64.2"/><path class="d" d="M243.115,59.912c0,1.885.989,3.666,3,3.666s3-1.828,3-3.666-1-3.656-3-3.656S243.115,58.084,243.115,59.912Zm7.03,0c0,2.469-1.423,4.542-4.033,4.542s-4.043-2.073-4.043-4.542,1.423-4.533,4.043-4.533,4.033,2.073,4.033,4.533"/><path class="d" d="M74.659,51.931V47.219l-5.654-5.654H49.5l-5.654,5.654V66.762L49.5,72.416h6.2v4.768l5.654,5.654H77.872l5.72-5.654V62.032H86.5v-10.1H74.659"/><path class="d" d="M68.788,42.093l5.286,5.333v5.1H85.91v8.924h-2.9v15.51l-5.371,5.333H61.618l-5.352-5.333V71.851h-6.53L44.43,66.517v-19.1l5.305-5.324H68.788"/><path class="c" d="M50.347,70.381h7.4v5.946L62.239,80.8H77.034l4.5-4.476V59.978H84.45V53.994H75.517V74.848H63.7V70.381h4.476l4.438-4.419V60.025H66.659v4.429H63.7V54.088H54.8v5.984h2.949V64.5H51.827V49.49H66.659v4.5h5.955V48.058l-4.438-4.467H50.347L45.89,48.058v17.9l4.457,4.467"/><path class="d" d="M62.965,69.637h4.881l4-4.033V60.713H67.394v4.429H62.965V54.776H55.53V59.29H58.48v5.9H51.1V48.755H67.394v4.5h4.485V48.34l-4.033-4.052h-17.2L46.625,48.34V65.6l4.024,4.033H58.48v6.4L62.541,80.1H76.732l4.08-4.052v-16.8h2.9V54.729H76.252V75.573H62.965V69.637"/></g></g></svg>