<svg xmlns="http://www.w3.org/2000/svg" xmlns:xlink="http://www.w3.org/1999/xlink" width="294" height="132" viewBox="0 0 294 132"><defs><style>.a{fill:#f5f5f5;}.b{clip-path:url(#a);}.c{fill:#fff;}.d{fill:#4a4a4a;}</style><clipPath id="a"><rect class="a" width="294" height="132" transform="translate(714 948)"/></clipPath></defs><g class="b" transform="translate(-714 -948)"><g transform="translate(714 951.808)"><rect class="c" width="294" height="124.385"/><rect class="c" width="294" height="124.385"/><path class="d" d="M172.913,50.79l-11.835,2.77.226-24.688,4.014-.942L165.1,49.481l7.831-1.819ZM155.481,33.084l-9.847,20.948,9.621-2.205v3.138l-14.031,3.289V55.427l9.809-20.938-8.9,2.073V33.32l13.343-3.11ZM135.042,59.648l-4,.942.236-24.7,4-.942Zm-14.135,3.307-3.684-8.735-2.62.613-.085,9.6-3.9.942.226-24.7,5.908-1.376c5.107-1.187,8,.32,7.953,5.578a8.773,8.773,0,0,1-3.882,7.538l4.1,9.6Zm75.856-40.444a11.524,11.524,0,0,1-4.156-3.006c-.716-1-3.694-4.222-5.946-5.023a22.616,22.616,0,0,0-6.672-.942c-1.225,0-4.41,0-5.654-.509s-2.968-4.391-4.617-3.769c0,0-2.827.188-4.712,4.108s-1.329,4.523-8.735,6.125S141.2,20.5,138,22.21s-6.6,7.538-15.077,7.821-11.393-.509-20.844,5.324c-6.389,3.939-8.924,7.378-10.252,9.772l3.251-.763c6.266-1.461,9.743.49,9.64,10.026s-3.769,13.192-9.894,14.662L89.51,70.306l.217-21.193C88.181,51.827,85.6,57,85.185,61.853c-.509,5.823,1.64,15.152,1.96,18.271s1.432,6.926,1.329,9.131-1.14,7.925,0,9.131,7.906,4.627,12.533,2.2,2.356-3.92,1.536-4.617a28.477,28.477,0,0,1-2.827-3.411,2.148,2.148,0,0,1-.113-2.309c.32-.594,1.442-4.712,1.753-5.428s5.022-7.538,5.447-8.839,4.108-.942,4.928-.188,2.262,5.211,2.365,7.228.217,7.538,1.941,9.235,8.716,2,9.96,2.017c2.083,0,4.193-1.423,2.827-2.714s-4.514-4.41-5.022-5.107.509-3.769,1.442-5.023,1.555-1.508,2.167-.188,3.487,9.348,4.09,14.135.726,11.553,1.14,12.759,6.37,7.039,9.555,7.039,13.249-1.885,8.415-7.633-5.333-3.816-5.541-8.839.716-14.841.989-17.546.405-3.119,1.037-1.715,1.885,12.354,2.761,15.765,1.413,7.6,5.126,9.027,13.777,3.138,16.227,1.319c1.5-1.131-.942-2.912-3.4-4.815s-6.474-4.108-6.6-6.822,1.941-13.06,3.185-15.963a32.981,32.981,0,0,0,2.262-10.742c.311-4.514.82-11.854,1.536-12.25s5.946-2.827,11.119-5.814l.085-9.065-5.72-14.135,4.052-.942L181.545,35.5l4.118-12.354,3.769-.876-6.05,16.877-.085,7.586c5.861-3.769,7.8-4.448,9.027-5.362s5.23-.594,8.622-2.61,3.27-3.7,3.27-3.7a7.538,7.538,0,0,0,2.469-3.524c.509-2.007,2.148-3.006,2.148-5.428s-.4-2.9-2.572-3.11-8.038.113-9.536-.481Z"/><path class="d" d="M116.592,42.479l-1.941.443-.085,8.9,2.092-.481c2.827-.678,4.042-2.12,4.09-5.56,0-3.26-1.074-4.071-4.156-3.345"/><path class="d" d="M100.667,55.342c.057-6.549-1.187-8.82-5.173-7.887l-1.79.424-.188,18.4,1.809-.424c3.967-.942,5.277-3.882,5.343-10.516"/></g></g></svg>