<svg xmlns="http://www.w3.org/2000/svg" xmlns:xlink="http://www.w3.org/1999/xlink" width="294" height="133" viewBox="0 0 294 133"><defs><style>.a{fill:#f5f5f5;}.b{clip-path:url(#a);}.c{fill:#fff;}.d{fill:#4a4a4a;}</style><clipPath id="a"><rect class="a" width="294" height="133" transform="translate(72 1104)"/></clipPath></defs><g class="b" transform="translate(-72 -1104)"><g transform="translate(72 1108.308)"><rect class="c" width="294" height="124.385"/><rect class="c" width="294" height="124.385"/><path class="d" d="M127.833,62.117a9.894,9.894,0,1,1,9.788,9.9,9.8,9.8,0,0,1-9.788-9.9Zm15.774.5c0-3.769-2.422-6.408-5.654-6.464a5.569,5.569,0,0,0-5.343,3.647,6.323,6.323,0,0,0,1.687,6.954,5.447,5.447,0,0,0,6.021.773A5.513,5.513,0,0,0,143.608,62.616Z"/><path class="d" d="M196.4,62.108V54.833a2.026,2.026,0,0,1,2.2-2.205h10.2a1.838,1.838,0,1,1,0,3.656h-7.755c-.462,0-.6.113-.584.575v2.827c0,.415.132.509.528.509h6.662a1.885,1.885,0,0,1,1.677,2.761,1.724,1.724,0,0,1-1.583.886H201.07c-.471,0-.641.113-.622.613v2.9c0,.49.141.631.622.631h7.991a1.79,1.79,0,0,1,1.734,2.478,1.724,1.724,0,0,1-1.724,1.15h-10.6A1.988,1.988,0,0,1,196.4,69.4C196.386,66.96,196.4,64.529,196.4,62.108Z"/><path class="d" d="M179.594,60.76c.735-.773,1.451-1.545,2.2-2.3L187,53.24a2.327,2.327,0,0,1,2.572-.707,1.988,1.988,0,0,1,.547,3.317c-.66.678-1.366,1.31-2.064,1.951-.942.942-1.885,1.809-2.883,2.686-.377.339-.424.575-.085.942,1.753,2.167,3.468,4.353,5.2,6.54a2.591,2.591,0,0,1,.763,1.64,1.979,1.979,0,0,1-1.31,2.045,2.054,2.054,0,0,1-2.4-.641c-.452-.556-.876-1.14-1.31-1.706-1.319-1.743-2.648-3.477-3.958-5.22-.236-.32-.386-.386-.7-.066-.612.641-1.527,1.131-1.885,1.885a7.539,7.539,0,0,0-.113,2.695v1.1a2.092,2.092,0,0,1-2.2,2.073,2.064,2.064,0,0,1-2.054-2.139q0-3.633,0-7.275V54.569a2.148,2.148,0,0,1,1.451-2.1,2.111,2.111,0,0,1,2.337.7,2.441,2.441,0,0,1,.471,1.583v5.871Z"/><path class="d" d="M116.535,71.955a12.175,12.175,0,0,1-6.851-2.139,1.994,1.994,0,1,1,2.29-3.251,8.386,8.386,0,0,0,3.977,1.611,4.589,4.589,0,0,0,2.384-.264,1.564,1.564,0,0,0,1.055-1.338,1.47,1.47,0,0,0-.839-1.517,14.474,14.474,0,0,0-3.223-1.1,18.469,18.469,0,0,1-3.006-1.008,4.712,4.712,0,0,1-3.015-4.127,5.456,5.456,0,0,1,2.554-5.418,7.991,7.991,0,0,1,4.985-1.093,10.921,10.921,0,0,1,4.975,1.545,1.988,1.988,0,0,1,.858,2.827,2.017,2.017,0,0,1-2.874.669,7.482,7.482,0,0,0-4.325-1.206,2.9,2.9,0,0,0-1.065.264,1.5,1.5,0,0,0-.942,1.31,1.423,1.423,0,0,0,.763,1.395,13.108,13.108,0,0,0,3.166,1.084,12.75,12.75,0,0,1,4.25,1.762,4.551,4.551,0,0,1,1.885,3.543c.273,3.9-2.318,5.955-5.409,6.389a12.4,12.4,0,0,1-1.592.066Z"/><path class="d" d="M243.587,71.936a12.627,12.627,0,0,1-7.435-2.2,1.985,1.985,0,0,1,2.252-3.27,8.82,8.82,0,0,0,4.127,1.7,5.079,5.079,0,0,0,2.224-.188,1.658,1.658,0,0,0,1.187-1.451,1.527,1.527,0,0,0-.942-1.6,16.592,16.592,0,0,0-3.119-1.037,12.448,12.448,0,0,1-4.231-1.687,4.363,4.363,0,0,1-1.762-3.26c-.386-4.1,2.441-6.2,5.607-6.521a10.921,10.921,0,0,1,6.869,1.508,2,2,0,0,1,.876,2.723,1.969,1.969,0,0,1-2.827.716,7.623,7.623,0,0,0-4.382-1.244,2.827,2.827,0,0,0-1.008.236,1.517,1.517,0,0,0-1,1.31,1.536,1.536,0,0,0,.848,1.527,9.79,9.79,0,0,0,2.167.792,25.575,25.575,0,0,1,4.08,1.272,4.919,4.919,0,0,1,3,5.418,5.3,5.3,0,0,1-3.562,4.664,8.17,8.17,0,0,1-2.968.6Z"/><path class="d" d="M43.846,62.192V54.861a2.064,2.064,0,0,1,2.252-2.28h6.313a6.45,6.45,0,0,1,6.219,8.481,6.155,6.155,0,0,1-4.787,4.476,9.423,9.423,0,0,1-2.516.311h-2.78c-.405,0-.528.1-.518.518v3.251a2.1,2.1,0,1,1-4.193,0C43.836,67.2,43.846,64.689,43.846,62.192Zm4.212-2.959v2.554c0,.264.057.386.349.377h3.411a2.827,2.827,0,0,0,2.827-2.827,2.695,2.695,0,0,0-2.752-2.931c-1.159-.075-2.318,0-3.468-.057-.33,0-.377.132-.377.415C48.058,57.6,48.058,58.423,48.058,59.233Z"/><path class="d" d="M89.274,62.192V54.654a2.007,2.007,0,0,1,2.007-2.111c2.186,0,4.372-.066,6.549,0a6.493,6.493,0,0,1,5.362,2.752,6.6,6.6,0,0,1-4,10.271,20.353,20.353,0,0,1-4.843.283c-.876,0-.876,0-.876.942v2.742a2.1,2.1,0,1,1-4.193,0Zm4.193-2.949v2.507c0,.217,0,.415.311.405h3.581a2.827,2.827,0,0,0,2.695-2.874,2.723,2.723,0,0,0-2.648-2.827c-1.2-.123-2.393,0-3.59-.057-.283,0-.358.1-.358.377.019.81.009,1.649.009,2.478Z"/><path class="d" d="M163.368,52.232a9.348,9.348,0,0,1,5.249,1.885,2.1,2.1,0,1,1-2.422,3.364,6.888,6.888,0,0,0-2.544-1.206,5.513,5.513,0,0,0-6.69,4.957,6.813,6.813,0,0,0,.867,4.25,5.55,5.55,0,0,0,7.623,1.772c.377-.226.735-.5,1.093-.754a1.932,1.932,0,0,1,2.742.349,1.885,1.885,0,0,1-.236,2.667,8.914,8.914,0,0,1-4.947,2.337,10.045,10.045,0,0,1-7.312-1.47,9.338,9.338,0,0,1-4.259-7.359,9.668,9.668,0,0,1,3.317-8.481C157.752,52.9,160.023,52.213,163.368,52.232Z"/><path class="d" d="M221.282,63.3V57.028c0-.462-.122-.594-.584-.584h-3.355a1.941,1.941,0,1,1,0-3.873h12.165a1.941,1.941,0,1,1,0,3.873h-3.072c-1.018,0-.876-.113-.876.858V69.458a2.141,2.141,0,1,1-4.269.179C221.273,67.535,221.282,65.424,221.282,63.3Z"/><path class="d" d="M73.632,52a10.158,10.158,0,1,1-7.208,2.982A10.2,10.2,0,0,1,73.632,52Zm.217,19.477a7.086,7.086,0,0,0,6.04-4.165c2.233-4.372-.123-9.913-4.938-11.722a7.708,7.708,0,0,0-10.026,4.25C62.786,65.264,67.092,71.474,73.849,71.474Z"/><path class="d" d="M77.938,65.076a5.428,5.428,0,0,1-6.747,5.437,7.425,7.425,0,0,1-5.927-7.755,5.381,5.381,0,0,1,5.758-4.919,7.425,7.425,0,0,1,6.917,7.237Zm-11.741-1a5.918,5.918,0,0,0,5.333,5.6A3.515,3.515,0,0,0,75.3,65.858a6.04,6.04,0,0,0-4.712-5.286A3.505,3.505,0,0,0,66.2,64.077Z"/><path class="d" d="M72.953,66.8a1.885,1.885,0,0,1-2.186,1.885,4.335,4.335,0,0,1-3.647-3.92A1.828,1.828,0,0,1,69.109,62.8,4.306,4.306,0,0,1,72.953,66.8Zm-2.2.377a2.7,2.7,0,0,0-2.092-2.111c-.415,0-.556.273-.518.669a2.827,2.827,0,0,0,1.979,1.979C70.513,67.761,70.739,67.592,70.748,67.177Z"/></g></g></svg>