<svg xmlns="http://www.w3.org/2000/svg" xmlns:xlink="http://www.w3.org/1999/xlink" width="294" height="132" viewBox="0 0 294 132"><defs><style>.a{fill:#f5f5f5;}.b{clip-path:url(#a);}.c{fill:#fff;}.d{fill:#4a4a4a;}</style><clipPath id="a"><rect class="a" width="294" height="132" transform="translate(72 948)"/></clipPath></defs><g class="b" transform="translate(-72 -948)"><g transform="translate(72 951.808)"><rect class="c" width="294" height="124.385"/><path class="d" d="M234.635,71.936V52.449h15.52v3.892H238.508v3.882h7.736v3.939h-7.736v3.882h11.647v3.892Z"/><path class="d" d="M222.941,52.449V71.936h-3.873l-9.7-12.957V71.936h-3.863V52.449h3.863l9.7,12.957V52.449Z"/><path class="d" d="M188.791,64.162l-2.441-6.1-2.431,6.1Zm1.555,3.882h-7.972l-1.583,3.892h-4.156l7.793-19.487h3.863l7.783,19.487H191.92Z"/><path class="d" d="M153.493,71.936V52.449h3.873v15.6h9.7v3.892Z"/><path class="d" d="M128.418,60.223h7.746a1.885,1.885,0,0,0,1.413-.575,1.809,1.809,0,0,0,.575-1.395,1.96,1.96,0,0,0-1.951-1.96h-7.746v3.929Zm10.61,3.166,2.77,8.547h-4.061L135.2,64.162h-6.785v7.774h-3.863V52.449h11.609a5.8,5.8,0,0,1,4.146,1.677,5.927,5.927,0,0,1-1.282,9.263Z"/><path class="d" d="M97.859,71.936V52.449h15.52v3.892H101.722v3.882h7.736v3.939h-7.736v3.882h11.656v3.892Z"/><path class="d" d="M76.176,71.936,68.393,52.449h4.156L78.136,66.32,83.63,52.449h4.146L80.04,71.936Z"/><path class="d" d="M43.846,71.936V52.449h15.52v3.892H47.709v3.882h7.736v3.939H47.709v3.882H59.365v3.892Z"/></g></g></svg>