<svg xmlns="http://www.w3.org/2000/svg" xmlns:xlink="http://www.w3.org/1999/xlink" width="300" height="133" viewBox="0 0 300 133"><defs><style>.a{fill:#f5f5f5;}.b{clip-path:url(#a);}.c{fill:#fff;}.d{fill:#4a4a4a;}</style><clipPath id="a"><rect class="a" width="300" height="133" transform="translate(390 1104)"/></clipPath></defs><g class="b" transform="translate(-390 -1104)"><g transform="translate(390 1107.038)"><rect class="c" width="300" height="126.923"/><path class="d" d="M72.452,58.385c-2.1-1.673-5.3-3.048-9.51-4.106a36.674,36.674,0,0,1-7.817-2.5c-1.635-.817-2.423-1.923-2.423-3.337h0a3.4,3.4,0,0,1,2.019-3.077,11.433,11.433,0,0,1,5.654-1.2,12.587,12.587,0,0,1,6.26,1.365,5,5,0,0,1,2.663,3.74V49.5l.221.058a9.741,9.741,0,0,0,2.212.25,7.635,7.635,0,0,0,2.1-.356l.269-.087-.173-1.538a8.827,8.827,0,0,0-4.308-5.894,17.356,17.356,0,0,0-9.365-2.279c-4.212,0-7.692.894-10.231,2.654a8.365,8.365,0,0,0-3.962,7.212A7.692,7.692,0,0,0,48.692,55.5c1.721,1.548,4.673,2.885,8.788,3.952,5.019,1.125,8.163,2.173,9.529,3.192A4.337,4.337,0,0,1,69,66.212a4.154,4.154,0,0,1-2.385,3.721,13,13,0,0,1-6.5,1.423,13.723,13.723,0,0,1-7.471-1.731A5.942,5.942,0,0,1,49.7,65.3v-.192l-.183-.077a5.769,5.769,0,0,0-2.4-.471,8.259,8.259,0,0,0-2.087.308l-.308.087.452,1.923v.154A9.154,9.154,0,0,0,49.9,73.462c2.673,1.606,6.231,2.413,10.577,2.413,4.529,0,8.221-.962,10.962-2.75a8.788,8.788,0,0,0,4.231-7.692h0a8.538,8.538,0,0,0-3.231-7.038"/><path class="d" d="M111.26,51.269a4.9,4.9,0,0,1-2.173,4.26,10.394,10.394,0,0,1-6.019,1.548H95.25V45.538c1.154-.144,2.327-.25,3.519-.288l4.26-.077a10.125,10.125,0,0,1,6.125,1.6,5.192,5.192,0,0,1,2.077,4.471h0Zm3.462-7.856c-2.192-1.827-5.2-2.75-8.962-2.75H86.894v1.279h1.4a.416.416,0,0,1,.106.2,7.635,7.635,0,0,1,.125,1.923c0,.067-.1,27.8-.1,29.606H87.356v1.269h9.538V73.654h-1.51l-.087-.173a8.721,8.721,0,0,1-.106-1.923V61.375h9.1a16.636,16.636,0,0,0,9.913-2.75,9.087,9.087,0,0,0,3.779-7.692v.029a9.26,9.26,0,0,0-3.3-7.5"/><path class="d" d="M145.7,60.577H134c.375-.856,5.452-12.269,6.01-13.51.529,1.25,5.346,12.663,5.692,13.51m12.952,13.1a1.519,1.519,0,0,1-.365-.567L144.231,41.663v-.058a.663.663,0,0,0,.423-.558V40.76h-.269a17.768,17.768,0,0,0-2.337-.25h-.673l-3.067.25h-.2l-.077.173L123.144,72.962a5.115,5.115,0,0,1-.327.712h-.962v1.288h7.952V73.692h-1.4a3.788,3.788,0,0,1,.173-.827s2.971-6.731,3.5-7.933h15.385c.173.394,3.673,8.6,3.74,8.76H150.1V75h9.827V73.7h-1.269"/><path class="d" d="M195.615,41.856h1.5a.449.449,0,0,1,.144.212,6.827,6.827,0,0,1,.135,2.029s-.144,19.75-.154,21.452L176.4,40.635h-8.135v1.279h1.519c.125,0,.25.106.385.327a1.587,1.587,0,0,1,.24.721s-.2,28.846-.212,30.654h-1.125v1.279h8.058V73.615h-1.75s-.058,0-.115-.2a8.748,8.748,0,0,1-.106-1.875v-.269s.115-17.8.144-22.048l21.808,25.635h.106a12.28,12.28,0,0,0,2.212.3h0a11.1,11.1,0,0,0,2.385-.25l.269-.058s.231-32.692.231-33.01h1.067v-1.25h-7.8v1.269Z"/><path class="d" d="M238.846,74.933h10.481V73.663H248.24a2.067,2.067,0,0,1-.365-.385l-12.99-16.548,11.808-14.519.2-.231,1.1-.058v-1.26H239.7v1.26l1.221.058-.115.24-4.51,5.663-4.51,5.394-8.769-11.308h.962V40.663H213.788v1.279h1.163a1.605,1.605,0,0,1,.308.385l11.885,15.125L214.221,73.337l-.269.317h-.962v1.269h8.529V73.654h-1.327v-.317c1.673-2.192,3.356-4.327,5-6.337l4.933-5.9,9.952,12.558h-1.231v1.269Z"/><path class="d" d="M75.231,87.981c0-.654-.394-.962-1.212-.962H72.9v1.923h1.135c.827,0,1.212-.269,1.212-.962m-.173-2.4c0-.587-.365-.875-1.125-.875H72.9v1.721h1.048c.769,0,1.125-.212,1.125-.846M72.192,84.1h1.846a2.6,2.6,0,0,1,1.077.163,1.26,1.26,0,0,1,.75,1.231A1.183,1.183,0,0,1,75,86.673a1.346,1.346,0,0,1,.962,1.423c0,1.1-.625,1.452-1.923,1.452H72.115V84.077Z"/><path class="d" d="M84.356,89.548V87.385l-2.077-3.308h.9L84.75,86.74l1.529-2.663h.827l-2.029,3.308v2.163Z"/><path class="d" d="M102.75,88.99c.827,0,1.327-.365,1.327-.962s-.577-.769-1.49-.962a4.586,4.586,0,0,1-1.212-.4,1.24,1.24,0,0,1-.6-1.1c0-.913.74-1.538,2.058-1.538,1.144,0,1.817.529,1.817,1.346v.087h-.74c0-.538-.423-.837-1.144-.837s-1.221.337-1.221.894.529.663,1.49.962c1.144.3,1.788.567,1.788,1.567s-.731,1.663-2.048,1.663-2.058-.51-2.058-1.615v-.077h.779c0,.721.423,1.048,1.25,1.048"/><path class="d" d="M113.779,84.817,112.731,87.5h2.048l-.962-2.692Zm-2.654,4.731,2.308-5.471h.779l2.192,5.471h-.856l-.538-1.413H112.5l-.6,1.413Z"/><path class="d" d="M125.846,85.577c0-.712-.413-.817-1.154-.817h-1.067v1.635h1.067c.788,0,1.154-.2,1.154-.817m-2.942-1.51h1.923c1.212,0,1.808.49,1.808,1.433a1.26,1.26,0,0,1-.962,1.288.875.875,0,0,1,.769.817,17.25,17.25,0,0,0,.346,1.923h-.827c-.221-.894-.2-1.558-.327-1.923s-.423-.548-1.106-.548h-.962v2.471h-.721Z"/><path class="d" d="M135.7,84.817,134.615,87.5h2.058Zm-2.663,4.731,2.317-5.471h.779l2.183,5.471H137.5l-.548-1.413h-2.519l-.606,1.413Z"/><path class="d" d="M153.846,87.981c0-.654-.4-.962-1.212-.962h-1.115v1.923h1.115c.827,0,1.212-.269,1.212-.962m-.183-2.4c0-.587-.365-.875-1.125-.875H151.49v1.721h1.048c.769,0,1.125-.212,1.125-.846M150.779,84.1h1.856a2.6,2.6,0,0,1,1.077.163,1.279,1.279,0,0,1,.75,1.231,1.183,1.183,0,0,1-.875,1.2,1.346,1.346,0,0,1,1.019,1.423c0,1.1-.625,1.452-1.923,1.452H150.76v-5.49Z"/><path class="d" d="M161.423,84.077h.721v4.808h2.471v.654h-3.192Z"/><path class="d" d="M173.365,84.817,172.308,87.5h2.058Zm-2.654,4.731,2.308-5.471h.779l2.163,5.471h-.846l-.538-1.413h-2.462l-.606,1.413Z"/><path class="d" d="M182.49,84.077h.721v2.346l2.24-2.346h.962l-2.356,2.462,2.654,3.038h-1.048l-2.452-2.885v2.885h-.721Z"/><path class="d" d="M193.212,84.077H196.6v.654h-2.654v1.654h2.538v.644h-2.538v1.865h2.712v.654h-3.442Z"/><path class="d" d="M203.6,84.077h.721v4.808h2.471v.654H203.6Z"/><path class="d" d="M214.962,89.548V87.385l-2.067-3.308h.894l1.6,2.663,1.529-2.663h.827l-2.029,3.308v2.163Z"/><path class="d" d="M221.337,83.25v.731h.385c.4,0,.577-.077.577-.375s-.183-.356-.577-.356Zm1.24.365a.5.5,0,0,1-.471.51l.442.9h-.3l-.423-.865h-.49v.865h-.269V83.106h.7c.538,0,.808.154.808.538m.221-.615a1.51,1.51,0,0,0-2.144,0,1.577,1.577,0,0,0-.452,1.087,1.519,1.519,0,0,0,.452,1.077,1.49,1.49,0,0,0,1.067.442,1.519,1.519,0,0,0,1.077-.452,1.442,1.442,0,0,0,.442-1.067,1.5,1.5,0,0,0-.442-1.077m.125-.115a1.721,1.721,0,0,1,0,2.385,1.769,1.769,0,0,1-1.2.51,1.712,1.712,0,0,1-1.192-.51,1.673,1.673,0,0,1-.49-1.192,1.711,1.711,0,0,1,.5-1.2,1.615,1.615,0,0,1,1.183-.49,1.663,1.663,0,0,1,1.2.5"/><path class="d" d="M252.452,38.606v.885h.433c.452,0,.673-.106.673-.423s-.221-.462-.692-.462Zm1.625.4a.711.711,0,0,1-.606.731l.6,1.231H253.5l-.548-1.154h-.5v1.154h-.529v-2.7h1.019c.75,0,1.115.26,1.115.74m.288-.8a1.99,1.99,0,0,0-1.462-.615,1.923,1.923,0,0,0-1.433.6,2.064,2.064,0,1,0,2.9,2.933,2.01,2.01,0,0,0,.6-1.442,2.087,2.087,0,0,0-.587-1.471m.212-.212a2.327,2.327,0,0,1,.683,1.663,2.3,2.3,0,0,1-.683,1.673,2.4,2.4,0,0,1-1.683.712,2.289,2.289,0,0,1-1.673-.721,2.356,2.356,0,0,1-.692-1.663,2.442,2.442,0,0,1,.721-1.7,2.24,2.24,0,0,1,1.644-.673,2.279,2.279,0,0,1,1.683.712"/></g></g></svg>