<svg xmlns="http://www.w3.org/2000/svg" xmlns:xlink="http://www.w3.org/1999/xlink" width="294" height="133" viewBox="0 0 294 133"><defs><style>.a{fill:#f5f5f5;}.b{clip-path:url(#a);}.c{fill:#fff;}.d{fill:#4a4a4a;}</style><clipPath id="a"><rect class="a" width="294" height="133" transform="translate(714 1104)"/></clipPath></defs><g class="b" transform="translate(-714 -1104)"><g transform="translate(714 1108.308)"><rect class="c" width="294" height="124.385"/><path class="d" d="M43.846,51.356h3.939V68.129c0,.942.207,1.979,1.357,1.979s1.461-.942,1.461-1.979V51.356h3.326V67.611c0,4.259-1.885,5.842-5.022,5.842s-5.06-1.583-5.06-5.842Z"/><path class="d" d="M62.541,60.553h.782c1.461,0,2-1.461,2-3.015,0-2.346-.848-3.015-2.177-3.015h-.6Zm-3.939-9.2h4.419c3.769,0,6.238,1.583,6.238,6.153,0,1.819-.537,4.259-2.3,5.3L69.3,73.029H65.321l-1.885-9.31h-.942v9.31H58.6Z"/><path class="d" d="M77.147,69.863c2.356,0,2.723-.942,2.723-3.194,0-1.979-.481-3.11-2.723-3.072Zm0-9.621c1.969,0,2.478-.942,2.478-2.827,0-2.469-.509-2.893-2.478-2.827Zm-3.939-8.886h4.843c2.422,0,5.333,1.338,5.333,5.475,0,2.441-1.093,4.325-3.515,4.843v.066c2.695.631,3.939,2.525,3.939,5.258,0,3.958-2.667,6.031-5.578,6.031H73.208Z"/><path class="d" d="M92.261,54.7H92.2L90.961,65.019h2.45Zm-2.516-3.345h5.7l2.667,21.673H94.344l-.575-4.806h-3.2l-.547,4.806H86.692Z"/><path class="d" d="M101.684,51.356h3.854l3.6,11.449h.066V51.356h3.147V73.029h-3.044L105.1,59.912h-.057V73.029H101.7Z"/><path class="d" d="M128.9,64.473c0,4.712.547,5.654,1.451,5.654s1.451-.942,1.451-5.654V59.912c0-4.712-.537-5.654-1.451-5.654s-1.451.942-1.451,5.654Zm1.451-13.541c3.487,0,5.758,2.7,5.758,11.308s-2.3,11.261-5.757,11.261-5.757-2.7-5.757-11.308,2.271-11.308,5.757-11.308"/><path class="d" d="M140.2,51.356h3.977V68.129c0,.942.217,1.979,1.366,1.979s1.451-.942,1.451-1.979V51.356h3.336V67.611c0,4.259-1.885,5.842-5.032,5.842s-5.06-1.583-5.06-5.842Z"/><path class="d" d="M156.772,54.7h-3.392V51.356H164.1V54.7h-3.392V73.029h-3.939Z"/><path class="d" d="M167.344,51.356h8.867V54.7H171.33v5.786h3.609V64.02H171.33v9.008h-3.939Z"/><rect class="d" width="3.939" height="21.673" transform="translate(179.557 51.356)"/><path class="d" d="M189.979,54.7h-3.4V51.356H197.3V54.7h-3.392V73.029h-3.939Z"/><path class="d" d="M202.37,54.7h-3.392V51.356h10.733V54.7h-3.4V73.029H202.37Z"/><path class="d" d="M212.962,51.356h8.9V54.7H216.9v5.541h3.666v3.534H216.9v5.955h5.183v3.3h-9.122Z"/><path class="d" d="M229.829,60.553h.792c1.451,0,2-1.461,2-3.015,0-2.346-.848-3.015-2.186-3.015h-.6Zm-3.939-9.2h4.419c3.769,0,6.247,1.583,6.247,6.153,0,1.819-.547,4.259-2.309,5.3l2.337,10.224h-3.967l-1.885-9.31h-.942v9.31h-3.939Z"/><path class="d" d="M243.191,66.762c0,1.216,0,3.345,1.7,3.345a1.885,1.885,0,0,0,1.753-2.1c0-3.863-7.143-4.712-7.143-11.176,0-3.251,1.753-5.9,5.088-5.9,3.543,0,4.909,2.7,4.994,6.6h-3.515c0-1.216,0-3.26-1.574-3.26-.942,0-1.479.792-1.479,1.979,0,3.684,7.143,4.928,7.143,11.232,0,3.317-1.885,5.965-5.418,5.965-4.212,0-5.06-3.713-5.06-6.69Z"/></g></g></svg>