<svg xmlns="http://www.w3.org/2000/svg" xmlns:xlink="http://www.w3.org/1999/xlink" width="300" height="132" viewBox="0 0 300 132"><defs><style>.a{fill:#f5f5f5;}.b{clip-path:url(#a);}.c{fill:#fff;}.d{fill:#4a4a4a;}</style><clipPath id="a"><rect class="a" width="300" height="132" transform="translate(390 948)"/></clipPath></defs><g class="b" transform="translate(-390 -948)"><g transform="translate(390 950.538)"><rect class="c" width="300" height="126.923"/><path class="d" d="M250.317,45.99h-4.942v5.337h4.942V80.942h4.942V45.99Zm-11.077,8.49c0-4.663-2.183-8.788-7.327-8.788a7.519,7.519,0,0,0-7.423,7.615v2.75h4.952V53.173a2.269,2.269,0,0,1,2.423-2.51c2.423,0,2.423,2.106,2.423,3.846a8.346,8.346,0,0,1-.875,4.615L224.49,76.163v4.712h14.75V75.962h-8.923L237.6,61.731c1.548-2.981,1.644-3.865,1.644-7.25Zm-46.529,7.125h-2.817V50.7h2.577c3.635,0,4.212,1.923,4.212,5.452s-.529,5.452-3.971,5.452Zm8.923-5.356c0-6.731-2.885-10.26-8.731-10.26h-7.952V80.942h4.942V66.019h2.962l4.606,14.933h5.24L197.365,64.99c3.154-1.769,4.269-4.712,4.269-8.74ZM162.577,80.942h14.75V75.962h-9.8V65.673h8.538V60.962h-8.538V50.7h9.8V45.99h-14.75ZM145.971,70.365h-.1l-3.923-24.4h-5.24l7.029,34.952h4.337l7.087-34.952H150ZM115.615,80.942h14.75V75.962h-9.808V65.673H129.1V60.962h-8.538V50.7h9.8V45.99h-14.74ZM98.7,61.606H95.894V50.7h2.567c3.644,0,4.221,1.923,4.221,5.452S102.144,61.606,98.7,61.606Zm8.923-5.356c0-6.731-2.885-10.26-8.731-10.26H90.942V80.942h4.942V66.019h2.962l4.606,14.933h5.2L103.317,64.99C106.519,63.221,107.625,60.279,107.625,56.25ZM78.038,72.7a3.365,3.365,0,1,1-6.731,0V54.231a3.365,3.365,0,1,1,6.731,0Zm-3.346-27.01A8.144,8.144,0,0,0,66.4,54.231V72.692a8.288,8.288,0,0,0,16.577,0V54.231a8.144,8.144,0,0,0-8.288-8.538ZM44.74,80.942h4.942V66.019h8.529V61.308H49.683V50.731h9.788V46.019H44.74Z"/></g></g></svg>