<svg xmlns="http://www.w3.org/2000/svg" xmlns:xlink="http://www.w3.org/1999/xlink" width="294" height="133" viewBox="0 0 294 133"><defs><style>.a{fill:#f5f5f5;}.b{clip-path:url(#a);}.c{fill:#fff;}.d{fill:#4a4a4a;}</style><clipPath id="a"><rect class="a" width="294" height="133" transform="translate(72 312)"/></clipPath></defs><g class="b" transform="translate(-72 -312)"><g transform="translate(72 316.308)"><rect class="c" width="294" height="124.385"/><path class="d" d="M75.206,53.316A12.891,12.891,0,0,0,65.962,57.8L69.4,61.118a9.583,9.583,0,0,1,7.425-2.62c2.752.236,5.475,1.885,5.475,5.352v.829s-5.192.452-9.187.942c-5.531.726-8.66,3.939-8.66,8.735s3.675,8.707,9.282,8.707a10.78,10.78,0,0,0,8.481-4.316v2.94H87.55v-17.8C87.578,58.112,83.7,52.929,75.206,53.316Zm-2,24.839A3.684,3.684,0,0,1,69.5,74.386c0-1.885,1.753-3.138,3.675-3.694,2.243-.66,9.046-1.14,9.046-1.14C82.216,75.733,76.581,78.3,73.208,78.155Z"/><path class="d" d="M181.488,53.278a12.533,12.533,0,0,0-9.659,4.2c-2.516,2.761-3.769,6.427-3.769,10.884v.207c0,4.353,1.272,7.906,3.769,10.535a12.957,12.957,0,0,0,9.838,4,13.654,13.654,0,0,0,10.45-4.523l-3.439-3.317A9.611,9.611,0,0,1,181.668,78c-4.438,0-7.538-2.318-8.217-6.945l-.1-.726h20.561l.066-.7a15.656,15.656,0,0,0,.066-1.762,16.085,16.085,0,0,0-3.468-10.365A11.308,11.308,0,0,0,181.488,53.278Zm-7.934,11.986.236-1.206a7.538,7.538,0,0,1,2.2-3.421,7.962,7.962,0,0,1,5.541-2.139,6.69,6.69,0,0,1,4.947,2.1,6.963,6.963,0,0,1,1.885,3.5l.17,1.168Z"/><path class="d" d="M58.63,77.015C55.4,76.949,54.5,74.8,54.5,72.388V58.63h7.152V53.316H54.5v-8.33H49.17v8.33H43.846V58.63H49.17V72.388c0,5.494,2.827,8.877,6.4,9.6a17.207,17.207,0,0,0,6.125-.273V76.911A17.329,17.329,0,0,1,58.63,77.015Z"/><path class="d" d="M102.778,77.015c-3.232-.066-4.127-2.214-4.127-4.627v-31.1H93.288v31.1c0,5.494,2.827,8.877,6.389,9.6a16.509,16.509,0,0,0,6.021-.273V76.911A16.18,16.18,0,0,1,102.778,77.015Z"/><path class="d" d="M210.135,65.858c-2.13-.66-7.152-1.7-7.152-4.222,0-1.885,1.442-3.421,4.476-3.421a9.536,9.536,0,0,1,7.152,2.9l3.609-3.552a15.152,15.152,0,0,0-10.761-4.25c-5.06,0-9.838,3.176-9.838,8.707,0,5,5.465,6.6,8.283,7.7l5.192,1.885c1.724.688,2.544,1.555,2.544,2.9,0,2.384-2.544,3.863-6.012,3.694a10.855,10.855,0,0,1-7.359-2.9l-3.543,3.487a15.077,15.077,0,0,0,10.7,4.325c5.531,0,11.76-3.147,11.76-8.707C219.209,68.619,212.962,66.753,210.135,65.858Z"/><path class="d" d="M158.138,57.424s-.405-.829-2.883-2.45a11.892,11.892,0,0,0-6.05-1.658c-7.359,0-13.343,6.7-13.343,14.992s5.984,14.757,13.343,14.757a13.5,13.5,0,0,0,5.776-1.244c2.648-1.423,3.157-3.081,3.157-3.081v2.9h5.371V41.32h-5.371ZM149.205,77.6c-4.712,0-8.481-4-8.481-9.291s3.769-9.536,8.481-9.536a9.037,9.037,0,0,1,9.112,8.952c-.009,5.249-4.476,9.875-9.112,9.875Z"/><path class="d" d="M134.175,54.767h-7.7L115.225,65.99V41.32h-5.362v40.4H115.2v-8.16l2.4-2.384,10.554,10.544h7.708l-14.446-14.3Z"/><path class="d" d="M235.718,67.413l12.759-12.646h-7.708L229.49,65.99V41.32h-5.324v40.4h5.324v-8.16l2.412-2.384,10.554,10.544h7.7Z"/></g></g></svg>