<svg xmlns="http://www.w3.org/2000/svg" xmlns:xlink="http://www.w3.org/1999/xlink" width="294" height="132" viewBox="0 0 294 132"><defs><style>.a{fill:#f5f5f5;}.b{clip-path:url(#a);}.c{fill:#fff;}.d{fill:#4a4a4a;}</style><clipPath id="a"><rect class="a" width="294" height="132" transform="translate(72 156)"/></clipPath></defs><g class="b" transform="translate(-72 -156)"><g transform="translate(72 159.808)"><rect class="c" width="294" height="124.385"/><path class="d" d="M69.787,44.807A25.989,25.989,0,1,0,88.16,52.462a26.074,26.074,0,0,0-18.373-7.655Zm0,39.125a13.06,13.06,0,1,1,12.994-13.06,13.06,13.06,0,0,1-12.994,13.06Z"/><path class="d" d="M115.386,79.634a2.29,2.29,0,0,1,3.92-1.611c6.493,6.6,17.225,18.036,17.273,18.092a1.885,1.885,0,0,0,.942.622,3.486,3.486,0,0,0,1.131.1h11.713a2.29,2.29,0,0,0,1.753-3.684l-19.4-19.949-1.037-1.037c-2.214-2.648-1.96-3.684.575-6.379l15.369-17.254a2.252,2.252,0,0,0-1.809-3.628h-10.62a3.194,3.194,0,0,0-1.037.1,1.885,1.885,0,0,0-1.027.622c-.057,0-8.566,9.272-13.824,14.926a2.328,2.328,0,0,1-4.024-1.611V29.362a2.064,2.064,0,0,0-2.205-2.035h-8.66a1.988,1.988,0,0,0-2.224,1.885V94.824c0,1.5,1.244,1.885,2.271,1.885h8.613a2.092,2.092,0,0,0,2.214-1.969V79.663Z"/><path class="d" d="M186.153,94.457l-.942-8.707a2.054,2.054,0,0,0-2.4-1.819,13.192,13.192,0,0,1-2.017.16,13.032,13.032,0,0,1-12.947-12.335v-11.4a2.459,2.459,0,0,1,2.431-2.544h11.59a2.167,2.167,0,0,0,2.064-2.214V47.342a2.167,2.167,0,0,0-1.96-2.431h-11.7a2.412,2.412,0,0,1-2.478-2.337V29.381a2.1,2.1,0,0,0-2.214-2.073h-8.622a1.969,1.969,0,0,0-2.111,2.017V71.757a25.791,25.791,0,0,0,29.4,25.084,2.13,2.13,0,0,0,1.913-2.384Z"/><path class="d" d="M248.666,83.517c-7.331,0-8.481-2.638-8.481-12.542V47.115a2.233,2.233,0,0,0-2.271-2.233h-8.66A2.29,2.29,0,0,0,227,47.115V48.2a25.537,25.537,0,0,0-12.8-3.421A26.074,26.074,0,1,0,231.073,90.65c2.422,3.769,6.342,6.219,12.486,6.266,1.027,0,6.6.207,6.6-2.431v-9.31a1.64,1.64,0,0,0-1.489-1.658Zm-34.4.415a13.06,13.06,0,1,1,12.994-13.06A13.06,13.06,0,0,1,214.262,83.931Z"/></g></g></svg>