<svg xmlns="http://www.w3.org/2000/svg" xmlns:xlink="http://www.w3.org/1999/xlink" width="300" height="133" viewBox="0 0 300 133"><defs><style>.a{fill:#f5f5f5;}.b{clip-path:url(#a);}.c{fill:#fff;}.d{fill:#4a4a4a;}</style><clipPath id="a"><rect class="a" width="300" height="133" transform="translate(390 312)"/></clipPath></defs><g class="b" transform="translate(-390 -312)"><g transform="translate(390 315.038)"><rect class="c" width="300" height="126.923"/><path class="d" d="M150,3.971A59.491,59.491,0,1,1,90.808,63.337,59.49,59.49,0,0,1,150,3.971ZM95.548,63.462a54.44,54.44,0,1,0,108.88,0c0-30.279-24.514-54.808-54.553-54.663A54.538,54.538,0,0,0,95.548,63.462Z"/><path class="d" d="M175.577,41.173,160.894,55.9c5.067,3.019,11.038-.654,12.308-7.519h4.462c.548,5.769-4.481,11.885-10.663,13.048a13.385,13.385,0,0,1-7.471-25.567C165.385,33.481,172.779,35.856,175.577,41.173Zm-18.442,11.26,11.471-11.538c-2.885-2.048-7.433-1.49-10.221,1.385S155.106,49.615,157.135,52.433Z"/><path class="d" d="M121.442,68.269l3.356-3.385,10.163,10.25L145.4,64.615l3.221,3.529L138.394,78.192l10.423,10.356-3.433,3.346L135.308,81.731l-10.25,10.317-3.221-3.538,9.894-9.923Z"/><path class="d" d="M162.385,91.346V70.038H151.808V65.385H177.7V70H167.231V91.346Z"/><path class="d" d="M135.192,46.846l10-11.933,3.625,3.038-3.846,4.6c-.817.962-1.635,1.923-2.442,2.885-1.625,1.923-3.846,3.692-4.673,5.952s-.26,5.019-.279,7.567,0,2.683-2.644,2.683h-2.115c0-3.1.058-6.038,0-8.971a4.057,4.057,0,0,0-.856-2.3c-3.365-4.144-6.808-8.221-10.337-12.5l3.606-3.058Z"/></g></g></svg>