<svg xmlns="http://www.w3.org/2000/svg" xmlns:xlink="http://www.w3.org/1999/xlink" width="294" height="133" viewBox="0 0 294 133"><defs><style>.a{fill:#f5f5f5;}.b{clip-path:url(#a);}.c{fill:#fff;}.d{fill:#4a4a4a;}</style><clipPath id="a"><rect class="a" width="294" height="133" transform="translate(714 312)"/></clipPath></defs><g class="b" transform="translate(-714 -312)"><g transform="translate(714 316.308)"><rect class="c" width="294" height="124.385"/><path class="d" d="M123.829,53.156a9.743,9.743,0,0,0-9.423,6.012,16.905,16.905,0,0,0-1.131,6.6v.311c0,9.677,4.881,12.994,11.242,12.994a12.25,12.25,0,0,0,9.178-4.014.179.179,0,0,0,0-.273h0l-3-2.733a.207.207,0,0,0-.273,0,7.416,7.416,0,0,1-5.8,2.393c-4.156,0-6.295-2.591-6.295-6.945h15.793a.17.17,0,0,0,.17-.179V63.549C134.354,57.405,130.5,53.156,123.829,53.156Zm5.654,10.158H118.429V62.9a5.4,5.4,0,0,1,.622-2.629c.792-1.451,2.582-2.412,4.919-2.412s4.09.942,4.843,2.412A5.117,5.117,0,0,1,129.5,62.9Z"/><path class="d" d="M173.215,53.156a9.734,9.734,0,0,0-9.423,6.012,17.075,17.075,0,0,0-1.14,6.6v.311c0,9.677,4.881,12.994,11.251,12.994a12.25,12.25,0,0,0,9.178-4.014.179.179,0,0,0,0-.273h0l-2.987-2.733a.207.207,0,0,0-.273,0,7.416,7.416,0,0,1-5.814,2.393c-4.165,0-6.295-2.591-6.295-6.945H183.5a.17.17,0,0,0,.17-.179V63.549C183.75,57.405,179.887,53.156,173.215,53.156Zm5.71,10.158H167.853V62.9a5.286,5.286,0,0,1,.613-2.629c.792-1.451,2.582-2.412,4.919-2.412s4.1.942,4.853,2.412a5.305,5.305,0,0,1,.688,2.629v.415Z"/><path class="d" d="M91.131,53.636v4.222c0,.1.1.17.17.207h11.553L90.509,78.447a.151.151,0,0,0,.066.245.132.132,0,0,0,.1,0h20.288a.2.2,0,0,0,.179-.207V74.3a.226.226,0,0,0-.179-.207H98.942l12.25-20.382a.151.151,0,0,0-.066-.245.132.132,0,0,0-.1,0H91.234a.188.188,0,0,0-.17.207Z"/><path class="d" d="M223.5,46.936h-4.476a.179.179,0,0,0-.17.17v6.323h-3.307a.2.2,0,0,0-.17.207v4.222c0,.1.1.17.17.207h3.307V71.257c0,5.494,3.986,7.633,8.321,7.633h0a6.6,6.6,0,0,0,.942,0,.188.188,0,0,0,.17-.207V74.339a.189.189,0,0,0-.2-.17h0a3.44,3.44,0,0,1-.763,0c-2.441-.1-3.675-1.423-3.675-4.325V58.027h4.919a.226.226,0,0,0,.207-.17h0V53.636a.226.226,0,0,0-.207-.207h-4.919V47.115A.144.144,0,0,0,223.5,46.936Z"/><path class="d" d="M247.6,65.962c-1.649-1.178-4.09-1.8-7.152-2.318-4.024-.688-4.542-1.489-4.5-3.081a2.375,2.375,0,0,1,1.3-2.139,6.219,6.219,0,0,1,3.769-.584,7.048,7.048,0,0,1,4.542,2.073.17.17,0,0,0,.245,0h0l3.025-2.77a.16.16,0,0,0,0-.236h0a6.539,6.539,0,0,0-2.064-1.885,12.1,12.1,0,0,0-2.874-1.31,14.021,14.021,0,0,0-3.618-.481,12.382,12.382,0,0,0-4.712.858,7.821,7.821,0,0,0-2.808,1.932,6.681,6.681,0,0,0-1.479,3.006,8,8,0,0,0,.141,3.948,6.455,6.455,0,0,0,1.376,2.346c1.847,1.969,4.674,2.525,7.388,3.006,1.885.349,5.22.481,5.154,3.072s-3.1,3.317-5.154,3.317a8.264,8.264,0,0,1-6.059-2.516.236.236,0,0,0-.273,0l-2.978,2.657a.2.2,0,0,0,0,.273,13.051,13.051,0,0,0,9.621,3.939c4.815,0,9.423-2.346,9.668-7.359A6.085,6.085,0,0,0,247.6,65.962Z"/><ellipse class="d" cx="3.439" cy="3.458" rx="3.439" ry="3.458" transform="translate(205.574 41.782)"/><path class="d" d="M194.982,53.429V49.942c.141-2.591,1.885-3.59,3.92-3.628a23.125,23.125,0,0,1,3.128.17.151.151,0,0,0,.207-.132V42.131a.16.16,0,0,0-.17-.17,15.671,15.671,0,0,0-3.1-.273h-.443c-4.919,0-8.387,2.761-8.387,7.84v3.939H186.37a.17.17,0,0,0-.179.17v4.222c0,.1.1.17.179.207h3.769V78.551a.217.217,0,0,0,.17.207h4.467a.188.188,0,0,0,.17-.207V58.065h11.628V78.551a.226.226,0,0,0,.17.207h4.476a.188.188,0,0,0,.17-.207V53.636c0-.1-.1-.17-.17-.207Z"/><path class="d" d="M155.811,55.4a8.98,8.98,0,0,0-6.427-2.28,8.745,8.745,0,0,0-5.211,1.385,6.6,6.6,0,0,0-.942.763,3.091,3.091,0,0,1-.245.207V53.636c0-.1-.1-.17-.17-.207H138.34a.188.188,0,0,0-.17.207V78.523a.226.226,0,0,0,.17.207h4.476a.188.188,0,0,0,.17-.207V62a3.967,3.967,0,0,1,2.026-3.147,8.208,8.208,0,0,1,4.957-.66,4.712,4.712,0,0,1,3.986,4.778V78.523a.226.226,0,0,0,.179.207H158.6a.188.188,0,0,0,.17-.207V63A9.7,9.7,0,0,0,155.811,55.4Z"/><path class="d" d="M75.648,45.9v5.145l-31.8,16.7V62.626l12.693-6.672L43.846,52.769V48.114l18.667,4.712,7.19-3.769L43.846,42.545V37.881Zm-31.8,32.585,31.8,8.019V81.868L49.829,75.385l7.18-3.769,18.677,4.712V71.615L63.031,68.43l12.655-6.672V56.642L43.874,73.34v5.145Z"/></g></g></svg>