<svg xmlns="http://www.w3.org/2000/svg" xmlns:xlink="http://www.w3.org/1999/xlink" width="300" height="132" viewBox="0 0 300 132"><defs><style>.a{fill:#f5f5f5;}.b{clip-path:url(#a);}.c{fill:#fff;}.d{fill:#4a4a4a;}</style><clipPath id="a"><rect class="a" width="300" height="132" transform="translate(390 156)"/></clipPath></defs><g class="b" transform="translate(-390 -156)"><g transform="translate(390 158.538)"><rect class="c" width="300" height="126.923"/><path class="d" d="M139.2,61.644c4.683,0,7.692,3.529,7.692,8.75s-3.183,8.75-7.692,8.75a6.2,6.2,0,0,1-4.356-1.683c-.173-.173-.337,0-.337.163v7.75c0,.163,0,.163-.173.163h-3.683c-.163,0-.163,0-.163-.163V62.144c0-.163,0-.163.163-.163h2.51a.644.644,0,0,1,.51.163l.837,1.183a.317.317,0,0,0,.5,0C135.683,62.317,137.5,61.644,139.2,61.644Zm-.673,3.7c-2.683,0-4.019,2.183-4.019,5.048q0,5.048,4.019,5.048c2.885,0,4.356-2.192,4.356-5.048-.173-3.029-1.538-5.01-4.356-5.01Z"/><path class="d" d="M248.894,81.337c-1.5,4.038-1.673,4.2-5.356,4.2h-4.856c-.163,0-.163,0-.163-.163v-3.2c0-.163,0-.163.163-.163H242.7c2.173,0,2.173-.673,1.337-3.375l-5.519-16.654c0-.173,0-.173.163-.173h3.846c.163,0,.163,0,.163.173l4.019,12.952c0,.173.337.173.337,0l4.019-12.952a.163.163,0,0,1,.163-.173h3.846c.163,0,.163,0,.163.173Z"/><path class="d" d="M117.76,79.308c-7.038,0-10.577-5.048-10.577-12.115s3.51-12.115,10.577-12.115,10.577,5.048,10.577,12.115S124.8,79.308,117.76,79.308Zm6.365-12.115c0-5.212-2.346-8.413-6.365-8.413-4.183,0-6.365,3.2-6.365,8.413s2.346,8.413,6.365,8.413,6.365-3.192,6.365-8.413Z"/><path class="d" d="M147.4,65.51c-.163,0-.163-.163,0,0l-.163-3.365c0-.163,0-.163.163-.163h2.683c.163,0,.163,0,.163-.173V57.269c0-.173,0-.173.173-.173h3.683c.163,0,.163,0,.163.173v4.538c0,.173,0,.173.173.173h3.346c.163,0,.163,0,.163.163v3.24c0,.163,0,.163-.163.163h-3.346c-.173,0-.173,0-.173.173V74.3c0,.673.5.962,1.173.962h2.346c.163,0,.163,0,.163.173v3.413c0,.163,0,.163-.163.163h-2.51c-3.519,0-5.029-1.346-5.029-4.712V65.683c0-.173,0-.173-.163-.173Z"/><path class="d" d="M160.635,59.288h0l-.163-3.846c0-.163,0-.163.163-.163h3.683c.173,0,.173,0,.173.163v3.7c0,.173,0,.173-.173.173Z"/><path class="d" d="M160.635,78.971c-.163,0-.163-.163,0,0l-.163-16.827c0-.163,0-.163.163-.163h3.683c.173,0,.173,0,.173.163v16.7c0,.163,0,.163-.173.163Z"/><path class="d" d="M187.1,78.971h0l-.163-9.423c0-2.019-.673-4.2-3.019-4.2s-3.01,1.846-3.01,4.2v9.3c0,.163,0,.163-.173.163h-3.683c-.163,0-.163,0-.163-.163v-9.3c0-2.019-.673-4.2-3.019-4.2s-3.01,1.846-3.01,4.2v9.3c0,.163,0,.163-.173.163H167c-.163,0-.163,0-.163-.163v-16.7c0-.163,0-.163.163-.163h3.192c.163,0,.337,0,.337.163l.337,1.01c0,.173.163.173.327,0a6.856,6.856,0,0,1,4.019-1.683,5.192,5.192,0,0,1,4.356,2.019c0,.173.173.173.337,0a5.971,5.971,0,0,1,4.356-2.019c4.183,0,6.731,2.356,6.731,7.577v9.423c0,.163,0,.163-.173.163h-3.683Z"/><path class="d" d="M193.625,59.288h0l-.163-3.846c0-.163,0-.163.163-.163h3.692c.163,0,.163,0,.163.163v3.7c0,.173,0,.173-.163.173Z"/><path class="d" d="M193.625,78.971c-.163,0-.163-.163,0,0l-.163-16.827c0-.163,0-.163.163-.163h3.692c.163,0,.163,0,.163.163v16.7c0,.163,0,.163-.163.163Z"/><path class="d" d="M200,78.971h0l-.163-3.365c0-.163,0-.163.163-.337l8.038-9.25s0-.337-.163-.337h-7.538c-.163,0-.163,0-.163-.173V62.144c0-.163,0-.163.163-.163H212.9c.163,0,.163,0,.163.163v3.538l-8.038,9.423s0,.337.163.337H213.4c.163,0,.163,0,.163.163v3.365c0,.173,0,.173-.163.173H200Z"/><path class="d" d="M230.144,71.9H218.606c-.173,0-.173,0-.173.173,0,1.846,1.683,3.365,4.019,3.365,1.51,0,2.683-.337,3.183-1.519a.615.615,0,0,1,.337-.163h3.846c.163,0,.163,0,.163.163-.663,3.2-3.683,5.221-7.538,5.221-4.856,0-8.2-3.538-8.2-8.75s3.183-8.75,8.2-8.75,8.212,3.529,8.212,8.75a4.231,4.231,0,0,1-.5,1.51Zm-4.019-3.192h0c.163-1.519-.962-3.365-3.692-3.365s-4.019,1.846-4.019,3.192c0,.173,0,.173.173.173Z"/><path class="d" d="M232.692,78.971c-.173,0-.173-.163,0,0l-.173-23.385c0-.173,0-.173.173-.173h3.683c.173,0,.173,0,.173.173v23.26c0,.163,0,.163-.173.163Z"/><path class="d" d="M64.5,42.462a19.077,19.077,0,0,0-5.029,8.913A19,19,0,0,0,50.6,56.423,19.865,19.865,0,0,0,44.74,70.394L58.808,56.26a26.925,26.925,0,0,0,.337,3.7L45.067,74.1a18.981,18.981,0,0,0,2.048,5.885l9.048-9.087a7.856,7.856,0,0,1,2.49-6.394A8.654,8.654,0,0,1,60,63.327h0a21.731,21.731,0,0,0,4.519,7.231,18.154,18.154,0,0,0,7.2,4.548h0a4.654,4.654,0,0,1-1.173,1.346,8.817,8.817,0,0,1-6.365,2.519l-9.038,9.1A18.586,18.586,0,0,0,61,90.087L75.048,75.962a26.615,26.615,0,0,0,3.692.337L64.663,90.385A18.99,18.99,0,0,0,78.4,84.49,21.971,21.971,0,0,0,83.6,75.567a18.538,18.538,0,0,0,8.875-5.212,19.981,19.981,0,0,0,0-28.106,19.6,19.6,0,0,0-27.971.212ZM84.615,62.5a8.269,8.269,0,0,1-11.894,0,8.51,8.51,0,0,1,0-11.942,8.269,8.269,0,0,1,11.894,0A8.654,8.654,0,0,1,84.615,62.5Z"/><path class="d" d="M58.471,76.615A11.538,11.538,0,0,1,56.8,74.26l-8.212,8.25A21.905,21.905,0,0,0,50.433,84.7a11.442,11.442,0,0,0,2.173,1.837l8.212-8.25A19.769,19.769,0,0,1,58.471,76.615Z"/></g></g></svg>