<svg xmlns="http://www.w3.org/2000/svg" xmlns:xlink="http://www.w3.org/1999/xlink" width="294" height="132" viewBox="0 0 294 132"><defs><style>.a{fill:#f5f5f5;}.b{clip-path:url(#a);}.c{fill:#fff;}.d{fill:#4a4a4a;}</style><clipPath id="a"><rect class="a" width="294" height="132" transform="translate(714 156)"/></clipPath></defs><g class="b" transform="translate(-714 -156)"><g transform="translate(714 159.808)"><rect class="c" width="294" height="124.385"/><path class="d" d="M56.454,63.135a7.435,7.435,0,0,0,14.794,0c0-.245.057-.5.057-.744a7.425,7.425,0,1,0-14.851,0v.744m-12.608-.942a20.043,20.043,0,1,1,5.814,14.238,20.043,20.043,0,0,1-5.814-14.238"/><path class="d" d="M108.535,62.032c0,6.125-4.231,8.811-8.208,8.811-4.476,0-7.887-3.308-7.887-8.481,0-5.56,3.6-8.811,8.142-8.811,4.787,0,7.953,3.439,7.953,8.481m-13.051.188c0,3.628,2.054,6.37,4.966,6.37s4.975-2.686,4.975-6.427c0-2.827-1.366-6.37-4.909-6.37s-5.032,3.307-5.032,6.427"/><path class="d" d="M126.118,65.962c0,1.687.066,3.242.123,4.495h-2.667l-.188-2.686h-.066a6.3,6.3,0,0,1-5.465,3.063c-2.61,0-5.654-1.442-5.654-7.246V53.919h2.978v9.216c0,3.119.942,5.249,3.675,5.249a4.372,4.372,0,0,0,3.977-2.752,4.259,4.259,0,0,0,.245-1.564V53.919h2.987Z"/><path class="d" d="M141.469,67.4a7.849,7.849,0,0,0,3.977,1.187c2.177,0,3.232-1.121,3.232-2.431s-.867-2.252-3.044-3.062c-2.987-1.065-4.353-2.686-4.353-4.712,0-2.686,2.12-4.872,5.654-4.872a8.735,8.735,0,0,1,4.042,1l-.744,2.186a6.2,6.2,0,0,0-3.355-.942c-1.8,0-2.733,1.055-2.733,2.243,0,1.376.989,2,3.1,2.827,2.827,1.121,4.353,2.554,4.353,4.994,0,2.931-2.233,4.994-6.153,4.994a9.489,9.489,0,0,1-4.655-1.187Z"/><path class="d" d="M170.737,67.4a7.878,7.878,0,0,0,3.977,1.187c2.177,0,3.232-1.121,3.232-2.431s-.867-2.252-3.044-3.062c-2.978-1.065-4.353-2.686-4.353-4.712,0-2.686,2.12-4.872,5.654-4.872a8.7,8.7,0,0,1,4.033,1l-.744,2.186a6.2,6.2,0,0,0-3.355-.942c-1.743,0-2.733,1.055-2.733,2.243,0,1.376.989,2,3.11,2.827,2.827,1.121,4.344,2.554,4.344,4.994,0,2.931-2.233,4.994-6.153,4.994a9.489,9.489,0,0,1-4.655-1.187Z"/><path class="d" d="M212.066,58.423c0-1.687-.066-3.119-.123-4.495h2.61l.122,2.686h.17A5.654,5.654,0,0,1,220,53.551a4.862,4.862,0,0,1,4.712,3.307h.066a6.257,6.257,0,0,1,1.885-2.12,5.654,5.654,0,0,1,3.666-1.187c2.177,0,5.409,1.442,5.409,7.18v9.734h-2.921V61.1c0-3.185-1.178-5.117-3.543-5.117a3.863,3.863,0,0,0-3.543,2.742,5.541,5.541,0,0,0-.245,1.5V70.466h-2.921V60.534c0-2.62-1.178-4.551-3.421-4.551a4.137,4.137,0,0,0-3.769,3,3.769,3.769,0,0,0-.254,1.5v9.988H212.2Z"/><path class="d" d="M240.025,67.4a7.915,7.915,0,0,0,4.033,1.187c2.167,0,3.223-1.121,3.223-2.431s-.867-2.252-3.044-3.062c-2.978-1.065-4.344-2.686-4.344-4.712,0-2.686,2.111-4.872,5.654-4.872a8.66,8.66,0,0,1,4.033,1l-.81,2.214a6.2,6.2,0,0,0-3.355-.942c-1.8,0-2.733,1.055-2.733,2.243,0,1.376,1,2,3.11,2.827,2.827,1.121,4.344,2.554,4.344,4.994,0,2.931-2.233,4.994-6.144,4.994a9.5,9.5,0,0,1-4.646-1.187Z"/><path class="d" d="M165.394,53.853l-3.317,9.677c-.443,1.187-.754,2.563-1.065,3.439h-.057c-.254-.876-.688-2.309-1.055-3.373l-3.609-9.743h-3.26l6.087,15.3a2.922,2.922,0,0,1,.188.81,2.5,2.5,0,0,1-.254.754,8.848,8.848,0,0,1-2.544,3.364,7.944,7.944,0,0,1-2.61,1.5l.81,2.5a8.65,8.65,0,0,0,3.6-1.885c2.054-1.753,3.487-4.712,5.654-10.365l4.476-11.8-3.044-.132Z"/><path class="d" d="M208.25,62.72a7.152,7.152,0,0,0,.132-1.432c0-3.062-1.432-7.8-6.841-7.8-4.787,0-7.765,3.929-7.765,8.924s3.044,8.481,8.142,8.481a12.193,12.193,0,0,0,5.39-1.234l-.754-2.309a9.7,9.7,0,0,1-5.776.942,5.023,5.023,0,0,1-1.611-.622c-2.243-1.376-2.488-4.25-2.554-4.872v-.132H208.25ZM201.3,55.672c3.355,0,4.222,3,4.165,4.928H196.7c.245-1.932,1.555-4.928,4.6-4.928"/><path class="d" d="M137.8,67.4a4.165,4.165,0,0,1-1.885.754c-1.055,0-1.743-.754-1.743-2.752v-9.3h4.344V53.919h-4.3V48.058l-3.1,2.252V65.217c0,1.941.367,3.439,1.244,4.316a3.571,3.571,0,0,0,1.734,1.055,4.787,4.787,0,0,0,4.419-.858Z"/><path class="d" d="M191.288,67.4a4.165,4.165,0,0,1-1.885.754c-1.055,0-1.743-.754-1.743-2.752v-9.3h4.288V53.919h-4.288V48.058l-3.11,2.252V65.217c0,1.941.377,3.439,1.244,4.316a3.552,3.552,0,0,0,1.724,1.055A4.787,4.787,0,0,0,192,69.712Z"/></g></g></svg>