<?xml version="1.0" encoding="utf-8"?>
<!-- Generator: Adobe Illustrator 23.1.1, SVG Export Plug-In . SVG Version: 6.00 Build 0)  -->
<svg version="1.1" id="Layer_1" xmlns="http://www.w3.org/2000/svg" xmlns:xlink="http://www.w3.org/1999/xlink" x="0px" y="0px"
	 viewBox="0 0 492 492" style="enable-background:new 0 0 492 492;" xml:space="preserve">
<style type="text/css">
	.st0{fill:url(#SVGID_3_);}
	.st1{fill:#A86A56;}
	.st2{fill:#704739;}
	.st3{fill:#0080FF;}
	.st4{fill:#0054A8;}
	.st5{clip-path:url(#SVGID_4_);}
	.st6{fill:#DFBFFF;}
	.st7{fill:#350080;}
	.st8{clip-path:url(#SVGID_5_);}
	.st9{fill:#FFD7A8;}
	.st10{fill:#BFDEFF;}
	.st11{fill:#A040FF;}
	.st12{fill:#EDBF95;}
	.st13{fill:#5400A8;}
	.st14{fill:#F7D89F;}
	.st15{fill:#2B3740;}
</style>
<linearGradient id="SVGID_3_" gradientUnits="userSpaceOnUse" x1="-6006.4531" y1="4554.8184" x2="-5502.3442" y2="4554.8184" gradientTransform="matrix(-0.7071 -0.7071 0.7071 -0.7071 -7077.7358 -622.4377)">
	<stop  offset="0" style="stop-color:#0080FF;stop-opacity:8.000000e-02"/>
	<stop  offset="1" style="stop-color:#A040FF;stop-opacity:8.000000e-02"/>
</linearGradient>
<path class="st0" d="M361.4,432.3c11-9.5,20.4-20.5,27.6-32.7c12-20.6,8.6-42.2,16.9-63c11.9-29.7,39.5-51.8,58.4-77.2
	c25.9-34.6,33.5-80.8,22.8-121.6c-10.1-38.5-45-85.8-92-84.8c-26.8,0.6-49.2,19.9-75.5,24.7c-23.4,4.3-47.7-3.4-68.1-15
	c-23.2-13-39.5-27.6-57.9-39.6C157.2-0.9,119.2-7.8,78.7,12.2c-8.2,4.1-16,9-23.1,14.6C32.1,45.6,15.8,72,8.7,100.3
	c-4.3,16.9-5.4,34.9-0.2,51.6c8.7,27.8,33.9,49.1,38.8,78.2c5.2,30.7-22.3,51.4-36,76.2c-30.2,54.6,2.7,122.5,52.4,155.4
	c78.5,52,199.6,31.9,276.4-14.1C347.7,443.1,354.8,438,361.4,432.3z"/>
<g>
	<g>
		<g>
			
				<rect x="224.1" y="350.8" transform="matrix(-0.7071 0.7071 -0.7071 -0.7071 659.6443 452.3922)" class="st1" width="24" height="24"/>
			
				<rect x="239.5" y="344.4" transform="matrix(-0.7071 0.7071 -0.7071 -0.7071 666.0083 437.0282)" class="st2" width="6" height="24"/>
			<path class="st1" d="M236.4,379.5l-12.7,12.7c-2.3,2.3-6.1,2.3-8.5,0l-24.9-24.9c-2.6-2.6-4.8-9-2.1-11.7h0
				c2.2-2.2,7.7-0.5,10.4,1.1l16.7,10l4.2-4.2L236.4,379.5z"/>
		</g>
		<path class="st3" d="M229.7,386.2l-6,6c-2.3,2.3-6.1,2.3-8.5,0l-28.4-28.4c-0.8-0.8-1.3-2-1.3-3.2l0-2.3c0-2.3,2-4,4.2-3.7
			l24.6,3.5c3.8,1.8,5.8,6,5,10c-0.3,1.5-1.1,6.7-1.6,10.3c-0.3,2.2,1,4.2,3.1,4.9L229.7,386.2z"/>
		<g>
			<line class="st4" x1="223.8" y1="392.1" x2="189.7" y2="358.3"/>
			<path class="st4" d="M223.8,392.9c-0.2,0-0.4-0.1-0.5-0.2l-34.1-33.8c-0.3-0.3-0.3-0.8,0-1.1c0.3-0.3,0.8-0.3,1.1,0l34.1,33.8
				c0.3,0.3,0.3,0.8,0,1.1C224.2,392.8,224,392.9,223.8,392.9z"/>
		</g>
	</g>
	<g>
		<defs>
			<path id="SVGID_2_" d="M394.9,156.5h-46.3c-3.5,0.5-7.1,0.7-10.8,0.5c-2.9-0.2-5.8-0.6-8.7-1.3c-6.5-1.6-13-4.6-18.7-9
				c-5.7-4.3-10.7-9.9-14.5-16.4c-3.8-6.5-6.3-13.9-7.3-21.8h-24c-1,11,0.2,22.4,3.6,33.3c3.4,10.9,9.1,21.3,16.7,30.3
				c7.6,9,17.1,16.7,28,22.3c0.1,0,0.2,0.1,0.3,0.2c1.7,0.9,3.5,1.5,5.3,2v46.8c0,12.7-5.1,24.9-14.1,33.9l-68.5,68.5l46.7,46.7
				l59.9-78.8v82.8h66l-15-109.9c-2-14.7-3-29.6-3-44.5V223c1.2-0.9,2.5-1.9,3.6-2.9c9-7.6,16.7-17.2,22.3-28c0-0.1,0.1-0.2,0.2-0.3
				C425,175.6,413.1,156.5,394.9,156.5z"/>
		</defs>
		<use xlink:href="#SVGID_2_"  style="overflow:visible;fill:#A040FF;"/>
		<clipPath id="SVGID_4_">
			<use xlink:href="#SVGID_2_"  style="overflow:visible;"/>
		</clipPath>
		<g class="st5">
			<g>
				<g>
					<g>
						<g>
							<polygon class="st6" points="475,258 458.1,241.2 475,224.4 476,225.5 460.3,241.2 476,257 							"/>
						</g>
						<g>
							<polygon class="st6" points="475,323.2 458.1,306.4 475,289.5 476,290.6 460.3,306.4 476,322.1 							"/>
						</g>
						<g>
							<polygon class="st6" points="475,127.8 458.1,111 475,94.2 476,95.2 460.3,111 476,126.7 							"/>
						</g>
						<g>
							<polygon class="st6" points="475,192.9 458.1,176.1 475,159.3 476,160.4 460.3,176.1 476,191.9 							"/>
						</g>
						<g>
							<polygon class="st6" points="410.9,258 409.8,257 425.6,241.2 409.8,225.5 410.9,224.4 427.7,241.2 							"/>
						</g>
						<g>
							<polygon class="st6" points="410.9,323.2 409.8,322.1 425.6,306.4 409.8,290.6 410.9,289.5 427.7,306.4 							"/>
						</g>
						<g>
							<polygon class="st6" points="410.9,127.8 409.8,126.7 425.6,111 409.8,95.2 410.9,94.2 427.7,111 							"/>
						</g>
						<g>
							<polygon class="st6" points="410.9,192.9 409.8,191.9 425.6,176.1 409.8,160.4 410.9,159.3 427.7,176.1 							"/>
						</g>
						<g>
							<polygon class="st6" points="475,388.3 458.1,371.5 475,354.7 476,355.7 460.3,371.5 476,387.2 							"/>
						</g>
						<g>
							<polygon class="st6" points="475,453.4 458.1,436.6 475,419.8 476,420.9 460.3,436.6 476,452.4 							"/>
						</g>
						<g>
							<polygon class="st6" points="475,469.7 441.9,436.6 474.4,404 441.9,371.5 474.4,338.9 441.9,306.4 474.4,273.8 441.9,241.2 
								474.4,208.7 441.9,176.1 474.4,143.5 441.9,111 475,77.9 476,78.9 444,111 476.5,143.5 444,176.1 476.5,208.7 444,241.2 
								476.5,273.8 444,306.4 476.5,338.9 444,371.5 476.5,404 444,436.6 476,468.6 							"/>
						</g>
						<g>
							<polygon class="st6" points="410.9,388.3 409.8,387.2 425.6,371.5 409.8,355.7 410.9,354.7 427.7,371.5 							"/>
						</g>
						<g>
							<polygon class="st6" points="410.9,453.4 409.8,452.4 425.6,436.6 409.8,420.9 410.9,419.8 427.7,436.6 							"/>
						</g>
						<g>
							<polygon class="st6" points="410.9,469.7 409.8,468.6 441.9,436.6 409.3,404 441.9,371.5 409.3,338.9 441.9,306.4 
								409.3,273.8 441.9,241.2 409.3,208.7 441.9,176.1 409.3,143.5 441.9,111 409.8,78.9 410.9,77.9 444,111 411.4,143.5 
								444,176.1 411.4,208.7 444,241.2 411.4,273.8 444,306.4 411.4,338.9 444,371.5 411.4,404 444,436.6 							"/>
						</g>
					</g>
				</g>
				<g>
					<path class="st6" d="M442.9,152.7l-9.2-9.2l9.2-9.2l9.2,9.2L442.9,152.7z M435.8,143.5l7.1,7.1l7.1-7.1l-7.1-7.1L435.8,143.5z"
						/>
				</g>
				<g>
					<path class="st6" d="M442.9,217.9l-9.2-9.2l9.2-9.2l9.2,9.2L442.9,217.9z M435.8,208.7l7.1,7.1l7.1-7.1l-7.1-7.1L435.8,208.7z"
						/>
				</g>
				<g>
					<path class="st6" d="M442.9,283l-9.2-9.2l9.2-9.2l9.2,9.2L442.9,283z M435.8,273.8l7.1,7.1l7.1-7.1l-7.1-7.1L435.8,273.8z"/>
				</g>
				<g>
					<path class="st6" d="M442.9,348.1l-9.2-9.2l9.2-9.2l9.2,9.2L442.9,348.1z M435.8,338.9l7.1,7.1l7.1-7.1l-7.1-7.1L435.8,338.9z"
						/>
				</g>
				<g>
					<path class="st6" d="M442.9,413.2l-9.2-9.2l9.2-9.2l9.2,9.2L442.9,413.2z M435.8,404l7.1,7.1l7.1-7.1l-7.1-7.1L435.8,404z"/>
				</g>
			</g>
			<g>
				<g>
					<g>
						<g>
							<polygon class="st6" points="409.8,290.6 393,273.8 409.8,257 410.9,258 395.1,273.8 410.9,289.5 							"/>
						</g>
						<g>
							<polygon class="st6" points="409.8,355.7 393,338.9 409.8,322.1 410.9,323.2 395.1,338.9 410.9,354.7 							"/>
						</g>
						<g>
							<polygon class="st6" points="409.8,160.4 393,143.5 409.8,126.7 410.9,127.8 395.1,143.5 410.9,159.3 							"/>
						</g>
						<g>
							<polygon class="st6" points="409.8,225.5 393,208.7 409.8,191.9 410.9,192.9 395.1,208.7 410.9,224.4 							"/>
						</g>
						<g>
							<polygon class="st6" points="345.8,290.6 344.7,289.5 360.5,273.8 344.7,258 345.8,257 362.6,273.8 							"/>
						</g>
						<g>
							<polygon class="st6" points="345.8,355.7 344.7,354.7 360.5,338.9 344.7,323.2 345.8,322.1 362.6,338.9 							"/>
						</g>
						<g>
							<polygon class="st6" points="345.8,160.4 344.7,159.3 360.5,143.5 344.7,127.8 345.8,126.7 362.6,143.5 							"/>
						</g>
						<g>
							<polygon class="st6" points="345.8,225.5 344.7,224.4 360.5,208.7 344.7,192.9 345.8,191.9 362.6,208.7 							"/>
						</g>
						<g>
							<polygon class="st6" points="409.8,420.9 393,404 409.8,387.2 410.9,388.3 395.1,404 410.9,419.8 							"/>
						</g>
						<g>
							<polygon class="st6" points="409.8,486 393,469.2 409.8,452.4 410.9,453.4 395.1,469.2 410.9,484.9 							"/>
						</g>
						<g>
							<polygon class="st6" points="409.8,502.3 376.7,469.2 409.3,436.6 376.7,404 409.3,371.5 376.7,338.9 409.3,306.4 
								376.7,273.8 409.3,241.2 376.7,208.7 409.3,176.1 376.7,143.5 409.8,110.4 410.9,111.5 378.9,143.5 411.4,176.1 378.9,208.7 
								411.4,241.2 378.9,273.8 411.4,306.4 378.9,338.9 411.4,371.5 378.9,404 411.4,436.6 378.9,469.2 410.9,501.2 							"/>
						</g>
						<g>
							<polygon class="st6" points="345.8,420.9 344.7,419.8 360.5,404 344.7,388.3 345.8,387.2 362.6,404 							"/>
						</g>
						<g>
							<polygon class="st6" points="345.8,486 344.7,484.9 360.5,469.2 344.7,453.4 345.8,452.4 362.6,469.2 							"/>
						</g>
						<g>
							<polygon class="st6" points="345.8,502.3 344.7,501.2 376.7,469.2 344.2,436.6 376.7,404 344.2,371.5 376.7,338.9 
								344.2,306.4 376.7,273.8 344.2,241.2 376.7,208.7 344.2,176.1 376.7,143.5 344.7,111.5 345.8,110.4 378.9,143.5 346.3,176.1 
								378.9,208.7 346.3,241.2 378.9,273.8 346.3,306.4 378.9,338.9 346.3,371.5 378.9,404 346.3,436.6 378.9,469.2 							"/>
						</g>
					</g>
				</g>
				<g>
					<path class="st6" d="M377.8,185.3l-9.2-9.2l9.2-9.2l9.2,9.2L377.8,185.3z M370.7,176.1l7.1,7.1l7.1-7.1l-7.1-7.1L370.7,176.1z"
						/>
				</g>
				<g>
					<path class="st6" d="M377.8,250.4l-9.2-9.2l9.2-9.2l9.2,9.2L377.8,250.4z M370.7,241.2l7.1,7.1l7.1-7.1l-7.1-7.1L370.7,241.2z"
						/>
				</g>
				<g>
					<path class="st6" d="M377.8,315.6l-9.2-9.2l9.2-9.2l9.2,9.2L377.8,315.6z M370.7,306.4l7.1,7.1l7.1-7.1l-7.1-7.1L370.7,306.4z"
						/>
				</g>
				<g>
					<path class="st6" d="M377.8,380.7l-9.2-9.2l9.2-9.2l9.2,9.2L377.8,380.7z M370.7,371.5l7.1,7.1l7.1-7.1l-7.1-7.1L370.7,371.5z"
						/>
				</g>
				<g>
					<path class="st6" d="M377.8,445.8l-9.2-9.2l9.2-9.2l9.2,9.2L377.8,445.8z M370.7,436.6l7.1,7.1l7.1-7.1l-7.1-7.1L370.7,436.6z"
						/>
				</g>
			</g>
			<g>
				<g>
					<g>
						<g>
							<polygon class="st6" points="214.4,258 197.6,241.2 214.4,224.4 215.5,225.5 199.8,241.2 215.5,257 							"/>
						</g>
						<g>
							<polygon class="st6" points="214.4,323.2 197.6,306.4 214.4,289.5 215.5,290.6 199.8,306.4 215.5,322.1 							"/>
						</g>
						<g>
							<polygon class="st6" points="214.4,127.8 197.6,111 214.4,94.2 215.5,95.2 199.8,111 215.5,126.7 							"/>
						</g>
						<g>
							<polygon class="st6" points="214.4,192.9 197.6,176.1 214.4,159.3 215.5,160.4 199.8,176.1 215.5,191.9 							"/>
						</g>
						<g>
							<polygon class="st6" points="150.4,258 149.3,257 165.1,241.2 149.3,225.5 150.4,224.4 167.2,241.2 							"/>
						</g>
						<g>
							<polygon class="st6" points="150.4,323.2 149.3,322.1 165.1,306.4 149.3,290.6 150.4,289.5 167.2,306.4 							"/>
						</g>
						<g>
							<polygon class="st6" points="150.4,127.8 149.3,126.7 165.1,111 149.3,95.2 150.4,94.2 167.2,111 							"/>
						</g>
						<g>
							<polygon class="st6" points="150.4,192.9 149.3,191.9 165.1,176.1 149.3,160.4 150.4,159.3 167.2,176.1 							"/>
						</g>
						<g>
							<polygon class="st6" points="214.4,388.3 197.6,371.5 214.4,354.7 215.5,355.7 199.8,371.5 215.5,387.2 							"/>
						</g>
						<g>
							<polygon class="st6" points="214.4,453.4 197.6,436.6 214.4,419.8 215.5,420.9 199.8,436.6 215.5,452.4 							"/>
						</g>
						<g>
							<polygon class="st6" points="214.4,469.7 181.4,436.6 213.9,404 181.4,371.5 213.9,338.9 181.4,306.4 213.9,273.8 
								181.4,241.2 213.9,208.7 181.4,176.1 213.9,143.5 181.4,111 214.4,77.9 215.5,78.9 183.5,111 216,143.5 183.5,176.1 
								216,208.7 183.5,241.2 216,273.8 183.5,306.4 216,338.9 183.5,371.5 216,404 183.5,436.6 215.5,468.6 							"/>
						</g>
						<g>
							<polygon class="st6" points="150.4,388.3 149.3,387.2 165.1,371.5 149.3,355.7 150.4,354.7 167.2,371.5 							"/>
						</g>
						<g>
							<polygon class="st6" points="150.4,453.4 149.3,452.4 165.1,436.6 149.3,420.9 150.4,419.8 167.2,436.6 							"/>
						</g>
						<g>
							<polygon class="st6" points="150.4,469.7 149.3,468.6 181.4,436.6 148.8,404 181.4,371.5 148.8,338.9 181.4,306.4 
								148.8,273.8 181.4,241.2 148.8,208.7 181.4,176.1 148.8,143.5 181.4,111 149.3,78.9 150.4,77.9 183.5,111 150.9,143.5 
								183.5,176.1 150.9,208.7 183.5,241.2 150.9,273.8 183.5,306.4 150.9,338.9 183.5,371.5 150.9,404 183.5,436.6 							"/>
						</g>
					</g>
				</g>
				<g>
					<path class="st6" d="M182.4,152.7l-9.2-9.2l9.2-9.2l9.2,9.2L182.4,152.7z M175.3,143.5l7.1,7.1l7.1-7.1l-7.1-7.1L175.3,143.5z"
						/>
				</g>
				<g>
					<path class="st6" d="M182.4,217.9l-9.2-9.2l9.2-9.2l9.2,9.2L182.4,217.9z M175.3,208.7l7.1,7.1l7.1-7.1l-7.1-7.1L175.3,208.7z"
						/>
				</g>
				<g>
					<path class="st6" d="M182.4,283l-9.2-9.2l9.2-9.2l9.2,9.2L182.4,283z M175.3,273.8l7.1,7.1l7.1-7.1l-7.1-7.1L175.3,273.8z"/>
				</g>
				<g>
					<path class="st6" d="M182.4,348.1l-9.2-9.2l9.2-9.2l9.2,9.2L182.4,348.1z M175.3,338.9l7.1,7.1l7.1-7.1l-7.1-7.1L175.3,338.9z"
						/>
				</g>
				<g>
					<path class="st6" d="M182.4,413.2l-9.2-9.2l9.2-9.2l9.2,9.2L182.4,413.2z M175.3,404l7.1,7.1l7.1-7.1l-7.1-7.1L175.3,404z"/>
				</g>
			</g>
			<g>
				<g>
					<g>
						<g>
							<polygon class="st6" points="344.7,258 327.9,241.2 344.7,224.4 345.8,225.5 330,241.2 345.8,257 							"/>
						</g>
						<g>
							<polygon class="st6" points="344.7,323.2 327.9,306.4 344.7,289.5 345.8,290.6 330,306.4 345.8,322.1 							"/>
						</g>
						<g>
							<polygon class="st6" points="344.7,127.8 327.9,111 344.7,94.2 345.8,95.2 330,111 345.8,126.7 							"/>
						</g>
						<g>
							<polygon class="st6" points="344.7,192.9 327.9,176.1 344.7,159.3 345.8,160.4 330,176.1 345.8,191.9 							"/>
						</g>
						<g>
							<polygon class="st6" points="280.6,258 279.6,257 295.3,241.2 279.6,225.5 280.6,224.4 297.4,241.2 							"/>
						</g>
						<g>
							<polygon class="st6" points="280.6,323.2 279.6,322.1 295.3,306.4 279.6,290.6 280.6,289.5 297.4,306.4 							"/>
						</g>
						<g>
							<polygon class="st6" points="280.6,127.8 279.6,126.7 295.3,111 279.6,95.2 280.6,94.2 297.4,111 							"/>
						</g>
						<g>
							<polygon class="st6" points="280.6,192.9 279.6,191.9 295.3,176.1 279.6,160.4 280.6,159.3 297.4,176.1 							"/>
						</g>
						<g>
							<polygon class="st6" points="344.7,388.3 327.9,371.5 344.7,354.7 345.8,355.7 330,371.5 345.8,387.2 							"/>
						</g>
						<g>
							<polygon class="st6" points="344.7,453.4 327.9,436.6 344.7,419.8 345.8,420.9 330,436.6 345.8,452.4 							"/>
						</g>
						<g>
							<polygon class="st6" points="344.7,469.7 311.6,436.6 344.2,404 311.6,371.5 344.2,338.9 311.6,306.4 344.2,273.8 
								311.6,241.2 344.2,208.7 311.6,176.1 344.2,143.5 311.6,111 344.7,77.9 345.8,78.9 313.7,111 346.3,143.5 313.7,176.1 
								346.3,208.7 313.7,241.2 346.3,273.8 313.7,306.4 346.3,338.9 313.7,371.5 346.3,404 313.7,436.6 345.8,468.6 							"/>
						</g>
						<g>
							<polygon class="st6" points="280.6,388.3 279.6,387.2 295.3,371.5 279.6,355.7 280.6,354.7 297.4,371.5 							"/>
						</g>
						<g>
							<polygon class="st6" points="280.6,453.4 279.6,452.4 295.3,436.6 279.6,420.9 280.6,419.8 297.4,436.6 							"/>
						</g>
						<g>
							<polygon class="st6" points="280.6,469.7 279.6,468.6 311.6,436.6 279,404 311.6,371.5 279,338.9 311.6,306.4 279,273.8 
								311.6,241.2 279,208.7 311.6,176.1 279,143.5 311.6,111 279.6,78.9 280.6,77.9 313.7,111 281.2,143.5 313.7,176.1 
								281.2,208.7 313.7,241.2 281.2,273.8 313.7,306.4 281.2,338.9 313.7,371.5 281.2,404 313.7,436.6 							"/>
						</g>
					</g>
				</g>
				<g>
					<path class="st6" d="M312.7,152.7l-9.2-9.2l9.2-9.2l9.2,9.2L312.7,152.7z M305.6,143.5l7.1,7.1l7.1-7.1l-7.1-7.1L305.6,143.5z"
						/>
				</g>
				<g>
					<path class="st6" d="M312.7,217.9l-9.2-9.2l9.2-9.2l9.2,9.2L312.7,217.9z M305.6,208.7l7.1,7.1l7.1-7.1l-7.1-7.1L305.6,208.7z"
						/>
				</g>
				<g>
					<path class="st6" d="M312.7,283l-9.2-9.2l9.2-9.2l9.2,9.2L312.7,283z M305.6,273.8l7.1,7.1l7.1-7.1l-7.1-7.1L305.6,273.8z"/>
				</g>
				<g>
					<path class="st6" d="M312.7,348.1l-9.2-9.2l9.2-9.2l9.2,9.2L312.7,348.1z M305.6,338.9l7.1,7.1l7.1-7.1l-7.1-7.1L305.6,338.9z"
						/>
				</g>
				<g>
					<path class="st6" d="M312.7,413.2l-9.2-9.2l9.2-9.2l9.2,9.2L312.7,413.2z M305.6,404l7.1,7.1l7.1-7.1l-7.1-7.1L305.6,404z"/>
				</g>
			</g>
			<g>
				<g>
					<g>
						<g>
							<polygon class="st6" points="279.6,290.6 262.8,273.8 279.6,257 280.6,258 264.9,273.8 280.6,289.5 							"/>
						</g>
						<g>
							<polygon class="st6" points="279.6,355.7 262.8,338.9 279.6,322.1 280.6,323.2 264.9,338.9 280.6,354.7 							"/>
						</g>
						<g>
							<polygon class="st6" points="279.6,160.4 262.8,143.5 279.6,126.7 280.6,127.8 264.9,143.5 280.6,159.3 							"/>
						</g>
						<g>
							<polygon class="st6" points="279.6,225.5 262.8,208.7 279.6,191.9 280.6,192.9 264.9,208.7 280.6,224.4 							"/>
						</g>
						<g>
							<polygon class="st6" points="215.5,290.6 214.4,289.5 230.2,273.8 214.4,258 215.5,257 232.3,273.8 							"/>
						</g>
						<g>
							<polygon class="st6" points="215.5,355.7 214.4,354.7 230.2,338.9 214.4,323.2 215.5,322.1 232.3,338.9 							"/>
						</g>
						<g>
							<polygon class="st6" points="215.5,160.4 214.4,159.3 230.2,143.5 214.4,127.8 215.5,126.7 232.3,143.5 							"/>
						</g>
						<g>
							<polygon class="st6" points="215.5,225.5 214.4,224.4 230.2,208.7 214.4,192.9 215.5,191.9 232.3,208.7 							"/>
						</g>
						<g>
							<polygon class="st6" points="279.6,420.9 262.8,404 279.6,387.2 280.6,388.3 264.9,404 280.6,419.8 							"/>
						</g>
						<g>
							<polygon class="st6" points="279.6,486 262.8,469.2 279.6,452.4 280.6,453.4 264.9,469.2 280.6,484.9 							"/>
						</g>
						<g>
							<polygon class="st6" points="279.6,502.3 246.5,469.2 279,436.6 246.5,404 279,371.5 246.5,338.9 279,306.4 246.5,273.8 
								279,241.2 246.5,208.7 279,176.1 246.5,143.5 279.6,110.4 280.6,111.5 248.6,143.5 281.2,176.1 248.6,208.7 281.2,241.2 
								248.6,273.8 281.2,306.4 248.6,338.9 281.2,371.5 248.6,404 281.2,436.6 248.6,469.2 280.6,501.2 							"/>
						</g>
						<g>
							<polygon class="st6" points="215.5,420.9 214.4,419.8 230.2,404 214.4,388.3 215.5,387.2 232.3,404 							"/>
						</g>
						<g>
							<polygon class="st6" points="215.5,486 214.4,484.9 230.2,469.2 214.4,453.4 215.5,452.4 232.3,469.2 							"/>
						</g>
						<g>
							<polygon class="st6" points="215.5,502.3 214.4,501.2 246.5,469.2 213.9,436.6 246.5,404 213.9,371.5 246.5,338.9 
								213.9,306.4 246.5,273.8 213.9,241.2 246.5,208.7 213.9,176.1 246.5,143.5 214.4,111.5 215.5,110.4 248.6,143.5 216,176.1 
								248.6,208.7 216,241.2 248.6,273.8 216,306.4 248.6,338.9 216,371.5 248.6,404 216,436.6 248.6,469.2 							"/>
						</g>
					</g>
				</g>
				<g>
					<path class="st6" d="M247.5,185.3l-9.2-9.2l9.2-9.2l9.2,9.2L247.5,185.3z M240.5,176.1l7.1,7.1l7.1-7.1l-7.1-7.1L240.5,176.1z"
						/>
				</g>
				<g>
					<path class="st6" d="M247.5,250.4l-9.2-9.2l9.2-9.2l9.2,9.2L247.5,250.4z M240.5,241.2l7.1,7.1l7.1-7.1l-7.1-7.1L240.5,241.2z"
						/>
				</g>
				<g>
					<path class="st6" d="M247.5,315.6l-9.2-9.2l9.2-9.2l9.2,9.2L247.5,315.6z M240.5,306.4l7.1,7.1l7.1-7.1l-7.1-7.1L240.5,306.4z"
						/>
				</g>
				<g>
					<path class="st6" d="M247.5,380.7l-9.2-9.2l9.2-9.2l9.2,9.2L247.5,380.7z M240.5,371.5l7.1,7.1l7.1-7.1l-7.1-7.1L240.5,371.5z"
						/>
				</g>
				<g>
					<path class="st6" d="M247.5,445.8l-9.2-9.2l9.2-9.2l9.2,9.2L247.5,445.8z M240.5,436.6l7.1,7.1l7.1-7.1l-7.1-7.1L240.5,436.6z"
						/>
				</g>
			</g>
		</g>
	</g>
	<g>
		<path class="st4" d="M348.7,151.2c-3.7,0-6.8-3-6.8-6.8s3-6.8,6.8-6.8s6.8,3,6.8,6.8S352.4,151.2,348.7,151.2z M348.7,139.2
			c-2.9,0-5.2,2.4-5.2,5.2s2.4,5.2,5.2,5.2s5.2-2.4,5.2-5.2S351.6,139.2,348.7,139.2z"/>
	</g>
	<g>
		<circle class="st1" cx="276.7" cy="96.5" r="12"/>
	</g>
	<path class="st1" d="M364.5,156.5h2.2c0,6.6-5.4,12-12,12s-12-5.4-12-12h2.2c2.1,0,3.8-1.7,3.8-3.8v0c0-2.1-0.8-4.1-2.3-5.5
		c-2.3-2.2-3.7-5.3-3.7-8.7c0-3.3,1.3-6.3,3.5-8.5c2.2-2.2,5.2-3.5,8.5-3.5s6.3,1.3,8.5,3.5c2.2,2.2,3.5,5.2,3.5,8.5
		s-1.3,6.3-3.5,8.5c0,0,0,0,0,0c-1.5,1.5-2.5,3.5-2.5,5.7l0,0C360.7,154.8,362.4,156.5,364.5,156.5z"/>
	<g>
		<path class="st7" d="M330.1,217.2c-0.4,0-0.7-0.3-0.7-0.7c-0.1-0.4,0.2-0.8,0.6-0.8c7.6-1,15.1-3.5,21.5-7.2
			c6.3-3.6,11.8-8.6,16.2-14.3c4.2-5.5,7.2-11.9,8.8-18.4c0.1-0.4,0.5-0.7,0.9-0.5c0.4,0.1,0.6,0.5,0.5,0.9
			c-1.7,6.7-4.8,13.3-9.1,18.9c-4.4,5.9-10.2,10.9-16.6,14.7C345.5,213.7,338.1,216.2,330.1,217.2
			C330.1,217.2,330.1,217.2,330.1,217.2z"/>
	</g>
	<circle class="st1" cx="318.7" cy="228.5" r="12"/>
	<g>
		<path class="st7" d="M342.7,397.2c-0.4,0-0.8-0.3-0.8-0.8v-132c0-0.4,0.3-0.8,0.8-0.8s0.8,0.3,0.8,0.8v132
			C343.4,396.9,343.1,397.2,342.7,397.2z"/>
	</g>
	<g>
		<path class="st7" d="M318.7,193.2c-0.4,0-0.8-0.3-0.8-0.8v-12c0-13.6,11.1-24.8,24.8-24.8c0.4,0,0.8,0.3,0.8,0.8s-0.3,0.8-0.8,0.8
			c-12.8,0-23.2,10.4-23.2,23.2v12C319.4,192.9,319.1,193.2,318.7,193.2z"/>
	</g>
	<g>
		<g>
			
				<rect x="342.7" y="396.5" transform="matrix(1.571150e-10 1 -1 1.571150e-10 763.1624 53.8272)" class="st1" width="24" height="24"/>
			
				<rect x="351.7" y="387.5" transform="matrix(1.567358e-10 1 -1 1.567358e-10 754.1624 44.8272)" class="st2" width="6" height="24"/>
			<path class="st1" d="M366.7,420.1v18c0,3.3-2.7,6-6,6h-35.3c-3.7,0-9.7-3-9.7-6.7v0c0-3.1,5.1-5.8,8.1-6.5l18.9-4.7v-6H366.7z"/>
		</g>
		<path class="st3" d="M366.7,429.6v8.5c0,3.3-2.7,6-6,6h-40.1c-1.2,0-2.3-0.5-3.2-1.3l-1.7-1.7c-1.6-1.6-1.4-4.2,0.4-5.6l19.9-15
			c4-1.4,8.3,0.1,10.6,3.5c0.8,1.2,4,5.5,6.2,8.4c1.3,1.7,3.7,2.3,5.6,1.3L366.7,429.6z"/>
		<g>
			<line class="st4" x1="366.7" y1="438" x2="318.7" y2="438.1"/>
			<path class="st4" d="M318.7,438.9c-0.4,0-0.7-0.3-0.8-0.7c0-0.4,0.3-0.8,0.7-0.8l48-0.2c0,0,0,0,0,0c0.4,0,0.7,0.3,0.8,0.7
				c0,0.4-0.3,0.8-0.7,0.8L318.7,438.9C318.7,438.9,318.7,438.9,318.7,438.9z"/>
		</g>
	</g>
	<g>
		<path class="st4" d="M360.7,151.2c-3.7,0-6.8-3-6.8-6.8s3-6.8,6.8-6.8s6.8,3,6.8,6.8S364.4,151.2,360.7,151.2z M360.7,139.2
			c-2.9,0-5.2,2.4-5.2,5.2s2.4,5.2,5.2,5.2s5.2-2.4,5.2-5.2S363.6,139.2,360.7,139.2z"/>
	</g>
	<g>
		<defs>
			<path id="SVGID_1_" d="M366.7,138.5c0,1.5-0.3,2.9-0.8,4.2c-2-6-7.6-10.2-14.2-10.2c-3.2,0-6.1,1-8.5,2.7c0.3-1,0.7-1.9,1.2-2.7
				c-7.7-0.7-13.7-7.2-13.6-15.1c0.1-7.9,6.4-14.5,14.3-14.8c8.6-0.4,15.7,6.5,15.7,15c0,2.8-0.8,5.5-2.1,7.7
				c-0.5,0.8-0.2,1.8,0.7,2.2c1.5,0.6,2.8,1.5,4,2.6C365.3,132.2,366.7,135.2,366.7,138.5z"/>
		</defs>
		<use xlink:href="#SVGID_1_"  style="overflow:visible;fill:#0080FF;"/>
		<clipPath id="SVGID_5_">
			<use xlink:href="#SVGID_1_"  style="overflow:visible;"/>
		</clipPath>
		<g class="st8">
			<g>
				<path class="st4" d="M348.7,109.2c-0.2,0-0.4-0.1-0.5-0.2l-3.5-3.5l-3.5,3.5c-0.3,0.3-0.8,0.3-1.1,0l-3.5-3.5l-3.5,3.5
					c-0.3,0.3-0.8,0.3-1.1,0l-3.5-3.5l-3.5,3.5c-0.3,0.3-0.8,0.3-1.1,0s-0.3-0.8,0-1.1l4-4c0.3-0.3,0.8-0.3,1.1,0l3.5,3.5l3.5-3.5
					c0.3-0.3,0.8-0.3,1.1,0l3.5,3.5l3.5-3.5c0.3-0.3,0.8-0.3,1.1,0l4,4c0.3,0.3,0.3,0.8,0,1.1C349.1,109.2,348.9,109.2,348.7,109.2z
					"/>
			</g>
			<g>
				<path class="st4" d="M348.7,105.2c-0.2,0-0.4-0.1-0.5-0.2l-3.5-3.5l-3.5,3.5c-0.3,0.3-0.8,0.3-1.1,0l-3.5-3.5l-3.5,3.5
					c-0.3,0.3-0.8,0.3-1.1,0l-3.5-3.5l-3.5,3.5c-0.3,0.3-0.8,0.3-1.1,0s-0.3-0.8,0-1.1l4-4c0.3-0.3,0.8-0.3,1.1,0l3.5,3.5l3.5-3.5
					c0.3-0.3,0.8-0.3,1.1,0l3.5,3.5l3.5-3.5c0.3-0.3,0.8-0.3,1.1,0l4,4c0.3,0.3,0.3,0.8,0,1.1C349.1,105.2,348.9,105.2,348.7,105.2z
					"/>
			</g>
			<g>
				<path class="st4" d="M348.7,101.2c-0.2,0-0.4-0.1-0.5-0.2l-3.5-3.5l-3.5,3.5c-0.3,0.3-0.8,0.3-1.1,0l-3.5-3.5l-3.5,3.5
					c-0.3,0.3-0.8,0.3-1.1,0l-3.5-3.5l-3.5,3.5c-0.3,0.3-0.8,0.3-1.1,0s-0.3-0.8,0-1.1l4-4c0.3-0.3,0.8-0.3,1.1,0l3.5,3.5l3.5-3.5
					c0.3-0.3,0.8-0.3,1.1,0l3.5,3.5l3.5-3.5c0.3-0.3,0.8-0.3,1.1,0l4,4c0.3,0.3,0.3,0.8,0,1.1C349.1,101.2,348.9,101.2,348.7,101.2z
					"/>
			</g>
			<g>
				<path class="st4" d="M372.7,109.2c-0.2,0-0.4-0.1-0.5-0.2l-3.5-3.5l-3.5,3.5c-0.3,0.3-0.8,0.3-1.1,0l-3.5-3.5l-3.5,3.5
					c-0.3,0.3-0.8,0.3-1.1,0l-3.5-3.5l-3.5,3.5c-0.3,0.3-0.8,0.3-1.1,0s-0.3-0.8,0-1.1l4-4c0.3-0.3,0.8-0.3,1.1,0l3.5,3.5l3.5-3.5
					c0.3-0.3,0.8-0.3,1.1,0l3.5,3.5l3.5-3.5c0.3-0.3,0.8-0.3,1.1,0l4,4c0.3,0.3,0.3,0.8,0,1.1C373.1,109.2,372.9,109.2,372.7,109.2z
					"/>
			</g>
			<g>
				<path class="st4" d="M372.7,105.2c-0.2,0-0.4-0.1-0.5-0.2l-3.5-3.5l-3.5,3.5c-0.3,0.3-0.8,0.3-1.1,0l-3.5-3.5l-3.5,3.5
					c-0.3,0.3-0.8,0.3-1.1,0l-3.5-3.5l-3.5,3.5c-0.3,0.3-0.8,0.3-1.1,0s-0.3-0.8,0-1.1l4-4c0.3-0.3,0.8-0.3,1.1,0l3.5,3.5l3.5-3.5
					c0.3-0.3,0.8-0.3,1.1,0l3.5,3.5l3.5-3.5c0.3-0.3,0.8-0.3,1.1,0l4,4c0.3,0.3,0.3,0.8,0,1.1C373.1,105.2,372.9,105.2,372.7,105.2z
					"/>
			</g>
			<g>
				<path class="st4" d="M372.7,101.2c-0.2,0-0.4-0.1-0.5-0.2l-3.5-3.5l-3.5,3.5c-0.3,0.3-0.8,0.3-1.1,0l-3.5-3.5l-3.5,3.5
					c-0.3,0.3-0.8,0.3-1.1,0l-3.5-3.5l-3.5,3.5c-0.3,0.3-0.8,0.3-1.1,0s-0.3-0.8,0-1.1l4-4c0.3-0.3,0.8-0.3,1.1,0l3.5,3.5l3.5-3.5
					c0.3-0.3,0.8-0.3,1.1,0l3.5,3.5l3.5-3.5c0.3-0.3,0.8-0.3,1.1,0l4,4c0.3,0.3,0.3,0.8,0,1.1C373.1,101.2,372.9,101.2,372.7,101.2z
					"/>
			</g>
			<g>
				<path class="st4" d="M348.7,121.2c-0.2,0-0.4-0.1-0.5-0.2l-3.5-3.5l-3.5,3.5c-0.3,0.3-0.8,0.3-1.1,0l-3.5-3.5l-3.5,3.5
					c-0.3,0.3-0.8,0.3-1.1,0l-3.5-3.5l-3.5,3.5c-0.3,0.3-0.8,0.3-1.1,0s-0.3-0.8,0-1.1l4-4c0.3-0.3,0.8-0.3,1.1,0l3.5,3.5l3.5-3.5
					c0.3-0.3,0.8-0.3,1.1,0l3.5,3.5l3.5-3.5c0.3-0.3,0.8-0.3,1.1,0l4,4c0.3,0.3,0.3,0.8,0,1.1C349.1,121.2,348.9,121.2,348.7,121.2z
					"/>
			</g>
			<g>
				<path class="st4" d="M348.7,117.2c-0.2,0-0.4-0.1-0.5-0.2l-3.5-3.5l-3.5,3.5c-0.3,0.3-0.8,0.3-1.1,0l-3.5-3.5l-3.5,3.5
					c-0.3,0.3-0.8,0.3-1.1,0l-3.5-3.5l-3.5,3.5c-0.3,0.3-0.8,0.3-1.1,0s-0.3-0.8,0-1.1l4-4c0.3-0.3,0.8-0.3,1.1,0l3.5,3.5l3.5-3.5
					c0.3-0.3,0.8-0.3,1.1,0l3.5,3.5l3.5-3.5c0.3-0.3,0.8-0.3,1.1,0l4,4c0.3,0.3,0.3,0.8,0,1.1C349.1,117.2,348.9,117.2,348.7,117.2z
					"/>
			</g>
			<g>
				<path class="st4" d="M348.7,113.2c-0.2,0-0.4-0.1-0.5-0.2l-3.5-3.5l-3.5,3.5c-0.3,0.3-0.8,0.3-1.1,0l-3.5-3.5l-3.5,3.5
					c-0.3,0.3-0.8,0.3-1.1,0l-3.5-3.5l-3.5,3.5c-0.3,0.3-0.8,0.3-1.1,0s-0.3-0.8,0-1.1l4-4c0.3-0.3,0.8-0.3,1.1,0l3.5,3.5l3.5-3.5
					c0.3-0.3,0.8-0.3,1.1,0l3.5,3.5l3.5-3.5c0.3-0.3,0.8-0.3,1.1,0l4,4c0.3,0.3,0.3,0.8,0,1.1C349.1,113.2,348.9,113.2,348.7,113.2z
					"/>
			</g>
			<g>
				<path class="st4" d="M372.7,121.2c-0.2,0-0.4-0.1-0.5-0.2l-3.5-3.5l-3.5,3.5c-0.3,0.3-0.8,0.3-1.1,0l-3.5-3.5l-3.5,3.5
					c-0.3,0.3-0.8,0.3-1.1,0l-3.5-3.5l-3.5,3.5c-0.3,0.3-0.8,0.3-1.1,0s-0.3-0.8,0-1.1l4-4c0.3-0.3,0.8-0.3,1.1,0l3.5,3.5l3.5-3.5
					c0.3-0.3,0.8-0.3,1.1,0l3.5,3.5l3.5-3.5c0.3-0.3,0.8-0.3,1.1,0l4,4c0.3,0.3,0.3,0.8,0,1.1C373.1,121.2,372.9,121.2,372.7,121.2z
					"/>
			</g>
			<g>
				<path class="st4" d="M372.7,117.2c-0.2,0-0.4-0.1-0.5-0.2l-3.5-3.5l-3.5,3.5c-0.3,0.3-0.8,0.3-1.1,0l-3.5-3.5l-3.5,3.5
					c-0.3,0.3-0.8,0.3-1.1,0l-3.5-3.5l-3.5,3.5c-0.3,0.3-0.8,0.3-1.1,0s-0.3-0.8,0-1.1l4-4c0.3-0.3,0.8-0.3,1.1,0l3.5,3.5l3.5-3.5
					c0.3-0.3,0.8-0.3,1.1,0l3.5,3.5l3.5-3.5c0.3-0.3,0.8-0.3,1.1,0l4,4c0.3,0.3,0.3,0.8,0,1.1C373.1,117.2,372.9,117.2,372.7,117.2z
					"/>
			</g>
			<g>
				<path class="st4" d="M372.7,113.2c-0.2,0-0.4-0.1-0.5-0.2l-3.5-3.5l-3.5,3.5c-0.3,0.3-0.8,0.3-1.1,0l-3.5-3.5l-3.5,3.5
					c-0.3,0.3-0.8,0.3-1.1,0l-3.5-3.5l-3.5,3.5c-0.3,0.3-0.8,0.3-1.1,0s-0.3-0.8,0-1.1l4-4c0.3-0.3,0.8-0.3,1.1,0l3.5,3.5l3.5-3.5
					c0.3-0.3,0.8-0.3,1.1,0l3.5,3.5l3.5-3.5c0.3-0.3,0.8-0.3,1.1,0l4,4c0.3,0.3,0.3,0.8,0,1.1C373.1,113.2,372.9,113.2,372.7,113.2z
					"/>
			</g>
			<g>
				<path class="st4" d="M348.7,133.2c-0.2,0-0.4-0.1-0.5-0.2l-3.5-3.5l-3.5,3.5c-0.3,0.3-0.8,0.3-1.1,0l-3.5-3.5l-3.5,3.5
					c-0.3,0.3-0.8,0.3-1.1,0l-3.5-3.5l-3.5,3.5c-0.3,0.3-0.8,0.3-1.1,0s-0.3-0.8,0-1.1l4-4c0.3-0.3,0.8-0.3,1.1,0l3.5,3.5l3.5-3.5
					c0.3-0.3,0.8-0.3,1.1,0l3.5,3.5l3.5-3.5c0.3-0.3,0.8-0.3,1.1,0l4,4c0.3,0.3,0.3,0.8,0,1.1C349.1,133.2,348.9,133.2,348.7,133.2z
					"/>
			</g>
			<g>
				<path class="st4" d="M348.7,129.2c-0.2,0-0.4-0.1-0.5-0.2l-3.5-3.5l-3.5,3.5c-0.3,0.3-0.8,0.3-1.1,0l-3.5-3.5l-3.5,3.5
					c-0.3,0.3-0.8,0.3-1.1,0l-3.5-3.5l-3.5,3.5c-0.3,0.3-0.8,0.3-1.1,0s-0.3-0.8,0-1.1l4-4c0.3-0.3,0.8-0.3,1.1,0l3.5,3.5l3.5-3.5
					c0.3-0.3,0.8-0.3,1.1,0l3.5,3.5l3.5-3.5c0.3-0.3,0.8-0.3,1.1,0l4,4c0.3,0.3,0.3,0.8,0,1.1C349.1,129.2,348.9,129.2,348.7,129.2z
					"/>
			</g>
			<g>
				<path class="st4" d="M348.7,125.2c-0.2,0-0.4-0.1-0.5-0.2l-3.5-3.5l-3.5,3.5c-0.3,0.3-0.8,0.3-1.1,0l-3.5-3.5l-3.5,3.5
					c-0.3,0.3-0.8,0.3-1.1,0l-3.5-3.5l-3.5,3.5c-0.3,0.3-0.8,0.3-1.1,0s-0.3-0.8,0-1.1l4-4c0.3-0.3,0.8-0.3,1.1,0l3.5,3.5l3.5-3.5
					c0.3-0.3,0.8-0.3,1.1,0l3.5,3.5l3.5-3.5c0.3-0.3,0.8-0.3,1.1,0l4,4c0.3,0.3,0.3,0.8,0,1.1C349.1,125.2,348.9,125.2,348.7,125.2z
					"/>
			</g>
			<g>
				<path class="st4" d="M372.7,133.2c-0.2,0-0.4-0.1-0.5-0.2l-3.5-3.5l-3.5,3.5c-0.3,0.3-0.8,0.3-1.1,0l-3.5-3.5l-3.5,3.5
					c-0.3,0.3-0.8,0.3-1.1,0l-3.5-3.5l-3.5,3.5c-0.3,0.3-0.8,0.3-1.1,0s-0.3-0.8,0-1.1l4-4c0.3-0.3,0.8-0.3,1.1,0l3.5,3.5l3.5-3.5
					c0.3-0.3,0.8-0.3,1.1,0l3.5,3.5l3.5-3.5c0.3-0.3,0.8-0.3,1.1,0l4,4c0.3,0.3,0.3,0.8,0,1.1C373.1,133.2,372.9,133.2,372.7,133.2z
					"/>
			</g>
			<g>
				<path class="st4" d="M372.7,129.2c-0.2,0-0.4-0.1-0.5-0.2l-3.5-3.5l-3.5,3.5c-0.3,0.3-0.8,0.3-1.1,0l-3.5-3.5l-3.5,3.5
					c-0.3,0.3-0.8,0.3-1.1,0l-3.5-3.5l-3.5,3.5c-0.3,0.3-0.8,0.3-1.1,0s-0.3-0.8,0-1.1l4-4c0.3-0.3,0.8-0.3,1.1,0l3.5,3.5l3.5-3.5
					c0.3-0.3,0.8-0.3,1.1,0l3.5,3.5l3.5-3.5c0.3-0.3,0.8-0.3,1.1,0l4,4c0.3,0.3,0.3,0.8,0,1.1C373.1,129.2,372.9,129.2,372.7,129.2z
					"/>
			</g>
			<g>
				<path class="st4" d="M372.7,125.2c-0.2,0-0.4-0.1-0.5-0.2l-3.5-3.5l-3.5,3.5c-0.3,0.3-0.8,0.3-1.1,0l-3.5-3.5l-3.5,3.5
					c-0.3,0.3-0.8,0.3-1.1,0l-3.5-3.5l-3.5,3.5c-0.3,0.3-0.8,0.3-1.1,0s-0.3-0.8,0-1.1l4-4c0.3-0.3,0.8-0.3,1.1,0l3.5,3.5l3.5-3.5
					c0.3-0.3,0.8-0.3,1.1,0l3.5,3.5l3.5-3.5c0.3-0.3,0.8-0.3,1.1,0l4,4c0.3,0.3,0.3,0.8,0,1.1C373.1,125.2,372.9,125.2,372.7,125.2z
					"/>
			</g>
			<g>
				<path class="st4" d="M348.7,145.2c-0.2,0-0.4-0.1-0.5-0.2l-3.5-3.5l-3.5,3.5c-0.3,0.3-0.8,0.3-1.1,0l-3.5-3.5l-3.5,3.5
					c-0.3,0.3-0.8,0.3-1.1,0l-3.5-3.5l-3.5,3.5c-0.3,0.3-0.8,0.3-1.1,0s-0.3-0.8,0-1.1l4-4c0.3-0.3,0.8-0.3,1.1,0l3.5,3.5l3.5-3.5
					c0.3-0.3,0.8-0.3,1.1,0l3.5,3.5l3.5-3.5c0.3-0.3,0.8-0.3,1.1,0l4,4c0.3,0.3,0.3,0.8,0,1.1C349.1,145.2,348.9,145.2,348.7,145.2z
					"/>
			</g>
			<g>
				<path class="st4" d="M348.7,141.2c-0.2,0-0.4-0.1-0.5-0.2l-3.5-3.5l-3.5,3.5c-0.3,0.3-0.8,0.3-1.1,0l-3.5-3.5l-3.5,3.5
					c-0.3,0.3-0.8,0.3-1.1,0l-3.5-3.5l-3.5,3.5c-0.3,0.3-0.8,0.3-1.1,0s-0.3-0.8,0-1.1l4-4c0.3-0.3,0.8-0.3,1.1,0l3.5,3.5l3.5-3.5
					c0.3-0.3,0.8-0.3,1.1,0l3.5,3.5l3.5-3.5c0.3-0.3,0.8-0.3,1.1,0l4,4c0.3,0.3,0.3,0.8,0,1.1C349.1,141.2,348.9,141.2,348.7,141.2z
					"/>
			</g>
			<g>
				<path class="st4" d="M348.7,137.2c-0.2,0-0.4-0.1-0.5-0.2l-3.5-3.5l-3.5,3.5c-0.3,0.3-0.8,0.3-1.1,0l-3.5-3.5l-3.5,3.5
					c-0.3,0.3-0.8,0.3-1.1,0l-3.5-3.5l-3.5,3.5c-0.3,0.3-0.8,0.3-1.1,0s-0.3-0.8,0-1.1l4-4c0.3-0.3,0.8-0.3,1.1,0l3.5,3.5l3.5-3.5
					c0.3-0.3,0.8-0.3,1.1,0l3.5,3.5l3.5-3.5c0.3-0.3,0.8-0.3,1.1,0l4,4c0.3,0.3,0.3,0.8,0,1.1C349.1,137.2,348.9,137.2,348.7,137.2z
					"/>
			</g>
			<g>
				<path class="st4" d="M372.7,145.2c-0.2,0-0.4-0.1-0.5-0.2l-3.5-3.5l-3.5,3.5c-0.3,0.3-0.8,0.3-1.1,0l-3.5-3.5l-3.5,3.5
					c-0.3,0.3-0.8,0.3-1.1,0l-3.5-3.5l-3.5,3.5c-0.3,0.3-0.8,0.3-1.1,0s-0.3-0.8,0-1.1l4-4c0.3-0.3,0.8-0.3,1.1,0l3.5,3.5l3.5-3.5
					c0.3-0.3,0.8-0.3,1.1,0l3.5,3.5l3.5-3.5c0.3-0.3,0.8-0.3,1.1,0l4,4c0.3,0.3,0.3,0.8,0,1.1C373.1,145.2,372.9,145.2,372.7,145.2z
					"/>
			</g>
			<g>
				<path class="st4" d="M372.7,141.2c-0.2,0-0.4-0.1-0.5-0.2l-3.5-3.5l-3.5,3.5c-0.3,0.3-0.8,0.3-1.1,0l-3.5-3.5l-3.5,3.5
					c-0.3,0.3-0.8,0.3-1.1,0l-3.5-3.5l-3.5,3.5c-0.3,0.3-0.8,0.3-1.1,0s-0.3-0.8,0-1.1l4-4c0.3-0.3,0.8-0.3,1.1,0l3.5,3.5l3.5-3.5
					c0.3-0.3,0.8-0.3,1.1,0l3.5,3.5l3.5-3.5c0.3-0.3,0.8-0.3,1.1,0l4,4c0.3,0.3,0.3,0.8,0,1.1C373.1,141.2,372.9,141.2,372.7,141.2z
					"/>
			</g>
			<g>
				<path class="st4" d="M372.7,137.2c-0.2,0-0.4-0.1-0.5-0.2l-3.5-3.5l-3.5,3.5c-0.3,0.3-0.8,0.3-1.1,0l-3.5-3.5l-3.5,3.5
					c-0.3,0.3-0.8,0.3-1.1,0l-3.5-3.5l-3.5,3.5c-0.3,0.3-0.8,0.3-1.1,0s-0.3-0.8,0-1.1l4-4c0.3-0.3,0.8-0.3,1.1,0l3.5,3.5l3.5-3.5
					c0.3-0.3,0.8-0.3,1.1,0l3.5,3.5l3.5-3.5c0.3-0.3,0.8-0.3,1.1,0l4,4c0.3,0.3,0.3,0.8,0,1.1C373.1,137.2,372.9,137.2,372.7,137.2z
					"/>
			</g>
		</g>
	</g>
	<g>
		<path class="st7" d="M341.7,238.2c-2.6,0-5.1-0.1-7.6-0.3c-0.4,0-0.7-0.4-0.7-0.8c0-0.4,0.4-0.7,0.8-0.7c11,1,22.4-0.2,33-3.6
			c10.9-3.4,21.3-9.2,30.1-16.6c0.3-0.3,0.8-0.2,1.1,0.1s0.2,0.8-0.1,1.1c-9,7.6-19.6,13.4-30.6,16.9
			C359.3,236.8,350.5,238.2,341.7,238.2z"/>
	</g>
</g>
<g>
	
		<image style="overflow:visible;opacity:0.16;" width="325" height="424" xlink:href="5E5A2404D9C3550C.png"  transform="matrix(1 0 0 1 -28 54)">
	</image>
	<g>
		<g>
			<path class="st9" d="M171.4,258.5h-69.8c-1.2,0-2.2-1-2.2-2.2v-15.8h90v0C189.4,250.4,181.4,258.5,171.4,258.5z"/>
			<g>
				<g>
					<path class="st10" d="M193.5,291l-66.1,28.6c10.5,24.3,38.8,35.5,63.1,25l-66.1,28.6l19.1,44l88.1-38.2
						c24.3-10.5,35.5-38.8,25-63.1C246.1,291.6,217.8,280.4,193.5,291z"/>
				</g>
				<g>
					<path class="st11" d="M81.6,395l16.7,38.5c0.7,1.5,2.4,2.2,3.9,1.6l2.8-1.2c3.2-1.4,5.1-4.8,4.5-8.3l-2.1-12.6
						c-0.6-3.5,1.3-6.9,4.5-8.3h0l-9.5-22l-11,4.8l-8.3,3.6C81.6,391.7,80.9,393.5,81.6,395z"/>
					
						<rect x="106.2" y="376.9" transform="matrix(0.9176 -0.3975 0.3975 0.9176 -144.8463 79.0216)" class="st9" width="24" height="24"/>
					
						<rect x="123.5" y="373.4" transform="matrix(0.9176 -0.3975 0.3975 0.9176 -142.7443 82.0093)" class="st12" width="6" height="24"/>
					<g>
						<line class="st13" x1="83.2" y1="391" x2="102.2" y2="435.1"/>
						<path class="st13" d="M102.2,435.8c-0.3,0-0.6-0.2-0.7-0.5l-19.1-44c-0.2-0.4,0-0.8,0.4-1c0.4-0.2,0.8,0,1,0.4l19.1,44
							c0.2,0.4,0,0.8-0.4,1C102.4,435.8,102.3,435.8,102.2,435.8z"/>
					</g>
					<path class="st11" d="M112,404.7l0.9,2.2c0.5,1.2-0.7,2.5-1.9,2l-4.5-1.8L112,404.7z"/>
					<g>
						<line class="st13" x1="103.4" y1="409.4" x2="111.3" y2="412.5"/>
						<path class="st13" d="M111.3,413.3c-0.1,0-0.2,0-0.3-0.1l-7.9-3.1c-0.4-0.2-0.6-0.6-0.4-1c0.2-0.4,0.6-0.6,1-0.4l7.9,3.1
							c0.4,0.2,0.6,0.6,0.4,1C111.8,413.1,111.6,413.3,111.3,413.3z"/>
					</g>
					<g>
						<line class="st13" x1="103.9" y1="412.4" x2="111.8" y2="415.6"/>
						<path class="st13" d="M111.8,416.3c-0.1,0-0.2,0-0.3-0.1l-7.9-3.1c-0.4-0.2-0.6-0.6-0.4-1c0.2-0.4,0.6-0.6,1-0.4l7.9,3.1
							c0.4,0.2,0.6,0.6,0.4,1C112.4,416.1,112.1,416.3,111.8,416.3z"/>
					</g>
					<g>
						<line class="st13" x1="104.2" y1="415.6" x2="112.1" y2="418.7"/>
						<path class="st13" d="M112.1,419.5c-0.1,0-0.2,0-0.3-0.1l-7.9-3.1c-0.4-0.2-0.6-0.6-0.4-1c0.2-0.4,0.6-0.6,1-0.4l7.9,3.1
							c0.4,0.2,0.6,0.6,0.4,1C112.7,419.3,112.4,419.5,112.1,419.5z"/>
					</g>
				</g>
			</g>
			<g>
				<rect x="147.4" y="252.5" class="st10" width="24" height="48"/>
			</g>
			<g>
				<path class="st10" d="M195.4,300.5c0-13.3-10.7-24-24-24"/>
				<path class="st10" d="M219.4,300.5h-48c0,0,0,0,0,0l0-48C197.9,252.5,219.4,274,219.4,300.5z"/>
			</g>
			<path class="st10" d="M195.4,300.5c0,13.3-10.7,24-24,24"/>
			<g>
				<line class="st10" x1="75.4" y1="324.5" x2="171.4" y2="324.5"/>
				<rect x="75.4" y="300.5" class="st10" width="96" height="48"/>
			</g>
			<g>
				<g>
					<path class="st3" d="M171.4,349.2c-0.4,0-0.8-0.3-0.8-0.8s0.3-0.8,0.8-0.8c26.1,0,47.2-21.2,47.2-47.2c0-15.6-7.7-30.2-20.7-39
						c-0.3-0.2-0.4-0.7-0.2-1c0.2-0.3,0.7-0.4,1-0.2c13.4,9.1,21.3,24.2,21.3,40.3C220.2,327.4,198.3,349.2,171.4,349.2z"/>
				</g>
			</g>
			<polygon class="st12" points="189.4,240.5 99.4,244.5 99.4,228.5 189.4,228.5 			"/>
			<g>
				<path class="st14" d="M225.4,96.5c0,6.6,5.4,12,12,12s12-5.4,12-12H225.4z"/>
				<path class="st14" d="M225.4,96.5h24c0-6.6-5.4-12-12-12S225.4,89.9,225.4,96.5z"/>
			</g>
			<g>
				<path class="st10" d="M123.4,252.5c0,13.3,10.7,24,24,24"/>
				<path class="st10" d="M147.4,300.5c-26.5,0-48-21.5-48-48h48c0,0,0,0,0,0L147.4,300.5z"/>
			</g>
			<g>
				<path class="st11" d="M27.4,303.5v42c0,1.7,1.3,3,3,3h3c3.5,0,6.6-2.4,7.5-5.8l3.1-12.4c0.9-3.4,3.9-5.8,7.5-5.8h0v-24h-12h-9
					C28.8,300.5,27.4,301.8,27.4,303.5z"/>
				<rect x="51.4" y="300.5" class="st9" width="24" height="24"/>
				<rect x="69.4" y="300.5" class="st12" width="6" height="24"/>
				<g>
					<line class="st13" x1="30.4" y1="300.5" x2="30.4" y2="348.5"/>
					<path class="st13" d="M30.4,349.2c-0.4,0-0.8-0.3-0.8-0.8v-48c0-0.4,0.3-0.8,0.8-0.8s0.8,0.3,0.8,0.8v48
						C31.2,348.9,30.9,349.2,30.4,349.2z"/>
				</g>
				<path class="st11" d="M51.4,324.5v2.4c0,1.3-1.6,2-2.6,1.1l-3.4-3.4H51.4z"/>
				<g>
					<line class="st13" x1="41.7" y1="325.4" x2="47.7" y2="331.4"/>
					<path class="st13" d="M47.7,332.1c-0.2,0-0.4-0.1-0.5-0.2l-6-6c-0.3-0.3-0.3-0.8,0-1.1s0.8-0.3,1.1,0l6,6
						c0.3,0.3,0.3,0.8,0,1.1C48.1,332.1,47.9,332.1,47.7,332.1z"/>
				</g>
				<g>
					<line class="st13" x1="41" y1="328.4" x2="47" y2="334.4"/>
					<path class="st13" d="M47,335.1c-0.2,0-0.4-0.1-0.5-0.2l-6-6c-0.3-0.3-0.3-0.8,0-1.1s0.8-0.3,1.1,0l6,6c0.3,0.3,0.3,0.8,0,1.1
						C47.4,335.1,47.2,335.1,47,335.1z"/>
				</g>
				<g>
					<line class="st13" x1="40" y1="331.4" x2="46" y2="337.4"/>
					<path class="st13" d="M46,338.1c-0.2,0-0.4-0.1-0.5-0.2l-6-6c-0.3-0.3-0.3-0.8,0-1.1s0.8-0.3,1.1,0l6,6c0.3,0.3,0.3,0.8,0,1.1
						C46.4,338.1,46.2,338.1,46,338.1z"/>
				</g>
			</g>
			<circle class="st1" cx="21.4" cy="264.5" r="12"/>
			<circle class="st9" cx="21.4" cy="264.5" r="12"/>
			<g>
				<path class="st3" d="M171.4,301.2h-96c-0.4,0-0.8-0.3-0.8-0.8s0.3-0.8,0.8-0.8h96c0.4,0,0.8,0.3,0.8,0.8
					S171.9,301.2,171.4,301.2z"/>
			</g>
			<path class="st3" d="M9.4,252.5h24c1-7.9,3.5-15.3,7.3-21.8c3.8-6.5,8.8-12.1,14.5-16.4c5.7-4.3,12.1-7.3,18.7-9
				c1.3-0.3,2.5-0.6,3.8-0.8c8-1.3,14.9,5.5,13.8,13.6l-1.9,13.2c-1.1,7.7,5.3,14.4,13.1,13.6l104.8-10.5l-18-35.9
				c0,0,20.6-7.4,39.6-26.5c8.4-8.4,13.3-19.4,16.7-30.3c3.5-10.9,4.6-22.3,3.6-33.3h-24c-1,7.9-3.5,15.3-7.3,21.8
				c-3.8,6.5-8.8,12.1-14.5,16.4c-5.7,4.3-12.1,7.3-18.7,9c-4.9,1.2-9.9,1.7-14.7,1.4c-4.6-0.3-9.3-0.5-13.9-0.5H93.4
				c-12.5,1-24.7,4.5-35.6,10.1c-10.9,5.6-20.4,13.3-28,22.3c-7.6,9-13.3,19.4-16.7,30.3C9.6,230.1,8.4,241.5,9.4,252.5z"/>
			<path class="st15" d="M39.4,120.5v6c0,16.6,13.4,30,30,30h0c4.6,0,8.8-1.7,12-4.6c3.2,2.9,7.4,4.6,12,4.6s8.8-1.7,12-4.6
				c3.2,2.9,7.4,4.6,12,4.6s8.8-1.7,12-4.6c3.6,3.2,8.4,5,13.7,4.5c8.4-0.8,15.3-7.5,16.2-15.9c1.2-10.9-7.3-20-17.9-20
				c-4.6,0-8.8,1.7-12,4.6c-3.2-2.9-7.4-4.6-12-4.6s-8.8,1.7-12,4.6c-3.2-2.9-7.4-4.6-12-4.6s-8.8,1.7-12,4.6
				c-3.2-2.9-7.4-4.6-12-4.6H39.4z"/>
			<path class="st9" d="M131.6,156.5h-2.2c0,6.6,5.4,12,12,12s12-5.4,12-12h-2.2c-2.1,0-3.8-1.7-3.8-3.8v0c0-2.1,0.8-4.1,2.3-5.5
				c2.3-2.2,3.7-5.3,3.7-8.7c0-3.3-1.3-6.3-3.5-8.5c-2.2-2.2-5.2-3.5-8.5-3.5s-6.3,1.3-8.5,3.5c-2.2,2.2-3.5,5.2-3.5,8.5
				s1.3,6.3,3.5,8.5c0,0,0,0,0,0c1.5,1.5,2.5,3.5,2.5,5.7l0,0C135.4,154.8,133.7,156.5,131.6,156.5z"/>
			<g>
				<g>
					<rect x="80.7" y="126.5" class="st6" width="1.5" height="24"/>
				</g>
				<g>
					<path class="st6" d="M70.7,153c-0.2,0-0.5,0-0.7-0.1c-0.7-0.1-1.4-0.5-2-1s-0.9-1.2-1-2c-0.3-1.5,0.4-3,1.7-3.8l15.5-10.3
						l-10.3,15.5C73.1,152.3,71.9,153,70.7,153z M78.7,141.2l-9.2,6.2c-0.8,0.5-1.2,1.4-1,2.3c0.1,0.4,0.3,0.9,0.6,1.2
						s0.7,0.5,1.2,0.6c0.9,0.2,1.8-0.2,2.3-1L78.7,141.2z"/>
				</g>
				<g>
					<path class="st6" d="M84.1,141.2l-15.5-10.3c-1.3-0.9-1.9-2.4-1.7-3.8c0.1-0.7,0.5-1.4,1-2c0.5-0.5,1.2-0.9,2-1
						c1.5-0.3,3,0.4,3.8,1.7L84.1,141.2z M70.7,125.5c-0.1,0-0.3,0-0.4,0c-0.4,0.1-0.9,0.3-1.2,0.6c-0.3,0.3-0.5,0.7-0.6,1.2
						c-0.2,0.9,0.2,1.8,1,2.3l9.2,6.2l-6.2-9.2C72.1,125.9,71.4,125.5,70.7,125.5z"/>
				</g>
			</g>
			<g>
				<line class="st4" x1="177.4" y1="174.7" x2="207.4" y2="234.5"/>
				<path class="st4" d="M207.4,235.2c-0.3,0-0.5-0.2-0.7-0.4l-30-59.8c-0.2-0.4,0-0.8,0.3-1c0.4-0.2,0.8,0,1,0.3l30,59.8
					c0.2,0.4,0,0.8-0.3,1C207.7,235.2,207.6,235.2,207.4,235.2z"/>
			</g>
			<g>
				<line class="st4" x1="33.4" y1="246.5" x2="9.4" y2="246.5"/>
				<path class="st4" d="M33.4,247.2h-24c-0.4,0-0.8-0.3-0.8-0.8s0.3-0.8,0.8-0.8h24c0.4,0,0.8,0.3,0.8,0.8S33.9,247.2,33.4,247.2z"
					/>
			</g>
			<g>
				<line class="st4" x1="249.4" y1="114.5" x2="225.4" y2="114.5"/>
				<path class="st4" d="M249.4,115.2h-24c-0.4,0-0.8-0.3-0.8-0.8s0.3-0.8,0.8-0.8h24c0.4,0,0.8,0.3,0.8,0.8
					S249.9,115.2,249.4,115.2z"/>
			</g>
		</g>
	</g>
</g>
</svg>
