<?xml version="1.0" encoding="UTF-8"?>
<svg width="200px" height="200px" viewBox="0 0 200 200" version="1.1" xmlns="http://www.w3.org/2000/svg" xmlns:xlink="http://www.w3.org/1999/xlink">
    <!-- Generator: Sketch 51.3 (57544) - http://www.bohemiancoding.com/sketch -->
    <title>Artboard</title>
    <desc>Created with Sketch.</desc>
    <defs></defs>
    <g id="Artboard" stroke="none" stroke-width="1" fill="none" fill-rule="evenodd">
        <g id="microsoft-azure-logo" transform="translate(25.000000, 78.000000)" fill="#0089D6" fill-rule="nonzero">
            <path d="M25.9827468,41.6502322 C33.1984853,40.3609656 39.1582731,39.2940976 39.2267223,39.2794156 L39.3511768,39.2527201 L32.5388083,31.0568685 C28.7920085,26.5491493 25.7264432,22.8435379 25.7264432,22.8221768 C25.7264432,22.7817339 32.760789,3.18893229 32.8003338,3.11922762 C32.8135554,3.09592269 37.6006414,11.4552992 44.4045443,23.3829086 C50.7744827,34.5497502 56.026188,43.7568512 56.075001,43.8431289 L56.1637556,44 L34.5134869,43.9971754 L12.8632222,43.9943624 L25.9827468,41.6502402 L25.9827468,41.6502322 Z M109.008993,39.6681121 C105.713398,39.4544007 103.796665,37.5563342 103.288742,34.0035776 C103.153629,33.0584861 103.153113,33.0339652 103.139286,26.8984523 L103.125903,20.9603019 L104.584449,20.9603019 L106.04299,20.9603019 L106.054476,26.7040237 C106.064829,31.8806806 106.071324,32.4876364 106.120256,32.8517994 C106.318843,34.3297203 106.714195,35.3235894 107.387282,36.0369715 C107.925967,36.6079027 108.556583,36.9421976 109.429522,37.1195847 C109.841354,37.2032698 111.012916,37.2034374 111.388391,37.1199291 C112.27338,36.9229447 112.98269,36.5334181 113.60841,35.900776 C114.321599,35.1796952 114.849202,34.1566321 115.104491,32.9997501 L115.190531,32.6098389 L115.200113,26.817509 L115.209694,21.0251807 L116.698774,21.0251807 L118.187858,21.0251807 L118.187858,30.1308841 L118.187858,39.2365868 L116.714114,39.2365868 L115.24037,39.2365868 L115.24037,37.7918809 C115.24037,36.8102504 115.229733,36.3507596 115.207197,36.3583584 C115.188956,36.3645127 115.113266,36.4816253 115.038999,36.6186165 C114.531141,37.5554249 113.684993,38.4121317 112.75781,38.9282698 C111.646421,39.5469487 110.531841,39.7669373 109.008997,39.668181 L109.008993,39.6681121 Z M142.459565,39.6533968 C141.296216,39.5649513 140.071276,39.1604086 139.070085,38.5340115 C136.959889,37.2137551 135.711294,35.037544 135.34571,32.0426876 C135.219202,31.0063547 135.203997,29.6142948 135.309565,28.733694 C135.545444,26.7660515 136.309887,24.8344486 137.398456,23.4554585 C137.677516,23.1019485 138.310585,22.4616342 138.660079,22.1793984 C139.603862,21.4172402 140.707805,20.8842775 141.87989,20.6249334 C142.562804,20.4738274 143.765424,20.4028792 144.49098,20.4708926 C146.313632,20.6417499 147.984114,21.50974 149.1195,22.8758906 C150.273035,24.2638837 150.90708,26.203369 150.988049,28.5915944 C151.00074,28.9658672 151.003816,29.6220612 150.994895,30.0498031 L150.978661,30.8275141 L144.595107,30.8356892 L138.211553,30.8438644 L138.211553,31.1319926 C138.211553,32.0091166 138.422385,33.0081343 138.786868,33.8581138 C139.101179,34.591091 139.642225,35.3914857 140.085214,35.778818 C140.993524,36.5730102 142.105175,37.0483793 143.321601,37.1627775 C143.772637,37.2051919 144.922109,37.1605385 145.436102,37.0806585 C146.902558,36.8527141 148.296749,36.2709508 149.42264,35.4171719 C149.555105,35.3167209 149.681872,35.2228708 149.704343,35.2086194 C149.737228,35.1877636 149.744999,35.450209 149.744167,36.5534116 L149.743145,37.9241186 L149.441473,38.1128303 C148.16781,38.909576 146.708697,39.4211776 145.163794,39.6126921 C144.702749,39.6698436 143.010949,39.6953036 142.459583,39.6533853 L142.459565,39.6533968 Z M148.015149,28.092755 C148.015149,26.6235133 147.402998,24.9913679 146.536734,24.1509414 C145.918518,23.5511618 145.171177,23.1846163 144.282733,23.0454332 C143.862408,22.9795841 142.976535,23.0049455 142.533383,23.095514 C141.596576,23.2869734 140.821713,23.7035251 140.145879,24.3789914 C139.434606,25.0898774 138.901331,25.953308 138.565955,26.9370672 C138.445358,27.290816 138.304305,27.871585 138.260522,28.1946367 L138.239662,28.3485593 L143.127404,28.3485593 L148.015149,28.3485593 L148.015149,28.092755 Z M61.4234131,39.1960118 C61.4308907,39.1737334 63.5985949,33.4138584 66.2405373,26.39629 L71.044068,13.6370745 L72.5874688,13.6369769 L74.1308661,13.6368804 L74.2589226,13.9690282 C74.6502492,14.9840425 83.8752514,39.208851 83.8752514,39.2214363 C83.8752514,39.2297263 83.1363771,39.2364077 82.2333083,39.2362745 L80.5913653,39.23593 L79.2617922,35.6555317 L77.9322192,32.0751344 L72.5787391,32.075069 L67.2252579,32.0750047 L67.178735,32.1965217 C67.1531499,32.2633559 66.5850955,33.8744204 65.9163874,35.7766675 L64.7005614,39.2352916 L63.0551904,39.2358657 C61.7528077,39.236325 61.4126548,39.2279891 61.4234131,39.1959269 L61.4234131,39.1960118 Z M76.9550626,29.3427843 C76.9550626,29.3371123 76.0603115,26.8836715 74.9667264,23.8907039 C72.9208173,18.2913781 72.8063686,17.9544802 72.6447238,17.0555428 C72.5689253,16.6340148 72.5305725,16.622301 72.4855822,17.0069362 C72.4534219,17.2818694 72.3139772,17.8970693 72.2064747,18.2383131 C72.1531338,18.4076272 71.2318167,20.965246 70.1591012,23.9219096 C69.0863879,26.8785735 68.2087125,29.3101365 68.2087125,29.3253823 C68.2087125,29.3406292 70.1766423,29.3531032 72.5818881,29.3531032 C74.9871339,29.3531032 76.9550626,29.3484645 76.9550626,29.3427809 L76.9550626,29.3427843 Z M84.8684268,38.7702057 L84.8684268,38.3038924 L90.2021271,30.8877771 L95.5358274,23.4716607 L90.7067242,23.4554585 L85.877621,23.4392563 L85.8692318,22.1997789 L85.8608427,20.9603019 L92.8454894,20.9603019 L99.8301349,20.9603019 L99.8301349,21.378941 L99.8301349,21.7975797 L94.4958227,29.254139 C91.561951,33.3552476 89.1615105,36.7175979 89.1615105,36.7260302 C89.1615105,36.734458 91.5331169,36.7413609 94.4317462,36.7413609 L99.7019831,36.7413609 L99.7019831,37.9889388 L99.7019831,39.2365179 L92.2852038,39.2365179 L84.8684268,39.2365179 L84.8684268,38.7702057 Z M124.008076,39.2149134 C123.996328,39.2030342 123.986716,35.0908857 123.986716,30.0768064 L123.986716,20.9603019 L125.444442,20.9603019 L126.902167,20.9603019 L126.902167,22.8397706 C126.902167,23.8734787 126.914594,24.7192397 126.929786,24.7192397 C126.944978,24.7192397 127.015926,24.5500324 127.087447,24.343224 C127.415193,23.3955491 127.983568,22.5100467 128.715829,21.806275 C129.375489,21.1722806 130.129422,20.7931487 131.019038,20.6480569 C131.268934,20.6072994 131.480383,20.5995181 131.980175,20.6126856 C132.607855,20.6292219 132.936016,20.6756285 133.317758,20.8018371 L133.4379,20.8415578 L133.4379,22.3719807 L133.4379,23.9024029 L133.093492,23.7280287 C132.485115,23.4200057 131.884827,23.2981109 131.163208,23.3360634 C130.693567,23.3607645 130.385309,23.4217601 130.009843,23.5642856 C129.237317,23.8575337 128.610687,24.3751392 128.172828,25.0816838 C127.538961,26.1045162 127.086881,27.4192647 126.953542,28.6276421 C126.929613,28.8444949 126.915504,30.6105981 126.909884,34.0922814 L126.901585,39.2365179 L125.465509,39.2365179 C124.675668,39.2365179 124.019823,39.2267927 124.008078,39.2149134 L124.008076,39.2149134 Z M6.45287385e-15,39.1508923 C6.45287385e-15,39.139353 3.209955,33.5033396 7.1332332,26.6264137 L14.2664653,14.1229129 L22.5794227,7.06680751 C27.1515492,3.18595042 30.9046924,0.00595894954 30.9197395,0.000159412453 C30.9347866,-0.00563897644 30.8746414,0.147471788 30.7860832,0.340407724 C30.697525,0.533343661 26.6355092,9.34566964 21.7593814,19.9233536 L12.8936967,39.1555058 L6.44684833,39.1636809 C2.90108254,39.1681819 0,39.1624179 0,39.1508877 L6.45287385e-15,39.1508923 Z" id="path21"></path>
        </g>
    </g>
</svg>