<?xml version="1.0" encoding="utf-8"?>
<!-- Generator: Adobe Illustrator 24.0.3, SVG Export Plug-In . SVG Version: 6.00 Build 0)  -->
<svg version="1.1" id="Layer_1" xmlns="http://www.w3.org/2000/svg" xmlns:xlink="http://www.w3.org/1999/xlink" x="0px" y="0px"
	 viewBox="0 0 96 96" style="enable-background:new 0 0 96 96;" xml:space="preserve">
<style type="text/css">
	.st0{fill-rule:evenodd;clip-rule:evenodd;}
	.st1{fill:#DB1905;}
	.st2{fill:#FF5224;}
	.st3{fill:#444444;}
	.st4{fill:#29B5E8;}
	.st5{fill:#2066AF;}
	.st6{fill:#2065AF;}
	.st7{fill-rule:evenodd;clip-rule:evenodd;fill:#3E4348;}
	.st8{fill:#3E4348;}
	.st9{fill:#64A544;}
	.st10{fill:#282828;}
	.st11{fill:#E8762C;}
	.st12{fill:#C62036;}
	.st13{fill:#5A869A;}
	.st14{fill:#5C6691;}
	.st15{fill:#EB9028;}
	.st16{fill-rule:evenodd;clip-rule:evenodd;fill:#1E457E;}
	.st17{fill:#7098A4;}
	.st18{fill-rule:evenodd;clip-rule:evenodd;fill:#5A869A;}
	.st19{fill:#1E457E;}
</style>
<g id="Layer_2_2_">
	<g id="Layer_1-2_1_">
		<path class="st10" d="M25.6,52.7V42.1H24v10.7c0,2.5,1.6,3.9,3.9,3.6v-1.5C26.7,54.9,25.6,54.4,25.6,52.7z"/>
		<path class="st10" d="M35.3,53.7c-0.1,0.1-0.1,0.2-0.2,0.3C35.1,53.9,35.2,53.8,35.3,53.7z"/>
		<path class="st10" d="M30.4,54c-0.1-0.1-0.1-0.2-0.2-0.3C30.2,53.8,30.3,53.9,30.4,54z"/>
		<path class="st10" d="M34.8,54.2c-0.1,0.1-0.2,0.1-0.3,0.2C34.7,54.4,34.7,54.3,34.8,54.2z"/>
		<path class="st10" d="M30.9,54.4c-0.1-0.1-0.2-0.1-0.3-0.2C30.7,54.3,30.8,54.4,30.9,54.4z"/>
		<path class="st10" d="M36,51.8c0,0.1,0,0.2-0.1,0.4C36,52.1,36,51.9,36,51.8z"/>
		<path class="st10" d="M35.6,53.2c-0.1,0.1-0.1,0.2-0.2,0.3C35.5,53.4,35.6,53.3,35.6,53.2z"/>
		<path class="st10" d="M35.9,52.3c0,0.1-0.1,0.2-0.1,0.3C35.9,52.6,35.9,52.5,35.9,52.3z"/>
		<path class="st10" d="M34.8,54.2c0.1-0.1,0.2-0.2,0.2-0.2C35,54.1,34.9,54.1,34.8,54.2z"/>
		<path class="st10" d="M30,53.5c-0.1-0.1-0.1-0.2-0.2-0.3C29.9,53.3,29.9,53.4,30,53.5z"/>
		<path class="st10" d="M30.4,54c0.1,0.1,0.2,0.2,0.2,0.2C30.5,54.1,30.5,54.1,30.4,54z"/>
		<path class="st10" d="M29.5,52.2c0-0.1,0-0.2-0.1-0.4C29.4,51.9,29.5,52.1,29.5,52.2z"/>
		<path class="st10" d="M29.6,52.7c0-0.1-0.1-0.2-0.1-0.3C29.5,52.5,29.6,52.6,29.6,52.7z"/>
		<path class="st10" d="M32.7,46.2c-2.8,0-4.9,2.3-4.9,5.2c0,2.8,2.2,5.2,4.9,5.2c2.8,0,4.9-2.3,4.9-5.2
			C37.7,48.6,35.5,46.2,32.7,46.2z M36,51.8c0,0.1,0,0.2-0.1,0.4c0,0.1,0,0.1,0,0.2c0,0.1-0.1,0.2-0.1,0.3c-0.1,0.2-0.1,0.3-0.2,0.5
			c-0.1,0.1-0.1,0.2-0.2,0.3c-0.1,0.1-0.1,0.2-0.2,0.3s-0.1,0.2-0.2,0.3c-0.1,0.1-0.2,0.2-0.2,0.2c-0.1,0.1-0.2,0.1-0.3,0.2
			c-1.1,0.8-2.6,0.8-3.7,0c-0.1-0.1-0.2-0.1-0.3-0.2c-0.1-0.1-0.2-0.1-0.2-0.2c-0.1-0.1-0.1-0.2-0.2-0.3c-0.1-0.1-0.1-0.2-0.2-0.3
			c-0.1-0.1-0.1-0.2-0.2-0.3c-0.1-0.2-0.1-0.3-0.2-0.5c0-0.1-0.1-0.2-0.1-0.3c0-0.1,0-0.1,0-0.2c0-0.1,0-0.2-0.1-0.4
			c0-0.1,0-0.2,0-0.4c0-2,1.5-3.7,3.3-3.7c1.8,0,3.3,1.6,3.3,3.7C36,51.6,36,51.7,36,51.8z"/>
		<polygon class="st10" points="57.3,46.5 54.9,46.5 50.4,50.9 50.4,42.1 48.8,42.1 48.8,56.4 50.4,56.4 50.4,53.2 52.3,51.3 
			55.6,56.4 57.6,56.4 53.5,50.2 		"/>
		<path class="st10" d="M61.5,55.1c-1.6,0-3.2-1.2-3.4-3.3h8.3c0-3.5-2.4-5.6-5-5.6c-2.7,0-4.9,2.3-4.9,5.2c0,2.9,2.2,5.2,5,5.2
			c2.3,0,4-1.2,4.6-3.3h-1.7C63.9,54.4,62.9,55.1,61.5,55.1z M61.4,47.7c1.4,0,2.8,1.1,3.2,2.7h-6.4C58.6,48.7,60.1,47.7,61.4,47.7
			L61.4,47.7z"/>
		<path class="st10" d="M68.8,47.6v-1.1h-1.6v9.9h1.6v-5.7c0-2,1.5-2.9,3.2-2.8v-1.6C70.9,46.1,69.5,46.5,68.8,47.6z"/>
		<path class="st10" d="M38,45.9c-1.1,0-2-0.9-2-2c0-1.1,0.9-2,2-2c0.4,0,0.8,0.1,1.2,0.4l0.9-0.9c-0.6-0.5-1.3-0.8-2.1-0.8
			c-1.8,0-3.2,1.4-3.2,3.2c0,1.8,1.4,3.2,3.2,3.2c0.5,0,1.1-0.1,1.5-0.4l-0.7-1C38.5,45.9,38.2,45.9,38,45.9z"/>
		<path class="st10" d="M41.1,44c0-0.8-0.3-1.5-0.8-2.1l-0.9,0.9c0.6,0.8,0.6,1.9-0.1,2.6l0.7,1C40.8,45.7,41.1,44.8,41.1,44z"/>
		<path class="st10" d="M46.8,48.1c-1.6-1.9-4.2-2.4-6.3-1.1l0.9,1.3c1.3-0.8,3-0.5,4,0.7c0.6,0.7,0.9,1.6,0.9,2.6
			c0,1-0.4,2-1.2,2.7c-1.3,1.2-3.3,1.1-4.5-0.2c0,0,0-0.1-0.1-0.1c-1.3-1.5-1.2-3.8,0.2-5.3l-0.9-1.3c-1.2,0.9-1.9,2.3-1.9,3.8
			c0,1.6,0.4,2.8,1.3,3.8c1.8,2.1,5.1,2.2,7.1,0.3C48.4,53.3,48.6,50.2,46.8,48.1z"/>
		<path class="st10" d="M42.1,37.8c-0.5,0-0.9,0.2-1.2,0.5l0.5,0.5c0.6-0.4,1.3-0.2,1.7,0.3c0.4,0.6,0.2,1.3-0.3,1.7
			c-0.4,0.3-0.9,0.3-1.3,0l-0.5,0.5c0.3,0.3,0.8,0.4,1.2,0.4c1.1,0,2-0.9,2-2C44.1,38.7,43.2,37.8,42.1,37.8L42.1,37.8z"/>
		<path class="st10" d="M40.9,39.8c0-0.2,0.1-0.4,0.2-0.6l-0.5-0.5c-0.5,0.7-0.5,1.6,0,2.3l0.5-0.5C40.9,40.3,40.9,40,40.9,39.8z"/>
		<path class="st10" d="M39.4,38c-0.4,0-0.7-0.3-0.7-0.7s0.3-0.7,0.7-0.7c0.4,0,0.7,0.3,0.7,0.7c0,0.1,0,0.2-0.1,0.3l0.3,0.3
			c0.1-0.2,0.2-0.4,0.2-0.6c0-0.7-0.5-1.2-1.1-1.2s-1.2,0.5-1.2,1.1c0,0,0,0.1,0,0.1c0,0.7,0.5,1.2,1.2,1.2c0.2,0,0.5-0.1,0.7-0.2
			l-0.4-0.3C39.6,38,39.5,38,39.4,38z"/>
	</g>
</g>
</svg>
