<?xml version="1.0" encoding="utf-8"?>
<!-- Generator: Adobe Illustrator 24.1.2, SVG Export Plug-In . SVG Version: 6.00 Build 0)  -->
<svg version="1.1" id="Layer_1" xmlns="http://www.w3.org/2000/svg" xmlns:xlink="http://www.w3.org/1999/xlink" x="0px" y="0px"
	 viewBox="0 0 96 96" style="enable-background:new 0 0 96 96;" xml:space="preserve">
<style type="text/css">
	.st0{fill:#FF3621;}
</style>
<path d="M30.7,50.7c-1,0-1.8-0.8-1.8-1.9c0-1.1,0.8-1.9,1.8-1.9s1.8,0.8,1.8,1.9C32.5,49.8,31.7,50.7,30.7,50.7 M33.7,51.7v-8.3
	h-1.3v3.1c0,0,0,0.1-0.1,0.1c0,0-0.1,0-0.1,0c-0.4-0.5-1.1-0.8-1.9-0.8c-1.6,0-2.8,1.3-2.8,3c0,0.8,0.3,1.6,0.8,2.2
	c0.5,0.6,1.2,0.9,2,0.9c0.7,0,1.4-0.3,1.9-0.8c0,0,0.1,0,0.1,0c0,0,0.1,0.1,0.1,0.1v0.6H33.7z"/>
<path d="M37.5,50.7c-1,0-1.8-0.8-1.8-1.9c0-1.1,0.8-1.9,1.8-1.9s1.8,0.8,1.8,1.9C39.4,49.8,38.6,50.7,37.5,50.7 M40.6,51.7v-5.8
	h-1.3v0.6c0,0,0,0.1-0.1,0.1c0,0-0.1,0-0.1,0c-0.4-0.5-1.1-0.8-1.9-0.8c-1.6,0-2.8,1.3-2.8,3s1.2,3,2.8,3c0.7,0,1.4-0.3,1.9-0.8
	c0,0,0.1,0,0.1,0c0,0,0.1,0.1,0.1,0.1v0.6H40.6z"/>
<path d="M48.4,50.7c-1,0-1.8-0.8-1.8-1.9c0-1.1,0.8-1.9,1.8-1.9c1,0,1.8,0.8,1.8,1.9C50.2,49.8,49.4,50.7,48.4,50.7 M51.4,51.7v-5.8
	h-1.3v0.6c0,0,0,0.1-0.1,0.1c0,0-0.1,0-0.1,0c-0.4-0.5-1.1-0.8-1.9-0.8c-1.6,0-2.8,1.3-2.8,3s1.2,3,2.8,3c0.7,0,1.4-0.3,1.9-0.8
	c0,0,0.1,0,0.1,0c0,0,0.1,0.1,0.1,0.1v0.6H51.4z"/>
<path d="M53.6,48.8c0-1.1,0.8-1.9,1.8-1.9s1.8,0.8,1.8,1.9c0,1.1-0.8,1.9-1.8,1.9S53.6,49.8,53.6,48.8 M53.7,51
	C53.8,51,53.8,51,53.7,51c0.1,0,0.1,0,0.1,0c0.4,0.5,1.1,0.8,1.9,0.8c1.6,0,2.8-1.3,2.8-3c0-0.8-0.3-1.6-0.8-2.2
	c-0.5-0.6-1.2-0.9-2-0.9c-0.7,0-1.4,0.3-1.9,0.8c0,0-0.1,0-0.1,0c0,0-0.1-0.1-0.1-0.1l0-3.1h-1.3l0,8.3h1.3v-0.6
	C53.7,51.1,53.7,51,53.7,51"/>
<path d="M62.2,47.1c0.1,0,0.2,0,0.3,0v-1.3c0,0-0.1,0-0.2,0c-0.7,0-1.3,0.3-1.6,0.9c0,0-0.1,0.1-0.1,0.1c0,0-0.1-0.1-0.1-0.1v-0.7
	h-1.3v5.8h1.3v-2.5C60.5,47.9,61.2,47.1,62.2,47.1"/>
<rect x="63.3" y="45.9" width="1.3" height="5.8"/>
<path d="M64,43.4c-0.4,0-0.8,0.4-0.8,0.8c0,0.4,0.4,0.8,0.8,0.8c0.4,0,0.8-0.4,0.8-0.8C64.8,43.7,64.4,43.4,64,43.4"/>
<path d="M68.4,45.7c-1.8,0-3.1,1.3-3.1,3c0,0.9,0.3,1.6,0.9,2.2c0.6,0.6,1.3,0.9,2.2,0.9c0.7,0,1.3-0.1,2.3-0.9L70,50.1
	c-0.5,0.3-1,0.5-1.5,0.5c-1.1,0-1.9-0.8-1.9-1.9c0-1.1,0.8-1.9,1.9-1.9c0.5,0,1,0.2,1.4,0.5l0.8-0.8C69.9,45.8,69,45.7,68.4,45.7"/>
<path d="M73,49.1C73,49.1,73.1,49.1,73,49.1L73,49.1c0.1,0,0.1,0,0.2,0l2,2.5l1.6,0l-2.7-3.2c0,0,0-0.1,0-0.1l2.4-2.4H75L72.9,48
	c0,0-0.1,0-0.1,0c0,0-0.1-0.1-0.1-0.1l0-4.6h-1.3l0,8.3h1.3v-2.3c0,0,0-0.1,0-0.1L73,49.1z"/>
<path d="M78.9,51.8c1.1,0,2.1-0.6,2.1-1.8c0-0.8-0.5-1.3-1.5-1.7l-0.7-0.2c-0.5-0.2-0.7-0.4-0.7-0.7c0-0.3,0.3-0.6,0.8-0.6
	c0.4,0,0.8,0.3,1,0.8l1-0.6c-0.4-0.8-1.2-1.3-2.1-1.3c-1.1,0-2,0.7-2,1.8c0,0.8,0.5,1.3,1.5,1.7l0.7,0.2c0.5,0.2,0.7,0.4,0.7,0.7
	c0,0.5-0.5,0.7-0.8,0.7c-0.5,0-1-0.3-1.2-0.9l-1,0.5C77,51.3,77.9,51.8,78.9,51.8"/>
<path d="M44.1,51.8c0.4,0,0.8,0,1-0.1l0-1.1c-0.2,0-0.5,0-0.6,0c-0.5,0-0.9-0.1-0.9-1.2V47c0-0.1,0-0.1,0.1-0.1h1.2l0-1l-1.2,0
	c-0.1,0-0.1,0-0.1-0.1v-1.7l-1.3,0l0,1.7c0,0.1,0,0.1-0.1,0.1h-0.9l0,1l0.9,0c0.1,0,0.1,0,0.1,0.1v2.7
	C42.2,51.8,43.6,51.8,44.1,51.8"/>
<polygon class="st0" points="24.2,47.1 19.8,49.5 15.2,46.9 15,47 15,48.9 19.8,51.7 24.2,49.2 24.2,50.2 19.8,52.7 15.2,50.1 
	15,50.2 15,50.5 19.8,53.2 24.7,50.5 24.7,48.6 24.5,48.5 19.8,51.1 15.5,48.7 15.5,47.7 19.8,50.1 24.7,47.4 24.7,45.5 24.4,45.4 
	19.8,47.9 15.7,45.6 19.8,43.3 23.2,45.2 23.5,45.1 23.5,44.8 19.8,42.8 15,45.5 15,45.8 19.8,48.5 24.2,46.1 "/>
</svg>
