<?xml version="1.0" encoding="utf-8"?>
<!-- Generator: Adobe Illustrator 24.0.3, SVG Export Plug-In . SVG Version: 6.00 Build 0)  -->
<svg version="1.1" id="Layer_1" xmlns="http://www.w3.org/2000/svg" xmlns:xlink="http://www.w3.org/1999/xlink" x="0px" y="0px"
	 viewBox="0 0 96 96" style="enable-background:new 0 0 96 96;" xml:space="preserve">
<style type="text/css">
	.st0{fill-rule:evenodd;clip-rule:evenodd;}
	.st1{fill:#DB1905;}
	.st2{fill:#FF5224;}
	.st3{fill:#444444;}
	.st4{fill:#29B5E8;}
	.st5{fill:#2066AF;}
	.st6{fill:#2065AF;}
	.st7{fill-rule:evenodd;clip-rule:evenodd;fill:#3E4348;}
	.st8{fill:#3E4348;}
	.st9{fill:#64A544;}
	.st10{fill:#282828;}
	.st11{fill:#E8762C;}
	.st12{fill:#C62036;}
	.st13{fill:#5A869A;}
	.st14{fill:#5C6691;}
	.st15{fill:#EB9028;}
	.st16{fill-rule:evenodd;clip-rule:evenodd;fill:#1E457E;}
	.st17{fill:#7098A4;}
	.st18{fill-rule:evenodd;clip-rule:evenodd;fill:#5A869A;}
	.st19{fill:#1E457E;}
</style>
<g>
	<polygon class="st11" points="25.7,47.5 24.1,47.5 24.1,45.8 23.5,45.8 23.5,47.5 21.9,47.5 21.9,48.1 23.5,48.1 23.5,49.9 
		24.1,49.9 24.1,48.1 25.7,48.1 	"/>
	<polygon class="st12" points="22.5,50.4 21.1,50.4 21.1,48.8 20.5,48.8 20.5,50.4 19.1,50.4 19.1,50.8 20.5,50.8 20.5,52.4 
		21.1,52.4 21.1,50.8 22.5,50.8 	"/>
	<polygon class="st13" points="28.5,44.8 27.1,44.8 27.1,43.2 26.5,43.2 26.5,44.8 25.1,44.8 25.1,45.3 26.5,45.3 26.5,46.8 
		27.1,46.8 27.1,45.3 28.5,45.3 	"/>
	<polygon class="st14" points="25,52.1 24,52.1 24,51 23.6,51 23.6,52.1 22.6,52.1 22.6,52.5 23.6,52.5 23.6,53.6 24,53.6 24,52.5 
		25,52.5 	"/>
	<polygon class="st15" points="22.5,44.8 21.1,44.8 21.1,43.2 20.6,43.2 20.6,44.8 19.1,44.8 19.1,45.3 20.6,45.3 20.6,46.8 
		21.1,46.8 21.1,45.3 22.5,45.3 	"/>
	<polygon class="st14" points="29.6,47.6 28.6,47.6 28.6,46.5 28.2,46.5 28.2,47.6 27.2,47.6 27.2,48 28.2,48 28.2,49.1 28.6,49.1 
		28.6,48 29.6,48 	"/>
	<polygon class="st16" points="28.5,50.4 27.1,50.4 27.1,48.8 26.5,48.8 26.5,50.4 25.1,50.4 25.1,50.8 26.5,50.8 26.5,52.4 
		27.1,52.4 27.1,50.8 28.5,50.8 	"/>
	<polygon class="st17" points="23.6,42.1 23.6,43.2 22.7,43.2 22.7,43.5 23.6,43.5 23.6,44.6 24,44.6 24,43.5 24.9,43.5 24.9,43.2 
		24,43.2 24,42.1 	"/>
	<polygon class="st17" points="20.3,47.7 19.3,47.7 19.3,46.6 19,46.6 19,47.7 18,47.7 18,48 19,48 19,49 19.3,49 19.3,48 20.3,48 	
		"/>
	<g>
		<path class="st18" d="M34.8,53.8c0.1,0.1,0.2,0.1,0.4,0.1c0.3,0,0.4-0.1,0.4-0.3c0-0.1,0-0.2-0.1-0.3c-0.1-0.1-0.2-0.1-0.3-0.1
			c-0.1,0-0.1-0.1-0.1-0.1c0-0.1,0.1-0.1,0.2-0.1c0.1,0,0.2,0,0.4,0.1v-0.2c-0.1-0.1-0.3-0.1-0.4-0.1c-0.3,0-0.4,0.1-0.4,0.3
			c0,0.2,0.1,0.3,0.4,0.4c0.1,0,0.1,0.1,0.1,0.1c0,0.1-0.1,0.1-0.2,0.1c-0.1,0-0.2-0.1-0.4-0.1V53.8z"/>
		<path class="st18" d="M40.2,53.3c0,0.2,0.1,0.3,0.2,0.4c0.1,0.1,0.3,0.2,0.4,0.2c0.2,0,0.3-0.1,0.4-0.2c0.1-0.1,0.2-0.2,0.2-0.4
			c0-0.2-0.1-0.3-0.2-0.4c-0.1-0.1-0.3-0.2-0.4-0.2c-0.2,0-0.3,0.1-0.4,0.2C40.3,53,40.2,53.1,40.2,53.3 M40.5,53.3
			c0-0.2,0.1-0.3,0.3-0.3c0.2,0,0.3,0.1,0.3,0.3c0,0.2-0.1,0.3-0.3,0.3C40.6,53.6,40.5,53.5,40.5,53.3"/>
		<polygon class="st18" points="46.3,53.8 46.5,53.8 46.5,53.4 47,53.4 47,53.2 46.5,53.2 46.5,53 47,53 47,52.8 46.3,52.8 		"/>
		<polygon class="st18" points="52.1,53.8 52.4,53.8 52.4,53 52.8,53 52.8,52.8 51.7,52.8 51.7,53 52.1,53 		"/>
		<polygon class="st18" points="57.6,53.9 57.7,53.9 58,53.2 58.2,53.9 58.3,53.9 58.8,52.8 58.5,52.8 58.3,53.3 58.1,52.8 
			57.9,52.8 57.7,53.3 57.5,52.8 57.2,52.8 		"/>
		<path class="st18" d="M62.9,53.8h0.3l0.1-0.2h0.5l0.1,0.2h0.3l-0.4-1.1h-0.3L62.9,53.8z M63.4,53.4l0.2-0.4l0.2,0.4H63.4z"/>
		<path class="st18" d="M68.6,53.8h0.3v-0.4c0,0,0,0,0,0c0.1,0,0.2,0,0.2,0.1l0.1,0.3h0.3l-0.2-0.4c0-0.1-0.1-0.1-0.1-0.1
			c0.1-0.1,0.2-0.1,0.2-0.3c0-0.2-0.1-0.3-0.4-0.3h-0.4V53.8z M69,53.2h-0.1v-0.3H69c0.1,0,0.2,0,0.2,0.1
			C69.2,53.2,69.1,53.2,69,53.2"/>
		<polygon class="st18" points="74.1,53.8 74.9,53.8 74.9,53.6 74.4,53.6 74.4,53.4 74.8,53.4 74.8,53.2 74.4,53.2 74.4,53 74.8,53 
			74.8,52.8 74.1,52.8 		"/>
		<path class="st16" d="M48.9,46.9c0.4-0.1,0.7-0.2,0.9-0.2c1.1,0,1.8,0.8,1.8,1.9c0,1.2-0.8,1.9-2.1,1.9c-0.5,0-0.9-0.1-1.4-0.3
			l0-5.4h0.8V46.9z M49.6,49.9c0.7,0,1.2-0.4,1.2-1.2c0-0.8-0.4-1.2-1.1-1.2c-0.3,0-0.6,0.1-0.8,0.2v2.1
			C49.1,49.8,49.3,49.9,49.6,49.9"/>
		<rect x="54.9" y="44.2" class="st16" width="0.8" height="7.1"/>
		<path class="st16" d="M60.1,48.3h1.8c0-0.5-0.3-0.7-0.7-0.8C60.7,47.5,60.3,47.8,60.1,48.3 M61,50.6c-1.2-0.1-1.8-1-1.8-2
			c0-1.1,0.7-1.9,1.8-1.9c1.1,0,1.8,0.8,1.7,2.1h-2.7c0.1,0.7,0.5,1,1,1.1c0.5,0,1.1-0.1,1.5-0.3v0.8C62.1,50.6,61.6,50.7,61,50.6"
			/>
		<path class="st16" d="M74.6,50c0.5,0,0.8-0.3,0.8-0.8v-2.4h0.8v2.5c0,0.8-0.6,1.3-1.6,1.3c-1,0-1.6-0.5-1.6-1.3v-2.5h0.8v2.4
			C73.7,49.8,74.1,50,74.6,50"/>
		<path class="st16" d="M42.8,50.6c-1.3,0-2.1-0.7-2.1-1.9c0-1.2,0.7-1.9,1.8-1.9c0.4,0,0.7,0.1,0.9,0.3v-0.3h0.8l0,3.6
			C43.8,50.5,43.3,50.6,42.8,50.6 M42.7,49.9c0.2,0,0.4,0,0.7-0.1l0-2.1c-0.3-0.2-0.5-0.3-0.8-0.3c-0.7,0-1.1,0.5-1.1,1.2
			C41.5,49.5,42,49.9,42.7,49.9"/>
		<path class="st16" d="M68.1,50.6c-1.3,0-2.1-0.7-2.1-1.9c0-1.2,0.7-1.9,1.8-1.9c0.4,0,0.7,0.1,0.9,0.3v-0.3h0.8l0,3.6
			C69.2,50.5,68.6,50.6,68.1,50.6 M68,49.9c0.2,0,0.4,0,0.7-0.1l0-2.1c-0.3-0.2-0.5-0.3-0.8-0.3c-0.7,0-1.1,0.5-1.1,1.2
			C66.9,49.5,67.3,49.9,68,49.9"/>
	</g>
	<g>
		<polygon class="st19" points="34.7,45.2 35.5,45.2 35.5,47.5 37.7,47.5 37.7,48.2 35.5,48.2 35.5,50.6 34.7,50.6 34.7,48.2 
			32.6,48.2 32.6,47.5 34.7,47.5 		"/>
		<path class="st19" d="M77.5,46.8c0.3,0,0.5,0.2,0.5,0.5c0,0.3-0.2,0.5-0.5,0.5c-0.3,0-0.5-0.2-0.5-0.5
			C77.1,47,77.3,46.8,77.5,46.8L77.5,46.8z M77.5,46.9c-0.2,0-0.4,0.2-0.4,0.4c0,0.2,0.2,0.4,0.4,0.4c0.2,0,0.4-0.2,0.4-0.4
			C77.9,47,77.7,46.9,77.5,46.9L77.5,46.9z M77.4,47.5L77.4,47.5L77.4,47c0,0,0.1,0,0.2,0c0.1,0,0.1,0,0.2,0c0,0,0,0.1,0,0.1
			c0,0.1,0,0.1-0.1,0.1v0c0,0,0.1,0.1,0.1,0.1c0,0.1,0,0.1,0,0.1h-0.1c0,0,0-0.1,0-0.1c0-0.1,0-0.1-0.1-0.1h-0.1V47.5z M77.4,47.3
			L77.4,47.3c0.1,0,0.2,0,0.2-0.1c0,0,0-0.1-0.1-0.1c0,0,0,0-0.1,0V47.3z"/>
	</g>
</g>
</svg>
