<?xml version="1.0" encoding="utf-8"?>
<!-- Generator: Adobe Illustrator 24.0.3, SVG Export Plug-In . SVG Version: 6.00 Build 0)  -->
<svg version="1.1" id="Layer_1" xmlns="http://www.w3.org/2000/svg" xmlns:xlink="http://www.w3.org/1999/xlink" x="0px" y="0px"
	 viewBox="0 0 100 100" style="enable-background:new 0 0 100 100;" xml:space="preserve">
<style type="text/css">
	.st0{fill:#EA4335;}
	.st1{fill:#4285F4;}
	.st2{fill:#34A853;}
	.st3{fill:#FBBC05;}
	.st4{fill:#5F6368;}
</style>
<g>
	<path class="st0" d="M20.3,47.2h0.4l1.2-1.2l0.1-0.5c-2.2-2-5.7-1.8-7.7,0.5c-0.6,0.6-1,1.4-1.2,2.2c0.1-0.1,0.3-0.1,0.4,0l2.4-0.4
		c0,0,0.1-0.2,0.2-0.2C17.3,46.3,19.1,46.2,20.3,47.2L20.3,47.2z"/>
	<path class="st1" d="M23.7,48.1c-0.3-1-0.8-1.9-1.6-2.6l-1.7,1.7c0.7,0.6,1.1,1.5,1.1,2.4v0.3c0.8,0,1.5,0.7,1.5,1.5
		s-0.7,1.5-1.5,1.5h-3l-0.3,0.3V55l0.3,0.3h3c2.2,0,3.9-1.7,4-3.9C25.4,50.1,24.7,48.9,23.7,48.1z"/>
	<path class="st2" d="M15.4,55.3h3v-2.4h-3c-0.2,0-0.4,0-0.6-0.1l-0.4,0.1l-1.2,1.2L13,54.5C13.7,55,14.5,55.3,15.4,55.3z"/>
	<path class="st3" d="M15.4,47.5c-2.2,0-3.9,1.8-3.9,3.9c0,1.2,0.6,2.4,1.5,3.1l1.8-1.8c-0.8-0.3-1.1-1.2-0.8-2s1.2-1.1,2-0.8
		c0.3,0.2,0.6,0.4,0.8,0.8l1.8-1.8C17.8,48,16.6,47.5,15.4,47.5z"/>
	<path class="st4" d="M33.4,53.6c-1.1,0-2.1-0.4-2.8-1.1c-0.8-0.7-1.2-1.7-1.2-2.8c0-1,0.4-2,1.2-2.8c0.7-0.8,1.7-1.2,2.8-1.2
		c1,0,2,0.4,2.7,1.1l-0.8,0.8c-0.5-0.5-1.2-0.8-1.9-0.8c-0.8,0-1.5,0.3-2,0.8c-0.5,0.5-0.8,1.3-0.8,2c0,0.7,0.3,1.5,0.8,2
		c1.1,1.1,2.9,1.1,4,0c0.3-0.4,0.5-0.8,0.6-1.3h-2.5v-1.1H37c0,0.2,0,0.4,0,0.7c0,0.9-0.3,1.8-0.9,2.5
		C35.4,53.2,34.4,53.6,33.4,53.6z M41.8,52.9c-1,1-2.6,1-3.6,0c-0.5-0.5-0.8-1.1-0.7-1.8c0-0.7,0.2-1.3,0.7-1.8c1-1,2.6-1,3.6,0
		c0.5,0.5,0.8,1.1,0.7,1.8C42.5,51.8,42.3,52.4,41.8,52.9L41.8,52.9z M39,52.2c0.5,0.6,1.4,0.6,1.9,0.1c0,0,0,0,0.1-0.1
		c0.3-0.3,0.4-0.7,0.4-1.1c0-0.4-0.1-0.8-0.4-1.1c-0.5-0.6-1.4-0.6-2,0c0,0,0,0,0,0c-0.3,0.3-0.4,0.7-0.4,1.1
		C38.6,51.5,38.7,51.9,39,52.2L39,52.2z M47.3,52.9c-1,1-2.6,1-3.6,0c-0.5-0.5-0.8-1.1-0.7-1.8c0-0.7,0.2-1.3,0.7-1.8
		c1-1,2.6-1,3.6,0c0.5,0.5,0.8,1.1,0.7,1.8C48.1,51.8,47.8,52.4,47.3,52.9z M44.5,52.2c0.5,0.6,1.4,0.6,1.9,0.1c0,0,0,0,0.1-0.1
		c0.3-0.3,0.4-0.7,0.4-1.1c0-0.4-0.1-0.8-0.4-1.1c-0.5-0.6-1.4-0.6-2,0c0,0,0,0,0,0c-0.3,0.3-0.4,0.7-0.4,1.1
		C44.1,51.5,44.2,51.9,44.5,52.2L44.5,52.2z M50.9,55.9c-0.5,0-1-0.1-1.4-0.4c-0.4-0.3-0.6-0.6-0.8-1l1-0.4c0.1,0.2,0.3,0.5,0.5,0.6
		c0.2,0.2,0.5,0.3,0.8,0.3c0.4,0,0.7-0.1,1-0.4c0.3-0.3,0.4-0.7,0.4-1.1V53h0c-0.3,0.4-0.8,0.6-1.3,0.6c-0.6,0-1.3-0.3-1.7-0.7
		c-0.5-0.5-0.7-1.1-0.7-1.8c0-0.7,0.2-1.3,0.7-1.8c0.4-0.5,1.1-0.7,1.7-0.7c0.3,0,0.5,0.1,0.8,0.2c0.2,0.1,0.4,0.2,0.6,0.4h0v-0.4
		h1.1v4.5c0.1,0.7-0.2,1.4-0.7,2C52.2,55.7,51.6,55.9,50.9,55.9z M51,52.6c0.4,0,0.7-0.1,1-0.4c0.3-0.3,0.4-0.7,0.4-1.1
		c0-0.4-0.1-0.8-0.4-1.1c-0.2-0.3-0.6-0.4-1-0.4c-0.4,0-0.7,0.1-1,0.4c-0.3,0.3-0.4,0.7-0.4,1.1c0,0.4,0.1,0.8,0.4,1.1
		C50.3,52.5,50.6,52.6,51,52.6z M55.2,46v7.4h-1.1V46H55.2z M58.3,53.6c-0.7,0-1.3-0.2-1.8-0.7c-0.5-0.5-0.7-1.1-0.7-1.8
		c0-0.7,0.2-1.3,0.7-1.8c0.4-0.5,1.1-0.7,1.7-0.7c0.3,0,0.6,0.1,0.8,0.2c0.2,0.1,0.5,0.2,0.6,0.4c0.2,0.2,0.3,0.3,0.4,0.5
		c0.1,0.2,0.2,0.3,0.3,0.5l0.1,0.3L57,51.8c0.2,0.5,0.7,0.8,1.2,0.8c0.5,0,1-0.3,1.2-0.7l0.8,0.6c-0.2,0.3-0.5,0.6-0.8,0.8
		C59.1,53.5,58.7,53.6,58.3,53.6z M56.8,51l2.3-0.9c-0.1-0.2-0.2-0.3-0.4-0.4c-0.2-0.1-0.4-0.2-0.6-0.1c-0.3,0-0.7,0.2-0.9,0.4
		C57,50.2,56.8,50.6,56.8,51z"/>
	<path class="st4" d="M66.2,53.6c-1.9,0-3.5-1.5-3.6-3.4c0,0,0-0.1,0-0.1c0-1.9,1.5-3.5,3.4-3.6c0,0,0.1,0,0.1,0
		c1,0,1.9,0.4,2.5,1.1l-0.6,0.6c-0.5-0.6-1.2-0.9-1.9-0.9c-0.7,0-1.4,0.3-1.9,0.8c-0.5,0.5-0.8,1.2-0.8,2c0,0.7,0.2,1.5,0.8,2
		c0.5,0.5,1.2,0.8,1.9,0.8c0.8,0,1.6-0.4,2.1-1l0.6,0.6c-0.3,0.4-0.7,0.7-1.2,0.9C67.3,53.5,66.8,53.6,66.2,53.6z"/>
	<path class="st4" d="M70.6,53.5h-0.9v-6.8h0.9V53.5z"/>
	<path class="st4" d="M72,49.3c1-1,2.5-1,3.5,0c0.5,0.5,0.7,1.1,0.7,1.8c0,0.7-0.2,1.3-0.7,1.8c-1,1-2.5,1-3.5,0
		c-0.5-0.5-0.7-1.1-0.7-1.8C71.3,50.5,71.6,49.8,72,49.3z M72.7,52.3c0.6,0.6,1.5,0.6,2.1,0.1c0,0,0,0,0.1-0.1
		c0.3-0.3,0.5-0.8,0.5-1.2c0-0.5-0.1-0.9-0.5-1.2c-0.6-0.6-1.5-0.6-2.1-0.1c0,0,0,0-0.1,0.1c-0.3,0.3-0.5,0.8-0.5,1.2
		C72.2,51.6,72.4,52,72.7,52.3L72.7,52.3z"/>
	<path class="st4" d="M81,53.5h-0.8v-0.6h0c-0.2,0.2-0.4,0.4-0.6,0.6c-0.3,0.2-0.6,0.2-0.9,0.2c-0.5,0-1-0.2-1.3-0.5
		c-0.3-0.4-0.5-0.9-0.5-1.4v-2.9h0.9v2.7c0,0.9,0.4,1.3,1.2,1.3c0.3,0,0.7-0.1,0.9-0.4c0.2-0.3,0.3-0.6,0.3-1v-2.6H81V53.5z"/>
	<path class="st4" d="M84,53.6c-0.6,0-1.2-0.3-1.6-0.7c-0.4-0.5-0.7-1.1-0.7-1.8c0-0.7,0.2-1.3,0.7-1.8c0.4-0.5,1-0.7,1.6-0.7
		c0.3,0,0.7,0.1,1,0.2c0.3,0.1,0.5,0.3,0.6,0.6h0l0-0.6v-2.2h0.9v6.8h-0.8v-0.6h0c-0.2,0.2-0.4,0.4-0.6,0.6
		C84.7,53.5,84.3,53.6,84,53.6z M84.2,52.8c0.4,0,0.8-0.2,1.1-0.5c0.3-0.3,0.5-0.8,0.4-1.2c0-0.5-0.1-0.9-0.4-1.2
		c-0.5-0.6-1.4-0.6-2-0.1c0,0-0.1,0.1-0.1,0.1c-0.3,0.3-0.5,0.8-0.4,1.2c0,0.4,0.1,0.9,0.4,1.2C83.4,52.6,83.7,52.8,84.2,52.8z"/>
</g>
</svg>
