<svg id="Layer_1" data-name="Layer 1" xmlns="http://www.w3.org/2000/svg" width="200" height="200" viewBox="0 0 200 200">
  <title>Untitled-1</title>
  <g>
    <path d="M81.76,93.16a8.55,8.55,0,0,0,.3,2.47,14.5,14.5,0,0,0,.89,2,1.19,1.19,0,0,1,.2.64,1.12,1.12,0,0,1-.53.83l-1.75,1.17a1.39,1.39,0,0,1-.73.25,1.29,1.29,0,0,1-.83-.39,8.59,8.59,0,0,1-1-1.31c-.28-.47-.56-1-.86-1.64A10.28,10.28,0,0,1,69.27,101a7.62,7.62,0,0,1-5.56-2A7.85,7.85,0,0,1,64.18,88,10.1,10.1,0,0,1,71,85.79a21.84,21.84,0,0,1,3,.22c1,.14,2.09.36,3.2.61v-2c0-2.11-.44-3.58-1.31-4.45s-2.39-1.27-4.53-1.27a12.66,12.66,0,0,0-3,.36,22.34,22.34,0,0,0-3,.94,6,6,0,0,1-1,.36,1.55,1.55,0,0,1-.44.09c-.39,0-.59-.28-.59-.86V78.39a1.73,1.73,0,0,1,.2-1,2,2,0,0,1,.77-.58,16.07,16.07,0,0,1,3.51-1.26,16.93,16.93,0,0,1,4.34-.52c3.31,0,5.73.75,7.28,2.25s2.31,3.78,2.31,6.84v9ZM70.47,97.39a9.12,9.12,0,0,0,2.86-.5A6.29,6.29,0,0,0,76,95.11a4.46,4.46,0,0,0,1-1.78,10.39,10.39,0,0,0,.28-2.42V89.74a21.94,21.94,0,0,0-2.56-.47A19.42,19.42,0,0,0,72,89.1a6.42,6.42,0,0,0-4.14,1.11,4,4,0,0,0,2.59,7.18Zm22.33,3a1.53,1.53,0,0,1-1.06-.28A2.22,2.22,0,0,1,91.16,99l-6.54-21.5a4.77,4.77,0,0,1-.25-1.11.61.61,0,0,1,.67-.7h2.72a1.59,1.59,0,0,1,1.09.28,2.27,2.27,0,0,1,.55,1.09l4.68,18.4,4.33-18.4A2,2,0,0,1,98.94,76a1.88,1.88,0,0,1,1.11-.28h2.23a1.68,1.68,0,0,1,1.11.28,1.91,1.91,0,0,1,.53,1.09l4.39,18.63,4.81-18.63a2.48,2.48,0,0,1,.56-1.09,1.78,1.78,0,0,1,1.09-.28h2.58a.62.62,0,0,1,.7.7,2.43,2.43,0,0,1-.06.44,4.22,4.22,0,0,1-.19.7l-6.71,21.49a2.12,2.12,0,0,1-.58,1.09,1.75,1.75,0,0,1-1.06.28h-2.39a1.68,1.68,0,0,1-1.11-.28,2,2,0,0,1-.53-1.11l-4.31-17.94L96.83,99a2.15,2.15,0,0,1-.53,1.11,1.68,1.68,0,0,1-1.11.28Zm35.73.75a18.55,18.55,0,0,1-4.28-.5,12.78,12.78,0,0,1-3.2-1.11,2,2,0,0,1-.86-.78A2,2,0,0,1,120,98V96.55c0-.58.22-.86.64-.86a1.74,1.74,0,0,1,.5.08l.7.28a14.59,14.59,0,0,0,3.06,1,16.08,16.08,0,0,0,3.3.34,7.49,7.49,0,0,0,4.06-.92,3,3,0,0,0,1.45-2.64,2.72,2.72,0,0,0-.75-2,6.92,6.92,0,0,0-2.81-1.44l-4-1.26a8.44,8.44,0,0,1-4.45-2.83,6.63,6.63,0,0,1-1.39-4,6.2,6.2,0,0,1,.75-3.09,7.17,7.17,0,0,1,2-2.28,9,9,0,0,1,2.89-1.45,12.3,12.3,0,0,1,3.51-.47,14.51,14.51,0,0,1,1.86.11c.64.08,1.23.2,1.81.31s1.08.28,1.58.44a6.9,6.9,0,0,1,1.17.5,2.55,2.55,0,0,1,.84.7A1.55,1.55,0,0,1,137,78v1.3c0,.59-.23.89-.64.89a2.87,2.87,0,0,1-1.06-.33,12.74,12.74,0,0,0-5.34-1.09,7.17,7.17,0,0,0-3.7.78,2.69,2.69,0,0,0-1.3,2.48,2.6,2.6,0,0,0,.83,2,8.23,8.23,0,0,0,3.06,1.53l3.95,1.25a8.46,8.46,0,0,1,4.31,2.67,6.32,6.32,0,0,1,1.28,3.9,7,7,0,0,1-.73,3.22,7.37,7.37,0,0,1-2,2.45,9.21,9.21,0,0,1-3.08,1.56A13.21,13.21,0,0,1,128.53,101.14Z" style="fill: #252f3e"/>
    <g>
      <path d="M133.79,114.66C124.64,121.41,111.34,125,99.92,125a61.29,61.29,0,0,1-41.36-15.77c-.86-.78-.08-1.83.95-1.22a83.39,83.39,0,0,0,41.38,11,82.52,82.52,0,0,0,31.56-6.45C134,111.85,135.29,113.54,133.79,114.66Z" style="fill: #f90;fill-rule: evenodd"/>
      <path d="M137.6,110.32c-1.17-1.5-7.73-.73-10.71-.36-.89.11-1-.67-.22-1.26,5.23-3.67,13.82-2.61,14.82-1.39s-.28,9.85-5.17,14c-.75.64-1.48.31-1.14-.52C136.29,118,138.76,111.79,137.6,110.32Z" style="fill: #f90;fill-rule: evenodd"/>
    </g>
  </g>
</svg>
