<svg xmlns="http://www.w3.org/2000/svg" width="576" height="288" viewBox="0 0 576 288"><defs><style>.cls-1{fill:#bfdeff;}.cls-2{fill:none;stroke:#80bfff;stroke-miterlimit:10;stroke-width:0.5px;}.cls-3{fill:#fff;}.cls-4{fill:#0080ff;}.cls-5{fill:#0054a8;}</style></defs><title>consulting-partners</title><g id="Layer_2" data-name="Layer 2"><g id="icons"><path class="cls-1" d="M.57,0H576a0,0,0,0,1,0,0V288a0,0,0,0,1,0,0H.57a.57.57,0,0,1-.57-.57V.57A.57.57,0,0,1,.57,0Z"/><polyline class="cls-2" points="72 288 72 216 0 216"/><polyline class="cls-2" points="0 216 72 216 72 144 0 144"/><polyline class="cls-2" points="0 144 72 144 72 72 0 72"/><polyline class="cls-2" points="0 72 72 72 72 0"/><polyline class="cls-2" points="144 288 144 216 72 216 72 288"/><rect class="cls-2" x="72" y="144" width="72" height="72"/><rect class="cls-2" x="72" y="72" width="72" height="72"/><polyline class="cls-2" points="72 0 72 72 144 72 144 0"/><polyline class="cls-2" points="216 288 216 216 144 216 144 288"/><rect class="cls-2" x="144" y="144" width="72" height="72"/><rect class="cls-2" x="144" y="72" width="72" height="72"/><polyline class="cls-2" points="144 0 144 72 216 72 216 0"/><polyline class="cls-2" points="216 288 216 216 288 216 288 288"/><rect class="cls-2" x="216" y="144" width="72" height="72"/><rect class="cls-2" x="216" y="72" width="72" height="72"/><polyline class="cls-2" points="216 0 216 72 288 72 288 0"/><polyline class="cls-2" points="360 288 360 216 288 216 288 288"/><rect class="cls-2" x="288" y="144" width="72" height="72"/><rect class="cls-2" x="288" y="72" width="72" height="72"/><polyline class="cls-2" points="288 0 288 72 360 72 360 0"/><polyline class="cls-2" points="432 288 432 216 360 216 360 288"/><rect class="cls-2" x="360" y="144" width="72" height="72"/><rect class="cls-2" x="360" y="72" width="72" height="72"/><polyline class="cls-2" points="360 0 360 72 432 72 432 0"/><polyline class="cls-2" points="504 288 504 216 432 216 432 288"/><rect class="cls-2" x="432" y="144" width="72" height="72"/><rect class="cls-2" x="432" y="72" width="72" height="72"/><polyline class="cls-2" points="432 0 432 72 504 72 504 0"/><polyline class="cls-2" points="576 216 504 216 504 288"/><polyline class="cls-2" points="576 144 504 144 504 216 576 216"/><polyline class="cls-2" points="576 72 504 72 504 144 576 144"/><polyline class="cls-2" points="504 0 504 72 576 72"/><path class="cls-3" d="M192,168h42a6,6,0,0,1,6,6v36a6,6,0,0,1-6,6H192a0,0,0,0,1,0,0V168A0,0,0,0,1,192,168Z" transform="translate(24 408) rotate(-90)"/><path class="cls-4" d="M270,120h36a6,6,0,0,1,6,6v90a0,0,0,0,1,0,0H264a0,0,0,0,1,0,0V126A6,6,0,0,1,270,120Z"/><path class="cls-5" d="M342,72h36a6,6,0,0,1,6,6V216a0,0,0,0,1,0,0H336a0,0,0,0,1,0,0V78A6,6,0,0,1,342,72Z"/></g></g></svg>