<svg xmlns="http://www.w3.org/2000/svg" width="576" height="288" viewBox="0 0 576 288"><defs><style>.cls-1{fill:#bfdeff;}.cls-2{fill:none;stroke:#80bfff;stroke-miterlimit:10;stroke-width:0.5px;}.cls-3{fill:#0080ff;}.cls-4{fill:#0054a8;}.cls-5{fill:#80bfff;}.cls-6{fill:#fff;}</style></defs><title>technology-partners</title><g id="Layer_2" data-name="Layer 2"><g id="icons"><path class="cls-1" d="M.57,0H576a0,0,0,0,1,0,0V288a0,0,0,0,1,0,0H.57a.57.57,0,0,1-.57-.57V.57A.57.57,0,0,1,.57,0Z"/><polyline class="cls-2" points="72 288 72 216 0 216"/><polyline class="cls-2" points="0 216 72 216 72 144 0 144"/><polyline class="cls-2" points="0 144 72 144 72 72 0 72"/><polyline class="cls-2" points="0 72 72 72 72 0"/><polyline class="cls-2" points="144 288 144 216 72 216 72 288"/><rect class="cls-2" x="72" y="144" width="72" height="72"/><rect class="cls-2" x="72" y="72" width="72" height="72"/><polyline class="cls-2" points="72 0 72 72 144 72 144 0"/><polyline class="cls-2" points="216 288 216 216 144 216 144 288"/><rect class="cls-2" x="144" y="144" width="72" height="72"/><rect class="cls-2" x="144" y="72" width="72" height="72"/><polyline class="cls-2" points="144 0 144 72 216 72 216 0"/><polyline class="cls-2" points="216 288 216 216 288 216 288 288"/><rect class="cls-2" x="216" y="144" width="72" height="72"/><rect class="cls-2" x="216" y="72" width="72" height="72"/><polyline class="cls-2" points="216 0 216 72 288 72 288 0"/><polyline class="cls-2" points="360 288 360 216 288 216 288 288"/><rect class="cls-2" x="288" y="144" width="72" height="72"/><rect class="cls-2" x="288" y="72" width="72" height="72"/><polyline class="cls-2" points="288 0 288 72 360 72 360 0"/><polyline class="cls-2" points="432 288 432 216 360 216 360 288"/><rect class="cls-2" x="360" y="144" width="72" height="72"/><rect class="cls-2" x="360" y="72" width="72" height="72"/><polyline class="cls-2" points="360 0 360 72 432 72 432 0"/><polyline class="cls-2" points="504 288 504 216 432 216 432 288"/><rect class="cls-2" x="432" y="144" width="72" height="72"/><rect class="cls-2" x="432" y="72" width="72" height="72"/><polyline class="cls-2" points="432 0 432 72 504 72 504 0"/><polyline class="cls-2" points="576 216 504 216 504 288"/><polyline class="cls-2" points="576 144 504 144 504 216 576 216"/><polyline class="cls-2" points="576 72 504 72 504 144 576 144"/><polyline class="cls-2" points="504 0 504 72 576 72"/><path class="cls-3" d="M384,90V198a6,6,0,0,1-6,6H354a6,6,0,0,1-6-6V186H228v12a6,6,0,0,1-6,6H198a6,6,0,0,1-6-6V90a6,6,0,0,1,6-6h24a6,6,0,0,1,6,6v12H348V90a6,6,0,0,1,6-6h24A6,6,0,0,1,384,90Z"/><rect class="cls-4" x="228" y="102" width="6" height="84"/><rect class="cls-4" x="342" y="102" width="6" height="84"/><path class="cls-5" d="M306.28,147.18l3.86,2.22a1.09,1.09,0,0,1,.49,1.27,22.35,22.35,0,0,1-4.95,8.55,1.08,1.08,0,0,1-1.34.21l-3.85-2.23a17.31,17.31,0,0,1-5.5,3.18v4.45a1.08,1.08,0,0,1-.85,1.06,22.56,22.56,0,0,1-9.88,0,1.09,1.09,0,0,1-.85-1.06v-4.45a17.42,17.42,0,0,1-5.5-3.18l-3.85,2.23a1.08,1.08,0,0,1-1.34-.21,22.35,22.35,0,0,1-5-8.55,1.09,1.09,0,0,1,.5-1.27l3.85-2.22a17.88,17.88,0,0,1,0-6.36l-3.85-2.22a1.09,1.09,0,0,1-.5-1.27,22.35,22.35,0,0,1,5-8.55,1.08,1.08,0,0,1,1.34-.21l3.85,2.23a17.42,17.42,0,0,1,5.5-3.18v-4.45a1.08,1.08,0,0,1,.85-1.06,22.56,22.56,0,0,1,9.88,0,1.08,1.08,0,0,1,.85,1.06v4.45a17.31,17.31,0,0,1,5.5,3.18l3.85-2.23a1.08,1.08,0,0,1,1.34.21,22.35,22.35,0,0,1,4.95,8.55,1.09,1.09,0,0,1-.49,1.27l-3.86,2.22a17.43,17.43,0,0,1,0,6.36ZM296.44,144a7.24,7.24,0,1,0-7.24,7.24A7.25,7.25,0,0,0,296.44,144Z"/><rect class="cls-6" x="282" y="78" width="12" height="18"/><path class="cls-4" d="M264,90h48a6,6,0,0,1,6,6v6a0,0,0,0,1,0,0H258a0,0,0,0,1,0,0V96A6,6,0,0,1,264,90Z"/><rect class="cls-5" x="282" y="78" width="12" height="6"/><rect class="cls-3" x="270" y="66" width="36" height="12" rx="3"/></g></g></svg>