<svg width="288" height="288" viewBox="0 0 288 288" fill="none" xmlns="http://www.w3.org/2000/svg">
<path d="M144 288C223.529 288 288 223.529 288 144C288 64.471 223.529 0 144 0C64.471 0 0 64.471 0 144C0 223.529 64.471 288 144 288Z" fill="#F7B068"/>
<path d="M234 216H54C50.69 216 48 213.31 48 210V204H240V210C240 213.31 237.31 216 234 216Z" fill="#007FFF"/>
<path d="M222 84H66C62.69 84 60 86.69 60 90V204H228V90C228 86.69 225.31 84 222 84Z" fill="#0A47B6"/>
<path d="M216 96H72V192H216V96Z" fill="white"/>
<path d="M216 96H72V108H216V96Z" fill="#007FFF"/>
<path d="M90 174H78V186H90V174Z" fill="#BFDFFF"/>
<path d="M126 162H114V186H126V162Z" fill="#BFDFFF"/>
<path d="M162 150H150V186H162V150Z" fill="#BFDFFF"/>
<path d="M198 138H186V186H198V138Z" fill="#BFDFFF"/>
<path d="M102 162H90V186H102V162Z" fill="#007FFF"/>
<path d="M138 150H126V186H138V150Z" fill="#007FFF"/>
<path d="M174 144H162V186H174V144Z" fill="#007FFF"/>
<path d="M210 126H198V186H210V126Z" fill="#007FFF"/>
<path d="M234 108H222V186H234V108Z" fill="#007FFF"/>
<path d="M246 102H234V186H246V102Z" fill="#68AFF7"/>
<path d="M222 120H210V186H222V120Z" fill="#68AFF7"/>
<path d="M114 168H102V186H114V168Z" fill="#68AFF7"/>
<path d="M150 156H138V186H150V156Z" fill="#68AFF7"/>
<path d="M186 150H174V186H186V150Z" fill="#68AFF7"/>
<path d="M78 186C126 186 204 168 246 102" stroke="#0A47B6" stroke-miterlimit="10"/>
<path d="M77.5 189C78.8807 189 80 187.881 80 186.5C80 185.119 78.8807 184 77.5 184C76.1193 184 75 185.119 75 186.5C75 187.881 76.1193 189 77.5 189Z" fill="white" stroke="#007FFF" stroke-miterlimit="10"/>
<path d="M246 104.5C247.381 104.5 248.5 103.381 248.5 102C248.5 100.619 247.381 99.5 246 99.5C244.619 99.5 243.5 100.619 243.5 102C243.5 103.381 244.619 104.5 246 104.5Z" fill="white" stroke="#007FFF" stroke-miterlimit="10"/>
</svg>
